<svg width="12" height="12" viewBox="0 0 12 12" fill="none" xmlns="http://www.w3.org/2000/svg">
<g clip-path="url(#clip0_5056_9271)">
<path d="M12 11.0625C12 11.5803 11.5803 12 11.0625 12H0.9375C0.419719 12 0 11.5803 0 11.0625V0.9375C0 0.419719 0.419719 0 0.9375 0H11.0625C11.5803 0 12 0.419719 12 0.9375V11.0625Z" fill="#E9E9E9"/>
<path d="M6 1.6875C3.30759 1.6875 1.125 3.40842 1.125 5.53125C1.125 6.9037 2.03747 8.10797 3.41006 8.78799C3.33539 9.04552 2.9302 10.4447 2.91408 10.5547C2.91408 10.5547 2.90438 10.6373 2.95786 10.6688C3.01134 10.7003 3.07425 10.6758 3.07425 10.6758C3.22762 10.6544 4.85283 9.51277 5.13412 9.31453C5.41514 9.35433 5.7045 9.375 6 9.375C8.69241 9.375 10.875 7.65413 10.875 5.53125C10.875 3.40842 8.69241 1.6875 6 1.6875Z" fill="#999999"/>
</g>
<defs>
<clipPath id="clip0_5056_9271">
<rect width="12" height="12" fill="white"/>
</clipPath>
</defs>
</svg>
