<svg width="12" height="13" viewBox="0 0 12 13" fill="none" xmlns="http://www.w3.org/2000/svg">
<g clip-path="url(#clip0_3088_905)">
<path d="M12 11.5625C12 12.0803 11.5803 12.5 11.0625 12.5H0.9375C0.419719 12.5 0 12.0803 0 11.5625V1.4375C0 0.919719 0.419719 0.5 0.9375 0.5H11.0625C11.5803 0.5 12 0.919719 12 1.4375V11.5625Z" fill="#BBBBBB"/>
<path d="M6 2.1875C3.30759 2.1875 1.125 3.90842 1.125 6.03125C1.125 7.4037 2.03747 8.60797 3.41006 9.28799C3.33539 9.54552 2.9302 10.9447 2.91408 11.0547C2.91408 11.0547 2.90438 11.1373 2.95786 11.1688C3.01134 11.2003 3.07425 11.1758 3.07425 11.1758C3.22762 11.1544 4.85283 10.0128 5.13412 9.81453C5.41514 9.85433 5.7045 9.875 6 9.875C8.69241 9.875 10.875 8.15413 10.875 6.03125C10.875 3.90842 8.69241 2.1875 6 2.1875Z" fill="#2D2D2D"/>
</g>
<defs>
<clipPath id="clip0_3088_905">
<rect width="12" height="12" fill="white" transform="translate(0 0.5)"/>
</clipPath>
</defs>
</svg>
