<svg width="32" height="32" viewBox="0 0 32 32" fill="none" xmlns="http://www.w3.org/2000/svg">
<path d="M16 32C24.8366 32 32 24.8366 32 16C32 7.16344 24.8366 0 16 0C7.16344 0 0 7.16344 0 16C0 24.8366 7.16344 32 16 32Z" fill="#EA5220"/>
<path d="M9.07734 13.3466C10.6002 13.3466 11.8347 12.1121 11.8347 10.5893C11.8347 9.06647 10.6002 7.83197 9.07734 7.83197C7.55451 7.83197 6.32001 9.06647 6.32001 10.5893C6.32001 12.1121 7.55451 13.3466 9.07734 13.3466Z" fill="white"/>
<path d="M16 13.3466C17.5228 13.3466 18.7573 12.1121 18.7573 10.5893C18.7573 9.06647 17.5228 7.83197 16 7.83197C14.4772 7.83197 13.2427 9.06647 13.2427 10.5893C13.2427 12.1121 14.4772 13.3466 16 13.3466Z" fill="white"/>
<path d="M16 20.2693C17.5228 20.2693 18.7573 19.0348 18.7573 17.512C18.7573 15.9891 17.5228 14.7546 16 14.7546C14.4772 14.7546 13.2427 15.9891 13.2427 17.512C13.2427 19.0348 14.4772 20.2693 16 20.2693Z" fill="white"/>
<path d="M16 27.192C17.5228 27.192 18.7573 25.9575 18.7573 24.4346C18.7573 22.9118 17.5228 21.6773 16 21.6773C14.4772 21.6773 13.2427 22.9118 13.2427 24.4346C13.2427 25.9575 14.4772 27.192 16 27.192Z" fill="white"/>
<path d="M22.9227 13.3466C24.4455 13.3466 25.68 12.1121 25.68 10.5893C25.68 9.06647 24.4455 7.83197 22.9227 7.83197C21.3998 7.83197 20.1653 9.06647 20.1653 10.5893C20.1653 12.1121 21.3998 13.3466 22.9227 13.3466Z" fill="white"/>
</svg>
