<svg width="32" height="23" viewBox="0 0 32 23" fill="none" xmlns="http://www.w3.org/2000/svg">
<g clip-path="url(#clip0_2865_41680)">
<path d="M31.3303 3.45976C30.9615 2.09891 29.8778 1.02537 28.5019 0.662362C26.0057 0 16 0 16 0C16 0 5.99261 0 3.49815 0.662362C2.12046 1.02537 1.03675 2.09719 0.667971 3.45976C0 5.92685 0 11.0778 0 11.0778C0 11.0778 0 16.227 0.667971 18.6958C1.03675 20.0584 2.12046 21.1302 3.49815 21.4932C5.99435 22.1538 16 22.1538 16 22.1538C16 22.1538 26.0057 22.1538 28.5019 21.4932C29.8778 21.1285 30.9633 20.0567 31.3303 18.6958C31.9983 16.227 31.9983 11.0778 31.9983 11.0778C31.9983 11.0778 31.9983 5.92857 31.3303 3.45976Z" fill="#ED2224"/>
<path d="M12.7993 15.8244L21.1142 11.0778L12.7993 6.32941V15.8244Z" fill="white"/>
</g>
<defs>
<clipPath id="clip0_2865_41680">
<rect width="32" height="22.1538" fill="white"/>
</clipPath>
</defs>
</svg>
