<svg width="88" height="80" viewBox="0 0 88 80" fill="none" xmlns="http://www.w3.org/2000/svg">
<g clip-path="url(#clip0_1967_30606)">
<path d="M84.3334 62.963V55.0815C84.3334 45.9334 76.9927 38.5186 67.936 38.5186H5.8667V62.963H8.80003V66.6667H5.8667V70.4371C5.8667 70.8074 6.16737 71.1111 6.53403 71.1111H84.3334V66.6667H80.6667V62.963H84.3334Z" fill="#E9E9E9"/>
<path d="M35.9336 40.7407H8.06689V58.5185H35.9336V40.7407Z" fill="white"/>
<path d="M83.4096 58.5185H75.7976C72.0063 58.5185 68.9336 55.4148 68.9336 51.5852V41.6741C68.9336 41.1629 69.3443 40.7407 69.8576 40.7407H78.7896C79.9336 40.7407 84.3336 46.7926 84.3336 51.5259V57.5852C84.3336 58.0963 83.9229 58.5185 83.4096 58.5185V58.5185Z" fill="white"/>
<path d="M64.5332 40.7407H47.6665V58.5185H64.5332V40.7407Z" fill="white"/>
<path d="M15.0332 78.5183C18.0708 78.5183 20.5332 76.031 20.5332 72.9628C20.5332 69.8945 18.0708 67.4072 15.0332 67.4072C11.9956 67.4072 9.5332 69.8945 9.5332 72.9628C9.5332 76.031 11.9956 78.5183 15.0332 78.5183Z" fill="white"/>
<path d="M72.9668 78.5183C76.0044 78.5183 78.4668 76.031 78.4668 72.9628C78.4668 69.8945 76.0044 67.4072 72.9668 67.4072C69.9292 67.4072 67.4668 69.8945 67.4668 72.9628C67.4668 76.031 69.9292 78.5183 72.9668 78.5183Z" fill="white"/>
<path d="M1.1001 78.8887H86.9001" stroke="#999999" stroke-width="2" stroke-linecap="round" stroke-linejoin="round"/>
<path d="M67.0999 71.4814H20.8999" stroke="#999999" stroke-width="2" stroke-linecap="round" stroke-linejoin="round"/>
<path d="M9.16696 71.4813H5.77896C4.40763 71.4813 3.30029 70.3628 3.30029 68.9776V38.4295C3.30029 37.0443 4.40763 35.9258 5.77896 35.9258H67.6063C77.0443 35.9258 84.7003 43.6591 84.7003 53.1924V68.9776C84.7003 70.3628 83.593 71.4813 82.2216 71.4813H78.8336" stroke="#999999" stroke-width="2" stroke-linecap="round" stroke-linejoin="round"/>
<path d="M15.0337 78.889C18.2737 78.889 20.9003 76.2358 20.9003 72.963C20.9003 69.6902 18.2737 67.0371 15.0337 67.0371C11.7936 67.0371 9.16699 69.6902 9.16699 72.963C9.16699 76.2358 11.7936 78.889 15.0337 78.889Z" stroke="#999999" stroke-width="2" stroke-linecap="round" stroke-linejoin="round"/>
<path d="M72.9668 78.889C76.2068 78.889 78.8334 76.2358 78.8334 72.963C78.8334 69.6902 76.2068 67.0371 72.9668 67.0371C69.7267 67.0371 67.1001 69.6902 67.1001 72.963C67.1001 76.2358 69.7267 78.889 72.9668 78.889Z" stroke="#999999" stroke-width="2" stroke-linecap="round" stroke-linejoin="round"/>
<path d="M84.3336 58.5185H75.7609C71.9916 58.5185 68.9336 55.4296 68.9336 51.6222V42.7629C68.9336 41.6444 69.8283 40.7407 70.9356 40.7407H78.4669" stroke="#999999" stroke-width="2" stroke-linecap="round" stroke-linejoin="round"/>
<path d="M48.4002 58.5185H64.5336V40.7407H8.06689V58.5185H35.9336" stroke="#999999" stroke-width="2" stroke-linecap="round" stroke-linejoin="round"/>
<path d="M47.667 41.4814V70.3703" stroke="#999999" stroke-width="2" stroke-linecap="round" stroke-linejoin="round"/>
<path d="M41.8003 41.4814V70.3703" stroke="#999999" stroke-width="2" stroke-linecap="round" stroke-linejoin="round"/>
<path d="M35.9336 70.3703V41.4814" stroke="#999999" stroke-width="2" stroke-linecap="round" stroke-linejoin="round"/>
<path d="M8.80029 48.1479H35.2003" stroke="#999999" stroke-width="2" stroke-linecap="round" stroke-linejoin="round"/>
<path d="M48.3999 48.1479H63.7999" stroke="#999999" stroke-width="2" stroke-linecap="round" stroke-linejoin="round"/>
<path d="M72.9666 74.815C73.9792 74.815 74.8 73.9859 74.8 72.9632C74.8 71.9404 73.9792 71.1113 72.9666 71.1113C71.9541 71.1113 71.1333 71.9404 71.1333 72.9632C71.1333 73.9859 71.9541 74.815 72.9666 74.815Z" fill="#999999"/>
<path d="M15.0335 74.815C16.0461 74.815 16.8669 73.9859 16.8669 72.9632C16.8669 71.9404 16.0461 71.1113 15.0335 71.1113C14.021 71.1113 13.2002 71.9404 13.2002 72.9632C13.2002 73.9859 14.021 74.815 15.0335 74.815Z" fill="#999999"/>
<path d="M53.9076 0.740723H28.2263C26.4076 0.740723 24.9336 2.22961 24.9336 4.06665V21.1185C24.9336 22.9555 26.4076 24.4444 28.2263 24.4444H36.9089L41.0596 31.7333L45.2103 24.4444H53.8929C55.7116 24.4444 57.1856 22.9555 57.1856 21.1185V4.06665C57.1856 2.22961 55.7116 0.740723 53.8929 0.740723H53.9076Z" stroke="#999999" stroke-width="2" stroke-linecap="round" stroke-linejoin="round"/>
</g>
<path d="M35 9L43 17" stroke="#6C9EFF" stroke-width="3" stroke-linecap="round" stroke-linejoin="round"/>
<path d="M43 9L35 17" stroke="#6C9EFF" stroke-width="3" stroke-linecap="round" stroke-linejoin="round"/>
<defs>
<clipPath id="clip0_1967_30606">
<rect width="88" height="80" fill="white"/>
</clipPath>
</defs>
</svg>
