<svg width="88" height="80" viewBox="0 0 88 80" fill="none" xmlns="http://www.w3.org/2000/svg">
<path d="M33.908 24.5547H23.4126V37.228H33.908V24.5547Z" fill="#E9E9E9"/>
<path d="M62.165 9.50509V3.16846H67.8164V11.8813" stroke="#999999" stroke-width="2" stroke-linecap="round" stroke-linejoin="round"/>
<path d="M31.4861 57.0298H19.376V78.4159H31.4861V57.0298Z" fill="#E9E9E9"/>
<path d="M71.8531 26.9307H49.2476V41.9802H71.8531V26.9307Z" fill="#E9E9E9"/>
<path d="M71.0459 59.4062H48.4404V74.4558H71.0459V59.4062Z" fill="#E9E9E9"/>
<path d="M46.8257 67.3267H68.6238" stroke="white" stroke-width="2" stroke-linecap="round" stroke-linejoin="round"/>
<path d="M46.8257 33.2671H68.6238" stroke="white" stroke-width="2" stroke-linecap="round" stroke-linejoin="round"/>
<path d="M1.21094 78.8115H86.7889" stroke="#999999" stroke-width="2" stroke-linecap="round" stroke-linejoin="round"/>
<path d="M75.4863 78.0195V50.2967H77.9083V39.2076H75.4863V16.2373" stroke="#999999" stroke-width="2" stroke-linecap="round" stroke-linejoin="round"/>
<path d="M11.7062 16.2373V39.2076H9.28418V50.2967H11.7062V78.0195" stroke="#999999" stroke-width="2" stroke-linecap="round" stroke-linejoin="round"/>
<path d="M79.5226 17.0296L41.5777 1.18799L7.66943 17.0296" stroke="#999999" stroke-width="2" stroke-linecap="round" stroke-linejoin="round"/>
<path d="M56.8126 7.63574L34.312 17.0298" stroke="#999999" stroke-width="2" stroke-linecap="round" stroke-linejoin="round"/>
<path d="M39.5596 15.8413V38.8116" stroke="#999999" stroke-width="2" stroke-linecap="round" stroke-linejoin="round"/>
<path d="M39.5596 50.6929V78.4156" stroke="#999999" stroke-width="2" stroke-linecap="round" stroke-linejoin="round"/>
<path d="M46.0181 38.8117V23.7622H68.6236V38.8117" stroke="#999999" stroke-width="2" stroke-linecap="round" stroke-linejoin="round"/>
<path d="M9.68799 43.5645H77.5045" stroke="#999999" stroke-width="2" stroke-linecap="round" stroke-linejoin="round"/>
<path d="M9.68799 49.9009H77.5045" stroke="#999999" stroke-width="2" stroke-linecap="round" stroke-linejoin="round"/>
<path d="M9.68799 39.604H77.5045" stroke="#999999" stroke-width="2" stroke-linecap="round" stroke-linejoin="round"/>
<path d="M31.4861 57.0298H19.376V78.4159H31.4861V57.0298Z" stroke="#999999" stroke-width="2" stroke-linecap="round" stroke-linejoin="round"/>
<path d="M23.4126 65.7427V68.1189" stroke="#999999" stroke-width="2" stroke-linecap="round" stroke-linejoin="round"/>
<path d="M30.679 21.3862H20.1836V34.0595H30.679V21.3862Z" stroke="#999999" stroke-width="2" stroke-linecap="round" stroke-linejoin="round"/>
<path d="M61.3575 72.0789H46.0181V56.2373H61.3575" stroke="#999999" stroke-width="2" stroke-linecap="round" stroke-linejoin="round"/>
<path d="M59.7432 56.2373H68.6239V72.0789H59.7432" stroke="#999999" stroke-width="2" stroke-linecap="round" stroke-linejoin="round"/>
</svg>
