<svg width="86" height="72" viewBox="0 0 86 72" fill="none" xmlns="http://www.w3.org/2000/svg">
<g clip-path="url(#clip0_1354_22520)">
<path d="M72.9701 57.0253H60.7491V36.8749C70.2993 36.175 77.8603 28.1903 77.8603 18.4651C77.8603 8.73983 69.5718 0 59.3953 0C49.2187 0 40.9302 8.28856 40.9302 18.4651C40.9302 28.6416 48.4912 36.175 58.0415 36.8749V57.0253H45.8204C45.0745 57.0253 44.4666 57.6331 44.4666 58.3791C44.4666 59.1251 45.0745 59.7329 45.8204 59.7329H58.0415V70.6278C58.0415 71.3737 58.6493 71.9816 59.3953 71.9816C60.1412 71.9816 60.7491 71.3737 60.7491 70.6278V59.7329H72.9701C73.7161 59.7329 74.3239 59.1251 74.3239 58.3791C74.3239 57.6331 73.7161 57.0253 72.9701 57.0253ZM43.6378 18.4651C43.6378 9.7805 50.7015 2.71681 59.386 2.71681C68.0706 2.71681 75.1343 9.7805 75.1343 18.4651C75.1343 27.1497 68.0706 34.2134 59.386 34.2134C50.7015 34.2134 43.6378 27.1497 43.6378 18.4651Z" fill="#999999"/>
<path d="M19.8281 35.125V4.63225L31.0913 15.8955C31.3584 16.1626 31.7084 16.2915 32.0491 16.2915C32.3899 16.2915 32.7398 16.1626 33.0069 15.8955C33.5411 15.3613 33.5411 14.5049 33.0069 13.9799L19.4321 0.395874C19.3676 0.331407 19.3031 0.27615 19.2203 0.220893C19.1926 0.202474 19.1558 0.184055 19.119 0.165636C19.0729 0.138007 19.0361 0.110379 18.99 0.0919595C18.944 0.0735405 18.8979 0.064331 18.8519 0.0459119C18.815 0.0367024 18.7782 0.0182834 18.7322 0.00907386C18.5572 -0.0277642 18.373 -0.0277642 18.198 0.00907386C18.1612 0.00907386 18.1243 0.0367024 18.0783 0.0459119C18.0322 0.0551214 17.9862 0.0735405 17.9401 0.0919595C17.8941 0.110379 17.848 0.138007 17.8112 0.165636C17.7744 0.184055 17.7467 0.202474 17.7099 0.220893C17.6362 0.26694 17.5625 0.331407 17.4981 0.395874L3.93246 13.9799C3.39831 14.5141 3.39831 15.3705 3.93246 15.8955C4.19954 16.1626 4.5495 16.2915 4.89025 16.2915C5.23101 16.2915 5.58097 16.1626 5.84804 15.8955L17.1113 4.63225V35.125C7.56101 35.8249 0 43.8095 0 53.5348C0 63.26 8.28856 71.9999 18.4651 71.9999C28.6416 71.9999 36.9302 63.7113 36.9302 53.5348C36.9302 43.3583 29.3691 35.8249 19.8189 35.125H19.8281ZM18.4743 69.2831C9.78972 69.2831 2.72602 62.2194 2.72602 53.5348C2.72602 44.8502 9.78972 37.7865 18.4743 37.7865C27.1589 37.7865 34.2226 44.8502 34.2226 53.5348C34.2226 62.2194 27.1589 69.2831 18.4743 69.2831Z" fill="#999999"/>
</g>
<defs>
<clipPath id="clip0_1354_22520">
<rect width="85.8143" height="72" fill="white"/>
</clipPath>
</defs>
</svg>
