<svg width="80" height="80" viewBox="0 0 80 80" fill="none" xmlns="http://www.w3.org/2000/svg">
<circle cx="40" cy="40" r="40" fill="#EFF5FC"/>
<path d="M47.4545 44.3333H50.6364V47.5556H47.4545V44.3333Z" fill="#317FDA"/>
<path d="M50.6364 37.8889H47.4545V41.1111H50.6364V37.8889Z" fill="#317FDA"/>
<path fill-rule="evenodd" clip-rule="evenodd" d="M41.0909 31.4444H57V54H22V25H41.0909V31.4444ZM33.1364 28.2222H37.9091V31.4444H33.1364V28.2222ZM37.9091 50.7778V47.5556H33.1364V50.7778H37.9091ZM37.9091 44.3333V41.1111H33.1364V44.3333H37.9091ZM37.9091 37.8889V34.6667H33.1364V37.8889H37.9091ZM53.8182 50.7778V34.6667H41.0909V37.8889H44.2727V41.1111H41.0909V44.3333H44.2727V47.5556H41.0909V50.7778H53.8182ZM25.1818 50.7778V47.5556H29.9545V50.7778H25.1818ZM25.1818 44.3333H29.9545V41.1111H25.1818V44.3333ZM29.9545 37.8889V34.6667H25.1818V37.8889H29.9545ZM25.1818 31.4444H29.9545V28.2222H25.1818V31.4444Z" fill="#317FDA"/>
</svg>
