<svg width="80" height="80" viewBox="0 0 80 80" fill="none" xmlns="http://www.w3.org/2000/svg">
<circle cx="40" cy="40" r="40" fill="#EFF5FC"/>
<path fill-rule="evenodd" clip-rule="evenodd" d="M53.2273 29.2941H45.2727C43.5155 29.2941 42.0909 30.7689 42.0909 32.5882V47.4118C42.0909 48.3214 42.8032 49.0588 43.6818 49.0588H53.2273C54.1059 49.0588 54.8182 48.3214 54.8182 47.4118V30.9412C54.8182 30.0315 54.1059 29.2941 53.2273 29.2941ZM37.3182 52.3529C37.876 52.3529 38.4115 52.2539 38.9091 52.0718V52.3529C38.9091 53.2626 39.6214 54 40.5 54C41.3786 54 42.0909 53.2626 42.0909 52.3529V52.0718C42.5885 52.2539 43.124 52.3529 43.6818 52.3529H53.2273C55.8632 52.3529 58 50.1407 58 47.4118V30.9412C58 28.2122 55.8632 26 53.2273 26H45.2727C43.3721 26 41.666 26.8627 40.5 28.2304C39.334 26.8627 37.6279 26 35.7273 26H27.7727C25.1368 26 23 28.2122 23 30.9412V47.4118C23 50.1407 25.1368 52.3529 27.7727 52.3529H37.3182ZM38.9091 32.5882V47.4118C38.9091 48.3214 38.1968 49.0588 37.3182 49.0588H27.7727C26.8941 49.0588 26.1818 48.3214 26.1818 47.4118V30.9412C26.1818 30.0315 26.8941 29.2941 27.7727 29.2941H35.7273C37.4845 29.2941 38.9091 30.7689 38.9091 32.5882ZM51.6364 32.5882H45.2727V35.8824H51.6364V32.5882ZM35.7273 32.5882H29.3636V35.8824H35.7273V32.5882ZM29.3636 37.5294H35.7273V40.8235H29.3636V37.5294ZM51.6364 37.5294H45.2727V40.8235H51.6364V37.5294ZM29.3636 42.4706H35.7273V45.7647H29.3636V42.4706ZM51.6364 42.4706H45.2727V45.7647H51.6364V42.4706Z" fill="#317FDA"/>
</svg>
