<svg width="80" height="80" viewBox="0 0 80 80" fill="none" xmlns="http://www.w3.org/2000/svg">
<circle cx="40" cy="40" r="40" fill="#EFF5FC"/>
<path fill-rule="evenodd" clip-rule="evenodd" d="M48.3063 25.4059C46.4425 23.5314 43.4206 23.5314 41.5567 25.4059L39.3068 27.6686C39.2109 27.7651 39.1199 27.8646 39.0339 27.9669C38.9479 27.8646 38.857 27.7651 38.7611 27.6687L36.5112 25.4059C34.6473 23.5314 31.6254 23.5314 29.7615 25.4059C27.8977 27.2805 27.8977 30.3197 29.7615 32.1942L31.1594 33.6H22V43.2H25.1818V56H53.8182V43.2H57V33.6H46.9084L48.3063 32.1941C50.1702 30.3196 50.1702 27.2804 48.3063 25.4059ZM43.8066 32.1941L46.0565 29.9314C46.6778 29.3065 46.6778 28.2935 46.0565 27.6686C45.4352 27.0438 44.4279 27.0438 43.8066 27.6686L41.5567 29.9314C40.9354 30.5562 40.9354 31.5693 41.5567 32.1941C42.178 32.819 43.1853 32.819 43.8066 32.1941ZM36.5112 29.9314L34.2613 27.6687C33.64 27.0438 32.6327 27.0438 32.0114 27.6687C31.3901 28.2935 31.3901 29.3066 32.0114 29.9314L34.2613 32.1942C34.8826 32.819 35.8899 32.819 36.5112 32.1942C37.1325 31.5693 37.1325 30.5563 36.5112 29.9314ZM53.8182 36.8V40H25.1818V36.8H53.8182ZM40.9585 43.2H50.6364V52.8H40.9585V43.2ZM38.0418 43.2V52.8H28.3636V43.2H38.0418Z" fill="#317FDA"/>
</svg>
