<svg width="80" height="80" viewBox="0 0 80 80" fill="none" xmlns="http://www.w3.org/2000/svg">
<circle cx="40" cy="40" r="40" fill="#EFF5FC"/>
<path d="M36 39.5C36 40.4665 35.2165 41.25 34.25 41.25C33.2835 41.25 32.5 40.4665 32.5 39.5C32.5 38.5335 33.2835 37.75 34.25 37.75C35.2165 37.75 36 38.5335 36 39.5Z" fill="#317FDA"/>
<path d="M44.75 41.25C45.7165 41.25 46.5 40.4665 46.5 39.5C46.5 38.5335 45.7165 37.75 44.75 37.75C43.7835 37.75 43 38.5335 43 39.5C43 40.4665 43.7835 41.25 44.75 41.25Z" fill="#317FDA"/>
<path fill-rule="evenodd" clip-rule="evenodd" d="M39.5427 22.0001L39.5 22C29.835 22 22 29.835 22 39.5C22 49.165 29.835 57 39.5 57C49.165 57 57 49.165 57 39.5C57 30.2991 49.8994 22.7567 40.8789 22.0535L40.88 22.0494C40.4326 22.0156 39.9865 21.9993 39.5427 22.0001ZM39.5 53.5C47.232 53.5 53.5 47.232 53.5 39.5C53.5 38.2774 53.3433 37.0914 53.0489 35.9611C46.7795 36.4047 40.7878 33.4181 37.3309 28.3043C34.7981 30.888 31.2719 32.4942 27.3704 32.5044C26.1808 34.5626 25.5 36.9518 25.5 39.5C25.5 47.232 31.768 53.5 39.5 53.5ZM39.4623 25.5L39.5414 25.5001L39.5 25.5L39.4623 25.5Z" fill="#317FDA"/>
</svg>
