<svg width="80" height="80" viewBox="0 0 80 80" fill="none" xmlns="http://www.w3.org/2000/svg">
<circle cx="40" cy="40" r="40" fill="#EFF5FC"/>
<path d="M51.6364 45.9444C51.6364 45.0547 50.9241 44.3333 50.0455 44.3333H37.3182C36.4395 44.3333 35.7273 45.0547 35.7273 45.9444C35.7273 46.8342 36.4395 47.5556 37.3182 47.5556H50.0455C50.9241 47.5556 51.6364 46.8342 51.6364 45.9444Z" fill="#317FDA"/>
<path d="M30.9138 37.8889C30.0351 37.8889 29.3228 38.6102 29.3228 39.5C29.3228 40.3898 30.0351 41.1111 30.9138 41.1111H43.641C44.5197 41.1111 45.2319 40.3898 45.2319 39.5C45.2319 38.6102 44.5197 37.8889 43.641 37.8889H30.9138Z" fill="#317FDA"/>
<path d="M34.1364 45.9444C34.1364 45.0547 33.4241 44.3333 32.5455 44.3333H30.9545C30.0759 44.3333 29.3636 45.0547 29.3636 45.9444C29.3636 46.8342 30.0759 47.5556 30.9545 47.5556H32.5455C33.4241 47.5556 34.1364 46.8342 34.1364 45.9444Z" fill="#317FDA"/>
<path d="M48.4545 37.8889C47.5759 37.8889 46.8636 38.6102 46.8636 39.5C46.8636 40.3898 47.5759 41.1111 48.4545 41.1111H50.0455C50.9241 41.1111 51.6364 40.3898 51.6364 39.5C51.6364 38.6102 50.9241 37.8889 50.0455 37.8889H48.4545Z" fill="#317FDA"/>
<path fill-rule="evenodd" clip-rule="evenodd" d="M53.2273 25C55.8632 25 58 27.164 58 29.8333V49.1667C58 51.836 55.8632 54 53.2273 54H27.7727C25.1368 54 23 51.836 23 49.1667V29.8333C23 27.164 25.1368 25 27.7727 25H53.2273ZM27.7727 28.2222H53.2273C54.1059 28.2222 54.8182 28.9435 54.8182 29.8333V49.1667C54.8182 50.0565 54.1059 50.7778 53.2273 50.7778H27.7727C26.8941 50.7778 26.1818 50.0565 26.1818 49.1667V29.8333C26.1818 28.9435 26.8941 28.2222 27.7727 28.2222Z" fill="#317FDA"/>
</svg>
