<svg width="24" height="24" viewBox="0 0 24 24" fill="none" xmlns="http://www.w3.org/2000/svg">
<path d="M6 19V11.4142C6 11.149 6.10536 10.8946 6.29289 10.7071L11.2929 5.70711C11.6834 5.31658 12.3166 5.31658 12.7071 5.70711L17.7071 10.7071C17.8946 10.8946 18 11.149 18 11.4142V19C18 19.5523 17.5523 20 17 20H7C6.44772 20 6 19.5523 6 19Z" fill="#E0E4E8"/>
<path d="M4 13L12 5L20 13" stroke="#9BA0A9" stroke-linecap="round" stroke-linejoin="round"/>
<path d="M10 15C10 13.8954 10.8954 13 12 13C13.1046 13 14 13.8954 14 15V20H10V15Z" fill="#9BA0A9"/>
</svg>
