<svg width="372" height="312" viewBox="0 0 372 312" fill="none" xmlns="http://www.w3.org/2000/svg">
<g clip-path="url(#clip0_5074_106203)">
<path d="M333.802 311.602C357.65 280.321 371.828 241.259 371.828 198.88C371.828 96.1623 288.635 12.8837 186 12.8837C83.365 12.8837 0.171761 96.1623 0.171761 198.88C0.171761 241.259 14.3501 280.331 38.1983 311.602H333.802Z" fill="url(#paint0_linear_5074_106203)"/>
<path d="M18.471 279.422C23.969 290.847 30.5889 301.628 38.1983 311.613H333.802C341.411 301.628 348.031 290.847 353.529 279.422H18.471Z" fill="url(#paint1_linear_5074_106203)"/>
<path d="M318.624 214.582H295.49C291.43 214.582 288.135 211.274 288.135 207.221V184.056C288.135 179.992 291.44 176.695 295.49 176.695H318.624C322.683 176.695 325.978 180.002 325.978 184.056V207.221C325.978 211.284 322.673 214.582 318.624 214.582ZM295.49 177.838C292.062 177.838 289.278 180.625 289.278 184.056V207.221C289.278 210.651 292.062 213.438 295.49 213.438H318.624C322.051 213.438 324.836 210.651 324.836 207.221V184.056C324.836 180.625 322.051 177.838 318.624 177.838H295.49Z" fill="white"/>
<path style="mix-blend-mode:multiply" d="M325.407 180.738L306.169 199.993L297.652 191.468C294.949 188.762 290.563 188.762 287.86 191.468C285.157 194.173 285.157 198.563 287.86 201.269L296.377 209.794L301.344 214.766C304.007 217.43 308.321 217.43 310.984 214.766L315.951 209.794L335.189 190.539C337.892 187.833 337.892 183.443 335.189 180.738C332.486 178.032 328.1 178.032 325.397 180.738H325.407Z" fill="url(#paint2_linear_5074_106203)"/>
<path d="M325.407 176.531L306.169 195.786L297.652 187.261C294.949 184.556 290.563 184.556 287.86 187.261C285.157 189.967 285.157 194.357 287.86 197.063L296.377 205.587L301.344 210.559C304.007 213.224 308.321 213.224 310.984 210.559L315.951 205.587L335.189 186.332C337.892 183.627 337.892 179.237 335.189 176.531C332.486 173.826 328.1 173.826 325.397 176.531H325.407Z" fill="url(#paint3_linear_5074_106203)"/>
<path d="M288.696 196.225L302.181 209.722C303.242 210.784 304.66 211.376 306.169 211.376C307.679 211.376 309.087 210.794 310.158 209.722L334.373 185.495C336.607 183.259 336.607 179.615 334.373 177.368C333.292 176.286 331.843 175.684 330.313 175.684C328.783 175.684 327.335 176.286 326.254 177.368L306.179 197.461L296.826 188.099C295.704 186.976 294.235 186.414 292.766 186.414C291.297 186.414 289.828 186.976 288.706 188.099C286.473 190.334 286.473 193.979 288.706 196.225H288.696Z" fill="url(#paint4_linear_5074_106203)"/>
<path d="M359.751 311.602H2.27301C2.13021 311.602 2.00781 311.449 2.00781 311.255C2.00781 311.061 2.12001 310.908 2.27301 310.908H359.751C359.894 310.908 360.016 311.061 360.016 311.255C360.016 311.449 359.894 311.602 359.751 311.602Z" fill="#2879D1"/>
<path d="M146.015 165.066C146.015 165.066 158.041 187.506 172.301 215.194L231.656 271.224C235.277 275.359 230.412 281.423 225.597 278.779C225.597 278.779 196.639 264.966 160.897 241.361C155.838 238.023 139.099 235.491 139.099 235.491L147.79 183.596L146.015 165.066Z" fill="white"/>
<path d="M139.548 232.745L142.078 235.991C147.127 236.89 157.164 238.901 160.877 241.361C196.629 264.966 225.577 278.779 225.577 278.779C228.117 280.178 230.657 279.147 231.973 277.258L164.059 226.047L151.544 187.629L147.78 183.606L139.548 232.755V232.745Z" fill="url(#paint5_linear_5074_106203)"/>
<path d="M217.651 258.013C216.723 261.045 214.306 266.63 208.573 269.968C219.141 275.696 225.587 278.769 225.587 278.769C230.402 281.413 235.267 275.359 231.646 271.214L217.651 258.003V258.013Z" fill="#EDAC80"/>
<path d="M208.573 269.968C219.141 275.696 225.587 278.769 225.587 278.769C228.127 280.168 230.667 279.136 231.983 277.248L214.693 264.21C213.276 266.293 211.297 268.386 208.583 269.968H208.573Z" fill="url(#paint6_linear_5074_106203)"/>
<path d="M144.587 139.277L150.921 125.984L122.687 120.175C122.687 120.175 111.304 132.324 122.361 151.528L138.191 147.955L144.587 139.277Z" fill="#011721"/>
<path d="M96.8294 166.067C80.866 188.231 85.0889 223.699 83.518 279.422H165.793C165.793 279.422 161.387 232.612 147.667 168.762C146.586 163.708 140.078 158.889 133.428 155.684C128.43 153.284 123.707 151.508 119.199 152.835C113.058 154.642 100.705 160.686 96.8294 166.056V166.067Z" fill="white"/>
<path d="M132.806 158.236L133.499 152.631L137.61 154.765C138.783 155.377 140.211 155.255 141.262 154.448L148.708 148.772L145.209 132.886C145.209 132.886 141.506 140.186 134.326 140.533C133.173 140.584 132.316 136.755 131 135.979C129.256 134.948 127.848 136.449 128.022 139.042C128.777 150.17 122.83 151.13 119.188 152.825L128.144 168.435L132.795 158.215L132.806 158.236Z" fill="#EDAC80"/>
<path d="M87.0167 205.761C84.6911 226.057 84.3137 250.795 83.5078 279.422H158.439C158.439 279.422 139.099 262.76 126.849 235.307C121.402 223.097 117.413 195.633 117.413 195.633L87.0167 205.761Z" fill="url(#paint7_linear_5074_106203)"/>
<path d="M133.499 152.621L125.104 163.157L128.144 168.445L132.806 158.236L133.499 152.621Z" fill="url(#paint8_linear_5074_106203)"/>
<path d="M108.641 284.313L161.958 299.412H257.545L257.932 294.982L174.535 280.78L108.641 280.79V284.313Z" fill="#252525"/>
<path d="M108.641 280.791L161.958 294.982L167.354 280.791H108.641Z" fill="#696969"/>
<path d="M101.817 161.452C101.817 161.452 77.1429 182.126 56.569 237.267C56.569 237.267 94.4017 277.911 171.148 293.072C175.555 293.94 177.87 287.886 174.198 285.293C153.043 270.326 114.17 242.842 95.2993 230.58L121.453 189.232L101.807 161.452H101.817Z" fill="white"/>
<path d="M67.5954 233.837L60.4247 227.017C59.1088 230.325 57.8236 233.735 56.5792 237.267C56.5792 237.267 94.4119 277.911 171.159 293.072C173.199 293.481 174.78 292.388 175.535 290.847C160.336 285.293 91.0764 259.085 67.5954 233.837Z" fill="url(#paint9_linear_5074_106203)"/>
<path d="M174.209 285.293C169.782 282.158 164.569 278.473 158.939 274.501C158.939 274.501 155.664 284.149 150.932 288.274C157.348 290.05 164.08 291.674 171.159 293.072C175.565 293.94 177.881 287.886 174.209 285.293Z" fill="#EDAC80"/>
<path d="M171.159 293.072C173.199 293.481 174.78 292.388 175.535 290.847C171.669 289.438 164.284 286.681 155.063 282.945C153.89 284.956 152.492 286.916 150.932 288.274C157.348 290.05 164.08 291.674 171.159 293.072Z" fill="url(#paint10_linear_5074_106203)"/>
<path d="M257.932 294.981H161.958L189.662 222.117L284.351 225.516L257.932 294.981Z" fill="#414141"/>
<path d="M320.735 93.9265C320.144 54.2116 286.585 22.7257 246.528 25.1759C210.256 27.3914 181.471 57.6931 181.022 94.0592C180.604 127.985 204.248 156.286 235.767 163.249C237.501 163.626 238.97 164.77 239.806 166.332L246.692 179.145C249.048 183.545 255.382 183.443 257.616 178.982L264.114 165.964C264.909 164.372 266.358 163.198 268.081 162.759C298.754 154.999 321.245 126.974 320.756 93.9265H320.735Z" fill="#FFCB71"/>
<path d="M181.012 94.0592C180.849 107.015 184.225 119.144 190.182 129.578C258.248 127.914 295.775 75.2023 307.873 54.5384C294.419 35.5692 271.764 23.6241 246.518 25.1759C210.246 27.3914 181.461 57.6931 181.012 94.0592Z" fill="url(#paint11_linear_5074_106203)"/>
<path d="M334.587 89.2505H329.518C329.518 45.8501 294.235 10.5355 250.874 10.5355C207.512 10.5355 172.23 45.8501 172.23 89.2505H167.16C167.16 43.0527 204.717 5.46145 250.874 5.46145C297.03 5.46145 334.587 43.0527 334.587 89.2505Z" fill="url(#paint12_linear_5074_106203)"/>
<path d="M210.991 26.0846C208.339 26.0846 205.768 24.6961 204.36 22.2152C202.29 18.5602 203.585 13.9149 207.237 11.8424C220.477 4.34862 235.573 0.387348 250.874 0.387348C266.174 0.387348 281.26 4.34862 294.5 11.8424C298.152 13.9149 299.447 18.55 297.377 22.2152C295.306 25.8702 290.675 27.1668 287.013 25.0942C276.048 18.8869 263.553 15.6097 250.874 15.6097C238.195 15.6097 225.689 18.8869 214.724 25.0942C213.541 25.7681 212.255 26.0846 210.991 26.0846Z" fill="url(#paint13_linear_5074_106203)"/>
<path d="M337.249 108.424C339.901 108.424 342.084 106.249 342.084 103.585V74.9062C342.084 72.2518 339.912 70.0669 337.249 70.0669C334.597 70.0669 332.414 72.2416 332.414 74.9062V103.585C332.414 106.239 334.587 108.424 337.249 108.424Z" fill="url(#paint14_linear_5074_106203)"/>
<path d="M327.916 114.999C332.955 114.999 337.086 110.874 337.086 105.82V73.14C337.086 68.0965 332.965 63.9617 327.916 63.9617C322.877 63.9617 318.746 68.0863 318.746 73.14V105.82C318.746 110.864 322.867 114.999 327.916 114.999Z" fill="url(#paint15_linear_5074_106203)"/>
<path d="M164.498 108.424C161.846 108.424 159.663 106.249 159.663 103.585V74.9062C159.663 72.2518 161.836 70.0669 164.498 70.0669C167.15 70.0669 169.333 72.2416 169.333 74.9062V103.585C169.333 106.239 167.16 108.424 164.498 108.424Z" fill="url(#paint16_linear_5074_106203)"/>
<path d="M173.831 114.999C168.792 114.999 164.661 110.874 164.661 105.82V73.14C164.661 68.0965 168.782 63.9617 173.831 63.9617C178.87 63.9617 183.001 68.0863 183.001 73.14V105.82C183.001 110.864 178.88 114.999 173.831 114.999Z" fill="url(#paint17_linear_5074_106203)"/>
<path d="M297.122 135.51H253.005C251.608 135.51 250.476 134.376 250.476 132.978C250.476 131.579 251.608 130.446 253.005 130.446H297.122C306.873 130.446 315.859 125.566 321.184 117.398L325.784 110.333C326.549 109.159 328.12 108.822 329.293 109.588C330.466 110.353 330.803 111.926 330.038 113.1L325.438 120.165C319.175 129.772 308.597 135.52 297.132 135.52L297.122 135.51Z" fill="url(#paint18_linear_5074_106203)"/>
<path d="M261.88 138.572H252.189C249.18 138.572 246.712 136.102 246.712 133.09C246.712 130.078 249.18 127.607 252.189 127.607H261.88C264.889 127.607 267.357 130.078 267.357 133.09C267.357 136.102 264.889 138.572 261.88 138.572Z" fill="url(#paint19_linear_5074_106203)"/>
<path d="M282.525 75.5698H214.438C214.306 75.5698 214.194 75.4575 214.194 75.3146C214.194 75.1717 214.306 75.0594 214.438 75.0594H282.525C282.668 75.0594 282.77 75.1717 282.77 75.3146C282.77 75.4575 282.658 75.5698 282.525 75.5698Z" fill="white"/>
<path d="M282.525 84.84H214.438C214.306 84.84 214.194 84.7277 214.194 84.5848C214.194 84.4419 214.306 84.3296 214.438 84.3296H282.525C282.668 84.3296 282.77 84.4419 282.77 84.5848C282.77 84.7277 282.658 84.84 282.525 84.84Z" fill="white"/>
<path d="M282.525 94.1102H214.438C214.306 94.1102 214.194 93.9979 214.194 93.855C214.194 93.7121 214.306 93.5998 214.438 93.5998H282.525C282.668 93.5998 282.77 93.7121 282.77 93.855C282.77 93.9979 282.658 94.1102 282.525 94.1102Z" fill="white"/>
<path d="M282.525 103.38H214.438C214.306 103.38 214.194 103.268 214.194 103.125C214.194 102.982 214.306 102.87 214.438 102.87H282.525C282.668 102.87 282.77 102.982 282.77 103.125C282.77 103.268 282.658 103.38 282.525 103.38Z" fill="white"/>
<path d="M252.016 112.64H214.438C214.306 112.64 214.194 112.528 214.194 112.385C214.194 112.242 214.306 112.13 214.438 112.13H252.016C252.149 112.13 252.261 112.242 252.261 112.385C252.261 112.528 252.149 112.64 252.016 112.64Z" fill="white"/>
<path d="M130.643 142.963C129.552 142.963 128.675 142.074 128.675 140.992V121.38C128.675 120.287 129.562 119.409 130.643 119.409C131.735 119.409 132.612 120.298 132.612 121.38V140.992C132.612 142.085 131.724 142.963 130.643 142.963Z" fill="#97C8FC"/>
<path d="M140.65 149.047C140.65 149.047 140.578 149.047 140.537 149.027L133.673 146.087C133.173 145.872 132.785 145.474 132.581 144.964L131.102 141.247C131.041 141.104 131.112 140.931 131.265 140.88C131.408 140.829 131.582 140.89 131.633 141.043L133.112 144.77C133.254 145.137 133.54 145.423 133.897 145.576L140.762 148.516C140.905 148.578 140.976 148.751 140.915 148.894C140.864 149.007 140.762 149.068 140.65 149.068V149.047Z" fill="#003193"/>
<path d="M141.853 148.762C141.853 149.435 141.313 149.976 140.639 149.976C139.966 149.976 139.426 149.435 139.426 148.762C139.426 148.088 139.966 147.547 140.639 147.547C141.313 147.547 141.853 148.088 141.853 148.762Z" fill="#003193"/>
<path d="M136.192 139.267C136.192 142.34 133.703 144.821 130.643 144.821C127.583 144.821 125.094 142.33 125.094 139.267C125.094 136.204 127.583 133.713 130.643 133.713C133.703 133.713 136.192 136.204 136.192 139.267Z" fill="#2961CD"/>
<path d="M130.643 142.677C132.525 142.677 134.05 141.15 134.05 139.267C134.05 137.383 132.525 135.857 130.643 135.857C128.762 135.857 127.236 137.383 127.236 139.267C127.236 141.15 128.762 142.677 130.643 142.677Z" fill="#003193"/>
<path d="M74.8002 83.8766C74.8002 85.4795 73.5047 86.7761 71.9033 86.7761C70.3018 86.7761 69.0064 85.4795 69.0064 83.8766C69.0064 82.2737 70.3018 80.9771 71.9033 80.9771C73.5047 80.9771 74.8002 82.2737 74.8002 83.8766Z" fill="white"/>
<path d="M83.7866 83.8766C83.7866 85.4795 82.4911 86.7761 80.8897 86.7761C79.2883 86.7761 77.9928 85.4795 77.9928 83.8766C77.9928 82.2737 79.2883 80.9771 80.8897 80.9771C82.4911 80.9771 83.7866 82.2737 83.7866 83.8766Z" fill="white"/>
<path d="M92.7628 83.8766C92.7628 85.4795 91.4674 86.7761 89.8659 86.7761C88.2645 86.7761 86.9691 85.4795 86.9691 83.8766C86.9691 82.2737 88.2645 80.9771 89.8659 80.9771C91.4674 80.9771 92.7628 82.2737 92.7628 83.8766Z" fill="white"/>
<path d="M246.182 205.404C246.182 207.007 244.886 208.303 243.285 208.303C241.683 208.303 240.388 207.007 240.388 205.404C240.388 203.801 241.683 202.504 243.285 202.504C244.886 202.504 246.182 203.801 246.182 205.404Z" fill="white"/>
<path d="M255.158 205.404C255.158 207.007 253.862 208.303 252.261 208.303C250.659 208.303 249.364 207.007 249.364 205.404C249.364 203.801 250.659 202.504 252.261 202.504C253.862 202.504 255.158 203.801 255.158 205.404Z" fill="white"/>
<path d="M264.144 205.404C264.144 207.007 262.849 208.303 261.247 208.303C259.646 208.303 258.35 207.007 258.35 205.404C258.35 203.801 259.646 202.504 261.247 202.504C262.849 202.504 264.144 203.801 264.144 205.404Z" fill="white"/>
<path d="M84.4565 120.92H47.909C47.8376 120.92 47.7763 120.859 47.7763 120.787C47.7763 120.716 47.8376 120.655 47.909 120.655H84.4565C84.5279 120.655 84.5891 120.716 84.5891 120.787C84.5891 120.859 84.5279 120.92 84.4565 120.92Z" fill="white"/>
<path d="M84.4565 125.586H47.909C47.8376 125.586 47.7764 125.524 47.7764 125.453C47.7764 125.382 47.8376 125.321 47.909 125.321H84.4565C84.5279 125.321 84.5891 125.382 84.5891 125.453C84.5891 125.524 84.5279 125.586 84.4565 125.586Z" fill="white"/>
<path d="M84.4565 130.251H47.909C47.8376 130.251 47.7764 130.19 47.7764 130.119C47.7764 130.047 47.8376 129.986 47.909 129.986H84.4565C84.5279 129.986 84.5891 130.047 84.5891 130.119C84.5891 130.19 84.5279 130.251 84.4565 130.251Z" fill="white"/>
<path d="M84.4565 134.917H47.909C47.8376 134.917 47.7764 134.856 47.7764 134.784C47.7764 134.713 47.8376 134.652 47.909 134.652H84.4565C84.5279 134.652 84.5891 134.713 84.5891 134.784C84.5891 134.856 84.5279 134.917 84.4565 134.917Z" fill="white"/>
<path d="M68.0851 139.593H47.9192C47.8478 139.593 47.7866 139.532 47.7866 139.46C47.7866 139.389 47.8478 139.328 47.9192 139.328H68.0851C68.1565 139.328 68.2177 139.389 68.2177 139.46C68.2177 139.532 68.1565 139.593 68.0851 139.593Z" fill="white"/>
<path d="M366.412 231.508H311.739C311.627 231.508 311.535 231.417 311.535 231.315C311.535 231.213 311.627 231.121 311.739 231.121H366.412C366.524 231.121 366.616 231.213 366.616 231.315C366.616 231.417 366.524 231.508 366.412 231.508Z" fill="white"/>
<path d="M366.412 238.492H311.739C311.626 238.492 311.535 238.4 311.535 238.298C311.535 238.196 311.626 238.105 311.739 238.105H366.412C366.524 238.105 366.616 238.196 366.616 238.298C366.616 238.4 366.524 238.492 366.412 238.492Z" fill="white"/>
<path d="M366.412 245.485H311.739C311.626 245.485 311.535 245.394 311.535 245.292C311.535 245.19 311.626 245.098 311.739 245.098H366.412C366.524 245.098 366.616 245.19 366.616 245.292C366.616 245.394 366.524 245.485 366.412 245.485Z" fill="white"/>
<path d="M366.412 252.469H311.739C311.626 252.469 311.535 252.377 311.535 252.275C311.535 252.173 311.626 252.081 311.739 252.081H366.412C366.524 252.081 366.616 252.173 366.616 252.275C366.616 252.377 366.524 252.469 366.412 252.469Z" fill="white"/>
<path d="M341.911 259.452H311.728C311.616 259.452 311.524 259.36 311.524 259.258C311.524 259.156 311.616 259.065 311.728 259.065H341.911C342.023 259.065 342.115 259.156 342.115 259.258C342.115 259.36 342.023 259.452 341.911 259.452Z" fill="white"/>
<path style="mix-blend-mode:screen" d="M127.236 69.8423H34.6792C26.691 69.8423 20.2153 76.3239 20.2153 84.3194C20.2153 92.3148 26.691 98.7964 34.6792 98.7964H127.236C135.225 98.7964 141.7 92.3148 141.7 84.3194C141.7 76.3239 135.225 69.8423 127.236 69.8423Z" fill="url(#paint20_linear_5074_106203)"/>
<path d="M330.446 64.6151C330.323 64.6151 330.201 64.5334 330.17 64.4007C321.847 33.9663 299.264 21.2249 299.029 21.1024C298.886 21.0309 298.845 20.8471 298.917 20.7144C298.988 20.5715 299.172 20.5306 299.304 20.6021C299.539 20.7246 322.326 33.5885 330.721 64.2476C330.762 64.4007 330.67 64.5538 330.517 64.5947C330.487 64.5947 330.466 64.5947 330.446 64.5947V64.6151Z" fill="white"/>
<path d="M277.18 179.165C277.119 179.165 277.068 179.124 277.047 179.073C277.017 179.002 277.058 178.92 277.139 178.89C277.364 178.808 299.712 170.824 319.97 152.774C338.647 136.132 359.323 107.28 351.693 64.3599C351.683 64.2782 351.734 64.2067 351.805 64.1965C351.877 64.1761 351.958 64.2373 351.968 64.3088C355.345 83.3188 353.519 101.185 346.542 117.418C340.952 130.405 332.078 142.37 320.154 152.988C299.855 171.069 277.466 179.073 277.241 179.155C277.221 179.155 277.211 179.155 277.19 179.155L277.18 179.165Z" fill="white"/>
<path d="M54.6105 311.051C54.6105 311.051 54.5289 311.031 54.4983 311C37.0559 288.672 25.2644 264.343 19.4706 238.697C14.8295 218.176 13.9931 196.777 16.9818 175.082C22.0615 138.144 36.6785 112.834 36.8213 112.579C36.8621 112.508 36.9539 112.487 37.0151 112.528C37.0865 112.569 37.1069 112.651 37.0661 112.722C36.9233 112.977 22.3267 138.246 17.2572 175.133C12.5753 209.171 15.2783 260.341 54.7227 310.827C54.7737 310.888 54.7635 310.98 54.7023 311.031C54.6717 311.051 54.6411 311.061 54.6105 311.061V311.051Z" fill="white"/>
</g>
<defs>
<linearGradient id="paint0_linear_5074_106203" x1="86.5985" y1="332.573" x2="290.269" y2="59.1045" gradientUnits="userSpaceOnUse">
<stop offset="0.02" stop-color="#AED3FC"/>
<stop offset="0.48" stop-color="#7CABDF"/>
<stop offset="0.54" stop-color="#5C9EE7"/>
<stop offset="0.74" stop-color="#317FD3"/>
<stop offset="0.9" stop-color="#186DCA"/>
<stop offset="1" stop-color="#005EC5"/>
</linearGradient>
<linearGradient id="paint1_linear_5074_106203" x1="319.929" y1="295.512" x2="78.5505" y2="295.512" gradientUnits="userSpaceOnUse">
<stop stop-color="#0055B0"/>
<stop offset="0.53" stop-color="#308EF4"/>
<stop offset="1" stop-color="#247BDA"/>
</linearGradient>
<linearGradient id="paint2_linear_5074_106203" x1="311.535" y1="170.365" x2="311.535" y2="219.952" gradientUnits="userSpaceOnUse">
<stop offset="0.01" stop-color="#E85C4B"/>
<stop offset="0.62" stop-color="#F6C2BC"/>
<stop offset="1" stop-color="white"/>
</linearGradient>
<linearGradient id="paint3_linear_5074_106203" x1="324.632" y1="217.093" x2="310.238" y2="183.851" gradientUnits="userSpaceOnUse">
<stop offset="0.01" stop-color="#E85C4B"/>
<stop offset="0.62" stop-color="#F6C2BC"/>
<stop offset="1" stop-color="white"/>
</linearGradient>
<linearGradient id="paint4_linear_5074_106203" x1="304.558" y1="166.883" x2="316.01" y2="199.506" gradientUnits="userSpaceOnUse">
<stop stop-color="white"/>
<stop offset="1" stop-color="#FFC200"/>
</linearGradient>
<linearGradient id="paint5_linear_5074_106203" x1="203.432" y1="223.199" x2="137.296" y2="259.902" gradientUnits="userSpaceOnUse">
<stop stop-color="white"/>
<stop offset="0.13" stop-color="#E5F2FF"/>
<stop offset="0.31" stop-color="#ECF5FF"/>
<stop offset="0.53" stop-color="#C4E0FF"/>
<stop offset="0.77" stop-color="#B0D7FF"/>
<stop offset="1" stop-color="#97C8FC"/>
</linearGradient>
<linearGradient id="paint6_linear_5074_106203" x1="229.606" y1="281.188" x2="212.294" y2="267.156" gradientUnits="userSpaceOnUse">
<stop stop-color="#EDAC80"/>
<stop offset="0.27" stop-color="#E6A579"/>
<stop offset="0.65" stop-color="#D39367"/>
<stop offset="1" stop-color="#BD7E52"/>
</linearGradient>
<linearGradient id="paint7_linear_5074_106203" x1="135.091" y1="286.161" x2="41.4422" y2="154.875" gradientUnits="userSpaceOnUse">
<stop stop-color="white"/>
<stop offset="0.13" stop-color="#EFF7FF"/>
<stop offset="0.31" stop-color="#E6F2FF"/>
<stop offset="0.53" stop-color="#C1DFFF"/>
<stop offset="0.77" stop-color="#A8D2FF"/>
<stop offset="1" stop-color="#97C8FC"/>
</linearGradient>
<linearGradient id="paint8_linear_5074_106203" x1="125.104" y1="160.533" x2="133.499" y2="160.533" gradientUnits="userSpaceOnUse">
<stop stop-color="#EDAC80"/>
<stop offset="0.27" stop-color="#E6A579"/>
<stop offset="0.65" stop-color="#D39367"/>
<stop offset="1" stop-color="#BD7E52"/>
</linearGradient>
<linearGradient id="paint9_linear_5074_106203" x1="45.5425" y1="193.173" x2="208.527" y2="356.745" gradientUnits="userSpaceOnUse">
<stop stop-color="white"/>
<stop offset="0.13" stop-color="#EFF7FF"/>
<stop offset="0.31" stop-color="#DAECFF"/>
<stop offset="0.53" stop-color="#D7EAFF"/>
<stop offset="0.77" stop-color="#BDDDFF"/>
<stop offset="1" stop-color="#97C8FC"/>
</linearGradient>
<linearGradient id="paint10_linear_5074_106203" x1="170.751" y1="290.173" x2="152.143" y2="285.433" gradientUnits="userSpaceOnUse">
<stop stop-color="#EDAC80"/>
<stop offset="0.27" stop-color="#E6A579"/>
<stop offset="0.65" stop-color="#D39367"/>
<stop offset="1" stop-color="#BD7E52"/>
</linearGradient>
<linearGradient id="paint11_linear_5074_106203" x1="219.13" y1="137.378" x2="268.047" y2="4.62227" gradientUnits="userSpaceOnUse">
<stop stop-color="white"/>
<stop offset="1" stop-color="#FFE554"/>
</linearGradient>
<linearGradient id="paint12_linear_5074_106203" x1="250.874" y1="-10.0467" x2="250.874" y2="88.6175" gradientUnits="userSpaceOnUse">
<stop stop-color="white"/>
<stop offset="0.36" stop-color="#CFEEFF"/>
<stop offset="0.55" stop-color="#B1E4FF"/>
<stop offset="0.885417" stop-color="#77D5FF"/>
<stop offset="1" stop-color="#B3E8FF"/>
</linearGradient>
<linearGradient id="paint13_linear_5074_106203" x1="251.2" y1="-20.491" x2="250.893" y2="15.0277" gradientUnits="userSpaceOnUse">
<stop stop-color="white"/>
<stop offset="0.36" stop-color="#F8FCFF"/>
<stop offset="0.55" stop-color="#C9ECFF"/>
<stop offset="0.82" stop-color="#A9E4FF"/>
<stop offset="1" stop-color="#8BDDFF"/>
</linearGradient>
<linearGradient id="paint14_linear_5074_106203" x1="337.239" y1="74.1201" x2="337.239" y2="98.6739" gradientUnits="userSpaceOnUse">
<stop stop-color="white"/>
<stop offset="1" stop-color="#DEF1FF"/>
</linearGradient>
<linearGradient id="paint15_linear_5074_106203" x1="327.906" y1="69.3319" x2="327.906" y2="102.012" gradientUnits="userSpaceOnUse">
<stop stop-color="#BEDCF7"/>
<stop offset="0.36" stop-color="#9CD5F3"/>
<stop offset="0.55" stop-color="#6CBCE7"/>
<stop offset="0.82" stop-color="#65A7C5"/>
<stop offset="1" stop-color="#65A7C2"/>
</linearGradient>
<linearGradient id="paint16_linear_5074_106203" x1="164.498" y1="74.1201" x2="164.498" y2="98.6739" gradientUnits="userSpaceOnUse">
<stop stop-color="white"/>
<stop offset="1" stop-color="#DEF1FF"/>
</linearGradient>
<linearGradient id="paint17_linear_5074_106203" x1="173.831" y1="69.3319" x2="173.831" y2="102.012" gradientUnits="userSpaceOnUse">
<stop stop-color="#DCEFFF"/>
<stop offset="0.36" stop-color="#8DD8FF"/>
<stop offset="0.55" stop-color="#81C3E7"/>
<stop offset="0.82" stop-color="#72B8D8"/>
<stop offset="1" stop-color="#5BA7C7"/>
</linearGradient>
<linearGradient id="paint18_linear_5074_106203" x1="250.476" y1="122.339" x2="330.446" y2="122.339" gradientUnits="userSpaceOnUse">
<stop stop-color="#00396B"/>
<stop offset="0.36" stop-color="#05293C"/>
<stop offset="0.55" stop-color="#042435"/>
<stop offset="0.82" stop-color="#021822"/>
<stop offset="1" stop-color="#010D12"/>
</linearGradient>
<linearGradient id="paint19_linear_5074_106203" x1="246.712" y1="133.09" x2="267.357" y2="133.09" gradientUnits="userSpaceOnUse">
<stop stop-color="#00396B"/>
<stop offset="0.36" stop-color="#05293C"/>
<stop offset="0.55" stop-color="#042435"/>
<stop offset="0.82" stop-color="#021822"/>
<stop offset="1" stop-color="#010D12"/>
</linearGradient>
<linearGradient id="paint20_linear_5074_106203" x1="80.9578" y1="58.7446" x2="80.9578" y2="103.768" gradientUnits="userSpaceOnUse">
<stop stop-color="white"/>
<stop offset="0.19" stop-color="#BDE9FF"/>
<stop offset="0.41" stop-color="#7AD4FF"/>
<stop offset="0.61" stop-color="#45C3FF"/>
<stop offset="0.78" stop-color="#1FB7FF"/>
<stop offset="0.91" stop-color="#08AFFF"/>
<stop offset="1" stop-color="#00ADFF"/>
</linearGradient>
<clipPath id="clip0_5074_106203">
<rect width="372" height="312" fill="white"/>
</clipPath>
</defs>
</svg>
