<svg width="77" height="79" viewBox="0 0 77 79" fill="none" xmlns="http://www.w3.org/2000/svg">
<g filter="url(#filter0_d_5097_106225)">
<path d="M31.5174 35.549C31.4083 38.8268 32.6496 41.2578 33.9591 43.6478C34.4365 44.5082 35.2413 44.8907 36.237 44.836C36.96 44.7951 37.6829 44.7541 38.4058 44.7951C39.197 44.8497 39.8245 45.4097 39.9745 46.0925C40.1109 46.6935 39.6881 47.5539 38.9924 47.8816C38.515 48.1138 37.9693 48.387 37.451 48.387C35.6641 48.4006 34.6547 49.5069 33.7681 50.818C32.7178 52.334 32.1449 54.0548 31.6402 55.803C31.4356 56.4995 31.2582 57.196 31.0127 57.8789C30.7808 58.5208 30.3307 58.9715 29.6077 58.9988C28.8984 59.0261 28.4074 58.5754 28.08 58.0155C27.8617 57.6331 27.7253 57.1824 27.6571 56.7453C27.4934 55.762 27.4253 54.765 27.2752 53.768C26.8796 51.1868 24.4925 48.9879 21.9418 48.8103C21.1233 48.7557 20.3049 48.7557 19.5001 48.6465C18.709 48.5372 18.1088 47.9226 18.0133 47.267C17.9042 46.5295 18.4771 45.6965 19.3364 45.437C20.2094 45.1911 21.1097 45.0682 21.9827 44.8224C25.4747 43.8664 27.3161 41.6812 27.6708 38.0483C27.7663 37.1469 27.739 36.2318 27.8072 35.3305C27.8617 34.47 28.2437 33.7735 28.9803 33.2955C30.017 32.6263 31.2991 33.1453 31.4765 34.3334C31.5856 34.8797 31.5174 35.4261 31.5174 35.549Z" fill="#387AFC"/>
</g>
<g filter="url(#filter1_d_5097_106225)">
<path d="M22.1443 13.1765C22.0947 14.6893 22.6589 15.8113 23.2541 16.9144C23.4711 17.3115 23.8369 17.488 24.2896 17.4628C24.6182 17.4439 24.9468 17.425 25.2754 17.4439C25.635 17.4691 25.9202 17.7275 25.9884 18.0427C26.0504 18.3201 25.8582 18.7172 25.542 18.8684C25.325 18.9756 25.077 19.1017 24.8414 19.1017C24.0291 19.108 23.5703 19.6186 23.1673 20.2237C22.6899 20.9234 22.4295 21.7176 22.2001 22.5244C22.1071 22.8459 22.0265 23.1674 21.9149 23.4826C21.8095 23.7788 21.6049 23.9868 21.2762 23.9995C20.9538 24.0121 20.7306 23.8041 20.5818 23.5456C20.4826 23.3691 20.4206 23.1611 20.3896 22.9594C20.3152 22.5055 20.2842 22.0454 20.216 21.5852C20.0362 20.3939 18.9512 19.379 17.7917 19.2971C17.4197 19.2719 17.0477 19.2719 16.6819 19.2214C16.3223 19.171 16.0494 18.8874 16.006 18.5848C15.9564 18.2444 16.2169 17.8599 16.6075 17.7401C17.0043 17.6267 17.4135 17.5699 17.8103 17.4565C19.3976 17.0152 20.2346 16.0067 20.3958 14.33C20.4392 13.9139 20.4268 13.4916 20.4578 13.0756C20.4826 12.6785 20.6562 12.357 20.991 12.1364C21.4623 11.8275 22.0451 12.067 22.1257 12.6154C22.1753 12.8676 22.1443 13.1197 22.1443 13.1765Z" fill="white"/>
</g>
<g filter="url(#filter2_d_5097_106225)">
<path d="M52.5252 32.9994C51.862 33.0173 51.321 32.6054 51.2512 32.086C51.1989 31.6741 51.1989 31.2532 51.2076 30.8413C51.2599 29.0413 50.3786 27.6443 49.3665 26.319C48.9215 25.7369 48.2496 25.4682 47.5167 25.4503C46.8797 25.4324 46.234 25.4414 45.5971 25.4324C45.3091 25.4235 45.0124 25.4235 44.7332 25.3608C44.358 25.2802 44.009 24.8324 44.0003 24.4563C43.9915 24.0623 44.1922 23.7399 44.5238 23.6056C45.3876 23.2653 46.2515 22.8981 47.1502 22.6922C49.0175 22.2623 49.986 20.937 50.5881 19.2355C50.7189 18.8773 50.6404 18.4296 50.6317 18.0266C50.6142 17.2565 50.5444 16.4864 50.5706 15.7162C50.5793 15.3401 50.8498 15.0625 51.2425 15.0088C51.6351 14.955 51.9405 15.152 52.0801 15.5013C52.307 16.1013 52.5513 16.7192 52.6647 17.355C53.2494 20.5161 56.059 22.7728 59.2002 22.5668C59.4881 22.5489 59.7761 22.4773 60.064 22.4952C60.4218 22.5131 60.7533 22.6743 60.9017 23.0414C61.0762 23.4623 61.0238 23.8922 60.701 24.1966C60.4567 24.4295 60.1338 24.6175 59.811 24.7071C57.4202 25.3518 55.8234 27.0712 54.3488 28.9249C53.9736 29.3995 53.8863 30.1249 53.6856 30.7428C53.5111 31.3069 53.4239 31.9069 53.1796 32.4353C53.0661 32.7039 52.6909 32.8651 52.5252 32.9994ZM55.867 24.3399C55.0817 23.8116 54.3837 23.4086 53.7554 22.9161C53.1359 22.4235 52.5775 21.8415 51.9667 21.2683C51.2076 22.1728 50.5095 23.0056 49.7504 23.9101C50.8586 24.6175 51.4868 25.6115 52.0889 26.6324C52.2547 26.91 52.499 27.1339 52.7607 27.4473C53.3279 26.8473 53.8078 26.3369 54.3052 25.8354C54.8025 25.3429 55.3086 24.8772 55.867 24.3399Z" fill="#387AFC"/>
</g>
<defs>
<filter id="filter0_d_5097_106225" x="2" y="21" width="54" height="58" filterUnits="userSpaceOnUse" color-interpolation-filters="sRGB">
<feFlood flood-opacity="0" result="BackgroundImageFix"/>
<feColorMatrix in="SourceAlpha" type="matrix" values="0 0 0 0 0 0 0 0 0 0 0 0 0 0 0 0 0 0 127 0" result="hardAlpha"/>
<feOffset dy="4"/>
<feGaussianBlur stdDeviation="8"/>
<feComposite in2="hardAlpha" operator="out"/>
<feColorMatrix type="matrix" values="0 0 0 0 0.4 0 0 0 0 0.4 0 0 0 0 0.4 0 0 0 0.6 0"/>
<feBlend mode="color-burn" in2="BackgroundImageFix" result="effect1_dropShadow_5097_106225"/>
<feBlend mode="normal" in="SourceGraphic" in2="effect1_dropShadow_5097_106225" result="shape"/>
</filter>
<filter id="filter1_d_5097_106225" x="0" y="0" width="42" height="44" filterUnits="userSpaceOnUse" color-interpolation-filters="sRGB">
<feFlood flood-opacity="0" result="BackgroundImageFix"/>
<feColorMatrix in="SourceAlpha" type="matrix" values="0 0 0 0 0 0 0 0 0 0 0 0 0 0 0 0 0 0 127 0" result="hardAlpha"/>
<feOffset dy="4"/>
<feGaussianBlur stdDeviation="8"/>
<feComposite in2="hardAlpha" operator="out"/>
<feColorMatrix type="matrix" values="0 0 0 0 0.4 0 0 0 0 0.4 0 0 0 0 0.4 0 0 0 0.6 0"/>
<feBlend mode="color-burn" in2="BackgroundImageFix" result="effect1_dropShadow_5097_106225"/>
<feBlend mode="normal" in="SourceGraphic" in2="effect1_dropShadow_5097_106225" result="shape"/>
</filter>
<filter id="filter2_d_5097_106225" x="28" y="3" width="49" height="50" filterUnits="userSpaceOnUse" color-interpolation-filters="sRGB">
<feFlood flood-opacity="0" result="BackgroundImageFix"/>
<feColorMatrix in="SourceAlpha" type="matrix" values="0 0 0 0 0 0 0 0 0 0 0 0 0 0 0 0 0 0 127 0" result="hardAlpha"/>
<feOffset dy="4"/>
<feGaussianBlur stdDeviation="8"/>
<feComposite in2="hardAlpha" operator="out"/>
<feColorMatrix type="matrix" values="0 0 0 0 0.4 0 0 0 0 0.4 0 0 0 0 0.4 0 0 0 0.6 0"/>
<feBlend mode="color-burn" in2="BackgroundImageFix" result="effect1_dropShadow_5097_106225"/>
<feBlend mode="normal" in="SourceGraphic" in2="effect1_dropShadow_5097_106225" result="shape"/>
</filter>
</defs>
</svg>
