<svg width="56" height="56" viewBox="0 0 56 56" fill="none" xmlns="http://www.w3.org/2000/svg">
<path d="M13 23.1088V26.3237C20.2336 31.6296 32.7632 31.6296 40 26.3237V20.2021" stroke="#387AFC" stroke-width="2" stroke-linecap="round" stroke-linejoin="round"/>
<path d="M44.1109 18.5233L48 16.995V14.7193L27.003 6.06055L6 14.7193V16.995L27.003 25.2525L44.1109 18.5233Z" stroke="#387AFC" stroke-width="2" stroke-linecap="round" stroke-linejoin="round"/>
<path d="M48 20.2021V26.2628" stroke="#387AFC" stroke-width="2" stroke-linecap="round" stroke-linejoin="round"/>
<path d="M21 35.3535V37.3737" stroke="#387AFC" stroke-width="2" stroke-linecap="round" stroke-linejoin="round"/>
<path d="M32 34.3433V36.3635" stroke="#387AFC" stroke-width="2" stroke-linecap="round" stroke-linejoin="round"/>
<path d="M23 42.4243C24.8356 45.1179 28.1644 45.1179 30 42.4243" stroke="#387AFC" stroke-width="2" stroke-linecap="round" stroke-linejoin="round"/>
<path d="M13 26.2627V27.2709V30.3031" stroke="#387AFC" stroke-width="2" stroke-linecap="round" stroke-linejoin="round"/>
<path d="M40 25.2524V26.5127V30.3029" stroke="#387AFC" stroke-width="2" stroke-linecap="round" stroke-linejoin="round"/>
<path d="M13 37.3735C13.1559 40.9216 14.6312 44.1234 16.9422 46.4771C19.3874 48.9675 22.7714 50.5048 26.5016 50.5048C33.7592 50.5048 39.6788 44.6825 40 37.3735" stroke="#387AFC" stroke-width="2" stroke-linecap="round" stroke-linejoin="round"/>
<path d="M12.9846 30.3032C11.3354 30.3032 10 31.8869 10 33.8386C10 35.7902 11.3354 37.3739 12.9846 37.3739H13" stroke="#387AFC" stroke-width="2" stroke-linecap="round" stroke-linejoin="round"/>
<path d="M40.0154 30.3032C41.6646 30.3032 43 31.6607 43 33.3335C43 35.0064 41.6646 36.3638 40.0154 36.3638H40" stroke="#387AFC" stroke-width="2" stroke-linecap="round" stroke-linejoin="round"/>
<path d="M48 32.3233C49.1046 32.3233 50 30.9666 50 29.293C50 27.6194 49.1046 26.2627 48 26.2627C46.8954 26.2627 46 27.6194 46 29.293C46 30.9666 46.8954 32.3233 48 32.3233Z" stroke="#387AFC" stroke-width="2" stroke-linecap="round" stroke-linejoin="round"/>
<path d="M25 15.1517C25 14.594 25.6718 14.1416 26.5 14.1416C27.3282 14.1416 28 14.594 28 15.1517" stroke="#387AFC" stroke-width="2" stroke-linecap="round" stroke-linejoin="round"/>
</svg>
