<svg width="35" height="52" viewBox="0 0 35 52" fill="none" xmlns="http://www.w3.org/2000/svg">
<g clip-path="url(#clip0_2865_42037)">
<path d="M18.0265 0.0201386C26.874 -0.442858 34.4611 7.08565 34.9725 16.8352C35.4021 25.0224 30.7061 32.1727 23.9507 34.5285L20.7295 41.5491C20.6248 41.7769 20.4279 41.8984 20.2246 41.9089C20.0212 41.9195 19.8124 41.8195 19.6848 41.6036L15.7462 34.958C8.78144 33.3206 3.36258 26.6997 2.93296 18.5125C2.42118 8.76252 9.17893 0.483135 18.0265 0.0201386Z" fill="#FEC73D"/>
<path d="M19.6848 41.6036L15.7462 34.958C8.78144 33.3206 3.36258 26.6997 2.93296 18.5125C2.92608 18.3805 2.92057 18.2489 2.91644 18.1173C2.91644 18.105 2.91552 18.0926 2.91506 18.0802C2.91139 17.9551 2.90864 17.8304 2.90726 17.7061C2.90726 17.6878 2.9068 17.6695 2.9068 17.6511C2.90588 17.5297 2.90588 17.4086 2.9068 17.2876C2.9068 17.2674 2.9068 17.2468 2.90726 17.2266C2.90864 17.1065 2.91139 16.9864 2.91506 16.8668C2.91552 16.8475 2.91644 16.8278 2.9169 16.8086C2.92103 16.6871 2.92608 16.5661 2.9325 16.4455C2.93342 16.4299 2.93434 16.4143 2.93526 16.3992C2.94214 16.2741 2.94995 16.1494 2.95913 16.0251C2.95958 16.0183 2.96004 16.0109 2.96096 16.0041C2.9706 15.8785 2.98116 15.7533 2.99309 15.6282C2.99401 15.6208 2.99447 15.6135 2.99493 15.6062C3.00686 15.4828 3.02017 15.36 3.0344 15.2371C3.03624 15.2216 3.03807 15.2064 3.03991 15.1908C3.05414 15.0726 3.06928 14.9548 3.08535 14.8369C3.0881 14.8181 3.0904 14.7994 3.09315 14.7806C3.10922 14.6646 3.12666 14.5491 3.14502 14.434C3.14823 14.4147 3.15098 14.3955 3.1542 14.3762C3.17302 14.2607 3.19275 14.1452 3.21341 14.0301C3.21662 14.0132 3.21983 13.9962 3.22305 13.9793C3.24462 13.8614 3.26711 13.7445 3.29098 13.6277C3.29327 13.6166 3.29557 13.6052 3.29786 13.5942C3.32311 13.4722 3.34881 13.3508 3.37635 13.2297C3.37635 13.2288 3.37635 13.2275 3.37681 13.2265C3.40435 13.1055 3.43281 12.985 3.46264 12.8649C3.46539 12.8529 3.46861 12.841 3.47136 12.8291C3.49982 12.715 3.52965 12.6008 3.55995 12.4876C3.56454 12.4706 3.56913 12.4537 3.57372 12.4372C3.60401 12.3262 3.63522 12.2162 3.66735 12.1062C3.67286 12.0878 3.67791 12.0695 3.68341 12.0512C3.71554 11.9416 3.74905 11.833 3.78302 11.7243C3.78852 11.7069 3.79403 11.6895 3.79954 11.6721C3.83442 11.562 3.87022 11.4529 3.9074 11.3438C3.91199 11.3301 3.91704 11.3163 3.92163 11.3026C3.96019 11.1898 3.99966 11.077 4.04051 10.9652C4.04235 10.9597 4.04464 10.9542 4.04648 10.9487C4.08779 10.8359 4.13001 10.7236 4.17316 10.6122C4.17591 10.6049 4.17867 10.598 4.18142 10.5907C4.22411 10.4811 4.26771 10.372 4.31269 10.2634C4.3182 10.2496 4.32417 10.2354 4.32968 10.2216C4.37282 10.1167 4.41734 10.0126 4.46278 9.90901C4.47013 9.89205 4.47747 9.87555 4.48482 9.85858C4.5298 9.75636 4.5757 9.65459 4.62205 9.55328C4.62986 9.53632 4.63766 9.51936 4.64546 9.50286C4.69274 9.40109 4.74093 9.29978 4.79005 9.19939C4.79739 9.18472 4.80427 9.17005 4.81162 9.15584C4.86211 9.0527 4.91351 8.95047 4.96584 8.8487C4.97089 8.83908 4.97548 8.82991 4.98053 8.82074C5.03515 8.71485 5.09069 8.60987 5.1476 8.50535C5.14806 8.50398 5.14898 8.5026 5.14944 8.50168C5.20635 8.39717 5.26418 8.29356 5.32248 8.19088C5.32844 8.18034 5.33395 8.17025 5.33992 8.15971C5.39592 8.06161 5.45329 7.96442 5.51112 7.86724C5.51984 7.85303 5.5281 7.83836 5.53683 7.82415C5.59374 7.72972 5.65111 7.63574 5.70987 7.54269C5.7195 7.5271 5.7296 7.51151 5.73924 7.49593C5.79799 7.40333 5.8572 7.31119 5.91733 7.21951C5.92697 7.20484 5.93661 7.19017 5.94625 7.17596C6.00775 7.08336 6.06972 6.99122 6.1326 6.89999C6.1404 6.88853 6.1482 6.87753 6.15601 6.86653C6.22164 6.77164 6.2882 6.67766 6.35567 6.58415C6.36439 6.57177 6.37357 6.55985 6.38229 6.54747C6.41626 6.50071 6.45022 6.45441 6.48419 6.40811C6.49979 6.38703 6.5154 6.3664 6.531 6.34531C6.55946 6.30772 6.58746 6.27013 6.61592 6.23254C6.63336 6.20962 6.6508 6.1867 6.6687 6.16378C6.69578 6.12848 6.72332 6.09319 6.75086 6.05789C6.76922 6.03451 6.78712 6.01159 6.80548 5.98821C6.83302 5.95337 6.86056 5.91853 6.88856 5.88415C6.90692 5.86169 6.92482 5.83877 6.94318 5.81631C6.97255 5.78055 7.00193 5.74479 7.0313 5.70904C7.04829 5.68841 7.06527 5.66778 7.08225 5.64715C7.11668 5.60544 7.15156 5.56464 7.1869 5.52338C7.19884 5.50917 7.21077 5.49496 7.22316 5.48075C7.27044 5.42574 7.31772 5.37073 7.36591 5.31618C7.37693 5.30334 7.3884 5.29096 7.39942 5.27859C7.43614 5.23687 7.47331 5.19516 7.51049 5.1539C7.52794 5.13465 7.54584 5.11539 7.56328 5.09614C7.59449 5.06176 7.6257 5.02738 7.65737 4.99346C7.67665 4.97237 7.69638 4.95174 7.71612 4.93065C7.74642 4.89856 7.77671 4.86602 7.807 4.83393C7.8272 4.81284 7.84739 4.79175 7.86759 4.77067C7.89834 4.73904 7.92863 4.70695 7.95985 4.67578C7.98004 4.65515 7.99978 4.63452 8.01997 4.61435C8.05256 4.58134 8.08515 4.5488 8.11774 4.51625C8.1361 4.49791 8.15492 4.47912 8.17328 4.46078C8.21229 4.42227 8.25177 4.38377 8.29124 4.34572C8.30363 4.3338 8.31557 4.32188 8.32796 4.30996C8.37982 4.26 8.43215 4.21049 8.48448 4.16098C8.49733 4.1486 8.51064 4.13668 8.52395 4.12431C8.56342 4.08763 8.60289 4.05096 8.64283 4.01429C8.6621 3.99641 8.68184 3.97899 8.70158 3.96111C8.73554 3.9304 8.76951 3.89968 8.80347 3.86943C8.82505 3.85063 8.84616 3.83138 8.86773 3.81259C8.90078 3.7837 8.93383 3.75483 8.96688 3.72595C8.98891 3.70715 9.01094 3.6879 9.03297 3.6691C9.06602 3.64068 9.09952 3.61226 9.13303 3.5843C9.1546 3.56596 9.17663 3.54762 9.19867 3.52929C9.23401 3.49995 9.26935 3.47061 9.30515 3.44127C9.32489 3.42477 9.34509 3.40827 9.36482 3.39222C9.40797 3.35738 9.45111 3.32254 9.49472 3.28816C9.50757 3.27808 9.51996 3.26799 9.53281 3.25791C9.58881 3.21344 9.64527 3.16989 9.70218 3.12634C9.71733 3.11488 9.73247 3.10342 9.74762 3.09196C9.78939 3.05987 9.83162 3.02824 9.87339 2.99707C9.8945 2.98148 9.91561 2.9659 9.93673 2.95031C9.97345 2.92327 10.0097 2.89622 10.0469 2.86963C10.0698 2.85267 10.0932 2.83617 10.1162 2.81966C10.1515 2.79445 10.1869 2.76924 10.2227 2.74403C10.2461 2.72752 10.27 2.71102 10.2938 2.69452C10.3296 2.6693 10.3659 2.64455 10.4021 2.6198C10.4251 2.60375 10.4485 2.58817 10.4715 2.57258C10.5095 2.54691 10.5481 2.52124 10.5867 2.49557C10.6078 2.48136 10.6289 2.46715 10.6505 2.45339C10.6977 2.42222 10.745 2.39197 10.7927 2.36125C10.8051 2.35346 10.8175 2.34521 10.8304 2.33696C10.8905 2.29891 10.9511 2.26086 11.0117 2.22373C11.0287 2.21318 11.0457 2.2031 11.0626 2.19256C11.1067 2.16551 11.1508 2.13892 11.1948 2.11233C11.2173 2.09858 11.2403 2.08529 11.2628 2.07199C11.3018 2.04907 11.3403 2.02615 11.3798 2.00369C11.4046 1.98948 11.4294 1.97527 11.4537 1.96106C11.4913 1.93951 11.5294 1.91797 11.5671 1.89688C11.5923 1.88267 11.6176 1.86892 11.6428 1.85471C11.6814 1.83362 11.7195 1.81253 11.758 1.79145C11.7833 1.77769 11.809 1.76394 11.8347 1.75019C11.8645 1.73414 11.8948 1.71856 11.9246 1.70251C11.9535 1.68739 11.9825 1.67226 12.0114 1.65713C12.0412 1.64154 12.0715 1.62642 12.1018 1.61083C12.1307 1.59616 12.1601 1.58103 12.1895 1.56636C12.2198 1.55124 12.2505 1.53611 12.2808 1.52098C12.3102 1.50677 12.3391 1.4921 12.3685 1.47789C12.3992 1.46322 12.43 1.44855 12.4603 1.43388C12.4896 1.41967 12.519 1.40592 12.5489 1.39217C12.5796 1.37796 12.6104 1.36375 12.6416 1.34954C12.6714 1.33578 12.7008 1.32249 12.7306 1.30874C12.7614 1.29453 12.7926 1.28123 12.8238 1.26702C12.8536 1.25373 12.8835 1.24043 12.9138 1.22714C12.945 1.21339 12.9762 1.20009 13.0074 1.1868C13.0372 1.17396 13.0675 1.16113 13.0978 1.14829C13.129 1.135 13.1607 1.12216 13.1919 1.10933C13.2222 1.09695 13.2525 1.08412 13.2828 1.0722C13.3145 1.05936 13.3461 1.04698 13.3773 1.03461C13.4076 1.02269 13.4379 1.01031 13.4687 0.998851C13.5008 0.986474 13.5325 0.974096 13.5646 0.962178C13.5949 0.950717 13.6252 0.938799 13.6559 0.927797C13.6881 0.915878 13.7202 0.903959 13.7523 0.892499C13.7831 0.881497 13.8138 0.870037 13.8446 0.859035C13.8767 0.847575 13.9088 0.836573 13.941 0.825112C13.9722 0.81411 14.0029 0.803109 14.0342 0.792565C14.0663 0.781563 14.0989 0.770561 14.131 0.760018C14.1622 0.749474 14.1934 0.738931 14.2246 0.728846C14.2572 0.718302 14.2898 0.707759 14.3224 0.697215C14.3536 0.68713 14.3848 0.677045 14.416 0.667418C14.4486 0.657333 14.4817 0.647248 14.5147 0.637163C14.5459 0.627537 14.5771 0.61791 14.6088 0.608742C14.6419 0.598657 14.6754 0.589488 14.7084 0.579862C14.7396 0.570693 14.7708 0.561525 14.802 0.552815C14.8356 0.543189 14.8695 0.53402 14.903 0.524852C14.9342 0.516142 14.9654 0.507433 14.9967 0.499181C15.0302 0.490013 15.0641 0.481303 15.0981 0.472593C15.1298 0.464342 15.161 0.45609 15.1926 0.448297C15.2262 0.439588 15.2601 0.431795 15.2936 0.423543C15.3253 0.41575 15.3574 0.407957 15.3891 0.400164C15.4231 0.391913 15.457 0.384578 15.4905 0.376785C15.5227 0.36945 15.5543 0.361657 15.5865 0.354781C15.6204 0.346988 15.6544 0.340112 15.6884 0.332778C15.7205 0.325901 15.7531 0.318567 15.7852 0.311691C15.8192 0.304814 15.8531 0.297938 15.8871 0.291062C15.9197 0.284644 15.9518 0.277768 15.9844 0.27135C16.0193 0.264474 16.0537 0.258056 16.0886 0.251639C16.1207 0.245679 16.1524 0.23972 16.1845 0.23376C16.2199 0.227343 16.2557 0.221383 16.291 0.215424C16.3227 0.209923 16.3544 0.204422 16.386 0.198921C16.4214 0.192962 16.4567 0.187461 16.4916 0.18196C16.5237 0.176917 16.5559 0.171416 16.5884 0.166832C16.6238 0.161331 16.6596 0.156289 16.6954 0.151246C16.7275 0.146662 16.7592 0.14162 16.7913 0.137494C16.828 0.132451 16.8648 0.127867 16.9015 0.123283C16.9327 0.119157 16.9639 0.115032 16.9951 0.110906C17.0323 0.106322 17.0699 0.102196 17.1071 0.0980704C17.1379 0.0944031 17.1691 0.0907358 17.1998 0.0875269C17.2384 0.0834012 17.2769 0.0797339 17.3155 0.0756082C17.3453 0.0723993 17.3756 0.0691904 17.4054 0.0664399C17.4454 0.0627726 17.4858 0.0591053 17.5262 0.0558965C17.5546 0.0536044 17.5835 0.0508539 17.612 0.0485619C17.6551 0.0448946 17.6983 0.0421441 17.7414 0.0389352C17.7676 0.0371016 17.7933 0.0348095 17.8195 0.0334343C17.8764 0.029767 17.9333 0.0265581 17.9907 0.0233492C18.0031 0.0228908 18.0155 0.021974 18.0274 0.0210571L15.1215 0.17325C15.0522 0.176917 14.9829 0.181043 14.9136 0.185627C14.8893 0.187461 14.8645 0.189294 14.8401 0.191128C14.7956 0.194337 14.7506 0.197546 14.7061 0.201213C14.68 0.203505 14.6543 0.205797 14.6281 0.208089C14.5854 0.211757 14.5423 0.215424 14.4996 0.21955C14.4711 0.2223 14.4431 0.225509 14.4151 0.228259C14.3747 0.232385 14.3343 0.236052 14.2939 0.240637C14.2641 0.243845 14.2347 0.247513 14.2054 0.250722C14.1668 0.255306 14.1278 0.259432 14.0892 0.264016C14.0585 0.267683 14.0282 0.271809 13.9974 0.275934C13.9603 0.280977 13.9226 0.285561 13.8854 0.290604C13.8538 0.294729 13.8221 0.299772 13.7909 0.304356C13.7546 0.309398 13.7184 0.314441 13.6826 0.319942C13.6509 0.324984 13.6192 0.330027 13.5871 0.33507C13.5513 0.34057 13.5155 0.346071 13.4801 0.352031C13.448 0.357532 13.4159 0.363033 13.3838 0.368534C13.3489 0.374493 13.3135 0.380452 13.2786 0.38687C13.2461 0.392829 13.2139 0.398789 13.1818 0.405207C13.1474 0.411624 13.113 0.418042 13.0785 0.42446C13.0464 0.430878 13.0143 0.437295 12.9821 0.443713C12.9477 0.450589 12.9133 0.457466 12.8789 0.4648C12.8472 0.471676 12.8151 0.478553 12.7834 0.485429C12.749 0.492763 12.7145 0.500098 12.6801 0.507891C12.648 0.515226 12.6163 0.52256 12.5847 0.529895C12.5507 0.537688 12.5167 0.545481 12.4828 0.553732C12.4506 0.561525 12.419 0.569318 12.3873 0.577111C12.3538 0.585363 12.3198 0.593614 12.2863 0.601865C12.2546 0.610117 12.223 0.618368 12.1913 0.62662C12.1578 0.63533 12.1243 0.644039 12.0908 0.652749C12.0591 0.661001 12.0274 0.670169 11.9962 0.678879C11.9627 0.688047 11.9292 0.697215 11.8962 0.706383C11.8645 0.715093 11.8333 0.724262 11.8021 0.73343C11.769 0.743056 11.7355 0.752683 11.7025 0.76231C11.6708 0.771478 11.6396 0.781563 11.6084 0.790731C11.5758 0.800816 11.5427 0.810443 11.5102 0.820987C11.4789 0.830613 11.4473 0.840698 11.4161 0.850783C11.3835 0.861327 11.3509 0.871412 11.3183 0.881955C11.2871 0.89204 11.2563 0.902584 11.2256 0.913127C11.193 0.924129 11.1604 0.934673 11.1278 0.946133C11.0971 0.956677 11.0663 0.967679 11.0356 0.978222C11.003 0.989682 10.9708 1.00068 10.9382 1.0126C10.9075 1.0236 10.8767 1.03507 10.846 1.04607C10.8139 1.05799 10.7817 1.06945 10.7501 1.08136C10.7193 1.09283 10.6886 1.10474 10.6578 1.1162C10.6261 1.12812 10.5945 1.1405 10.5628 1.15242C10.5325 1.16434 10.5022 1.17626 10.4715 1.18817C10.4398 1.20055 10.4081 1.21339 10.3764 1.22622C10.3461 1.2386 10.3163 1.25098 10.2865 1.26335C10.2548 1.27619 10.2231 1.28948 10.1919 1.30278C10.1616 1.31561 10.1318 1.32845 10.102 1.34128C10.0708 1.35458 10.0395 1.36787 10.0083 1.38162C9.97849 1.39446 9.94866 1.40775 9.91883 1.42105C9.88761 1.4348 9.85686 1.44855 9.82565 1.46276C9.79582 1.47606 9.76644 1.48981 9.73661 1.50356C9.70585 1.51777 9.67464 1.53198 9.64389 1.54619C9.61405 1.55995 9.58468 1.57416 9.5553 1.58837C9.52501 1.60304 9.49426 1.61725 9.46396 1.63192C9.43459 1.64613 9.40475 1.6608 9.37538 1.67547C9.34509 1.69014 9.31479 1.70526 9.28496 1.72039C9.25558 1.73506 9.22621 1.75019 9.19683 1.76532C9.167 1.78044 9.13716 1.79557 9.10733 1.81116C9.07795 1.82628 9.04904 1.84141 9.01966 1.857C8.98983 1.87258 8.95999 1.88817 8.93016 1.90421C8.92052 1.90926 8.91088 1.9143 8.90124 1.91934C8.88517 1.92805 8.86911 1.93676 8.85305 1.94547C8.81495 1.9661 8.77639 1.98719 8.7383 2.00827C8.71305 2.02249 8.68735 2.03624 8.6621 2.05045C8.62447 2.07154 8.58683 2.09308 8.54919 2.11417C8.52441 2.12838 8.49962 2.14259 8.47484 2.1568C8.43582 2.17926 8.39727 2.20218 8.35871 2.22464C8.33576 2.2384 8.31281 2.25169 8.28986 2.26544C8.2458 2.29157 8.20219 2.31862 8.15813 2.34521C8.14115 2.35575 8.12371 2.36584 8.10672 2.37638C8.04614 2.41397 7.98555 2.45156 7.92542 2.48961C7.91303 2.4974 7.90064 2.50565 7.88778 2.5139C7.84005 2.54416 7.79277 2.57487 7.7455 2.60604C7.72392 2.62025 7.70281 2.63447 7.6817 2.64822C7.6436 2.67343 7.60505 2.6991 7.56695 2.72477C7.54354 2.74082 7.52013 2.75686 7.49672 2.77291C7.46092 2.7972 7.42512 2.82196 7.38932 2.84671C7.36545 2.86321 7.34158 2.88017 7.31772 2.89668C7.28237 2.92189 7.24657 2.9471 7.21123 2.97232C7.18828 2.98882 7.16487 3.00532 7.14192 3.02228C7.1052 3.04887 7.06848 3.07592 7.03222 3.10296C7.01111 3.11855 6.99 3.13414 6.96888 3.14972C6.92665 3.18135 6.88443 3.21298 6.84266 3.24507C6.82751 3.25653 6.81282 3.26753 6.79768 3.27899C6.74076 3.32254 6.68431 3.36655 6.62831 3.41056C6.61546 3.42064 6.60307 3.43073 6.59021 3.44081C6.54661 3.47519 6.50346 3.51003 6.46032 3.54487C6.44058 3.56092 6.42039 3.57742 6.40065 3.59392C6.36485 3.62326 6.32905 3.6526 6.2937 3.68194C6.27213 3.69982 6.25056 3.71815 6.22899 3.73649C6.19548 3.76491 6.16197 3.79333 6.12847 3.82175C6.10644 3.84055 6.0844 3.85934 6.06283 3.8786C6.02978 3.90748 5.99674 3.9359 5.96369 3.96524C5.94212 3.98403 5.921 4.00283 5.89943 4.02208C5.86501 4.05233 5.83104 4.08305 5.79707 4.11376C5.7778 4.13118 5.75806 4.14906 5.73878 4.16648C5.69931 4.20269 5.65984 4.23937 5.62036 4.27604C5.60705 4.28842 5.59374 4.30079 5.58043 4.31317C5.52811 4.36222 5.47578 4.41173 5.42391 4.4617C5.41106 4.47407 5.39867 4.48645 5.38582 4.49883C5.3468 4.53642 5.30779 4.57447 5.26923 4.61297C5.25041 4.63177 5.2316 4.65056 5.21278 4.66936C5.18019 4.7019 5.14806 4.73399 5.11593 4.767C5.09573 4.78763 5.07554 4.80826 5.0558 4.82889C5.02505 4.86052 4.99476 4.89169 4.964 4.92378C4.94381 4.94486 4.92315 4.96641 4.90296 4.9875C4.87266 5.01958 4.84237 5.05167 4.81208 5.08376C4.7928 5.10485 4.77306 5.12548 4.75379 5.14656C4.72211 5.18049 4.6909 5.21487 4.65969 5.24925C4.64225 5.2685 4.62435 5.28776 4.60691 5.30747C4.56973 5.34872 4.53301 5.38998 4.49629 5.4317C4.48527 5.44453 4.4738 5.45691 4.46233 5.46975C4.41459 5.5243 4.36685 5.57885 4.32004 5.63386C4.30764 5.64807 4.29571 5.66274 4.28332 5.67695C4.24843 5.7182 4.21355 5.759 4.17913 5.80072C4.16214 5.82135 4.14516 5.84152 4.12818 5.86215C4.0988 5.8979 4.06897 5.93366 4.04005 5.96987C4.02169 5.99233 4.00379 6.0148 3.98589 6.03726C3.95789 6.0721 3.93035 6.10694 3.90235 6.14178C3.88399 6.1647 3.86564 6.18808 3.84773 6.21146C3.82019 6.24675 3.79311 6.28205 3.76557 6.31735C3.74813 6.34027 3.73023 6.36273 3.71279 6.38565C3.68433 6.42324 3.65588 6.46083 3.62788 6.49842C3.61227 6.51951 3.59621 6.54014 3.5806 6.56168C3.54664 6.60752 3.51313 6.65337 3.47962 6.69967C3.47136 6.71113 3.46264 6.72259 3.45392 6.7345C3.453 6.73542 3.45254 6.7368 3.45162 6.73771C3.38415 6.83077 3.31806 6.9252 3.25242 7.01964C3.24462 7.03064 3.23682 7.0421 3.22901 7.0531C3.16613 7.14433 3.10417 7.23647 3.04266 7.32907C3.03302 7.34373 3.02338 7.3584 3.01329 7.37307C2.95316 7.4643 2.89395 7.55644 2.83566 7.64904C2.82556 7.66462 2.81592 7.68067 2.80582 7.69625C2.74753 7.78931 2.6897 7.88283 2.63324 7.97726C2.62452 7.99193 2.6158 8.0066 2.60708 8.02081C2.54925 8.11753 2.49233 8.21472 2.43633 8.31282C2.43037 8.32336 2.4244 8.33391 2.41843 8.34445C2.36014 8.44713 2.30231 8.55073 2.24585 8.65479C2.24493 8.65617 2.24447 8.65754 2.24356 8.65892C2.1871 8.76298 2.13156 8.86841 2.07694 8.97385C2.07189 8.98347 2.0673 8.99264 2.06225 9.00227C2.00993 9.10404 1.95852 9.20626 1.90803 9.30895C1.90069 9.32362 1.89334 9.33829 1.88646 9.35341C1.83735 9.45381 1.78961 9.55466 1.74234 9.65642C1.73453 9.67339 1.72673 9.69035 1.71847 9.70731C1.67165 9.80862 1.62621 9.91039 1.58123 10.0126C1.57389 10.0296 1.56654 10.0461 1.5592 10.063C1.51422 10.1666 1.4697 10.2712 1.42609 10.3757C1.42012 10.3894 1.41462 10.4036 1.40911 10.4174C1.36459 10.526 1.32052 10.6351 1.27784 10.7447C1.27508 10.752 1.27233 10.7589 1.26957 10.7662C1.22643 10.8776 1.1842 10.9899 1.14289 11.1027C1.14106 11.1082 1.13876 11.1137 1.13693 11.1192C1.09608 11.2311 1.0566 11.3438 1.01805 11.4566C1.01346 11.4704 1.00887 11.4837 1.00382 11.4974C0.96664 11.6065 0.930838 11.7156 0.895955 11.8256C0.890447 11.8431 0.884939 11.8605 0.879431 11.8779C0.845466 11.9861 0.811959 12.0952 0.77983 12.2043C0.774322 12.2226 0.768814 12.2414 0.763306 12.2597C0.731176 12.3693 0.699965 12.4798 0.670131 12.5903C0.665541 12.6072 0.660951 12.6242 0.656361 12.6411C0.625608 12.7544 0.596233 12.8685 0.567775 12.9827C0.565021 12.9946 0.561808 13.0065 0.559054 13.0184C0.52922 13.1385 0.500762 13.2591 0.473223 13.3801C0.473223 13.381 0.473223 13.3819 0.472764 13.3829C0.445224 13.5039 0.419521 13.6258 0.394276 13.7478C0.391981 13.7588 0.389686 13.7702 0.387391 13.7812C0.363524 13.8981 0.341033 14.0155 0.31946 14.1328C0.316247 14.1498 0.313035 14.1667 0.309822 14.1837C0.289167 14.2988 0.26943 14.4138 0.250612 14.5298C0.247399 14.5491 0.244186 14.5683 0.241432 14.5876C0.223072 14.7026 0.20563 14.8181 0.189566 14.9341C0.186812 14.9529 0.184517 14.9717 0.181763 14.9905C0.165698 15.1083 0.150551 15.2261 0.136323 15.3444C0.134487 15.36 0.132651 15.3751 0.130815 15.3907C0.116586 15.5131 0.103275 15.6364 0.0913413 15.7597C0.0904233 15.7671 0.0899643 15.7744 0.0895053 15.7822C0.0775715 15.9069 0.0670147 16.0325 0.0573758 16.1581C0.0569168 16.165 0.0559989 16.1723 0.0555399 16.1792C0.04636 16.3034 0.0385571 16.4281 0.0316723 16.5532C0.0307543 16.5688 0.0298363 16.5844 0.0289183 16.5995C0.0224924 16.7201 0.0174435 16.8411 0.0133126 16.9626C0.0128536 16.9819 0.0119356 17.0016 0.0114766 17.0208C0.00780466 17.1405 0.00505071 17.2606 0.00367373 17.3807C0.00367373 17.4008 0.00321474 17.4215 0.00321474 17.4416C0.00183776 17.5627 0.00183776 17.6837 0.00321474 17.8052C0.00321474 17.8235 0.00321474 17.8418 0.00367373 17.8602C0.00505071 17.9844 0.00734567 18.1091 0.0114766 18.2342C0.0114766 18.2466 0.0123946 18.259 0.0128536 18.2714C0.0169845 18.4029 0.0224924 18.5345 0.0293773 18.6665C0.458994 26.8538 5.87832 33.4746 12.8426 35.1121L16.7812 41.7577C16.9088 41.9731 17.1177 42.0735 17.321 42.063L20.2269 41.9108C20.0235 41.9213 19.8147 41.8214 19.6871 41.6055L19.6848 41.6036Z" fill="#F5933D"/>
<g style="mix-blend-mode:multiply" opacity="0.4">
<g style="mix-blend-mode:multiply" opacity="0.01">
<path d="M26.8743 49.6414C26.88 48.8305 22.7653 48.1444 17.6838 48.109C12.6024 48.0735 8.4785 48.7022 8.47283 49.5131C8.46717 50.324 12.5819 51.01 17.6633 51.0455C22.7447 51.0809 26.8686 50.4523 26.8743 49.6414Z" fill="black"/>
</g>
<g style="mix-blend-mode:multiply" opacity="0.01">
<path d="M26.693 49.6401C26.6986 48.8451 22.6649 48.1725 17.6836 48.1378C12.7023 48.1031 8.65969 48.7193 8.65414 49.5143C8.64858 50.3092 12.6822 50.9818 17.6635 51.0166C22.6448 51.0513 26.6875 50.435 26.693 49.6401Z" fill="black"/>
</g>
<g style="mix-blend-mode:multiply" opacity="0.01">
<path d="M26.5117 49.6388C26.5172 48.8598 22.5646 48.2007 17.6834 48.1667C12.8023 48.1327 8.84088 48.7366 8.83544 49.5156C8.82999 50.2946 12.7825 50.9537 17.6637 50.9877C22.5449 51.0217 26.5063 50.4178 26.5117 49.6388Z" fill="black"/>
</g>
<g style="mix-blend-mode:multiply" opacity="0.01">
<path d="M26.3304 49.6375C26.3358 48.8745 22.4643 48.2289 17.6832 48.1956C12.9022 48.1622 9.02206 48.7538 9.01673 49.5168C9.0114 50.2799 12.8829 50.9255 17.6639 50.9588C22.445 50.9921 26.3251 50.4006 26.3304 49.6375Z" fill="black"/>
</g>
<g style="mix-blend-mode:multiply" opacity="0.01">
<path d="M26.1491 49.6363C26.1543 48.8892 22.3639 48.2571 17.683 48.2245C13.0021 48.1918 9.20325 48.771 9.19802 49.5181C9.1928 50.2652 12.9832 50.8973 17.6641 50.9299C22.345 50.9626 26.1439 50.3834 26.1491 49.6363Z" fill="black"/>
</g>
<g style="mix-blend-mode:multiply" opacity="0.01">
<path d="M25.9678 49.635C25.9729 48.9039 22.2636 48.2852 17.6828 48.2533C13.102 48.2214 9.38444 48.7882 9.37933 49.5193C9.37421 50.2505 13.0835 50.8691 17.6643 50.901C22.2451 50.933 25.9627 50.3662 25.9678 49.635Z" fill="black"/>
</g>
<g style="mix-blend-mode:multiply" opacity="0.01">
<path d="M25.787 49.6338C25.792 48.9186 22.1635 48.3135 17.6826 48.2822C13.2017 48.251 9.56516 48.8054 9.56016 49.5206C9.55516 50.2358 13.1836 50.8409 17.6645 50.8722C22.1454 50.9034 25.782 50.349 25.787 49.6338Z" fill="black"/>
</g>
<g style="mix-blend-mode:multiply" opacity="0.01">
<path d="M25.6057 49.6325C25.6106 48.9333 22.0632 48.3417 17.6824 48.3111C13.3016 48.2806 9.74635 48.8227 9.74146 49.5219C9.73658 50.2212 13.2839 50.8128 17.6647 50.8433C22.0455 50.8739 25.6008 50.3318 25.6057 49.6325Z" fill="black"/>
</g>
<g style="mix-blend-mode:multiply" opacity="0.01">
<path d="M25.4244 49.6313C25.4292 48.9482 21.9629 48.3703 17.6822 48.3405C13.4016 48.3106 9.92754 48.8401 9.92276 49.5232C9.91799 50.2062 13.3843 50.7841 17.6649 50.814C21.9456 50.8438 25.4196 50.3143 25.4244 49.6313Z" fill="black"/>
</g>
<g style="mix-blend-mode:multiply" opacity="0.01">
<path d="M25.2431 49.63C25.2478 48.9629 21.8625 48.3985 17.682 48.3693C13.5015 48.3402 10.1087 48.8573 10.1041 49.5244C10.0994 50.1915 13.4846 50.7559 17.6651 50.7851C21.8457 50.8142 25.2384 50.2971 25.2431 49.63Z" fill="black"/>
</g>
<g style="mix-blend-mode:multiply" opacity="0.01">
<path d="M25.0618 49.6287C25.0663 48.9776 21.7622 48.4267 17.6818 48.3982C13.6014 48.3698 10.2899 48.8746 10.2854 49.5257C10.2808 50.1769 13.5849 50.7278 17.6653 50.7562C21.7457 50.7847 25.0572 50.2799 25.0618 49.6287Z" fill="black"/>
</g>
<g style="mix-blend-mode:multiply" opacity="0.01">
<path d="M24.8805 49.6274C24.8849 48.9922 21.6619 48.4548 17.6816 48.4271C13.7013 48.3993 10.4711 48.8917 10.4667 49.5269C10.4622 50.1621 13.6853 50.6996 17.6655 50.7273C21.6458 50.7551 24.8761 50.2626 24.8805 49.6274Z" fill="black"/>
</g>
<g style="mix-blend-mode:multiply" opacity="0.01">
<path d="M24.6997 49.6262C24.704 49.007 21.5618 48.483 17.6814 48.456C13.801 48.4289 10.6518 48.909 10.6475 49.5282C10.6432 50.1475 13.7853 50.6714 17.6657 50.6985C21.5461 50.7255 24.6953 50.2455 24.6997 49.6262Z" fill="black"/>
</g>
<g style="mix-blend-mode:multiply" opacity="0.01">
<path d="M24.5184 49.6249C24.5226 49.0216 21.4615 48.5112 17.6812 48.4848C13.9009 48.4585 10.833 48.9262 10.8288 49.5295C10.8246 50.1328 13.8857 50.6432 17.6659 50.6696C21.4462 50.6959 24.5141 50.2282 24.5184 49.6249Z" fill="black"/>
</g>
<g style="mix-blend-mode:multiply" opacity="0.01">
<path d="M24.3371 49.6237C24.3412 49.0363 21.3612 48.5394 17.681 48.5137C14.0009 48.4881 11.0142 48.9434 11.0101 49.5307C11.006 50.1181 13.986 50.615 17.6661 50.6407C21.3463 50.6664 24.333 50.211 24.3371 49.6237Z" fill="black"/>
</g>
<g style="mix-blend-mode:multiply" opacity="0.01">
<path d="M24.1558 49.6224C24.1598 49.051 21.2608 48.5675 17.6808 48.5426C14.1008 48.5176 11.1954 48.9606 11.1914 49.532C11.1874 50.1034 14.0863 50.5868 17.6663 50.6118C21.2464 50.6367 24.1518 50.1938 24.1558 49.6224Z" fill="black"/>
</g>
<g style="mix-blend-mode:multiply" opacity="0.02">
<path d="M23.9745 49.6211C23.9783 49.0657 21.1605 48.5957 17.6806 48.5715C14.2007 48.5472 11.3766 48.9778 11.3727 49.5333C11.3688 50.0887 14.1867 50.5587 17.6665 50.5829C21.1464 50.6072 23.9706 50.1766 23.9745 49.6211Z" fill="black"/>
</g>
<g style="mix-blend-mode:multiply" opacity="0.02">
<path d="M23.7936 49.6198C23.7974 49.0803 21.0604 48.6239 17.6804 48.6003C14.3004 48.5768 11.5573 48.995 11.5535 49.5345C11.5497 50.074 14.2867 50.5305 17.6667 50.554C21.0468 50.5776 23.7899 50.1593 23.7936 49.6198Z" fill="black"/>
</g>
<g style="mix-blend-mode:multiply" opacity="0.02">
<path d="M23.6123 49.6186C23.616 49.0951 20.9601 48.6521 17.6802 48.6292C14.4003 48.6064 11.7385 49.0122 11.7348 49.5358C11.7312 50.0593 14.3871 50.5023 17.6669 50.5252C20.9468 50.548 23.6087 50.1422 23.6123 49.6186Z" fill="black"/>
</g>
<g style="mix-blend-mode:multiply" opacity="0.02">
<path d="M23.431 49.6173C23.4346 49.11 20.8597 48.6807 17.68 48.6586C14.5002 48.6364 11.9197 49.0297 11.9161 49.5371C11.9126 50.0444 14.4874 50.4737 17.6671 50.4958C20.8469 50.518 23.4275 50.1247 23.431 49.6173Z" fill="black"/>
</g>
<g style="mix-blend-mode:multiply" opacity="0.02">
<path d="M23.2497 49.6161C23.2532 49.1247 20.7594 48.7089 17.6798 48.6875C14.6002 48.666 12.1008 49.0469 12.0974 49.5383C12.094 50.0297 14.5877 50.4455 17.6674 50.467C20.747 50.4885 23.2463 50.1075 23.2497 49.6161Z" fill="black"/>
</g>
<g style="mix-blend-mode:multiply" opacity="0.02">
<path d="M23.0684 49.6148C23.0718 49.1394 20.6591 48.7371 17.6796 48.7163C14.7001 48.6955 12.282 49.0641 12.2787 49.5396C12.2754 50.015 14.6881 50.4173 17.6676 50.4381C20.6471 50.4588 23.0651 50.0903 23.0684 49.6148Z" fill="black"/>
</g>
<g style="mix-blend-mode:multiply" opacity="0.02">
<path d="M22.8871 49.6136C22.8904 49.1541 20.5588 48.7653 17.6794 48.7452C14.8 48.7251 12.4632 49.0814 12.46 49.5409C12.4568 50.0004 14.7884 50.3891 17.6678 50.4092C20.5471 50.4293 22.8839 50.0731 22.8871 49.6136Z" fill="black"/>
</g>
<g style="mix-blend-mode:multiply" opacity="0.02">
<path d="M22.7063 49.6123C22.7094 49.1687 20.4587 48.7934 17.6792 48.7741C14.8997 48.7547 12.6439 49.0985 12.6408 49.5421C12.6377 49.9856 14.8885 50.3609 17.668 50.3803C20.4475 50.3997 22.7032 50.0558 22.7063 49.6123Z" fill="black"/>
</g>
<g style="mix-blend-mode:multiply" opacity="0.02">
<path d="M22.525 49.611C22.528 49.1834 20.3584 48.8217 17.679 48.803C14.9996 48.7843 12.8251 49.1158 12.8221 49.5434C12.8192 49.971 14.9888 50.3328 17.6682 50.3515C20.3475 50.3701 22.522 50.0386 22.525 49.611Z" fill="black"/>
</g>
<g style="mix-blend-mode:multiply" opacity="0.02">
<path d="M22.3437 49.6097C22.3466 49.1981 20.258 48.8498 17.6788 48.8318C15.0995 48.8138 13.0063 49.133 13.0034 49.5446C13.0006 49.9563 15.0891 50.3046 17.6684 50.3225C20.2476 50.3405 22.3408 50.0214 22.3437 49.6097Z" fill="black"/>
</g>
<g style="mix-blend-mode:multiply" opacity="0.02">
<path d="M22.1624 49.6085C22.1652 49.2128 20.1577 48.878 17.6786 48.8607C15.1995 48.8434 13.1875 49.1502 13.1847 49.5459C13.182 49.9416 15.1895 50.2764 17.6686 50.2937C20.1477 50.311 22.1596 50.0042 22.1624 49.6085Z" fill="black"/>
</g>
<g style="mix-blend-mode:multiply" opacity="0.02">
<path d="M21.9811 49.6072C21.9838 49.2275 20.0574 48.9062 17.6784 48.8896C15.2994 48.873 13.3687 49.1674 13.366 49.5471C13.3634 49.9269 15.2898 50.2482 17.6688 50.2648C20.0478 50.2814 21.9785 49.987 21.9811 49.6072Z" fill="black"/>
</g>
<g style="mix-blend-mode:multiply" opacity="0.02">
<path d="M21.8003 49.606C21.8028 49.2422 19.9573 48.9344 17.6782 48.9185C15.3991 48.9026 13.5494 49.1846 13.5469 49.5484C13.5443 49.9122 15.3899 50.22 17.669 50.2359C19.9481 50.2518 21.7977 49.9698 21.8003 49.606Z" fill="black"/>
</g>
<g style="mix-blend-mode:multiply" opacity="0.02">
<path d="M21.619 49.6047C21.6214 49.2568 19.857 48.9625 17.678 48.9473C15.499 48.9321 13.7306 49.2018 13.7282 49.5497C13.7257 49.8975 15.4902 50.1918 17.6692 50.207C19.8482 50.2222 21.6165 49.9525 21.619 49.6047Z" fill="black"/>
</g>
<g style="mix-blend-mode:multiply" opacity="0.02">
<path d="M21.4377 49.6035C21.44 49.2718 19.7566 48.9912 17.6778 48.9767C15.5989 48.9622 13.9118 49.2193 13.9095 49.551C13.9072 49.8826 15.5905 50.1632 17.6694 50.1777C19.7482 50.1922 21.4354 49.9351 21.4377 49.6035Z" fill="black"/>
</g>
<g style="mix-blend-mode:multiply" opacity="0.02">
<path d="M21.2564 49.6022C21.2586 49.2865 19.6563 49.0194 17.6776 49.0056C15.6988 48.9918 14.093 49.2365 14.0908 49.5522C14.0886 49.8679 15.6908 50.135 17.6696 50.1488C19.6483 50.1626 21.2542 49.9179 21.2564 49.6022Z" fill="black"/>
</g>
<g style="mix-blend-mode:multiply" opacity="0.02">
<path d="M21.0742 49.5983C21.0719 49.8981 19.5476 50.1305 17.6689 50.1177C15.7903 50.1048 14.2692 49.8509 14.271 49.5511C14.2733 49.2513 15.7976 49.0189 17.6763 49.0317C19.5549 49.0445 21.076 49.2985 21.0742 49.5983Z" fill="black"/>
</g>
</g>
<path d="M28.9459 9.82883L28.1711 9.86917C28.144 9.87054 28.1174 9.87284 28.0903 9.87604C28.0816 9.87696 28.0729 9.87834 28.0642 9.87971C28.0463 9.882 28.0284 9.88475 28.0105 9.8875C27.9999 9.88934 27.9898 9.89163 27.9797 9.89346C27.9636 9.89667 27.9471 9.89988 27.9311 9.90401C27.9205 9.9063 27.9095 9.90951 27.8989 9.91226C27.8833 9.91638 27.8677 9.92051 27.8521 9.92509C27.8416 9.9283 27.8305 9.93151 27.82 9.93518C27.8044 9.94022 27.7892 9.94572 27.7736 9.95122C27.7635 9.95489 27.753 9.95856 27.7429 9.96268C27.7268 9.9691 27.7112 9.97552 27.6956 9.9824C27.6864 9.98652 27.6768 9.99019 27.6676 9.99477C27.6497 10.003 27.6323 10.0117 27.6148 10.0209C27.6079 10.0246 27.6006 10.0278 27.5937 10.0314C27.5928 10.0319 27.5914 10.0324 27.5905 10.0333C27.5698 10.0443 27.5492 10.0567 27.5285 10.069C27.5258 10.0709 27.523 10.0722 27.5203 10.0741C27.4959 10.0887 27.4721 10.1043 27.4487 10.1208C27.4413 10.1259 27.434 10.1318 27.4266 10.1369C27.4106 10.1483 27.395 10.1598 27.3794 10.1722C27.3706 10.1791 27.3619 10.1868 27.3532 10.1937C27.3394 10.2052 27.3256 10.2162 27.3123 10.2281C27.3032 10.2364 27.2944 10.2446 27.2853 10.2533C27.2729 10.2648 27.2605 10.2767 27.2481 10.2886C27.2389 10.2978 27.2302 10.307 27.2215 10.3166C27.21 10.329 27.198 10.3413 27.187 10.3537C27.1783 10.3638 27.1696 10.3739 27.1609 10.384C27.1499 10.3968 27.1393 10.4101 27.1287 10.4234C27.1205 10.4339 27.1122 10.4449 27.104 10.4559C27.0984 10.4633 27.0929 10.4701 27.0874 10.4775C27.0842 10.4816 27.0819 10.4862 27.0787 10.4903C27.0544 10.5247 27.031 10.5595 27.0089 10.5962L18.6232 24.5966L19.3979 24.5562L27.7837 10.5559C27.8058 10.5192 27.8292 10.4839 27.8535 10.45C27.8618 10.4385 27.87 10.4266 27.8787 10.4151C27.887 10.4041 27.8953 10.3931 27.9035 10.3826C27.9141 10.3693 27.9246 10.3565 27.9356 10.3432C27.9444 10.3331 27.9531 10.3225 27.9618 10.3129C27.9733 10.3001 27.9848 10.2877 27.9962 10.2758C28.005 10.2666 28.0141 10.257 28.0229 10.2478C28.0353 10.2354 28.0476 10.224 28.06 10.2125C28.0692 10.2043 28.0779 10.1956 28.0871 10.1873C28.1004 10.1754 28.1142 10.1639 28.128 10.1529C28.1367 10.1456 28.1454 10.1383 28.1541 10.1314C28.1697 10.119 28.1858 10.1075 28.2019 10.0956C28.2092 10.0906 28.2161 10.0851 28.2234 10.0796C28.2468 10.0631 28.2707 10.0475 28.295 10.0328C28.2978 10.031 28.3005 10.0296 28.3038 10.0278C28.3253 10.0149 28.3469 10.0021 28.3689 9.99065C28.3758 9.98698 28.3832 9.98377 28.3901 9.9801C28.4075 9.97094 28.4249 9.96223 28.4428 9.95397C28.452 9.94985 28.4617 9.94572 28.4708 9.9416C28.4864 9.93472 28.5025 9.92785 28.5181 9.92189C28.5282 9.91776 28.5388 9.91409 28.5489 9.91043C28.5645 9.90492 28.5796 9.89942 28.5952 9.89438C28.6058 9.89071 28.6163 9.8875 28.6274 9.8843C28.643 9.87971 28.6586 9.87513 28.6742 9.87146C28.6847 9.86871 28.6957 9.86596 28.7063 9.86321C28.7224 9.85954 28.7389 9.85587 28.7549 9.85266C28.765 9.85083 28.7756 9.84854 28.7857 9.84671C28.8036 9.8435 28.822 9.84121 28.8399 9.83891C28.8486 9.838 28.8573 9.83616 28.866 9.83525C28.8926 9.83204 28.9197 9.82974 28.9468 9.82837L28.9459 9.82883Z" fill="#F5933D"/>
<path d="M18.714 28.2685L10.4659 20.1633C10.4471 20.1445 10.4283 20.1257 10.4104 20.106C10.4044 20.0995 10.3989 20.0927 10.393 20.0863C10.381 20.073 10.3696 20.0601 10.3581 20.0464C10.3512 20.0381 10.3452 20.0299 10.3383 20.0216C10.3282 20.0092 10.3186 19.9969 10.309 19.9845C10.3021 19.9758 10.2961 19.9666 10.2892 19.9574C10.2805 19.9451 10.2713 19.9331 10.2631 19.9208C10.2566 19.9111 10.2502 19.9015 10.2438 19.8919C10.236 19.88 10.2277 19.8676 10.2204 19.8552C10.214 19.8451 10.2084 19.8346 10.2025 19.8245C10.1951 19.8121 10.1878 19.8002 10.1814 19.7878C10.1754 19.7773 10.1699 19.7667 10.1644 19.7562C10.158 19.7438 10.1511 19.7314 10.1451 19.7186C10.1396 19.7076 10.1346 19.6971 10.1295 19.6861C10.1235 19.6737 10.1176 19.6608 10.1121 19.648C10.107 19.637 10.1024 19.6255 10.0978 19.6145C10.0923 19.6017 10.0873 19.5889 10.0822 19.576C10.0776 19.5646 10.0735 19.5531 10.0694 19.5417C10.0648 19.5288 10.0602 19.516 10.0556 19.5027C10.0515 19.4912 10.0483 19.4798 10.0446 19.4679C10.0405 19.4546 10.0363 19.4417 10.0327 19.4284C10.0294 19.4165 10.0262 19.405 10.023 19.3931C10.0193 19.3798 10.0161 19.3665 10.0129 19.3537C10.0102 19.3418 10.0074 19.3299 10.0047 19.318C10.0019 19.3047 9.99869 19.2914 9.99594 19.2781C9.99364 19.2662 9.99135 19.2542 9.98905 19.2419C9.98676 19.2286 9.98446 19.2148 9.98217 19.2015C9.98033 19.1896 9.97849 19.1772 9.97712 19.1653C9.97528 19.1515 9.97344 19.1383 9.97207 19.1245C9.97069 19.1126 9.96931 19.1002 9.9684 19.0883C9.96702 19.0745 9.9661 19.0612 9.96518 19.0475C9.96426 19.0351 9.96381 19.0232 9.96289 19.0108C9.96243 18.9971 9.96197 18.9838 9.96151 18.97C9.96151 18.9576 9.96105 18.9457 9.96105 18.9333C9.96105 18.9196 9.96105 18.9058 9.96105 18.8925C9.96105 18.8802 9.96105 18.8682 9.96197 18.8559C9.96243 18.8421 9.96335 18.8288 9.96426 18.8151C9.96518 18.8027 9.96564 18.7908 9.96656 18.7784C9.96748 18.7646 9.96885 18.7509 9.97069 18.7371C9.97207 18.7252 9.97299 18.7128 9.97482 18.7009C9.97666 18.6872 9.97849 18.6734 9.98033 18.6601C9.98217 18.6482 9.984 18.6363 9.98584 18.6244C9.98813 18.6106 9.99089 18.5969 9.99364 18.5836C9.99593 18.5717 9.99823 18.5602 10.0005 18.5483C10.0033 18.5345 10.007 18.5208 10.0102 18.507C10.0129 18.4956 10.0157 18.4841 10.0184 18.4726C10.0221 18.4589 10.0262 18.4451 10.0299 18.4314C10.0331 18.4199 10.0363 18.4089 10.0395 18.3975C10.0437 18.3837 10.0487 18.37 10.0533 18.3562C10.057 18.3452 10.0607 18.3342 10.0643 18.3237C10.0694 18.3094 10.0749 18.2957 10.0804 18.2819C10.0845 18.2714 10.0882 18.2613 10.0923 18.2508C10.0983 18.2361 10.1047 18.2219 10.1111 18.2072C10.1153 18.1981 10.1194 18.1884 10.1235 18.1793C10.1309 18.1632 10.1391 18.1476 10.1469 18.1316C10.1506 18.1238 10.1543 18.1165 10.1584 18.1087C10.1704 18.0857 10.1832 18.0628 10.1965 18.0399C10.1974 18.0381 10.1988 18.0362 10.1997 18.0344C10.2121 18.0138 10.2245 17.9931 10.2378 17.973C10.2429 17.9652 10.2484 17.9578 10.2534 17.9505C10.2631 17.9363 10.2727 17.9221 10.2828 17.9079C10.2993 17.8854 10.3163 17.863 10.3338 17.8409C10.3507 17.8203 10.3677 17.8001 10.3852 17.7804C10.3911 17.774 10.3971 17.7676 10.4031 17.7612C10.415 17.7483 10.4265 17.7355 10.4389 17.7236C10.4462 17.7163 10.4536 17.7094 10.4609 17.702C10.4719 17.6915 10.4829 17.6805 10.4944 17.67C10.5027 17.6626 10.5109 17.6557 10.5187 17.6484C10.5297 17.6388 10.5408 17.6292 10.5518 17.62C10.5605 17.6127 10.5692 17.6062 10.5779 17.5994C10.589 17.5907 10.6 17.5819 10.611 17.5737C10.6202 17.5668 10.6293 17.5609 10.6385 17.554C10.6495 17.5462 10.6606 17.5384 10.672 17.5306C10.6817 17.5242 10.6908 17.5182 10.7005 17.5123C10.712 17.5049 10.723 17.4981 10.7345 17.4912C10.7441 17.4852 10.7542 17.4797 10.7638 17.4742C10.7748 17.4678 10.7863 17.4618 10.7978 17.4559C10.8097 17.4495 10.8221 17.4435 10.8345 17.4375C10.8451 17.4325 10.8552 17.4275 10.8657 17.4224C10.8781 17.4169 10.8905 17.4114 10.9034 17.4059C10.9139 17.4013 10.9245 17.3967 10.935 17.3926C10.9479 17.3876 10.9607 17.383 10.9736 17.3784C10.9841 17.3747 10.9947 17.3706 11.0053 17.3669C11.0186 17.3624 11.0319 17.3587 11.0447 17.3546C11.0553 17.3514 11.0658 17.3482 11.0764 17.3454C11.0902 17.3417 11.1039 17.3385 11.1173 17.3353C11.1274 17.333 11.1379 17.3303 11.148 17.328C11.1622 17.3248 11.1769 17.3225 11.1912 17.3197C11.2008 17.3179 11.2104 17.3161 11.2205 17.3142C11.2366 17.3115 11.2527 17.3096 11.2692 17.3078C11.2774 17.3069 11.2857 17.3055 11.2935 17.3046C11.3178 17.3019 11.3422 17.3 11.3669 17.2986L10.5922 17.339C10.5678 17.3404 10.5431 17.3422 10.5187 17.3449C10.5105 17.3459 10.5022 17.3472 10.4944 17.3482C10.4783 17.35 10.4623 17.3523 10.4462 17.3546C10.4366 17.3559 10.4269 17.3582 10.4168 17.3601C10.4026 17.3628 10.3879 17.3651 10.3737 17.3683C10.3636 17.3706 10.353 17.3734 10.3429 17.3757C10.3292 17.3789 10.3154 17.3821 10.3021 17.3857C10.2915 17.3885 10.281 17.3922 10.2704 17.3954C10.2571 17.3995 10.2438 17.4032 10.2309 17.4077C10.2204 17.4114 10.2098 17.4151 10.1993 17.4192C10.1864 17.4238 10.1736 17.4284 10.1607 17.4334C10.1502 17.4375 10.1396 17.4421 10.129 17.4467C10.1166 17.4522 10.1038 17.4573 10.0914 17.4632C10.0808 17.4678 10.0708 17.4733 10.0602 17.4783C10.0478 17.4843 10.0359 17.4903 10.0235 17.4967C10.0198 17.4985 10.0161 17.5003 10.0129 17.5022C10.0051 17.5063 9.99777 17.5109 9.98997 17.5155C9.98033 17.521 9.97023 17.5265 9.96059 17.5324C9.94912 17.5393 9.9381 17.5462 9.92663 17.5535C9.91699 17.5595 9.90735 17.5654 9.89817 17.5719C9.88669 17.5792 9.87568 17.5874 9.86466 17.5952C9.85548 17.6017 9.8463 17.6081 9.83712 17.615C9.82611 17.6232 9.81509 17.6319 9.80408 17.6406C9.79536 17.6475 9.78663 17.6544 9.77791 17.6612C9.7669 17.6704 9.75588 17.68 9.74487 17.6897C9.7366 17.697 9.72834 17.7039 9.72008 17.7112C9.70861 17.7218 9.69759 17.7323 9.68657 17.7433C9.67923 17.7506 9.67143 17.7575 9.66454 17.7649C9.65261 17.7772 9.64068 17.7901 9.62874 17.8024C9.62277 17.8089 9.61681 17.8153 9.61084 17.8217C9.5934 17.8414 9.57596 17.8616 9.55943 17.8822C9.54153 17.9042 9.52501 17.9262 9.50849 17.9491C9.50803 17.95 9.50757 17.9505 9.50665 17.9514C9.49701 17.9647 9.48783 17.9785 9.47865 17.9922C9.4736 17.9996 9.46855 18.0069 9.4635 18.0142C9.45019 18.0344 9.43734 18.055 9.42495 18.0761C9.42403 18.0779 9.42265 18.0798 9.42174 18.0812C9.40843 18.1036 9.39557 18.1265 9.38364 18.1499C9.37951 18.1577 9.37584 18.1655 9.37216 18.1733C9.36436 18.1889 9.3561 18.2045 9.34876 18.2205C9.34417 18.2297 9.34049 18.2393 9.33636 18.2489C9.32994 18.2631 9.32351 18.2778 9.31754 18.2925C9.31341 18.3026 9.30974 18.3131 9.30561 18.3232C9.3001 18.3369 9.29459 18.3512 9.28955 18.3649C9.28587 18.3759 9.2822 18.3869 9.27853 18.3975C9.27394 18.4112 9.26935 18.425 9.26476 18.4387C9.26109 18.4502 9.25833 18.4612 9.25512 18.4726C9.25145 18.4864 9.24732 18.4997 9.24365 18.5134C9.24043 18.5249 9.23814 18.5364 9.23539 18.5483C9.23217 18.562 9.22896 18.5753 9.22575 18.5891C9.22345 18.601 9.22116 18.6125 9.21886 18.6244C9.21611 18.6381 9.21335 18.6519 9.21106 18.6656C9.20922 18.6775 9.20739 18.6895 9.20555 18.7014C9.20371 18.7151 9.20142 18.7289 9.19958 18.7426C9.19821 18.7546 9.19683 18.7669 9.19545 18.7789C9.19408 18.7926 9.1927 18.8064 9.19132 18.8201C9.1904 18.832 9.18949 18.8444 9.18903 18.8563C9.18811 18.8701 9.18765 18.8838 9.18673 18.8976C9.18673 18.91 9.18627 18.9219 9.18581 18.9343C9.18581 18.948 9.18581 18.9618 9.18581 18.9751C9.18581 18.9874 9.18581 18.9994 9.18627 19.0117C9.18627 19.0255 9.18719 19.0388 9.18765 19.0525C9.18811 19.0649 9.18903 19.0768 9.18994 19.0892C9.19086 19.103 9.19178 19.1163 9.19316 19.13C9.19408 19.1424 9.19545 19.1543 9.19683 19.1667C9.19821 19.1804 9.20004 19.1937 9.20188 19.2075C9.20371 19.2199 9.20509 19.2318 9.20693 19.2441C9.20922 19.2574 9.21106 19.2712 9.21381 19.2845C9.21611 19.2964 9.21794 19.3088 9.2207 19.3207C9.22345 19.334 9.22621 19.3473 9.22942 19.3606C9.23217 19.3725 9.23493 19.3844 9.23768 19.3963C9.24089 19.4096 9.24456 19.4229 9.24778 19.4358C9.25099 19.4477 9.2542 19.4596 9.25742 19.4711C9.26109 19.4844 9.26522 19.4972 9.26935 19.5105C9.27302 19.5219 9.27669 19.5339 9.28082 19.5453C9.28541 19.5582 9.29 19.5715 9.29459 19.5843C9.29873 19.5957 9.30286 19.6072 9.30745 19.6187C9.3125 19.6315 9.318 19.6443 9.32305 19.6572C9.32764 19.6682 9.33223 19.6796 9.33728 19.6906C9.34279 19.7035 9.34876 19.7159 9.35472 19.7287C9.35977 19.7397 9.36482 19.7507 9.37033 19.7612C9.37675 19.7736 9.38318 19.786 9.38961 19.7988C9.39511 19.8094 9.40062 19.8199 9.40659 19.8305C9.41347 19.8428 9.42082 19.8552 9.4277 19.8671C9.43367 19.8772 9.43964 19.8878 9.4456 19.8978C9.45341 19.9102 9.46121 19.9221 9.46901 19.9341C9.47544 19.9437 9.4814 19.9538 9.48829 19.9634C9.49655 19.9758 9.50573 19.9877 9.51445 20.0001C9.52088 20.0092 9.5273 20.0184 9.53419 20.0271C9.54383 20.0395 9.55347 20.0519 9.56356 20.0642C9.56999 20.0725 9.57642 20.0808 9.5833 20.089C9.59432 20.1023 9.60625 20.1156 9.61818 20.1289C9.62415 20.1353 9.62966 20.1422 9.63563 20.1486C9.65353 20.1678 9.67189 20.1871 9.69116 20.2059L17.9393 28.3111C18.2142 28.5815 18.5667 28.7296 18.9288 28.7337C18.9568 28.7337 18.9844 28.7337 19.0124 28.7319L19.7872 28.6916C19.7592 28.6929 19.7316 28.6934 19.7036 28.6934C19.3415 28.6897 18.9894 28.5412 18.714 28.2707V28.2685Z" fill="#F5933D"/>
<path d="M28.9459 9.82881C29.2543 9.81276 29.5706 9.90124 29.8492 10.1052C30.5386 10.6109 30.7314 11.6317 30.2797 12.3858L20.9502 27.9622C20.7125 28.3578 20.3301 28.6191 19.901 28.6787C19.8629 28.6838 19.8253 28.6874 19.7872 28.6893C19.7592 28.6906 19.7316 28.6911 19.7036 28.6911C19.3415 28.6874 18.9894 28.5389 18.714 28.2684L10.4659 20.1633C9.84814 19.5559 9.78847 18.5166 10.3342 17.8419C10.6087 17.5022 10.9837 17.3197 11.3674 17.3C11.7461 17.2803 12.1335 17.4187 12.4405 17.7204L19.397 24.5567L27.7828 10.5563C28.0522 10.1066 28.4901 9.8531 28.9464 9.82927L28.9459 9.82881Z" fill="white"/>
</g>
<defs>
<clipPath id="clip0_2865_42037">
<rect width="35" height="52" fill="white"/>
</clipPath>
</defs>
</svg>
