<svg width="433" height="21" viewBox="0 0 433 21" fill="none" xmlns="http://www.w3.org/2000/svg">
<path fill-rule="evenodd" clip-rule="evenodd" d="M76.9797 7.61638C72.2525 8.5012 67.8158 9.78222 63.8149 11.5783C63.3791 11.7764 63.247 12.0536 63.2073 12.1725C63.1413 12.3838 63.1678 12.582 63.2734 12.7669C63.3395 12.8857 63.4452 13.031 63.6696 13.1235C63.8281 13.1895 64.2374 13.2423 64.7788 13.2291C65.7031 13.2159 67.1292 13.1103 67.8159 13.1103C70.1663 13.1367 72.5166 13.1234 74.867 13.163C82.354 13.295 83.6612 13.4007 93.2873 13.3214C104.524 13.229 115.788 13.0705 127.038 12.8328C91.2803 14.8138 55.5752 17.1249 20.0551 19.2775C19.6589 19.3039 19.3552 19.6474 19.3816 20.0436C19.3948 20.453 19.7513 20.7567 20.1474 20.7303C103.032 15.7119 186.828 9.7954 270.347 9.41242C274.467 9.50486 278.573 9.59726 282.667 9.6897C307.399 10.2708 332.144 10.9708 356.85 12.0537C364.891 12.4103 372.933 12.8064 380.987 13.1762C383.364 13.2818 385.754 13.3875 388.144 13.4931C390.072 13.5724 395.037 13.863 395.737 13.8762C396.371 13.8894 396.529 13.3216 396.542 13.2952C396.582 13.1103 396.556 12.8989 396.397 12.7008C396.358 12.648 396.252 12.5028 396.014 12.4367C395.975 12.4367 395.79 12.4102 395.407 12.3706C375.547 10.7462 355.635 9.62372 335.683 8.91057C338.363 8.93699 341.044 8.95026 343.724 8.97667C364.389 9.13515 385.107 9.70302 405.759 8.97667C410.46 8.81819 415.174 8.63323 419.862 8.40873C423.017 8.26346 431.138 8.44837 432.287 8.10501C432.815 7.95974 432.934 7.58992 432.947 7.40503C432.96 7.19373 432.921 6.95602 432.683 6.74472C432.578 6.63907 432.247 6.46747 431.627 6.3354C411.358 1.9377 387.643 3.179 367.004 1.95081C310.951 -1.4168 255.095 0.828374 199.055 2.87535C150.687 4.645 102.319 4.73742 53.9774 7.14097C36.2833 8.01259 18.0348 7.00897 0.591599 10.337C0.195463 10.4162 -0.0555065 10.7858 0.0105161 11.182C0.0897432 11.5782 0.472707 11.8424 0.868842 11.7632C18.2328 8.4484 36.4154 9.46525 54.0435 8.59363C61.6889 8.21065 69.3343 7.89371 76.9797 7.61638ZM226.521 8.59363C196.903 8.13141 167.286 7.89364 137.641 8.03891C117.306 8.13136 87.6755 4.26205 67.4725 11.6576C67.6178 11.6576 67.7365 11.6576 67.8421 11.6576C70.1925 11.684 72.5431 11.6575 74.8935 11.7103C82.3672 11.8424 83.6744 11.948 93.2741 11.8688C117.821 11.6575 142.435 11.1293 166.969 10.3105C186.841 9.65021 206.688 9.05586 226.521 8.59363ZM426.873 6.88997C407.713 3.53556 385.992 4.53938 366.911 3.40364C310.911 0.0360269 255.096 2.28104 199.108 4.32802C174.086 5.25246 149.076 5.71466 124.08 6.28253C128.874 6.46742 133.456 6.59945 137.641 6.58625C180.015 6.37495 222.375 6.94292 264.748 7.84095C291.065 7.44476 317.381 7.29949 343.738 7.51079C364.389 7.68247 385.068 8.23715 405.719 7.52401C410.407 7.36553 415.108 7.18057 419.796 6.95606C421.393 6.89003 424.285 6.90317 426.873 6.88997Z" fill="#387AFC"/>
</svg>
