<svg width="43" height="43" viewBox="0 0 43 43" fill="none" xmlns="http://www.w3.org/2000/svg">
<path fill-rule="evenodd" clip-rule="evenodd" d="M19.139 16.1553C15.1475 12.8742 11.9132 8.96683 9.48274 4.41444C8.99665 3.5077 7.8656 3.16182 6.94952 3.64791C6.04278 4.134 5.69684 5.2651 6.18293 6.18119C8.85641 11.1636 12.3899 15.4449 16.7647 19.0438C17.5593 19.6982 18.7464 19.586 19.4008 18.7914C20.0551 17.9875 19.9336 16.8097 19.139 16.1553Z" fill="#387AFC"/>
<path fill-rule="evenodd" clip-rule="evenodd" d="M17.0106 3.37686C17.2163 7.15339 17.4033 10.9299 17.637 14.7064C17.7024 15.7347 18.5904 16.5199 19.6187 16.4545C20.6469 16.389 21.4322 15.501 21.3667 14.4727C21.133 10.7056 20.946 6.9384 20.7404 3.16188C20.6843 2.13642 19.7963 1.34653 18.768 1.40449C17.7397 1.46244 16.9452 2.3458 17.0106 3.37686Z" fill="#387AFC"/>
<path fill-rule="evenodd" clip-rule="evenodd" d="M30.8884 4.14347C28.4953 7.75174 25.7846 11.0795 23.055 14.4447C22.4007 15.2487 22.5221 16.4265 23.326 17.0715C24.1299 17.7259 25.3078 17.6043 25.9528 16.8004C28.7572 13.3511 31.5428 9.92039 34.0106 6.20931C34.5808 5.34931 34.3377 4.19022 33.4777 3.62C32.6271 3.04978 31.4586 3.28347 30.8884 4.14347Z" fill="#387AFC"/>
<path fill-rule="evenodd" clip-rule="evenodd" d="M40.158 17.5575C33.6706 17.8473 26.7813 17.8567 20.2939 17.4454C19.2656 17.3893 18.3776 18.1651 18.3122 19.2028C18.2467 20.231 19.0319 21.1191 20.0602 21.1845C26.6785 21.5958 33.7081 21.5864 40.3263 21.2967C41.3546 21.2499 42.1584 20.3713 42.1117 19.343C42.065 18.3147 41.1863 17.5108 40.158 17.5575Z" fill="#387AFC"/>
<path fill-rule="evenodd" clip-rule="evenodd" d="M16.7597 18.7446C20.7605 23.6429 24.9017 28.4477 28.6127 33.5703C29.2204 34.4023 30.3889 34.5892 31.2302 33.9816C32.0621 33.374 32.249 32.2054 31.6414 31.3735C27.8836 26.1948 23.6958 21.3339 19.6482 16.3796C18.9939 15.585 17.816 15.4635 17.0214 16.1179C16.2175 16.7722 16.1053 17.9501 16.7597 18.7446Z" fill="#387AFC"/>
<path fill-rule="evenodd" clip-rule="evenodd" d="M17.9713 20.1659C19.0183 25.2698 19.3081 30.1494 19.3829 35.3187C19.3922 36.347 20.2429 37.1695 21.2711 37.1602C22.3087 37.1415 23.1313 36.3002 23.1126 35.2626C23.0378 29.8502 22.7294 24.7556 21.6357 19.4087C21.4207 18.3991 20.4392 17.7447 19.4203 17.9597C18.4107 18.1654 17.7563 19.1563 17.9713 20.1659Z" fill="#387AFC"/>
<path fill-rule="evenodd" clip-rule="evenodd" d="M18.1401 19.7548C15.1114 25.8122 13.5503 32.5426 10.3066 38.4691C9.81118 39.3665 10.1476 40.5069 11.0544 41.0024C11.9611 41.4978 13.0923 41.1612 13.5877 40.2638C16.8501 34.2999 18.4298 27.5321 21.4866 21.428C21.9446 20.5026 21.5707 19.3808 20.6546 18.9134C19.7292 18.4554 18.6075 18.8293 18.1401 19.7548Z" fill="#387AFC"/>
<path fill-rule="evenodd" clip-rule="evenodd" d="M19.8069 18.3801C13.7776 19.4457 7.75759 19.9318 1.69085 20.6516C0.662585 20.7731 -0.0665452 21.6986 0.0549765 22.7269C0.176498 23.7551 1.10202 24.4842 2.13028 24.3627C8.26245 23.6429 14.3572 23.1381 20.4614 22.0631C21.4709 21.8762 22.1533 20.904 21.9757 19.8944C21.7887 18.8755 20.8258 18.1931 19.8069 18.3801Z" fill="#387AFC"/>
<path fill-rule="evenodd" clip-rule="evenodd" d="M24.0023 15.5389C22.759 15.4828 21.5812 15.3987 20.366 15.2211C19.3377 15.0715 18.3936 15.7819 18.244 16.8008C18.0944 17.8198 18.8048 18.7733 19.8237 18.9228C21.1698 19.1191 22.4692 19.2126 23.834 19.2687C24.8623 19.3154 25.7409 18.5208 25.7783 17.4832C25.825 16.455 25.0306 15.5856 24.0023 15.5389Z" fill="#387AFC"/>
</svg>
