<svg width="19" height="19" viewBox="0 0 19 19" fill="none" xmlns="http://www.w3.org/2000/svg">
<path fill-rule="evenodd" clip-rule="evenodd" d="M2.41967 8.40368C3.26736 8.10163 4.1594 7.70018 4.8473 7.11897C5.6643 6.42864 5.99656 5.53956 6.21969 4.60368C6.50615 3.40133 6.62062 2.12052 6.96797 0.916207C7.09659 0.468977 7.3441 0.299922 7.45031 0.224897C7.71874 0.0353838 7.99008 -0.0152729 8.24536 0.00372712C8.5479 0.0256502 8.96348 0.14013 9.23679 0.647283C9.27576 0.719873 9.32642 0.830469 9.36052 0.981981C9.38536 1.09306 9.40144 1.44041 9.42775 1.58364C9.49352 1.93636 9.54857 2.28909 9.60021 2.64376C9.77219 3.82419 9.87109 4.82679 10.4143 5.91125C11.1514 7.38351 11.89 8.28431 12.8916 8.68331C13.8601 9.06915 15.0181 8.99658 16.4977 8.69404C16.6385 8.65994 16.7778 8.6307 16.9157 8.60683C17.568 8.49283 18.1916 8.92106 18.3198 9.57096C18.4479 10.2204 18.0333 10.8532 17.3868 10.996C17.2519 11.0257 17.1189 11.0539 16.9873 11.0797C14.9879 11.5747 12.6733 13.3412 11.3282 14.888C10.9136 15.365 10.3066 16.6984 9.68742 17.549C9.23045 18.1765 8.71696 18.5901 8.2858 18.7363C7.99691 18.8347 7.75332 18.8196 7.55212 18.7699C7.25981 18.6978 7.01721 18.5394 6.8311 18.2876C6.72977 18.1497 6.63572 17.965 6.5909 17.7293C6.56947 17.6157 6.56704 17.3274 6.56753 17.1968C6.44135 16.7627 6.28691 16.3388 6.17437 15.9009C5.90594 14.8559 5.37929 14.1943 4.75375 13.3203C4.16865 12.5023 3.54021 11.9883 2.61895 11.5781C2.49911 11.5489 1.53205 11.3121 1.19054 11.1762C0.691666 10.977 0.45391 10.6432 0.36768 10.4635C0.221039 10.1585 0.205949 9.89201 0.23518 9.66986C0.278539 9.34199 0.425668 9.06138 0.686796 8.83484C0.84854 8.69404 1.09018 8.55713 1.41367 8.49039C1.66359 8.43826 2.32662 8.40806 2.41967 8.40368ZM8.09288 6.70048C8.1377 6.80035 8.18545 6.90072 8.23612 7.00206C9.31571 9.15831 10.5229 10.3621 11.9903 10.9463L12.0395 10.9653C11.0579 11.6941 10.1692 12.5086 9.4901 13.2896C9.21046 13.6111 8.84022 14.2791 8.44025 14.964C8.07681 13.7826 7.48245 12.9476 6.73512 11.9026C6.16414 11.1051 5.56589 10.5049 4.83074 10.0158C5.40122 9.72297 5.9454 9.37999 6.41942 8.97953C7.20865 8.31258 7.73042 7.53989 8.09288 6.70048Z" fill="#387AFC"/>
</svg>
