<svg width="192" height="280" viewBox="0 0 192 280" fill="none" xmlns="http://www.w3.org/2000/svg">
<g clip-path="url(#clip0_5014_107158)">
<path d="M191.535 171.291V174.286C190.829 180.57 187.496 185.457 183.316 189.926C176.298 197.411 167.709 202.342 158.082 205.609C153.217 207.261 148.346 208.914 143.328 210.072C142.741 210.208 142.339 210.512 141.986 211.012C134.854 221.199 125.335 228.016 113.305 231.251C112.783 231.392 112.56 231.522 112.631 232.169C113.327 238.394 113.702 244.645 114.18 250.886C114.55 255.686 114.849 260.491 115.24 265.291C115.485 268.276 115.697 271.255 115.648 274.244C115.637 274.788 115.664 275.348 115.566 275.875C115.039 278.615 113.223 280.001 110.266 279.985C106.184 279.963 102.101 279.947 98.0187 279.941C94.8386 279.941 91.6585 279.882 88.4784 279.996C86.1681 280.077 84.5481 278.947 83.1511 277.365C81.9225 275.968 81.368 274.234 81.1995 272.407C80.8625 268.716 81.6018 265.264 84.135 262.465C86.9074 259.399 90.4245 257.991 94.594 258.404C95.5344 258.496 95.529 258.523 95.5344 257.556C95.5833 250.364 95.6323 243.172 95.6866 235.975C95.6866 235.594 95.7029 235.213 95.7247 234.838C95.7954 233.664 95.7954 233.642 94.6592 233.691C90.8866 233.844 87.114 233.833 83.3413 233.691C80.8788 233.594 78.4162 233.409 75.8722 233.164C75.9917 234.55 76.1222 235.909 76.2309 237.274C76.4593 240.062 76.6821 242.851 76.8941 245.645C77.1714 249.287 77.4323 252.93 77.7041 256.572C77.9542 259.931 78.1934 263.291 78.4706 266.645C78.6826 269.178 78.7913 271.711 78.7641 274.255C78.7641 274.799 78.7968 275.348 78.688 275.886C78.1336 278.621 76.3288 280.001 73.3716 279.985C69.2891 279.963 65.2066 279.947 61.1241 279.941C57.944 279.941 54.7639 279.882 51.5838 279.996C49.2735 280.077 47.6535 278.947 46.2564 277.354C45.0279 275.957 44.4734 274.223 44.3103 272.396C43.9787 268.759 44.6963 265.346 47.1588 262.562C49.9367 259.426 53.4918 257.985 57.7157 258.404C58.6507 258.496 58.6398 258.523 58.6452 257.621C58.6942 250.402 58.7377 243.188 58.8029 235.969C58.8192 234.164 58.8681 232.36 58.9442 230.56C58.966 230.027 58.7757 229.837 58.2919 229.69C51.7577 227.652 45.5932 224.836 40.0213 220.813C32.5412 215.41 27.0508 208.37 23.0335 200.129C22.99 200.042 22.9357 199.961 22.9139 199.874C22.6965 199.113 22.3431 198.971 21.4951 199.161C16.6461 200.227 12.5637 198.574 9.09 195.269C6.27412 192.589 4.39867 189.279 3.08314 185.631C0.990254 179.825 0.0171974 173.835 0.299873 167.676C0.810864 156.483 3.98553 146.056 9.43247 136.282C13.9716 128.134 19.8589 121.078 26.654 114.75C29.1545 112.423 32.1335 110.765 35.0744 109.08C35.9768 108.564 36.1888 108.227 36.0475 107.21C35.1995 101.165 34.6395 95.0878 34.3677 88.994C33.6447 72.452 35.0364 56.1384 39.8745 40.2216C41.7391 34.0951 44.1962 28.2187 47.6372 22.7881C54.3616 12.166 63.9345 5.44701 75.9809 2.10926C80.7429 0.788298 85.5864 0.00550305 90.5224 6.69745e-05C104.221 -0.0216773 115.485 5.25131 124.264 15.7864C129.004 21.478 132.021 28.0611 134.152 35.0953C135.642 40.015 136.544 45.0488 137.115 50.1533C137.746 55.8014 137.925 61.4657 137.865 67.141C137.811 72.6967 137.501 78.236 136.979 83.7699C136.702 86.7217 136.332 89.6626 135.924 92.6036C135.881 92.9297 135.837 93.2559 135.794 93.582C135.876 93.5984 135.935 93.631 135.952 93.6147C138.561 91.3533 141.708 90.3748 145.024 89.842C149.129 89.1843 153.108 89.5485 156.859 91.5055C157.511 91.8479 158.136 92.2339 158.702 92.7123C159.365 93.2722 159.702 93.9626 159.789 94.8595C160.278 100.089 158.321 104.552 155.32 108.602C152.282 112.701 148.118 115.196 143.138 116.305C142.768 116.386 142.399 116.473 142.029 116.555C142.007 116.555 141.991 116.588 141.969 116.604C141.964 116.805 142.149 116.859 142.263 116.952C144.16 118.474 145.867 120.186 147.389 122.078C152.053 127.878 156.342 133.923 159.425 140.745C160.071 142.17 160.61 143.637 161.055 145.138C161.186 145.578 161.382 145.774 161.86 145.85C164.703 146.29 167.291 147.334 169.465 149.285C172.156 151.705 173.395 154.798 173.629 158.347C173.7 159.456 173.7 159.424 174.798 159.261C180.087 158.494 184.751 159.685 188.415 163.778C190.106 165.664 191.014 167.942 191.394 170.437C191.438 170.72 191.487 170.997 191.53 171.28L191.535 171.291ZM46.1912 33.6928C45.8433 34.1005 45.6367 34.5735 45.5552 35.1008C44.8322 37.2045 44.0331 39.2866 43.3862 41.4229C39.7875 53.3171 38.1947 65.5156 37.9229 77.9044C37.7979 83.5308 37.9936 89.1517 38.4394 94.7617C38.7764 98.9964 39.2276 103.22 39.831 107.428C39.9017 107.901 40.0647 108.172 40.5594 108.33C42.6414 108.988 44.7289 109.608 46.8707 110.037C52.0622 111.075 57.3134 111.684 62.5755 112.206C68.0333 112.744 73.502 113.076 78.9816 113.136C90.9409 113.266 102.895 113.108 114.811 111.891C119.344 111.429 123.84 110.749 128.287 109.749C128.613 109.678 128.76 109.531 128.841 109.211C129.118 108.058 129.456 106.917 129.722 105.764C132.413 94.0224 133.755 82.1065 134.103 70.0819C134.343 61.8354 134.065 53.616 132.723 45.4565C131.635 38.8625 129.874 32.4643 126.792 26.5227C120.214 13.8403 110.174 5.84384 95.7138 4.00645C94.507 3.85424 93.2893 3.74008 92.0825 3.77814C92.0662 3.87599 92.0553 3.90317 92.0608 3.91948C92.1641 4.1043 92.2728 4.28913 92.3815 4.47395C94.2189 7.64862 95.7464 10.9538 96.6162 14.5361C96.9152 15.7538 97.2685 16.9715 97.274 18.2381C97.274 19.1513 96.6651 19.8635 95.8334 20.0266C94.9636 20.1951 94.1374 19.733 93.7895 18.8578C93.6916 18.6186 93.6209 18.3631 93.5774 18.1076C93.0882 14.9873 92.0934 12.0355 90.7072 9.20877C89.9896 7.74103 89.2177 6.30591 88.2501 4.9034C87.1846 6.18632 86.4018 7.56164 85.7604 9.00764C84.01 12.9379 82.8358 17.015 82.7542 21.3638C82.7325 22.4184 82.004 23.1577 81.0419 23.2012C80.0688 23.2447 79.3077 22.5924 79.1501 21.5432C79.0903 21.1464 79.0794 20.7387 79.0957 20.3364C79.2099 17.4227 79.8024 14.6014 80.6994 11.8344C81.4115 9.62735 82.2758 7.48554 83.4935 5.25675C82.3085 5.81666 81.3735 6.39832 80.4656 7.02347C76.1874 9.96439 73.1161 13.9762 70.4415 18.3414C70.1806 18.7654 69.9686 19.222 69.6044 19.5754C68.9738 20.1842 68.0931 20.3038 67.381 19.8743C66.6743 19.4503 66.359 18.6077 66.5873 17.7706C66.6961 17.3738 66.9026 17.0313 67.1038 16.6834C68.2127 14.8025 69.463 13.014 70.784 11.269C72.1158 9.50776 73.6651 7.9476 75.2035 6.36571C75.2579 6.35484 75.3394 6.36571 75.3014 6.26786C75.3014 6.26242 75.1981 6.29504 75.1437 6.31135C74.9154 6.36571 74.6816 6.4092 74.4588 6.47987C64.3042 9.81761 56.3023 15.9332 50.6379 25.0441C48.9853 27.7023 47.5176 30.4584 46.3869 33.383C46.3271 33.4917 46.2673 33.6004 46.2021 33.7146L46.1912 33.6928ZM85.6734 230.076C92.4739 230.152 97.611 229.886 102.743 229.424C109.179 228.837 115.354 227.282 121.193 224.483C127.759 221.33 133.136 216.72 137.593 210.996C139.98 207.93 141.915 204.587 143.633 201.113C143.861 200.651 143.861 200.461 143.263 200.461C142.649 200.461 142.029 200.385 141.42 200.287C136.892 199.558 133.505 197.161 131.152 193.252C128.624 189.061 127.319 184.441 126.449 179.684C124.938 171.432 124.433 163.071 123.737 154.727C123.672 153.977 123.536 153.221 123.715 152.46C123.96 151.406 124.77 150.726 125.726 150.818C126.716 150.922 127.39 151.764 127.368 152.884C127.368 153.145 127.341 153.406 127.363 153.667C127.841 158.815 128.151 163.979 128.727 169.116C129.211 173.433 129.738 177.738 130.738 181.973C131.57 185.501 132.728 188.904 134.756 191.948C136.011 193.829 137.631 195.313 139.811 196.036C143.997 197.427 147.933 196.721 151.564 194.361C154.374 192.535 156.234 189.849 157.614 186.86C160.349 180.934 160.985 174.585 160.979 168.17C160.974 163.256 160.327 158.38 159.365 153.553C158.305 148.242 156.777 143.116 154.114 138.359C151.434 133.581 148.308 129.118 144.889 124.856C141.67 120.849 137.718 117.686 133.228 115.201C131.815 114.419 131.798 114.451 130.804 115.68C130.728 115.772 130.651 115.865 130.575 115.951C125.841 121.475 120.649 126.557 115.262 131.428C105.135 140.588 94.1645 148.644 82.602 155.896C81.6507 156.494 80.7103 156.619 79.623 156.282C74.7795 154.781 70.4796 152.254 66.3536 149.389C57.5091 143.257 50.2248 135.587 44.082 126.791C41.0704 122.486 38.1839 118.115 36.5259 113.065C36.3954 112.663 36.2377 112.668 35.9225 112.858C33.5578 114.272 31.1496 115.631 29.1274 117.523C22.4301 123.785 16.6516 130.781 12.2538 138.875C7.42113 147.769 4.61611 157.249 4.04533 167.35C3.69198 173.59 4.70309 179.651 7.01886 185.463C8.14413 188.289 9.74777 190.861 12.0255 192.905C14.363 195.003 17.081 196.128 20.3101 195.65C20.908 195.563 20.9678 195.373 20.7558 194.823C17.7388 187.093 16.3417 179.043 16.0917 170.78C15.9231 165.099 16.2656 159.44 17.1191 153.825C17.467 151.531 17.7714 149.22 18.4346 146.986C18.7988 145.763 19.7447 145.149 20.7613 145.42C21.8322 145.709 22.3051 146.682 22.0061 147.986C21.506 150.182 21.082 152.389 20.7613 154.624C19.6577 162.316 19.4077 170.019 20.3481 177.749C21.2396 185.093 23.2347 192.1 26.5181 198.737C30.22 206.217 35.1886 212.648 41.9728 217.606C47.2621 221.471 53.1113 224.184 59.3356 226.114C68.4519 228.946 77.84 229.913 85.6897 230.066L85.6734 230.076ZM127.564 113.782C127.314 113.782 127.227 113.766 127.145 113.782C119.556 115.37 111.859 116.011 104.145 116.424C99.8615 116.653 95.567 116.761 91.278 116.848C85.5592 116.968 79.8405 116.897 74.1272 116.723C72.2082 116.664 70.2893 116.56 68.3758 116.419C63.766 116.077 59.1671 115.653 54.5845 115.049C49.953 114.435 45.3432 113.701 40.8584 112.347C40.6573 112.288 40.4398 112.092 40.1735 112.293C40.2604 112.538 40.342 112.782 40.4344 113.021C41.8478 116.756 43.9787 120.094 46.2184 123.372C51.6218 131.281 57.8733 138.408 65.5491 144.197C69.9903 147.551 74.5784 150.655 79.9166 152.466C80.3895 152.623 80.7537 152.601 81.1778 152.346C84.4503 150.373 87.6141 148.236 90.7561 146.062C103.188 137.457 114.648 127.715 124.987 116.674C125.841 115.761 126.651 114.815 127.575 113.777L127.564 113.782ZM162.355 149.748C162.387 149.927 162.393 150.014 162.414 150.101C163.556 155.08 164.328 160.114 164.583 165.219C164.839 170.307 164.534 175.357 163.545 180.374C162.708 184.615 161.305 188.599 158.832 192.171C156.81 195.09 154.326 197.471 151.02 198.922C150.053 199.346 148.802 199.33 148.123 200.118C147.449 200.896 147.172 202.01 146.704 202.967C146.275 203.847 145.818 204.717 145.361 205.62C145.677 205.69 145.894 205.581 146.117 205.511C148.493 204.777 150.879 204.065 153.249 203.309C159.403 201.336 165.421 199.031 170.867 195.476C176.331 191.915 181.104 187.615 184.751 182.174C186.67 179.309 187.872 176.167 187.839 172.639C187.79 166.942 183.691 162.827 177.983 162.756C176.287 162.734 174.651 163.158 173.009 163.506C171.058 163.925 169.797 162.887 169.862 160.886C169.867 160.647 169.9 160.413 169.916 160.174C170.112 157.179 169.438 154.472 167.236 152.297C165.893 150.971 164.263 150.172 162.355 149.737V149.748ZM62.3635 276.256V276.223C66.1144 276.223 69.8599 276.234 73.6107 276.218C74.7251 276.218 75.0676 275.848 75.0567 274.772C75.0296 272.184 75.0024 269.608 74.7849 267.02C74.3011 261.323 73.8934 255.626 73.4911 249.923C73.0998 244.39 72.7029 238.85 72.1756 233.327C72.1321 232.871 71.9854 232.675 71.5179 232.61C68.6965 232.218 65.9024 231.702 63.1354 231.022C62.7767 230.935 62.6299 230.984 62.6353 231.403C62.6516 232.588 62.5592 233.773 62.5483 234.958C62.4614 242.862 62.4396 250.766 62.3689 258.67C62.3635 259.317 62.5157 259.665 63.1572 259.937C65.087 260.752 66.7069 262.03 68.1366 263.546C68.8651 264.318 68.9085 265.335 68.2888 266.063C67.6691 266.792 66.6526 266.911 65.7828 266.324C65.4729 266.112 65.1957 265.846 64.9239 265.585C62.7277 263.481 60.0912 262.312 57.096 262.079C52.4046 261.714 48.5233 265.014 48.0286 269.716C47.8655 271.282 47.8981 272.864 48.6809 274.299C49.3713 275.56 50.3226 276.321 51.9099 276.288C55.3945 276.212 58.8844 276.267 62.3744 276.267L62.3635 276.256ZM99.2799 276.256V276.229C102.982 276.229 106.684 276.24 110.386 276.229C111.669 276.229 111.94 275.87 111.935 274.598C111.93 271.869 111.859 269.145 111.625 266.422C111.337 263.111 111.12 259.801 110.87 256.49C110.549 252.234 110.25 247.972 109.913 243.715C109.63 240.144 109.299 236.578 109.016 233.006C108.972 232.436 108.815 232.273 108.206 232.392C105.716 232.892 103.194 233.191 100.666 233.414C99.4375 233.523 99.4266 233.512 99.4212 234.768C99.3669 242.791 99.2255 250.815 99.2473 258.839C99.2473 259.404 99.4212 259.665 99.9322 259.882C101.884 260.709 103.531 261.986 104.988 263.508C105.635 264.188 105.771 264.998 105.39 265.726C105.053 266.373 104.33 266.77 103.618 266.683C103.025 266.612 102.563 266.297 102.128 265.906C101.585 265.411 101.057 264.884 100.46 264.47C97.7469 262.606 94.7625 261.491 91.4737 262.269C86.1246 263.535 84.4122 267.96 84.945 272.364C85.0537 273.244 85.3255 274.081 85.8637 274.804C86.5432 275.712 87.3531 276.294 88.598 276.272C92.1586 276.212 95.7193 276.25 99.2744 276.25L99.2799 276.256ZM138.316 113.152C139.056 113.179 139.664 113.125 140.279 113.043C146.481 112.206 151.2 109.189 154.124 103.579C155.217 101.492 156.005 99.2899 156.196 96.9035C156.288 95.7619 155.859 95.1096 154.788 94.6095C151.401 93.033 147.922 92.9732 144.361 93.7451C141.795 94.2996 139.371 95.1694 137.599 97.2351C136.533 98.4745 135.538 99.7737 134.647 101.149C134.462 101.432 134.37 101.752 134.304 102.079C133.842 104.503 133.304 106.906 132.646 109.281C132.56 109.591 132.646 109.792 132.793 110.064C133.522 111.358 134.864 111.809 136.022 112.521C136.778 112.983 137.528 113.32 138.305 113.152H138.316Z" fill="#020202"/>
<path d="M85.6736 230.076C77.8239 229.924 68.4358 228.957 59.3195 226.124C53.0952 224.195 47.246 221.477 41.9567 217.617C35.1725 212.659 30.2039 206.228 26.5019 198.748C23.2185 192.116 21.2235 185.104 20.332 177.76C19.3915 170.03 19.6416 162.327 20.7451 154.635C21.0659 152.4 21.4899 150.193 21.99 147.997C22.289 146.693 21.816 145.714 20.7451 145.431C19.734 145.16 18.7827 145.774 18.4185 146.997C17.7499 149.231 17.4509 151.542 17.103 153.836C16.2441 159.456 15.9016 165.11 16.0755 170.791C16.3256 179.053 17.7227 187.104 20.7397 194.834C20.9517 195.378 20.8919 195.568 20.2939 195.661C17.0649 196.144 14.3469 195.019 12.0094 192.915C9.73165 190.866 8.13344 188.3 7.00274 185.473C4.68697 179.662 3.67586 173.596 4.02921 167.36C4.59999 157.26 7.40501 147.78 12.2377 138.886C16.6355 130.792 22.414 123.796 29.1112 117.533C31.1335 115.642 33.5471 114.283 35.9063 112.869C36.2216 112.679 36.3793 112.674 36.5097 113.076C38.1677 118.126 41.0543 122.497 44.0659 126.802C50.2086 135.598 57.493 143.268 66.3375 149.4C70.4689 152.259 74.7688 154.787 79.6069 156.293C80.6941 156.63 81.6346 156.505 82.5859 155.907C94.1484 148.655 105.118 140.599 115.246 131.439C120.633 126.568 125.824 121.485 130.559 115.962C130.635 115.87 130.711 115.778 130.788 115.691C131.777 114.462 131.799 114.429 133.212 115.212C137.702 117.697 141.654 120.86 144.872 124.867C148.292 129.129 151.423 133.592 154.097 138.37C156.761 143.126 158.289 148.253 159.349 153.564C160.316 158.396 160.958 163.267 160.963 168.181C160.974 174.596 160.338 180.945 157.598 186.871C156.218 189.86 154.358 192.546 151.548 194.372C147.917 196.732 143.981 197.433 139.795 196.047C137.61 195.324 135.995 193.845 134.74 191.959C132.712 188.915 131.554 185.512 130.722 181.984C129.722 177.749 129.195 173.443 128.711 169.127C128.135 163.99 127.825 158.826 127.347 153.678C127.325 153.422 127.347 153.156 127.352 152.895C127.374 151.775 126.705 150.927 125.71 150.829C124.759 150.732 123.949 151.411 123.699 152.471C123.52 153.232 123.655 153.988 123.721 154.738C124.416 163.077 124.922 171.443 126.433 179.695C127.308 184.457 128.613 189.072 131.135 193.263C133.489 197.166 136.881 199.569 141.404 200.298C142.013 200.396 142.633 200.472 143.247 200.472C143.845 200.472 143.845 200.662 143.617 201.124C141.899 204.598 139.964 207.941 137.577 211.007C133.12 216.731 127.743 221.341 121.177 224.494C115.338 227.293 109.163 228.853 102.727 229.435C97.5949 229.903 92.4578 230.169 85.6573 230.087L85.6736 230.076ZM86.9674 173.84C87.0544 173.949 87.1468 174.052 87.2283 174.166C90.0116 178.167 95.4476 179.206 99.5628 177.113C102.906 175.411 104.417 172.443 104.738 168.806C104.819 167.855 104.162 167.051 103.281 166.882C102.373 166.708 101.531 167.176 101.21 168.111C101.025 168.643 100.944 169.214 100.829 169.769C100.28 172.34 98.5951 173.949 96.0347 174.351C93.4961 174.748 91.126 173.628 89.892 171.432C89.3103 170.394 88.87 169.29 88.4134 168.198C88.0763 167.399 87.5327 166.85 86.5977 166.844C85.7497 166.844 85.2224 167.268 84.8201 168.219C84.4885 169.013 84.3907 169.872 84.1352 170.682C83.6024 172.367 82.7544 173.797 81.0638 174.574C78.3566 175.824 75.3179 175.02 73.3826 172.53C72.377 171.236 71.779 169.741 71.1865 168.241C70.7624 167.17 69.9525 166.686 68.974 166.866C68.1205 167.023 67.6041 167.719 67.528 168.806C67.3703 171.16 65.6145 173.427 63.3422 174.025C60.1838 174.851 57.194 174.02 55.8785 170.312C55.623 169.595 55.4381 168.866 55.3947 168.1C55.3403 167.121 54.6662 166.409 53.7638 166.322C52.8615 166.23 52.046 166.86 51.796 167.828C51.6927 168.225 51.6927 168.622 51.7416 169.029C51.8558 169.926 52.0787 170.802 52.3994 171.644C53.7367 175.156 56.1177 177.488 59.9555 177.934C63.6792 178.363 66.9246 177.357 69.2403 174.199C69.6426 173.65 69.7839 173.862 70.0612 174.264C71.8007 176.754 74.0893 178.461 77.1607 178.76C81.1236 179.146 84.4124 177.912 86.5651 174.346C86.6684 174.172 86.7282 173.949 86.9619 173.835L86.9674 173.84ZM87.848 193.992C88.3699 193.954 88.8483 193.948 89.3158 193.872C94.8008 193.008 97.1709 189.067 97.5405 184.272C97.6384 182.973 96.8936 182.081 95.7847 182.032C94.7573 181.984 93.9745 182.815 93.8277 184.071C93.757 184.707 93.6701 185.343 93.507 185.963C92.9307 188.175 91.5717 189.643 89.2886 190.094C86.5053 190.643 84.2602 189.627 82.45 187.55C81.4171 186.37 80.9768 184.935 80.7539 183.397C80.6017 182.337 79.7809 181.744 78.8024 181.831C77.8891 181.913 77.2205 182.668 77.1607 183.674C77.0846 184.897 76.7639 186.061 76.2148 187.148C73.986 191.562 68.501 191.921 65.6797 187.844C64.9567 186.8 64.4403 185.675 64.3044 184.381C64.1848 183.239 63.3639 182.511 62.3909 182.576C61.3635 182.641 60.6568 183.462 60.635 184.62C60.6296 185.001 60.6622 185.376 60.7383 185.751C61.1188 187.523 61.9614 189.072 63.0106 190.534C66.3429 195.177 75.0189 196.324 78.8731 189.964C79.1557 189.496 79.2916 189.578 79.5961 189.937C81.7542 192.524 84.5374 193.845 87.848 194.003V193.992Z" fill="#949494"/>
<path d="M75.1876 6.3494C73.6546 7.92586 72.1053 9.48602 70.768 11.2527C69.4471 12.9977 68.2022 14.7862 67.0878 16.6671C66.8812 17.015 66.6801 17.3629 66.5714 17.7543C66.3431 18.5914 66.6584 19.434 67.365 19.858C68.0772 20.2875 68.9578 20.1679 69.5884 19.5591C69.9526 19.2057 70.1646 18.7491 70.4256 18.3251C73.1001 13.9599 76.1715 9.94808 80.4497 7.00717C81.3575 6.38202 82.2871 5.80036 83.4776 5.24044C82.2653 7.46923 81.3956 9.61104 80.6834 11.8181C79.7919 14.5851 79.1939 17.4064 79.0798 20.3201C79.0635 20.7224 79.0798 21.1301 79.1341 21.5269C79.2864 22.5761 80.0528 23.2284 81.0259 23.1849C81.9881 23.1414 82.7165 22.4021 82.7383 21.3475C82.8198 17.0041 83.994 12.927 85.7444 8.99133C86.3913 7.54534 87.1687 6.16457 88.2341 4.8871C89.2018 6.2896 89.9737 7.73016 90.6912 9.19247C92.0774 12.0192 93.0722 14.9764 93.5615 18.0913C93.5995 18.3468 93.6756 18.6023 93.7735 18.8415C94.1268 19.7167 94.9531 20.1788 95.8175 20.0103C96.6492 19.8472 97.2635 19.1405 97.258 18.2218C97.258 16.9552 96.8992 15.7375 96.6003 14.5198C95.7305 10.9429 94.2029 7.63231 92.3655 4.45765C92.2568 4.27282 92.1481 4.08799 92.0448 3.90317C92.034 3.88686 92.0503 3.85968 92.0666 3.76183C93.2788 3.72378 94.4911 3.83794 95.6979 3.99015C110.158 5.83297 120.198 13.8294 126.776 26.5064C129.858 32.448 131.625 38.8462 132.707 45.4402C134.049 53.5997 134.327 61.8245 134.087 70.0656C133.739 82.0956 132.397 94.0061 129.706 105.748C129.44 106.906 129.103 108.042 128.825 109.194C128.749 109.515 128.597 109.662 128.271 109.733C123.824 110.733 119.323 111.412 114.795 111.874C102.879 113.098 90.925 113.25 78.9656 113.119C73.4861 113.06 68.0174 112.728 62.5596 112.19C57.2974 111.668 52.0462 111.064 46.8547 110.021C44.7129 109.591 42.6255 108.972 40.5435 108.314C40.0488 108.156 39.8857 107.89 39.815 107.411C39.2116 103.204 38.7604 98.9801 38.4234 94.7454C37.9776 89.1354 37.7874 83.5145 37.907 77.8881C38.1788 65.4939 39.7715 53.3008 43.3702 41.4066C44.0171 39.2703 44.8162 37.1937 45.5392 35.0845C45.6697 35.0573 45.7186 35.1552 45.7838 35.2313C45.6479 36.1173 46.0556 36.7914 46.6373 37.3839C47.3657 38.1178 48.2736 38.5146 49.2738 38.6995C52.2745 39.2594 55.3078 39.379 58.3466 39.167C59.3523 39.0963 60.3036 38.7973 61.119 38.1667C62.565 37.0523 62.7063 35.2639 61.4452 33.9429C60.782 33.2525 59.9611 32.8285 59.0424 32.6383C55.9547 32.0022 52.829 31.9207 49.6978 32.1055C48.4856 32.1762 47.3929 32.6274 46.4851 33.47C46.4416 33.4265 46.3981 33.3884 46.3546 33.3449C47.4853 30.4203 48.9531 27.6642 50.6056 25.006C56.27 15.8951 64.2665 9.785 74.4265 6.44181C74.6494 6.37115 74.8831 6.32766 75.1115 6.2733C75.1332 6.2896 75.1495 6.31135 75.1713 6.32766L75.1876 6.3494ZM119.084 65.7439C118.975 62.1398 118.888 58.5303 118.448 54.9533C117.915 50.6208 115.98 47.1199 112.033 44.9347C107.668 42.521 102.873 43.3691 99.8619 47.1145C98.1767 49.2074 97.432 51.6971 96.9101 54.2793C95.8011 59.7914 96.0023 65.3362 96.709 70.8593C97.3939 76.1812 100.579 79.644 105.543 80.7692C110.62 81.9163 115.953 79.046 117.855 74.2079C118.932 71.4681 119.116 68.6305 119.078 65.7439H119.084ZM64.9677 65.782C64.859 62.1561 64.772 58.5194 64.3263 54.9207C63.7936 50.6208 61.8637 47.1363 57.9498 44.9564C53.59 42.5265 48.8063 43.3528 45.7675 47.0873C44.0715 49.1748 43.3213 51.6645 42.7994 54.2466C41.685 59.786 41.8753 65.3471 42.5983 70.8973C43.2887 76.1975 46.4525 79.6331 51.3884 80.7638C56.4983 81.9326 61.842 79.0623 63.7555 74.1862C64.821 71.4681 65.0058 68.6522 64.9677 65.7929V65.782ZM86.8806 68.5544C86.8806 65.3525 86.8914 62.1453 86.8806 58.9434C86.8751 57.53 86.0706 56.7418 84.6626 56.7364C84.119 56.7364 83.57 56.7472 83.0318 56.8342C80.0637 57.3235 77.0956 57.8181 74.1275 58.34C72.9859 58.5411 71.8389 58.7368 70.73 59.1011C68.5284 59.8241 67.7619 61.4657 68.6045 63.6239C68.9687 64.5589 69.4851 65.4123 70.0396 66.2386C71.3171 68.1304 72.7576 69.8971 74.2634 71.604C74.6385 72.0335 74.7146 72.3161 74.3178 72.7836C73.535 73.7023 72.7794 74.6537 72.0836 75.643C70.6756 77.6598 71.5182 79.6114 73.9481 79.9647C77.3076 80.4539 80.6834 80.7529 84.081 80.7094C85.7553 80.6877 86.8751 79.5461 86.8751 77.8772C86.8751 74.7678 86.8751 71.6584 86.8751 68.549L86.8806 68.5544ZM106.885 32.1436C105.428 32.1436 104.004 32.1436 102.591 32.3882C101.357 32.6056 100.183 32.9481 99.2748 33.8831C98.0952 35.1062 98.1495 36.7914 99.4053 37.9221C100.232 38.6669 101.237 39.0039 102.319 39.1126C105.048 39.3844 107.771 39.2811 110.484 38.9495C111.745 38.7973 112.963 38.5038 113.952 37.6286C115.322 36.4218 115.349 34.6279 114.012 33.3939C113.305 32.7415 112.446 32.4208 111.522 32.2523C109.968 31.9696 108.407 32.0022 106.874 32.149L106.885 32.1436Z" fill="#C7C7C7"/>
<path d="M127.564 113.782C126.64 114.815 125.83 115.767 124.976 116.68C114.637 127.72 103.177 137.462 90.7451 146.067C87.6031 148.242 84.4393 150.378 81.1668 152.351C80.7428 152.607 80.3785 152.629 79.9056 152.471C74.5674 150.661 69.9793 147.551 65.5381 144.203C57.8623 138.408 51.6108 131.287 46.2074 123.377C43.9677 120.099 41.8422 116.767 40.4234 113.027C40.331 112.782 40.2495 112.538 40.1625 112.298C40.4288 112.097 40.6463 112.293 40.8474 112.353C45.3322 113.706 49.942 114.44 54.5735 115.054C59.1561 115.658 63.755 116.082 68.3648 116.424C70.2783 116.566 72.1973 116.669 74.1162 116.729C79.8295 116.903 85.5482 116.973 91.267 116.854C95.5561 116.767 99.8506 116.658 104.134 116.43C111.853 116.017 119.551 115.375 127.134 113.788C127.216 113.772 127.303 113.788 127.553 113.788L127.564 113.782Z" fill="#2960CC"/>
<path d="M162.355 149.748C164.263 150.177 165.894 150.982 167.237 152.308C169.438 154.482 170.112 157.19 169.917 160.185C169.9 160.424 169.873 160.658 169.862 160.897C169.797 162.898 171.058 163.936 173.01 163.517C174.652 163.164 176.288 162.745 177.984 162.767C183.692 162.832 187.791 166.953 187.84 172.65C187.872 176.172 186.671 179.32 184.752 182.185C181.104 187.626 176.331 191.932 170.868 195.487C165.416 199.037 159.403 201.347 153.25 203.32C150.88 204.081 148.499 204.793 146.118 205.522C145.895 205.587 145.683 205.696 145.362 205.63C145.819 204.728 146.275 203.858 146.705 202.978C147.172 202.021 147.45 200.907 148.124 200.129C148.803 199.341 150.053 199.363 151.021 198.933C154.321 197.482 156.81 195.101 158.833 192.182C161.306 188.61 162.709 184.625 163.546 180.385C164.535 175.373 164.84 170.318 164.584 165.23C164.329 160.125 163.557 155.091 162.415 150.112C162.393 150.025 162.388 149.938 162.355 149.759V149.748Z" fill="#C6C6C6"/>
<path d="M62.3635 276.256C58.8736 276.256 55.389 276.202 51.8991 276.278C50.3172 276.31 49.3604 275.555 48.67 274.288C47.8873 272.853 47.8546 271.271 48.0177 269.705C48.5124 265.003 52.3938 261.709 57.0851 262.068C60.0858 262.301 62.7223 263.47 64.913 265.574C65.1848 265.835 65.4621 266.107 65.7719 266.313C66.6471 266.9 67.6583 266.786 68.278 266.052C68.8977 265.324 68.8542 264.307 68.1258 263.535C66.6961 262.019 65.0761 260.741 63.1463 259.926C62.5049 259.654 62.3526 259.306 62.3581 258.659C62.4288 250.755 62.4559 242.851 62.5375 234.947C62.5483 233.762 62.6408 232.577 62.6244 231.392C62.619 230.968 62.7658 230.924 63.1246 231.011C65.8915 231.691 68.6857 232.207 71.507 232.599C71.9691 232.664 72.1158 232.86 72.1648 233.316C72.6921 238.839 73.0889 244.379 73.4803 249.913C73.8826 255.615 74.2903 261.318 74.7741 267.009C74.9915 269.591 75.0187 272.173 75.0459 274.761C75.0567 275.843 74.7197 276.207 73.5999 276.207C69.849 276.223 66.1035 276.212 62.3526 276.212V276.245L62.3635 276.256Z" fill="#FCE040"/>
<path d="M99.2796 276.256C95.719 276.256 92.1584 276.218 88.6032 276.278C87.3529 276.299 86.5484 275.712 85.8688 274.81C85.3307 274.092 85.0534 273.25 84.9501 272.369C84.4174 267.966 86.1298 263.541 91.4789 262.274C94.7731 261.497 97.7521 262.606 100.465 264.476C101.068 264.889 101.59 265.416 102.134 265.911C102.563 266.302 103.031 266.618 103.623 266.688C104.335 266.775 105.053 266.378 105.395 265.732C105.776 265.003 105.64 264.193 104.993 263.514C103.536 261.986 101.889 260.714 99.9374 259.888C99.4264 259.67 99.2525 259.409 99.2525 258.844C99.2307 250.82 99.3721 242.797 99.4264 234.773C99.4373 233.517 99.4482 233.528 100.671 233.42C103.199 233.197 105.721 232.898 108.211 232.398C108.815 232.278 108.972 232.436 109.021 233.012C109.309 236.583 109.635 240.149 109.918 243.721C110.255 247.977 110.554 252.234 110.875 256.496C111.125 259.806 111.342 263.122 111.63 266.427C111.864 269.151 111.935 271.874 111.94 274.603C111.94 275.875 111.668 276.229 110.391 276.234C106.689 276.25 102.987 276.234 99.2851 276.234V276.261L99.2796 276.256Z" fill="#FCE040"/>
<path d="M138.317 113.152C137.539 113.32 136.784 112.983 136.033 112.521C134.87 111.809 133.533 111.353 132.804 110.064C132.652 109.798 132.571 109.591 132.658 109.281C133.31 106.906 133.854 104.498 134.316 102.079C134.375 101.752 134.473 101.432 134.658 101.149C135.55 99.7738 136.55 98.4745 137.61 97.2351C139.382 95.1694 141.807 94.2996 144.372 93.7451C147.933 92.9732 151.412 93.033 154.799 94.6095C155.864 95.1042 156.294 95.7619 156.207 96.9035C156.016 99.2899 155.228 101.492 154.136 103.579C151.211 109.189 146.487 112.206 140.29 113.043C139.676 113.125 139.067 113.174 138.327 113.152H138.317Z" fill="#2960CB"/>
<path d="M45.8003 35.253C45.7351 35.1769 45.6861 35.0791 45.5557 35.1062C45.6372 34.5789 45.8383 34.106 46.1917 33.6983C46.2678 33.6983 46.3439 33.6983 46.42 33.6983L45.8057 35.253H45.8003Z" fill="#030303"/>
<path d="M46.4205 33.6992C46.3442 33.6992 46.2678 33.6992 46.1915 33.6992C46.2515 33.5902 46.3115 33.4812 46.3769 33.3667C46.4205 33.4103 46.4641 33.4485 46.5077 33.4921C46.4804 33.5629 46.4532 33.6338 46.4259 33.7047L46.4205 33.6992Z" fill="#C7C7C7"/>
<path d="M75.1277 6.29522C75.1823 6.27884 75.2806 6.24608 75.286 6.25154C75.3243 6.34983 75.2424 6.33345 75.1878 6.34983C75.1659 6.33345 75.1495 6.3116 75.1277 6.29522Z" fill="#C7C7C7"/>
<path d="M86.9674 173.84C86.7337 173.954 86.6739 174.172 86.5706 174.351C84.4179 177.917 81.1291 179.151 77.1662 178.765C74.0948 178.466 71.8008 176.759 70.0666 174.27C69.7894 173.873 69.6426 173.661 69.2458 174.204C66.9355 177.363 63.6901 178.368 59.961 177.939C56.1231 177.493 53.7421 175.167 52.4049 171.65C52.0841 170.807 51.8612 169.932 51.7471 169.035C51.6982 168.632 51.6982 168.236 51.8015 167.833C52.0461 166.866 52.8669 166.235 53.7693 166.328C54.6663 166.42 55.3403 167.127 55.4001 168.105C55.4436 168.872 55.6284 169.6 55.8839 170.318C57.194 174.025 60.1893 174.857 63.3477 174.031C65.6254 173.438 67.3758 171.166 67.5334 168.812C67.6095 167.725 68.126 167.029 68.9794 166.871C69.9525 166.692 70.7625 167.17 71.1919 168.247C71.7845 169.747 72.3824 171.242 73.3881 172.536C75.3233 175.025 78.3621 175.83 81.0693 174.58C82.7599 173.797 83.6133 172.373 84.1406 170.687C84.3961 169.877 84.4886 169.018 84.8256 168.225C85.2279 167.268 85.7552 166.844 86.6032 166.849C87.5382 166.849 88.0818 167.404 88.4188 168.203C88.8809 169.296 89.3158 170.399 89.8974 171.438C91.1314 173.634 93.5016 174.754 96.0402 174.357C98.6006 173.954 100.286 172.345 100.835 169.774C100.954 169.22 101.036 168.649 101.215 168.116C101.536 167.187 102.379 166.714 103.286 166.888C104.162 167.056 104.825 167.861 104.743 168.812C104.423 172.449 102.911 175.417 99.5682 177.118C95.4531 179.211 90.017 178.173 87.2338 174.172C87.1522 174.058 87.0598 173.954 86.9728 173.846L86.9674 173.84Z" fill="#020202"/>
<path d="M87.8478 193.992C84.5372 193.834 81.754 192.508 79.5959 189.925C79.2969 189.567 79.161 189.48 78.8729 189.953C75.0187 196.318 66.3427 195.166 63.0104 190.523C61.9612 189.061 61.1186 187.517 60.7381 185.74C60.6566 185.365 60.624 184.989 60.6348 184.609C60.6511 183.451 61.3633 182.625 62.3907 182.565C63.3637 182.505 64.1846 183.234 64.3042 184.37C64.4401 185.664 64.9565 186.789 65.6795 187.832C68.5008 191.91 73.9858 191.551 76.2146 187.137C76.7637 186.049 77.0844 184.886 77.1605 183.663C77.2203 182.652 77.8944 181.902 78.8022 181.82C79.7807 181.733 80.6015 182.326 80.7537 183.386C80.9766 184.924 81.4224 186.354 82.4498 187.539C84.26 189.616 86.5051 190.632 89.2884 190.083C91.5715 189.632 92.9305 188.164 93.5068 185.952C93.6699 185.337 93.7514 184.696 93.8275 184.06C93.9743 182.804 94.7516 181.972 95.7845 182.021C96.888 182.076 97.6382 182.962 97.5403 184.261C97.1761 189.056 94.8006 192.997 89.3156 193.861C88.8481 193.937 88.3697 193.937 87.8478 193.981V193.992Z" fill="#020202"/>
<path d="M119.089 65.7439C119.127 68.6304 118.943 71.468 117.866 74.2078C115.964 79.0459 110.625 81.9162 105.554 80.7692C100.585 79.6439 97.3995 76.1811 96.72 70.8592C96.0133 65.3362 95.8121 59.7914 96.9211 54.2792C97.4375 51.6971 98.1877 49.2073 99.8729 47.1144C102.884 43.3744 107.679 42.521 112.044 44.9346C115.991 47.1144 117.926 50.6207 118.459 54.9533C118.899 58.5302 118.986 62.1397 119.095 65.7439H119.089ZM115.213 62.5257C115.061 60.1121 115.105 57.6822 114.762 55.2849C114.317 52.17 112.996 49.5987 110.06 48.0929C106.929 46.4839 103.89 47.3536 102.118 50.3815C101.226 51.8982 100.84 53.5834 100.503 55.2903C99.7478 59.1445 99.8022 63.0258 100.052 66.9181C100.172 68.7881 100.243 70.6635 100.922 72.4465C101.955 75.1646 103.841 76.8498 106.766 77.2031C109.68 77.5565 112.022 76.5671 113.702 74.0991C114.583 72.8053 115.007 71.3702 115.192 69.8481C115.491 67.4073 115.36 64.9665 115.213 62.5257Z" fill="#030303"/>
<path d="M64.9727 65.782C65.0107 68.6468 64.8259 71.4627 63.7604 74.1753C61.8469 79.0514 56.5033 81.9271 51.3934 80.7529C46.4574 79.6222 43.2936 76.1812 42.6032 70.8865C41.8802 65.3417 41.69 59.7751 42.8044 54.2358C43.3262 51.6536 44.0764 49.1639 45.7725 47.0765C48.8112 43.3419 53.595 42.521 57.9547 44.9455C61.8687 47.1254 63.7985 50.6099 64.3312 54.9098C64.777 58.514 64.8639 62.1452 64.9727 65.7711V65.782ZM61.1022 62.553C60.95 60.1393 60.9935 57.7094 60.6564 55.3121C60.2161 52.1646 58.868 49.5879 55.9162 48.0658C53.2036 46.6633 50.3605 47.2015 48.5829 49.5227C47.599 50.8056 47.0608 52.2951 46.6912 53.8552C45.6692 58.1497 45.642 62.504 45.941 66.8746C46.0714 68.7881 46.1367 70.7179 46.8488 72.539C47.898 75.219 49.8006 76.8607 52.6926 77.2032C55.5737 77.5456 57.9003 76.5617 59.5746 74.1264C60.5749 72.6695 60.9554 71.0224 61.1239 69.3046C61.3468 67.054 61.2544 64.8035 61.1076 62.553H61.1022Z" fill="#030303"/>
<path d="M86.8851 68.5598C86.8851 71.6692 86.8851 74.7786 86.8851 77.8881C86.8851 79.5569 85.7653 80.6985 84.091 80.7203C80.6934 80.7692 77.3176 80.4648 73.9582 79.9755C71.5282 79.6222 70.6856 77.6706 72.0936 75.6538C72.784 74.6645 73.5396 73.7132 74.3278 72.7945C74.7301 72.327 74.654 72.0389 74.2734 71.6148C72.7677 69.9079 71.3271 68.1412 70.0496 66.2494C69.4897 65.4232 68.9787 64.5697 68.6145 63.6347C67.7719 61.4766 68.533 59.8349 70.74 59.1119C71.8435 58.7477 72.996 58.552 74.1375 58.3508C77.1002 57.829 80.0683 57.3288 83.0418 56.845C83.5746 56.7581 84.129 56.7417 84.6727 56.7472C86.0806 56.7472 86.8851 57.5409 86.8906 58.9542C86.9069 62.1561 86.8906 65.3634 86.8906 68.5652L86.8851 68.5598ZM76.1217 76.5236C78.3396 76.7791 80.4325 76.9585 82.5417 77.0129C83.1071 77.0292 83.194 76.8389 83.194 76.3334C83.1777 71.305 83.1723 66.2712 83.194 61.2428C83.194 60.6883 83.0527 60.5524 82.5145 60.6503C79.5791 61.1885 76.6327 61.6886 73.6972 62.2213C72.0718 62.5203 72.0718 62.542 72.996 63.9717C74.3822 66.1081 76.0891 67.9944 77.6927 69.9568C78.9322 71.4735 78.9757 72.6096 77.8449 74.2133C77.3176 74.9635 76.7414 75.6865 76.1163 76.5236H76.1217Z" fill="#020201"/>
<path d="M106.891 32.149C108.418 32.0022 109.984 31.9696 111.539 32.2523C112.463 32.4208 113.322 32.7415 114.028 33.3938C115.366 34.6278 115.338 36.4217 113.969 37.6285C112.974 38.5037 111.756 38.7973 110.5 38.9495C107.788 39.2811 105.064 39.3844 102.335 39.1126C101.248 39.0039 100.248 38.6668 99.4216 37.9221C98.1658 36.7914 98.1115 35.1062 99.2911 33.8831C100.194 32.9481 101.373 32.611 102.607 32.3882C104.015 32.1381 105.439 32.1381 106.902 32.1435L106.891 32.149Z" fill="#020202"/>
<path d="M46.419 33.6983C46.4462 33.6276 46.4734 33.5569 46.5006 33.4863C47.4084 32.6437 48.4956 32.1979 49.7133 32.1218C52.8445 31.937 55.9702 32.0239 59.0579 32.6545C59.9766 32.8448 60.8029 33.2634 61.4607 33.9592C62.7218 35.2747 62.5805 37.0686 61.1345 38.183C60.3191 38.8136 59.3678 39.1126 58.3621 39.1833C55.3233 39.3953 52.29 39.2757 49.2893 38.7158C48.289 38.5309 47.3812 38.1341 46.6528 37.4002C46.0657 36.8077 45.6634 36.1282 45.7993 35.2475C46.0059 34.7311 46.2125 34.2147 46.4136 33.6928L46.419 33.6983Z" fill="#030303"/>
<path d="M115.213 62.5257C115.359 64.9665 115.49 67.4073 115.191 69.8481C115.006 71.3757 114.576 72.8054 113.701 74.0991C112.022 76.5671 109.679 77.5619 106.765 77.2031C103.84 76.8444 101.954 75.1646 100.921 72.4466C100.242 70.6635 100.171 68.7827 100.051 66.9181C99.7958 63.0259 99.7469 59.1445 100.502 55.2903C100.834 53.5834 101.225 51.9037 102.117 50.3816C103.895 47.3537 106.933 46.4839 110.059 48.093C112.995 49.5988 114.316 52.17 114.761 55.2849C115.104 57.6822 115.06 60.1121 115.213 62.5257ZM112.054 61.9386C112.016 61.3081 111.951 60.1013 111.88 58.8944C111.793 57.3125 111.445 55.7959 110.668 54.3988C109.978 53.1594 108.928 52.4636 107.504 52.4418C106.064 52.4201 104.944 53.0235 104.172 54.2575C103.857 54.763 103.634 55.3175 103.487 55.8937C102.585 59.3946 102.606 62.9389 103.047 66.4941C103.215 67.864 103.498 69.2175 104.275 70.3972C105.607 72.414 108.135 72.7456 109.956 71.1528C110.608 70.582 111.07 69.8753 111.38 69.0599C112.195 66.9398 112.092 64.7274 112.049 61.9441L112.054 61.9386Z" fill="#FAFAFA"/>
<path d="M61.1028 62.5584C61.2496 64.8089 61.342 67.0595 61.1191 69.31C60.9506 71.0278 60.5701 72.6695 59.5699 74.1318C57.8955 76.5671 55.5743 77.5511 52.6878 77.2086C49.7958 76.8661 47.8986 75.2244 46.844 72.5445C46.1319 70.7234 46.0666 68.7936 45.9362 66.8801C45.6372 62.5095 45.6698 58.1552 46.6864 53.8607C47.056 52.3005 47.5942 50.811 48.5781 49.5281C50.3611 47.2124 53.1988 46.6687 55.9114 48.0713C58.8632 49.5988 60.2059 52.1701 60.6516 55.3175C60.9887 57.7148 60.9506 60.1448 61.0974 62.5584H61.1028ZM57.9445 61.9822C57.9064 61.2809 57.8357 60.0958 57.7705 58.9162C57.6835 57.3343 57.3356 55.8231 56.5637 54.4206C55.7863 53.0072 54.4382 52.2788 52.84 52.4799C50.9374 52.7191 49.9426 53.964 49.437 55.6818C48.5455 58.7368 48.5564 61.8626 48.7629 64.9992C48.8662 66.543 49.0945 68.0706 49.6925 69.5111C50.285 70.9408 51.2798 71.9519 52.878 72.1313C54.4654 72.3107 55.6668 71.5823 56.5963 70.332C56.9551 69.8482 57.1943 69.3154 57.39 68.7501C58.0912 66.7061 57.9771 64.586 57.9499 61.993L57.9445 61.9822Z" fill="#FAFAFA"/>
<path d="M76.1216 76.5182C76.7468 75.681 77.323 74.958 77.8503 74.2078C78.981 72.5987 78.9375 71.468 77.6981 69.9514C76.089 67.989 74.3875 66.1026 73.0013 63.9663C72.0772 62.542 72.0772 62.5148 73.7026 62.2158C76.6381 61.6777 79.5844 61.1776 82.5199 60.6448C83.0581 60.547 83.2048 60.6829 83.1994 61.2374C83.1776 66.2657 83.1776 71.2995 83.1994 76.3279C83.1994 76.8335 83.1179 77.0237 82.5471 77.0074C80.4379 76.953 78.3395 76.7736 76.1271 76.5182H76.1216Z" fill="#FCDF40"/>
<path d="M112.055 61.9387C112.093 64.7219 112.196 66.9344 111.386 69.0545C111.076 69.8699 110.614 70.5766 109.962 71.1474C108.141 72.7401 105.613 72.4085 104.281 70.3918C103.504 69.2121 103.221 67.8586 103.053 66.4887C102.612 62.9335 102.591 59.3892 103.493 55.8883C103.64 55.3121 103.857 54.7631 104.178 54.2521C104.95 53.0235 106.07 52.4147 107.51 52.4364C108.94 52.4582 109.984 53.154 110.674 54.3934C111.452 55.7905 111.799 57.3017 111.886 58.889C111.952 60.0958 112.022 61.3026 112.06 61.9332L112.055 61.9387Z" fill="#020202"/>
<path d="M57.944 61.9822C57.9712 64.5752 58.0853 66.6953 57.3841 68.7392C57.1884 69.3046 56.9492 69.8373 56.5904 70.3211C55.6663 71.5714 54.4595 72.2998 52.8721 72.1205C51.2739 71.9411 50.2737 70.9354 49.6866 69.5003C49.0941 68.0597 48.8603 66.5322 48.757 64.9883C48.5504 61.8517 48.5396 58.726 49.4311 55.6709C49.9312 53.9531 50.9314 52.7082 52.8341 52.4691C54.4323 52.2679 55.7804 52.9964 56.5578 54.4097C57.3297 55.8122 57.6776 57.3235 57.7646 58.9054C57.8298 60.0904 57.9005 61.2755 57.9385 61.9713L57.944 61.9822Z" fill="#020202"/>
<path d="M191.535 0.00851151C191.603 0.00851151 191.68 0.00851151 191.748 0.00851151V4.68527C191.68 4.68527 191.612 4.68527 191.535 4.68527V0V0.00851151Z" fill="#C7C7C7"/>
</g>
<defs>
<clipPath id="clip0_5014_107158">
<rect width="191.496" height="280" fill="white" transform="translate(0.251953)"/>
</clipPath>
</defs>
</svg>
