<svg width="200" height="280" viewBox="0 0 200 280" fill="none" xmlns="http://www.w3.org/2000/svg">
<g clip-path="url(#clip0_5014_107394)">
<path d="M199.441 181.422C199.441 180.534 199.441 179.646 199.447 178.758C199.136 175.983 198.226 173.458 196.311 171.365C194.174 169.023 191.477 167.769 188.369 167.32C186.637 167.07 184.917 167.17 183.213 167.514C182.836 167.591 182.758 167.514 182.747 167.153C182.719 166.176 182.63 165.205 182.381 164.262C182.308 163.978 182.403 163.812 182.586 163.618C188.014 157.851 191.249 150.986 192.57 143.227C193.375 138.488 193.419 133.731 191.86 129.103C190.583 125.323 188.241 122.332 184.845 120.206C184.517 120.001 184.345 119.773 184.295 119.374C183.646 114.029 182.985 108.69 182.308 103.351C181.681 98.3838 181.043 93.4221 180.388 88.4605C179.556 82.1779 178.695 75.9065 177.863 69.624C177.43 66.3551 177.042 63.0751 176.631 59.8006C176.614 59.6452 176.598 59.4898 176.592 59.3399C176.548 57.8248 175.904 57.231 174.405 57.2809C170.459 57.4141 166.547 57.897 162.623 58.2633C162.207 58.3021 161.785 58.3965 161.396 58.5408C160.575 58.846 160.114 59.623 160.192 60.4832C160.719 66.4161 161.263 72.349 161.768 78.2874C162.451 86.3182 163.233 94.3434 164.005 102.369C164.515 107.658 165.026 112.952 165.536 118.241C165.697 119.895 165.864 121.549 166.053 123.198C166.091 123.564 165.947 123.797 165.77 124.091C165.092 125.229 164.116 125.406 162.85 125.44C156.146 125.617 149.68 124.374 143.331 122.354C142.776 122.176 142.643 121.971 142.804 121.383C144.597 114.878 145.684 108.24 146.517 101.553C147.299 95.2813 147.727 88.9877 147.843 82.6719C147.904 79.4585 147.893 76.2451 147.727 73.0372C147.699 72.4933 147.738 72.2657 148.365 72.4766C149.397 72.8207 150.463 72.9539 151.562 72.854C152.655 72.7542 153.349 72.127 153.826 71.2279C154.487 69.9903 154.542 68.6361 154.425 67.2708C154.231 64.9953 153.582 62.842 152.644 60.7663C152.544 60.5443 152.444 60.3334 152.483 60.0725C153.726 52.3359 152.866 44.7547 150.774 37.2678C148.792 30.1861 145.756 23.6094 141.461 17.6266C137.126 11.5827 131.382 7.39807 124.567 4.5343C116.336 1.07669 107.773 -0.327449 98.8761 0.0665969C86.8883 0.599391 76.804 5.32239 68.3293 13.7194C61.2254 20.7568 56.3192 29.1094 53.2612 38.5887C52.6951 40.3425 52.3066 42.1407 52.24 43.9888C52.2289 44.344 52.0402 44.5549 51.8016 44.7603C50.5861 45.8147 49.5649 47.0357 48.799 48.451C48.355 49.2779 47.9998 50.1326 47.9943 51.0927C47.9887 52.0695 48.3772 52.8021 49.3041 53.2073C50.6583 53.8067 52.1179 53.9843 53.5387 54.2951C54.4489 54.4948 55.3591 54.6835 56.2804 54.8001C56.791 54.8667 56.7632 55.0443 56.6356 55.4383C55.0649 60.3833 53.8772 65.4227 53.0114 70.5397C52.0957 75.962 51.5296 81.4176 51.2466 86.912C50.8192 95.2314 51.1633 103.523 51.9625 111.804C52.2178 114.473 52.523 117.137 52.9781 119.779C53.0503 120.201 52.9004 120.3 52.5452 120.4C47.8777 121.76 43.1103 122.637 38.293 123.247C36.4282 123.486 34.5412 123.608 32.6654 123.242C32.1104 123.136 31.8162 122.931 31.6775 122.304C31.3223 120.717 30.6341 119.246 29.7017 117.908C29.4464 117.542 29.352 117.198 29.4075 116.743C30.3899 108.518 31.3722 100.293 32.3213 92.0624C33.2148 84.2758 34.075 76.4782 34.9297 68.686C35.4292 64.1295 35.9232 59.5675 36.517 55.0221C36.5392 54.8667 36.5559 54.7113 36.6058 54.567C37.0443 53.2017 36.1008 52.3859 35.1018 52.1694C32.1326 51.5312 29.1245 51.1371 26.122 50.682C24.9842 50.51 23.8465 50.3268 22.6977 50.2214C21.2713 50.0937 20.5443 50.7764 20.3334 52.2027C19.8783 55.2274 19.3677 58.2411 18.896 61.2602C18.2244 65.5503 17.5529 69.8349 16.898 74.125C16.2153 78.5927 15.5438 83.0604 14.8778 87.5281C14.2174 91.9514 13.5625 96.3802 12.9131 100.804C12.3415 104.727 11.7698 108.651 11.2259 112.575C11.1704 112.969 10.9318 113.069 10.6432 113.191C7.05794 114.701 4.28297 117.076 2.60688 120.645C1.4525 123.103 0.808704 125.689 0.636656 128.387C0.153811 135.985 1.94644 142.983 6.34199 149.243C11.065 155.964 17.1255 161.187 24.3516 165.061C27.3208 166.654 30.351 168.113 33.5423 169.212C33.9363 169.351 34.0251 169.517 33.9529 169.928C32.954 175.683 32.4434 181.477 32.5599 187.316C32.6543 192.156 33.287 196.901 35.2183 201.385C36.6169 204.621 38.4706 207.534 41.5286 209.494C41.7395 209.627 41.8006 209.815 41.845 210.043C42.2779 212.23 43.0326 214.3 44.0316 216.287C45.408 219.017 47.6335 220.649 50.5861 221.337C51.9514 221.653 53.1613 222.175 54.2879 223.119C59.7102 227.653 65.9705 230.661 72.6471 232.875C73.8737 233.281 73.8626 233.275 73.6073 234.546C71.9367 242.876 70.0664 251.162 68.1184 259.432C67.8631 260.525 67.8686 260.52 66.8086 260.303C64.7496 259.881 62.6683 259.776 60.6038 260.192C57.5235 260.814 55.2703 262.606 53.8439 265.393C51.9236 269.15 51.5962 272.968 53.6774 276.77C54.8707 278.945 56.7576 280.005 59.2884 279.994C66.3368 279.961 73.3853 279.983 80.4281 279.994C81.5714 279.994 82.2763 279.428 82.5316 278.291C83.5528 273.773 84.1078 269.183 84.7904 264.61C85.5507 259.51 86.3 254.404 87.1103 249.314C87.7319 245.418 88.2147 241.511 88.6642 237.598C88.8252 236.216 88.7975 236.25 90.1627 236.394C95.2132 236.921 100.28 237.099 105.358 236.944C106.663 236.905 107.972 236.91 109.277 236.86C109.859 236.838 109.71 237.265 109.732 237.543C109.937 239.968 110.07 242.405 110.331 244.83C110.847 249.653 111.441 254.47 111.98 259.288C112.473 263.711 112.94 268.14 113.395 272.569C113.595 274.55 114.005 276.503 114.316 278.468C114.477 279.484 115.215 280 116.253 280C123.412 280 130.566 280 137.726 280C140.051 280 141.799 278.912 143.043 277.014C145.806 272.802 145.213 266.458 141.727 262.823C139.696 260.703 137.132 259.926 134.263 259.954C132.864 259.965 131.471 260.065 130.122 260.459C129.695 260.581 129.612 260.481 129.534 260.087C128.147 252.6 126.609 245.135 125.455 237.604C125.344 236.882 125.261 236.15 125.077 235.445C124.911 234.801 125.077 234.54 125.738 234.357C129.123 233.425 132.359 232.104 135.445 230.439C139.835 228.069 143.681 225 147.1 221.387C147.388 221.082 147.677 220.91 148.11 220.849C149.336 220.677 150.552 220.46 151.762 220.21C153.182 219.916 154.337 219.178 155.197 217.996C155.896 217.036 156.412 215.987 156.768 214.866C156.923 214.366 157.184 214.139 157.689 213.989C162.873 212.485 168.028 210.881 173.018 208.816C181.298 205.392 188.374 200.319 194.063 193.371C196.622 190.246 198.525 186.778 199.225 182.737C199.302 182.299 199.358 181.86 199.424 181.427L199.441 181.422Z" fill="black"/>
<path d="M129.695 68.4918C130.555 71.9716 130.461 75.4847 130.661 78.9645C130.816 81.7007 130.872 84.459 130.128 87.1507C127.825 95.5145 119.372 96.8631 114.188 93.2778C111.536 91.4408 110.231 88.7491 109.837 85.6578C109.177 80.5019 108.988 75.3238 110.026 70.179C110.348 68.5917 110.742 67.0211 111.486 65.5725C111.741 65.0786 111.652 64.9731 111.13 64.8732C105.186 63.7521 99.248 62.6311 93.3151 61.4656C86.5386 60.1336 79.7788 58.7128 72.969 57.5584C68.8898 56.8647 64.7995 56.2209 60.7148 55.5327C60.2264 55.4494 60.1653 55.7214 60.0599 56.0488C58.6002 60.5887 57.4736 65.2118 56.63 69.9015C55.4035 76.739 54.7597 83.6265 54.5654 90.575C54.3656 97.8121 54.7597 105.016 55.4534 112.209C55.6532 114.301 55.9751 116.382 56.247 118.469C56.2748 118.685 56.2859 118.891 56.5134 119.041C59.0276 120.695 61.5139 122.398 64.1613 123.841C72.1254 128.181 80.5336 131.35 89.3968 133.293C90.8953 133.62 92.4438 133.52 93.97 133.504C98.7984 133.448 103.521 132.594 108.222 131.55C114.466 130.163 120.737 128.864 126.798 126.783C130.688 125.445 134.59 124.13 138.264 122.215C138.941 121.86 139.224 121.472 139.402 120.806C141.05 114.745 142.11 108.573 142.926 102.358C143.764 95.9806 144.236 89.5816 144.369 83.1547C144.447 79.4807 144.458 75.8011 144.214 72.127C144.191 71.7774 144.164 71.5332 143.709 71.4277C139.196 70.4065 134.662 69.4686 130.128 68.5528C130.006 68.5306 129.878 68.5251 129.695 68.5029V68.4918Z" fill="#C8C8C8"/>
<path d="M101.152 3.41876C95.5684 3.49091 89.2303 4.3789 83.2808 7.20382C78.3802 9.52925 74.1179 12.7316 70.3106 16.5777C63.4786 23.4818 58.8555 31.668 56.1583 40.9697C55.7587 42.3516 55.5977 43.7946 55.5145 45.232C55.4756 45.8924 55.2703 46.3808 54.7042 46.786C53.6719 47.5297 52.8227 48.4621 52.129 49.5388C51.5962 50.3713 51.5907 50.3602 52.5286 50.5655C56.2304 51.3813 59.9711 51.9474 63.7117 52.5302C72.8136 53.9454 81.8656 55.6215 90.8898 57.4585C101.068 59.5287 111.291 61.3601 121.498 63.3137C131.138 65.1563 140.75 67.121 150.296 69.4075C150.785 69.5241 150.929 69.3909 150.968 68.9358C151.073 67.7037 150.896 66.4994 150.579 65.3228C150.252 64.1018 149.88 62.8919 149.247 61.7875C148.742 60.905 149.07 59.9893 149.186 59.118C150.135 52.1972 149.392 45.4263 147.571 38.7275C145.934 32.7002 143.459 27.0504 140.09 21.778C135.977 15.3345 130.394 10.7058 123.335 7.76992C116.519 4.9339 109.449 3.42986 101.146 3.42431L101.152 3.41876Z" fill="#FABA10"/>
<path d="M139.185 130.279C138.614 130.89 138.07 131.528 137.47 132.116C133.18 136.318 128.446 139.925 123.207 142.894C118.628 145.492 113.894 147.723 108.91 149.415C106.285 150.309 103.632 151.086 100.863 151.336C98.7152 151.53 96.856 150.958 95.7904 148.783C95.7127 149.721 95.6405 150.625 95.6017 151.53C95.474 154.782 95.4352 158.035 95.2742 161.287C95.2076 162.635 95.2187 163.984 95.1799 165.338C94.9301 173.647 95.0522 181.955 95.0744 190.263C95.0855 193.87 95.1854 197.478 95.3464 201.085C95.4907 204.371 95.7404 207.657 96.3509 210.903C96.4286 211.32 96.5785 211.458 96.9892 211.458C100.513 211.447 104.038 211.497 107.562 211.43C108.866 211.403 110.17 211.347 111.48 211.347C114.999 211.347 118.517 211.186 122.036 211.042C125.788 210.892 129.54 210.648 133.28 210.254C137.654 209.793 142.005 209.183 146.323 208.345C148.537 207.917 150.735 207.429 152.944 206.979C155.991 206.363 158 204.476 159.432 201.857C160.597 199.726 161.024 197.361 161.385 194.997C161.89 191.717 162.123 188.409 162.073 185.085C162.007 180.795 161.413 176.588 160.22 172.464C160.125 172.142 159.97 172.02 159.631 171.965C156.507 171.471 153.576 170.505 151.046 168.524C149.358 167.197 147.932 165.627 146.683 163.901C143.12 158.972 140.928 153.456 139.757 147.517C139.074 144.06 138.686 140.569 138.691 137.045C138.691 134.791 138.847 132.544 139.196 130.279H139.185Z" fill="#545454"/>
<path d="M82.3928 145.825C81.8489 146.546 81.3161 147.268 80.7667 147.984C80.0008 148.988 79.1739 149.216 77.9862 148.855C74.4065 147.762 71.3373 145.747 68.4125 143.516C64.2001 140.308 60.4706 136.595 57.4181 132.25C55.9307 130.129 54.6487 127.876 53.4776 125.323C48.133 134.708 44.2758 144.543 41.129 154.743C43.3712 154.138 45.4857 154.81 47.6113 154.877C48.5604 154.904 49.5039 155.026 50.4529 155.071C53.017 155.182 55.5866 155.26 58.1507 155.376C62.2188 155.559 66.2869 155.692 70.3383 156.059C72.6693 156.264 74.0402 157.779 74.2344 160.01C74.462 162.619 74.5841 165.31 73.7349 167.847C73.1855 169.484 73.1855 171.132 73.0967 172.797C72.8858 176.904 72.7581 181.017 72.2808 185.102C72.1032 186.622 71.7647 188.11 70.6491 189.292C69.7667 190.23 68.6567 190.668 67.4246 190.851C66.6365 190.968 65.8373 190.968 65.0437 191.007C62.6073 191.123 60.1709 191.201 57.74 191.118C54.2491 190.99 50.7471 190.935 47.2894 190.43C44.7198 190.052 42.5276 188.898 41.3399 186.384C40.8515 185.346 40.7849 184.208 40.6573 183.087C40.5796 182.427 40.5407 181.766 40.5241 181.1C40.463 178.53 40.4464 175.961 40.352 173.397C40.3021 172.07 40.241 170.744 40.2299 169.417C40.2299 169.168 40.1744 168.929 40.0079 168.735C39.242 167.863 39.1088 166.781 39.0533 165.693C39.0089 164.789 39.0422 163.879 39.0422 162.769C38.6482 163.64 38.5705 164.395 38.404 165.122C37.5993 168.679 36.9721 172.27 36.5559 175.894C36.345 177.737 36.2062 179.59 36.0952 181.444C35.9676 183.592 35.9398 185.74 36.012 187.882C36.1785 192.716 36.9111 197.434 39.242 201.774C40.2188 203.594 41.4509 205.192 43.127 206.419C43.4655 206.669 43.8207 206.863 44.237 206.985C48.2385 208.134 52.301 208.961 56.4302 209.482C59.7213 209.899 63.018 210.187 66.3257 210.42C68.5735 210.581 70.8267 210.715 73.08 210.82C75.5997 210.942 78.1194 211.07 80.639 211.07C81.1108 211.07 81.7268 211.453 81.9988 211.036C82.1764 210.765 81.8434 210.171 81.7601 209.716C81.3716 207.607 81.1774 205.475 81.0442 203.333C80.7556 198.605 80.7334 193.865 80.6057 189.131C80.4892 184.785 80.7001 180.451 80.6945 176.111C80.6945 173.924 80.8333 171.732 80.9332 169.545C81.1052 165.899 81.2662 162.252 81.4826 158.612C81.6547 155.742 81.8989 152.884 82.132 150.02C82.243 148.638 82.4095 147.257 82.5538 145.875C82.4927 145.852 82.4317 145.83 82.3706 145.808L82.3928 145.825Z" fill="#545454"/>
<path d="M144.047 126.244C144.275 127.083 143.969 127.743 143.614 128.426C142.704 130.163 142.449 132.077 142.266 133.998C142.055 136.184 142.071 138.377 142.266 140.558C142.721 145.647 143.681 150.62 145.762 155.332C147.211 158.617 149.036 161.648 151.501 164.289C153.765 166.715 156.607 167.963 159.809 168.502C164.682 169.323 169.288 168.457 173.606 166.126C176.653 164.478 179.306 162.314 181.515 159.633C181.609 159.516 181.781 159.4 181.715 159.239C181.637 159.028 181.409 159.111 181.243 159.095C176.903 158.778 173.107 157.213 169.882 154.244C166.63 151.253 164.893 147.49 164.066 143.238C164.016 142.994 163.944 142.772 163.822 142.561C162.184 139.814 161.324 136.856 161.535 133.637C161.624 132.261 161.918 130.923 162.379 129.624C162.645 128.87 162.65 128.875 161.812 128.87C159.665 128.847 157.517 128.842 155.38 128.598C152.699 128.287 150.058 127.76 147.438 127.11C146.328 126.833 145.224 126.544 144.047 126.244Z" fill="#545454"/>
<path d="M179.245 166.598C178.102 167.414 177.025 168.185 175.87 168.84C172.269 170.888 168.411 172.07 164.26 172.242C163.81 172.259 163.755 172.37 163.871 172.781C165.12 177.343 165.586 182.005 165.509 186.722C165.431 191.207 165.031 195.652 163.844 200.003C162.928 203.355 161.213 206.18 158.394 208.273C158.205 208.411 158.083 208.556 158.061 208.805C158.022 209.283 157.95 209.76 157.878 210.343C158.588 210.126 159.221 209.938 159.842 209.743C164.676 208.217 169.516 206.708 174.111 204.537C181.204 201.196 187.253 196.523 192.06 190.296C194.035 187.738 195.478 184.907 195.895 181.655C196.81 174.507 191.976 170.744 186.565 170.655C185.45 170.638 184.34 170.722 183.28 171.06C182.314 171.371 181.387 171.143 180.46 171.016C179.694 170.91 179.234 170.172 179.195 169.284C179.162 168.424 179.456 167.575 179.239 166.593L179.245 166.598Z" fill="#C8C8C8"/>
<path d="M4.01102 130.274C4.05542 136.712 5.64825 142.084 8.93381 146.946C9.17246 147.295 9.39446 147.456 9.844 147.401C12.4802 147.068 14.9222 146.224 17.0978 144.67C17.3919 144.459 17.514 144.343 17.2421 143.971C16.5705 143.033 16.9701 141.834 18.0801 141.335C18.4631 141.163 18.8738 141.052 19.2678 140.907C25.6669 138.521 29.3409 132.577 28.7416 125.751C28.4974 122.953 27.7037 120.4 25.6391 118.469C22.5478 115.572 18.8405 114.623 14.6947 115.528C12.841 115.933 11.1094 116.66 9.52211 117.709C6.95804 119.401 5.5872 121.899 4.75471 124.763C4.17197 126.761 4.03322 128.809 4.01657 130.285L4.01102 130.274Z" fill="#959594"/>
<path d="M68.8565 276.492C72.1365 276.492 75.4166 276.481 78.6966 276.504C79.185 276.504 79.3737 276.365 79.4736 275.882C80.7833 269.655 81.3716 263.322 82.3928 257.051C83.1254 252.572 83.797 248.082 84.4463 243.592C84.796 241.184 85.029 238.758 85.3454 236.344C85.4064 235.889 85.2455 235.767 84.8514 235.711C82.415 235.362 80.0119 234.873 77.6199 234.285C77.2869 234.202 77.1648 234.235 77.0926 234.607C75.411 243.254 73.463 251.845 71.415 260.414C71.1375 261.569 71.1209 262.396 72.2309 263.156C73.2077 263.827 73.9292 264.838 74.5508 265.864C74.9337 266.497 74.9781 267.169 74.5563 267.812C74.2011 268.362 73.6683 268.595 73.019 268.55C72.5528 268.517 72.1698 268.301 71.859 267.968C71.6925 267.79 71.5427 267.596 71.4095 267.396C68.8676 263.65 64.6719 262.917 61.0034 263.661C59.9211 263.883 58.9665 264.427 58.1951 265.221C56.1472 267.329 54.8707 271.364 56.4136 274.589C57.013 275.843 57.8676 276.559 59.3384 276.531C62.5074 276.481 65.6764 276.515 68.8454 276.515C68.8454 276.509 68.8454 276.498 68.8454 276.492H68.8565Z" fill="#FEE141"/>
<path d="M128.091 276.515C131.127 276.515 134.163 276.442 137.193 276.542C139.008 276.603 140.029 275.765 140.706 274.211C141.921 271.409 141.294 267.529 139.219 265.309C138.031 264.044 136.516 263.494 134.818 263.422C132.059 263.3 129.479 263.789 127.347 265.72C126.753 266.258 126.232 266.858 125.743 267.49C125.555 267.735 125.349 267.973 125.111 268.168C124.472 268.678 123.612 268.689 123.018 268.223C122.441 267.773 122.247 266.991 122.558 266.242C122.658 265.998 122.796 265.764 122.952 265.554C123.779 264.421 124.722 263.395 125.854 262.557C126.248 262.262 126.359 261.985 126.271 261.502C125.549 257.789 124.866 254.065 124.151 250.347C123.229 245.585 122.458 240.801 121.675 236.017C121.592 235.506 121.437 235.44 120.959 235.539C118.551 236.022 116.109 236.339 113.661 236.577C113.273 236.616 113.167 236.699 113.195 237.132C113.772 245.774 115.026 254.348 115.909 262.962C116.286 266.663 116.619 270.365 117.113 274.056C117.208 274.755 117.391 275.444 117.485 276.148C117.546 276.603 117.857 276.498 118.123 276.498C121.448 276.498 124.767 276.498 128.091 276.498C128.091 276.509 128.091 276.515 128.091 276.526V276.515Z" fill="#FEE141"/>
<path d="M179.916 148.794C181.881 149.798 183.807 149.821 185.76 148.905C186.421 148.594 186.998 148.122 187.708 147.911C187.908 147.85 187.953 147.678 188.008 147.506C189.651 142.167 190.267 136.745 188.891 131.273C187.858 127.171 185.383 124.124 181.47 122.343C179.617 121.499 177.724 121.394 175.771 121.971C171.647 123.192 168.334 125.451 166.286 129.33C163.172 135.241 165.897 142.733 172.091 145.264C174.011 146.052 176.02 146.03 178.04 145.719C178.174 145.697 178.301 145.664 178.429 145.642C179.5 145.469 180.216 145.758 180.593 146.507C180.982 147.279 180.788 147.967 179.911 148.794H179.916Z" fill="#959594"/>
<path d="M90.0684 211.342C90.8676 211.342 91.6612 211.331 92.4604 211.342C92.8156 211.347 92.8989 211.247 92.8378 210.876C92.3383 207.84 92.083 204.787 91.9554 201.713C91.8166 198.349 91.7833 194.986 91.6834 191.628C91.4836 184.741 91.6113 177.853 91.6002 170.966C91.5946 168.33 91.6723 165.699 91.7389 163.063C91.8055 160.388 91.8832 157.713 92.0053 155.038C92.1885 151.147 92.3883 147.262 92.3994 143.366C92.3994 142.978 92.3272 142.645 92.1274 142.3C91.2838 140.841 90.5013 139.353 89.802 137.822C89.5744 137.317 89.3802 137.355 89.0861 137.755C88.8141 138.127 88.5033 138.482 88.2036 138.832C86.4332 140.902 86.472 140.902 86.2611 143.549C86.0558 146.124 85.7394 148.688 85.5063 151.264C85.3343 153.178 85.2011 155.099 85.079 157.013C84.8903 159.949 84.7238 162.88 84.5628 165.816C84.5073 166.831 84.4685 167.847 84.4407 168.862C84.3242 172.62 84.1688 176.383 84.0911 180.145C84.0356 182.782 84.0301 185.412 84.0301 188.049C84.0301 190.774 84.0578 193.499 84.1688 196.218C84.302 199.376 84.3797 202.539 84.6905 205.686C84.8515 207.357 85.1067 209.016 85.5674 210.637C85.6895 211.07 85.8948 211.22 86.3555 211.236C87.5931 211.281 88.8308 211.369 90.0684 211.342Z" fill="#545454"/>
<path d="M61.1587 223.812C66.9751 227.431 73.2909 229.784 79.9508 231.277C84.191 232.226 88.4811 232.82 92.8101 233.17C96.856 233.497 100.907 233.641 104.959 233.514C110.514 233.336 116.07 233.109 121.531 231.932C128.89 230.345 135.567 227.348 141.289 222.369C141.439 222.236 141.583 222.103 141.727 221.964C141.738 221.953 141.727 221.92 141.727 221.837C140.612 221.998 139.502 222.153 138.397 222.308C134.496 222.863 130.589 223.346 126.67 223.74C121.426 224.262 116.17 224.634 110.908 224.878C107.323 225.044 103.738 225.133 100.147 225.217C94.6748 225.344 89.2026 225.228 83.7304 225.167C78.8353 225.111 73.9458 224.928 69.0674 224.495C66.5533 224.273 64.0503 223.968 61.5417 223.696C61.3974 223.685 61.2031 223.524 61.1532 223.818L61.1587 223.812Z" fill="#959594"/>
<path d="M49.7314 124.829C49.5427 124.718 49.3707 124.785 49.2042 124.829C46.0241 125.595 42.7995 126.172 39.5584 126.594C37.96 126.805 36.3505 126.994 34.7299 126.91C34.3026 126.888 34.1472 126.955 34.2637 127.449C34.8631 129.941 35.0574 132.472 34.9297 135.024C34.8021 137.6 33.9862 140.003 33.0039 142.362C31.3889 146.252 28.5196 149.11 25.3838 151.758C23.3082 153.506 21.0382 154.965 18.4631 155.892C18.2966 155.953 18.1245 155.992 17.958 156.053C17.8193 156.103 17.6583 156.12 17.5307 156.314C18.7572 157.385 20.0614 158.362 21.4212 159.261C25.3283 161.858 29.4797 163.973 33.8586 165.666C34.6966 165.988 34.7077 165.993 34.8853 165.122C36.2062 158.767 38.071 152.562 40.2022 146.441C42.178 140.769 44.5034 135.246 47.1229 129.841C47.9443 128.154 48.8601 126.511 49.7314 124.84V124.829Z" fill="#545454"/>
<path d="M179.989 112.536C179.361 107.597 178.745 102.657 178.107 97.7233C177.474 92.8283 176.825 87.9388 176.17 83.0493C175.571 78.576 174.966 74.1028 174.355 69.6295C174.261 68.9358 174.267 68.2199 174.033 67.5483C173.7 67.5317 173.506 67.7648 173.317 67.9757C171.469 70.0347 169.616 72.0882 167.718 74.0972C167.423 74.408 167.329 74.7743 167.318 75.1906C167.29 76.4782 167.435 77.7546 167.507 79.0311C167.607 80.7072 167.712 82.3833 167.851 84.0594C168.067 86.7234 168.245 89.3929 168.456 92.0624C168.611 93.9993 168.783 95.9418 168.922 97.8787C169.055 99.7102 169.222 101.536 169.377 103.368C169.538 105.238 169.693 107.114 169.843 108.984C169.943 110.261 170.065 111.537 170.16 112.819C170.182 113.141 170.204 113.485 170.409 113.768C170.67 113.951 170.953 113.901 171.242 113.868C173.739 113.585 176.237 113.28 178.729 112.975C179.162 112.919 179.678 113.008 179.983 112.536H179.989Z" fill="#D43F3F"/>
<path d="M27.0655 107.064C27.3818 104.494 27.7093 101.925 28.0034 99.355C28.4862 95.1981 28.9469 91.0412 29.4131 86.8843C29.8404 83.077 30.2622 79.2753 30.684 75.4681C31.1613 71.1558 31.6386 66.8435 32.1159 62.5312C32.1159 62.4868 32.1048 62.4424 32.1048 62.398C31.8939 62.1815 31.6164 62.2204 31.3556 62.2148C30.1401 62.1871 28.9247 62.2537 27.7037 62.1038C26.8601 61.9984 26.6603 62.1815 26.4439 63.014C24.8011 69.3631 23.3137 75.7511 21.8152 82.1336C20.5443 87.5447 19.3011 92.967 18.0579 98.3838C17.5862 100.437 17.12 102.485 16.6538 104.539C16.5983 104.777 16.5317 105.016 16.676 105.249C17.2476 105.643 17.9247 105.649 18.5685 105.765C21.127 106.22 23.68 106.709 26.2441 107.125C26.516 107.169 26.8046 107.308 27.0599 107.064H27.0655Z" fill="#D43F3F"/>
<path d="M93.4483 136.906C94.0754 138.055 94.6526 139.148 95.2631 140.219C96.5563 142.489 97.8661 144.748 99.1814 147.001C99.7086 147.906 99.914 147.95 100.974 147.834C105.275 147.362 109.255 145.814 113.201 144.187C118.212 142.123 122.941 139.503 127.37 136.39C130.977 133.853 134.335 131.001 137.204 127.615C137.531 127.227 137.815 126.805 138.098 126.383C138.181 126.261 138.209 126.072 138.098 125.945C137.959 125.778 137.815 125.945 137.687 126C130.566 129.158 123.168 131.478 115.587 133.232C111.264 134.231 106.94 135.258 102.567 136.023C100.347 136.412 98.1103 136.662 95.857 136.767C95.0911 136.8 94.3307 136.862 93.4539 136.911L93.4483 136.906Z" fill="#545454"/>
<path d="M58.0896 168.646C59.4605 168.646 60.4595 168.663 61.4529 168.646C63.7062 168.607 65.965 168.557 68.2183 168.507C69.406 168.48 70.0109 168.041 70.3772 166.914C70.7379 165.788 70.849 164.622 70.8268 163.451C70.8046 162.369 70.9211 161.287 70.7435 160.205C70.6658 159.722 70.4105 159.555 69.961 159.472C68.8898 159.278 67.802 159.289 66.7253 159.256C64.1169 159.172 61.5195 158.967 58.9055 158.917C55.9696 158.861 53.0281 158.723 50.0977 158.517C47.9388 158.368 45.7799 158.212 43.6209 158.09C43.3268 158.073 43.2324 158.151 43.1658 158.412C42.5387 160.898 42.239 163.401 42.7829 165.949C42.9272 166.62 43.2713 167.109 43.9206 167.392C45.1139 167.908 46.3904 168.097 47.6558 168.235C51.241 168.618 54.8429 168.702 58.0785 168.652L58.0896 168.646Z" fill="#3F3F3F"/>
<path d="M57.2571 124.246C58.6446 127.049 60.2153 129.735 62.2132 132.155C65.6986 136.384 69.6946 140.047 74.3454 142.972C75.5608 143.738 76.8262 144.421 78.1471 144.998C78.4246 145.12 78.63 145.164 78.8353 144.887C80.9221 141.995 83.3363 139.37 85.6506 136.667C86.1168 136.123 86.0946 136.101 85.3953 135.929C77.8474 134.059 70.638 131.284 63.7284 127.715C61.6083 126.622 59.5271 125.44 57.5346 124.119C57.3681 124.002 57.2682 124.024 57.2571 124.246Z" fill="#545454"/>
<path d="M16.7093 105.188C19.2734 93.8994 21.8541 82.6164 24.568 71.3611C25.2562 68.4974 25.9888 65.6502 26.677 62.7865C26.7824 62.348 26.9489 62.2093 27.3929 62.2648C28.958 62.459 30.5342 62.4535 32.1048 62.398C32.3768 60.178 32.6376 57.958 32.9262 55.7436C32.9762 55.3551 32.8485 55.2385 32.4933 55.183C30.5675 54.8889 28.6417 54.5726 26.7214 54.2729C25.8223 54.1341 24.9232 54.0231 24.0297 53.8566C23.6356 53.7845 23.5413 53.9121 23.4858 54.2729C22.3536 61.5599 21.1881 68.8414 20.0725 76.1285C19.1457 82.1891 18.2688 88.2607 17.3642 94.3323C16.8813 97.5735 16.3985 100.815 15.9212 104.056C15.8712 104.383 15.849 104.716 15.8157 105.049C16.0766 105.316 16.3707 105.416 16.7093 105.188Z" fill="#FEFEFE"/>
<path d="M170.437 113.718C170.01 108.623 169.571 103.529 169.161 98.4282C168.772 93.6164 168.406 88.8046 168.056 83.9928C167.845 81.0791 167.679 78.1598 167.49 75.2405C167.468 74.9186 167.49 74.6467 167.734 74.3858C169.788 72.1548 171.83 69.907 173.878 67.6649C173.922 67.6149 173.983 67.5872 174.033 67.5428C173.939 65.6835 173.606 63.8521 173.401 62.0095C173.262 60.7274 173.234 60.7385 171.941 60.8551C169.383 61.0937 166.83 61.3435 164.271 61.5544C163.833 61.5932 163.783 61.7486 163.816 62.1316C164.221 66.6936 164.593 71.2612 165.004 75.8233C165.464 80.9792 165.953 86.1351 166.441 91.2965C167.057 97.8177 167.679 104.339 168.295 110.866C168.356 111.504 168.406 112.142 168.461 112.78C168.511 112.858 168.522 112.941 168.517 113.03C168.422 114.234 168.7 114.079 169.688 114.029C169.971 114.012 170.259 113.974 170.443 113.713L170.437 113.718Z" fill="#FEFEFE"/>
<path d="M127.12 77.9156C126.892 75.4237 127.037 72.9095 126.565 70.4398C126.559 70.3954 126.548 70.351 126.543 70.3066C126.043 67.798 125.938 67.687 123.468 67.2098C121.031 66.738 118.59 66.2996 116.159 65.7945C115.581 65.6724 115.287 65.8334 114.993 66.3162C114.022 67.9257 113.606 69.7072 113.295 71.5221C112.485 76.3339 112.629 81.1456 113.417 85.9352C113.778 88.1219 114.949 89.8868 117.013 90.9246C120.499 92.6729 124.517 91.2687 126.232 87.7334C126.892 86.3626 127.109 84.9085 127.197 83.4211C127.308 81.5841 127.22 79.7471 127.114 77.91L127.12 77.9156Z" fill="#FEFEFE"/>
<path d="M69.6557 173.097C69.6391 172.725 69.7445 172.27 69.5725 171.993C69.3394 171.632 68.8843 171.982 68.5291 171.982C66.7697 171.97 65.0048 171.982 63.2455 172.087C62.8182 172.115 62.7183 172.27 62.7405 172.653C62.9236 175.239 62.5906 177.826 62.7627 180.406C62.9014 182.532 62.8182 184.652 62.8792 186.778C62.9014 187.621 62.8903 187.616 63.7117 187.555C64.744 187.471 65.7874 187.621 66.8252 187.433C68.0296 187.216 68.4514 186.905 68.6734 185.701C68.8787 184.597 69.023 183.475 69.1007 182.36C69.3061 179.563 69.4615 176.766 69.6335 173.968C69.6502 173.68 69.6335 173.391 69.6335 173.103C69.6446 173.103 69.6501 173.103 69.6612 173.103L69.6557 173.097Z" fill="#3F3F3F"/>
<path d="M53.4221 181.061C53.4221 183.492 53.4277 185.196 53.4221 186.905C53.4221 187.299 53.5054 187.538 53.966 187.538C55.6255 187.521 57.2738 187.738 58.9388 187.688C59.3994 187.677 59.5659 187.555 59.5382 187.088C59.244 182.288 59.466 177.482 59.405 172.681C59.405 172.253 59.2773 172.098 58.8389 172.104C57.3126 172.126 55.7809 172.126 54.2546 172.093C53.7773 172.081 53.6275 172.298 53.5831 172.697C53.572 172.808 53.5664 172.919 53.5664 173.03C53.5664 175.95 53.3167 178.869 53.4221 181.067V181.061Z" fill="#3F3F3F"/>
<path d="M43.7652 172.087C43.8429 175.206 43.904 178.325 43.9983 181.439C44.0261 182.299 44.1759 183.148 44.2536 184.008C44.3702 185.285 45.1805 185.995 46.2405 186.545C47.3172 187.1 48.5049 187.1 49.6593 187.238C50.0977 187.294 49.9479 186.878 49.9534 186.65C49.9701 183.836 49.8868 181.017 50.0089 178.209C50.0922 176.31 49.9479 174.401 50.2143 172.514C50.2642 172.148 50.1588 171.898 49.7536 171.871C47.8555 171.748 45.9741 171.543 44.126 171.077C43.8263 171.005 43.7208 171.144 43.7264 171.427C43.7319 171.649 43.7264 171.871 43.7264 172.093C43.743 172.093 43.7541 172.093 43.7708 172.093L43.7652 172.087Z" fill="#3F3F3F"/>
<path d="M31.4444 133.015C30.9948 134.042 30.6008 135.08 30.0458 136.062C28.6749 138.504 26.788 140.469 24.4958 142.029C23.6578 142.595 23.125 143.338 22.5423 144.11C20.128 147.323 16.8702 149.299 13.0075 150.303C12.6467 150.398 12.2804 150.487 11.8753 150.592C11.9585 150.87 12.1139 151.069 12.2915 151.253C12.5246 151.491 12.8132 151.696 12.9742 151.974C13.8622 153.495 15.1331 153.289 16.5206 152.879C18.9459 152.163 21.0216 150.842 22.9585 149.277C24.8899 147.717 26.7269 146.036 28.1366 143.988C29.8238 141.54 30.906 138.826 31.3611 135.868C31.5054 134.919 31.4499 133.981 31.4444 133.027V133.015Z" fill="#373737"/>
<path d="M16.7093 105.188L15.8157 105.049C15.4994 107.164 15.1775 109.278 14.8612 111.393C14.8057 111.759 14.8501 111.959 15.3273 111.887C17.8193 111.532 20.2612 111.759 22.6366 112.625C23.7411 113.03 24.8122 113.513 25.7945 114.157C26.1053 114.362 26.233 114.279 26.2718 113.962C26.5438 111.709 26.8157 109.45 27.0821 107.192C27.0821 107.147 27.0766 107.103 27.071 107.058C23.6134 106.47 20.1502 105.887 16.7148 105.182L16.7093 105.188Z" fill="#3F3F3F"/>
<path d="M170.437 113.718C170.354 113.735 170.271 113.763 170.182 113.774C169.727 113.824 169.244 113.996 168.833 113.89C168.306 113.757 168.744 113.108 168.456 112.786C168.289 113.746 168.717 114.645 168.767 115.594C168.844 117.22 169.105 118.83 169.233 120.456C169.277 121.05 169.394 121.061 169.865 120.778C172.457 119.224 175.227 118.203 178.285 118.142C178.873 118.13 179.483 118.18 180.055 118.319C180.616 118.458 180.727 118.28 180.66 117.781C180.427 116.038 180.21 114.29 179.983 112.547C178.923 112.875 177.818 112.88 176.731 113.03C174.766 113.296 172.796 113.502 170.831 113.735C170.703 113.752 170.565 113.735 170.437 113.735V113.718Z" fill="#3F3F3F"/>
<path d="M115.781 218.418C115.887 217.436 115.665 216.27 115.654 215.099C115.654 214.783 115.526 214.649 115.215 214.677C112.873 214.888 110.525 214.777 108.183 214.81C107.895 214.81 107.795 214.944 107.8 215.221C107.867 217.186 108 219.156 107.95 221.126C107.939 221.526 108.183 221.604 108.516 221.57C110.187 221.404 111.863 221.387 113.539 221.315C114.133 221.287 114.727 221.215 115.321 221.193C115.676 221.176 115.776 220.987 115.77 220.677C115.77 219.988 115.77 219.306 115.77 218.423L115.781 218.418Z" fill="#373737"/>
<path d="M101.196 214.927C100.014 215.032 98.5876 214.799 97.1501 214.805C96.7283 214.805 96.6229 214.949 96.6673 215.36C96.8116 216.714 96.9115 218.079 97.0447 219.433C97.1113 220.088 97.2389 220.738 97.2778 221.398C97.3055 221.864 97.5775 221.859 97.9049 221.848C99.581 221.798 101.257 221.665 102.939 221.715C103.338 221.726 103.732 221.709 104.132 221.715C104.52 221.72 104.665 221.504 104.593 221.165C104.398 220.244 104.526 219.311 104.482 218.39C104.437 217.397 104.376 216.409 104.354 215.415C104.348 215.038 104.204 214.916 103.838 214.921C103.044 214.938 102.245 214.927 101.19 214.927H101.196Z" fill="#373737"/>
<path d="M90.8343 221.842C91.8777 221.842 92.6491 221.842 93.4261 221.842C93.7424 221.842 93.8201 221.759 93.7813 221.409C93.587 219.594 93.3595 217.78 93.3095 215.948C93.3095 215.859 93.304 215.771 93.2984 215.682C93.2707 215.038 93.0376 214.749 92.2939 214.777C90.5734 214.844 88.8474 214.827 87.1325 214.666C86.6219 214.616 86.4887 214.76 86.5053 215.321C86.5664 217.308 86.633 219.284 86.9271 221.254C86.9771 221.581 87.0548 221.709 87.3989 221.726C88.6309 221.787 89.8686 221.887 90.8398 221.837L90.8343 221.842Z" fill="#373737"/>
<path d="M66.0593 215.149C66.1648 216.697 66.3979 218.49 66.7364 220.266C66.8308 220.749 67.1693 220.849 67.5356 220.882C68.6789 220.999 69.8222 221.082 70.9655 221.171C71.6925 221.226 72.4196 221.254 73.1466 221.309C73.4741 221.337 73.5629 221.237 73.5129 220.904C73.2132 218.829 73.0856 216.736 72.9746 214.644C72.9579 214.35 72.8247 214.272 72.5639 214.261C70.9322 214.178 69.3005 214.083 67.6744 213.995C67.4524 213.983 67.2304 213.995 67.0084 213.978C66.0538 213.884 66.0538 213.878 66.0593 215.138V215.149Z" fill="#373737"/>
<path d="M185.971 152.59C183.818 153.123 181.753 153.178 179.711 152.479C178.118 151.93 176.692 151.114 175.543 149.871C175.182 149.482 174.772 149.271 174.278 149.26C172.646 149.227 171.164 148.683 169.716 148.011C169.643 147.978 169.56 147.961 169.399 147.911C169.544 148.577 169.932 149.033 170.271 149.493C172.679 152.784 175.92 154.743 179.922 155.493C181.304 155.754 182.68 155.726 184.062 155.615C184.251 155.598 184.406 155.565 184.512 155.393C185.044 154.51 185.511 153.595 185.971 152.59Z" fill="#373737"/>
<path d="M119.111 215.626C119.3 217.236 119.25 218.845 119.228 220.46C119.228 220.882 119.433 220.932 119.766 220.904C121.803 220.727 123.845 220.549 125.882 220.371C126.42 220.327 126.737 220.166 126.709 219.495C126.648 217.968 126.665 216.442 126.704 214.916C126.715 214.372 126.531 214.239 126.021 214.261C123.862 214.366 121.709 214.561 119.544 214.538C119.239 214.538 119.089 214.638 119.111 214.96C119.128 215.182 119.111 215.404 119.111 215.626Z" fill="#373737"/>
<path d="M82.082 221.676C82.5038 221.676 83.0089 221.826 83.3197 221.637C83.7415 221.382 83.3474 220.865 83.3197 220.477C83.1976 218.69 83.0422 216.908 83.0699 215.121C83.0699 214.772 82.9256 214.694 82.5982 214.655C81.3605 214.516 80.1229 214.55 78.8908 214.538C78.2748 214.533 77.6532 214.555 77.0427 214.422C76.6708 214.344 76.4044 214.422 76.4322 214.921C76.5543 216.992 76.7097 219.056 77.076 221.098C77.1426 221.459 77.3035 221.576 77.6476 221.576C79.1295 221.576 80.6113 221.537 82.0876 221.67L82.082 221.676Z" fill="#373737"/>
<path d="M63.1678 220C62.8459 217.941 62.5906 215.998 62.5962 214.028C62.5962 213.767 62.5296 213.628 62.2299 213.601C60.5427 213.434 58.8555 213.251 57.1683 213.079C57.0795 213.068 56.9907 213.079 56.9019 213.068C55.8197 212.951 55.8697 212.946 56.0251 214.078C56.2415 215.654 56.5135 217.208 56.8631 218.762C56.9741 219.245 57.2127 219.495 57.6789 219.567C59.3772 219.833 61.07 220.105 62.7682 220.366C63.1789 220.432 63.3454 220.299 63.1623 220.005L63.1678 220Z" fill="#373737"/>
<path d="M140.129 217.347C140.101 218.518 140.107 218.534 141.072 218.396C142.793 218.146 144.508 217.852 146.234 217.613C146.622 217.558 146.722 217.397 146.789 217.03C147.1 215.382 147.327 213.728 147.494 212.063C147.549 211.53 147.255 211.708 147.027 211.747C145.335 212.035 143.642 212.33 141.949 212.624C141.472 212.707 140.895 212.64 140.54 212.896C140.145 213.184 140.451 213.806 140.356 214.278C140.14 215.388 140.362 216.531 140.123 217.352L140.129 217.347Z" fill="#373737"/>
<path d="M130.156 216.908C130.156 217.685 130.183 218.462 130.145 219.234C130.117 219.744 130.289 219.911 130.788 219.844C132.537 219.611 134.285 219.395 136.033 219.167C136.316 219.128 136.51 219.023 136.538 218.673C136.655 217.091 136.782 215.51 136.927 213.928C136.976 213.384 136.738 213.29 136.266 213.356C134.584 213.595 132.897 213.778 131.205 213.867C130.189 213.922 130.156 213.939 130.156 214.91C130.156 215.576 130.156 216.242 130.156 216.903V216.908Z" fill="#373737"/>
<path d="M53.2501 218.507C52.9004 216.564 52.5175 214.772 52.4842 212.935C52.4786 212.496 52.2289 212.352 51.8737 212.296C49.9756 211.991 48.1053 211.586 46.2405 211.109C45.8465 211.009 45.5912 210.981 45.791 211.547C46.2627 212.862 46.7511 214.161 47.4948 215.354C48.1497 216.403 49.0321 217.18 50.2087 217.58C51.1855 217.913 52.1845 218.185 53.2501 218.507Z" fill="#373737"/>
<path d="M150.368 216.67C150.352 216.869 150.479 216.897 150.74 216.875C151.728 216.792 152.328 216.198 152.783 215.393C153.621 213.911 153.981 212.28 154.298 210.631C154.364 210.276 154.159 210.243 153.92 210.293C153.06 210.47 152.2 210.665 151.345 210.864C151.168 210.903 151.04 211.009 151.018 211.225C150.868 213.023 150.701 214.816 150.363 216.664L150.368 216.67Z" fill="#373737"/>
<path d="M61.1587 223.812C61.2864 223.774 61.4196 223.735 61.5472 223.69C61.4307 223.574 61.2753 223.574 61.1254 223.574C61.0478 223.574 60.9257 223.557 60.9534 223.685C60.9645 223.74 61.0866 223.768 61.1587 223.812Z" fill="#5F5F5F"/>
<path d="M57.2571 124.246C57.3182 124.135 57.4181 124.113 57.5346 124.119C57.4292 123.975 57.2904 123.819 57.1184 123.925C57.0351 123.975 57.1517 124.158 57.2571 124.246Z" fill="#272727"/>
<path d="M59.3384 78.8979C59.4216 81.4065 59.4549 83.9151 59.96 86.3737C60.6093 89.5705 62.1244 92.2289 65.0937 93.8384C71.2208 97.1628 78.4746 93.8883 80.1506 87.0952C80.9332 83.9262 80.7778 80.7128 80.6002 77.5105C80.4781 75.2794 80.467 73.0372 80.1506 70.8172C79.5568 66.627 77.7031 63.2471 73.7904 61.288C68.4736 58.6296 63.4009 60.9883 61.2697 66.0554C59.5437 70.1568 59.2607 74.5079 59.3384 78.8979Z" fill="black"/>
<path d="M101.318 82.6497C101.318 79.7471 101.318 76.8445 101.318 73.9418C101.318 72.3657 100.608 71.6608 99.0371 71.6886C97.1446 71.7163 95.3131 72.1936 93.4594 72.4933C91.2949 72.8485 89.136 73.1926 86.9993 73.6921C86.7218 73.7587 86.4387 73.8308 86.1723 73.9252C84.1799 74.6134 83.4862 76.0952 84.2354 78.0599C84.7071 79.292 85.4397 80.3742 86.2112 81.4343C87.2823 82.905 88.4256 84.3147 89.6299 85.6744C89.9185 85.9963 89.9574 86.2183 89.6688 86.5624C89.0305 87.3283 88.4256 88.1219 87.8207 88.91C87.5931 89.2097 87.3711 89.515 87.1991 89.848C86.4221 91.3575 87.0881 92.8394 88.7308 93.2556C89.913 93.5553 91.134 93.6386 92.3439 93.7551C94.3918 93.9494 96.4453 94.1048 98.5098 94.0715C100.308 94.0437 101.318 93.0614 101.318 91.2854C101.318 88.405 101.318 85.5246 101.318 82.6441V82.6497Z" fill="black"/>
<path d="M76.5598 35.2699C76.5876 45.404 84.7571 53.5236 94.9024 53.4959C104.909 53.4681 113.017 45.2431 112.99 35.1478C112.962 25.1412 104.726 17.0217 94.6471 17.055C84.6905 17.0883 76.5321 25.3077 76.5598 35.2699Z" fill="#4E9334"/>
<path d="M133.574 157.502C130.539 157.502 127.508 157.446 124.472 157.529C123.057 157.568 121.642 157.585 120.227 157.613C116.863 157.674 113.495 157.679 110.131 157.79C108.738 157.84 107.345 157.851 105.952 157.885C104.354 157.918 103.644 158.517 103.577 160.094C103.499 161.953 103.688 163.806 103.771 165.66C103.832 166.987 103.899 168.307 104.082 169.623C104.215 170.605 104.47 171.532 105.136 172.298C105.286 172.47 105.37 172.653 105.358 172.897C105.247 176.261 105.397 179.629 105.464 182.993C105.503 185.124 105.492 187.283 106.069 189.381C106.718 191.739 108.6 193.443 111.025 193.798C112.229 193.976 113.439 194.07 114.66 194.07C116.031 194.07 117.407 194.154 118.773 194.142C122.269 194.115 125.76 194.004 129.251 193.826C130.622 193.754 131.982 193.587 133.352 193.521C135.639 193.404 137.321 191.895 137.72 189.519C137.914 188.365 138.053 187.194 138.109 186.028C138.314 181.716 138.53 177.404 138.381 173.08C138.353 172.281 138.464 171.693 139.047 171.082C140.068 170.011 140.207 168.563 140.24 167.17C140.295 164.889 140.268 162.602 140.234 160.321C140.212 158.906 139.141 157.774 137.62 157.485C137.121 157.391 136.616 157.335 136.105 157.346C135.262 157.363 134.424 157.346 133.58 157.346C133.58 157.396 133.58 157.446 133.58 157.496L133.574 157.502Z" fill="black"/>
<path d="M124.201 77.7824C124.106 76.4116 124.012 75.0463 123.912 73.6755C123.823 72.46 123.429 71.3334 122.846 70.2789C121.553 67.9257 118.223 67.848 116.814 70.1401C116.175 71.1835 115.903 72.349 115.759 73.5423C115.359 76.7723 115.31 79.9913 116.059 83.1825C116.181 83.6986 116.342 84.2092 116.575 84.6865C117.862 87.3394 121.037 87.6502 122.807 85.2915C123.779 83.9983 124.056 82.4721 124.139 80.907C124.195 79.8692 124.151 78.8258 124.151 77.7824H124.201Z" fill="black"/>
<path d="M77.1093 77.8767C76.8984 75.3626 77.0538 72.8207 76.5376 70.3344C75.8938 67.232 74.2455 64.9398 71.1042 63.9575C68.7011 63.2083 66.5477 63.9963 65.1492 66.0998C64.0558 67.7426 63.6229 69.6184 63.301 71.5276C62.4907 76.3394 62.6295 81.1568 63.4231 85.9408C63.8005 88.1941 65.0104 89.9978 67.186 91.0245C70.6436 92.6507 74.6617 91.1799 76.2657 87.7112C76.9594 86.2072 77.1481 84.6144 77.2203 82.9938C77.298 81.2899 77.2036 79.5861 77.1037 77.8823L77.1093 77.8767Z" fill="#FEFEFE"/>
<path d="M91.2727 90.1477C93.3651 90.403 95.363 90.5584 97.3721 90.6083C97.9105 90.6194 97.8605 90.3364 97.8605 89.9923C97.8605 87.0952 97.8605 84.1926 97.8605 81.2955C97.8605 79.4585 97.8494 77.6215 97.8661 75.7844C97.8661 75.3682 97.7717 75.235 97.3444 75.3127C94.2808 75.8899 91.195 76.3339 88.1426 76.9666C87.632 77.072 87.5987 77.2108 87.8484 77.6381C89.1526 79.8414 90.8509 81.7395 92.4715 83.7042C93.0099 84.3535 93.5593 84.9862 93.6037 85.8964C93.6426 86.6179 93.4039 87.2506 92.9932 87.8167C92.4549 88.5715 91.8888 89.3096 91.2672 90.1421L91.2727 90.1477Z" fill="#FEE141"/>
<path d="M94.7914 47.5019C101.496 47.5019 107.007 41.9797 107.007 35.2754C107.007 28.5378 101.474 23.0212 94.7303 23.0378C88.0371 23.0545 82.5371 28.5877 82.5482 35.3032C82.5593 42.0019 88.0815 47.5075 94.7914 47.5019Z" fill="#FABA10"/>
<path d="M132.997 160.815C129.856 160.782 126.715 160.932 123.568 160.993C121.487 161.031 119.405 160.965 117.33 161.104C114.477 161.287 111.619 161.159 108.766 161.226C108.305 161.237 107.845 161.315 107.379 161.331C107.018 161.342 107.012 161.57 107.018 161.825C107.04 162.93 107.118 164.034 107.179 165.138C107.251 166.543 107.295 167.958 107.534 169.356C107.634 169.939 107.934 170.25 108.489 170.394C110.403 170.894 112.34 170.844 114.283 170.694C114.571 170.672 114.854 170.655 115.143 170.655C118.423 170.655 121.703 170.666 124.978 170.644C127.497 170.627 130 170.339 132.509 170.139C133.103 170.095 133.696 170.078 134.29 169.989C135.972 169.745 136.743 168.968 136.777 167.281C136.821 165.333 136.777 163.379 136.799 161.431C136.804 160.915 136.577 160.793 136.116 160.804C135.073 160.826 134.035 160.809 132.992 160.809L132.997 160.815Z" fill="#3F3F3F"/>
<path d="M128.024 186.278C128.024 187.471 128.041 188.67 128.013 189.863C128.002 190.324 128.141 190.507 128.613 190.457C130.172 190.307 131.732 190.196 133.286 190.035C133.891 189.974 134.324 189.375 134.39 188.554C134.573 186.289 134.718 184.025 134.829 181.755C134.956 179.213 134.895 176.671 134.951 174.129C134.962 173.502 134.757 173.352 134.179 173.491C133.358 173.696 132.509 173.585 131.676 173.68C130.539 173.802 129.395 173.869 128.252 173.963C127.88 173.991 127.764 174.113 127.764 174.479C127.769 177.11 127.886 179.735 128.002 182.36C128.058 183.664 128.013 184.974 128.013 186.278H128.036H128.024Z" fill="#3F3F3F"/>
<path d="M108.749 175.916C108.927 178.436 108.799 180.961 108.91 183.481C108.977 184.952 108.977 186.439 109.271 187.899C109.599 189.542 110.492 190.324 112.163 190.479C113.156 190.574 114.15 190.579 115.143 190.607C115.548 190.618 115.715 190.485 115.659 190.074C114.988 184.941 115.326 179.774 115.26 174.623C115.254 174.19 115.082 174.091 114.705 174.118C113.867 174.174 113.028 174.196 112.19 174.246C111.214 174.307 110.242 174.196 109.282 174.074C108.738 174.007 108.744 174.207 108.755 174.584C108.772 175.028 108.755 175.472 108.755 175.916H108.749Z" fill="#3F3F3F"/>
<path d="M124.561 185.462C124.678 183.226 124.406 180.49 124.389 177.742C124.384 176.71 124.3 175.667 124.306 174.629C124.306 174.213 124.156 174.102 123.762 174.102C122.258 174.118 120.748 174.113 119.244 174.102C118.867 174.102 118.706 174.185 118.684 174.612C118.59 176.577 118.495 178.553 118.612 180.512C118.756 182.943 118.59 185.379 118.861 187.799C118.956 188.631 119.028 189.464 119.228 190.285C119.305 190.613 119.455 190.724 119.766 190.724C121.248 190.724 122.724 190.518 124.206 190.585C124.633 190.602 124.556 190.28 124.556 190.024C124.556 188.676 124.556 187.322 124.556 185.468L124.561 185.462Z" fill="#3F3F3F"/>
<path d="M74.2067 77.8324C74.1123 76.4837 74.0124 75.1406 73.9236 73.792C73.8515 72.6931 73.524 71.6664 73.0578 70.6729C72.3974 69.2577 71.3373 68.4308 69.7334 68.4752C68.1128 68.5196 67.0528 69.3909 66.4423 70.8505C66.0815 71.7108 65.8596 72.6154 65.7486 73.5478C65.3601 76.7779 65.299 79.9968 66.0593 83.188C66.1759 83.682 66.3368 84.1704 66.5533 84.631C67.8131 87.3338 71.0265 87.6668 72.8136 85.2748C73.7849 83.9761 74.0568 82.4499 74.1401 80.8904C74.1956 79.8747 74.1512 78.8535 74.1512 77.8324C74.1678 77.8324 74.19 77.8324 74.2067 77.8324Z" fill="black"/>
<path d="M93.2374 44.2053C94.808 44.2108 96.1012 43.2451 96.4952 41.6856C96.7061 40.8531 96.806 39.9929 96.9337 39.1382C96.9947 38.7108 97.1723 38.5332 97.6274 38.5943C98.4821 38.7108 99.3423 38.8329 100.197 38.8496C102.034 38.8829 103.521 37.6119 103.682 35.9469C103.86 34.06 102.689 32.5448 100.774 32.2063C100.119 32.0897 99.4644 32.0065 98.804 31.9565C98.3988 31.9232 98.3211 31.7734 98.421 31.4071C98.5653 30.8965 98.6985 30.3804 98.7929 29.8587C99.0926 28.2048 98.1935 26.6175 96.6784 26.0847C95.1077 25.5353 93.415 26.1902 92.5825 27.672C92.1052 28.5156 91.9276 29.4591 91.75 30.3915C91.6668 30.8299 91.467 30.9409 91.0674 30.8743C90.4125 30.7689 89.7576 30.669 89.0971 30.5802C87.41 30.3526 85.9559 31.2517 85.4175 32.8501C84.918 34.3375 85.6284 36.0246 87.0603 36.8183C87.8984 37.2789 88.8252 37.4121 89.7465 37.5009C90.2904 37.5564 90.3403 37.7507 90.2626 38.2058C90.1017 39.1437 89.9185 40.0761 89.9629 41.0362C90.0406 42.84 91.4337 44.1942 93.2374 44.2053Z" fill="#4E9334"/>
</g>
<defs>
<clipPath id="clip0_5014_107394">
<rect width="198.893" height="280" fill="white" transform="translate(0.553406)"/>
</clipPath>
</defs>
</svg>
