<svg width="77" height="83" viewBox="0 0 77 83" fill="none" xmlns="http://www.w3.org/2000/svg">
<g clip-path="url(#clip0_1354_22515)">
<path d="M36.4468 7.03369H35.9897C27.7693 7.03369 21.103 13.7018 21.103 21.9245V24.6184H51.3405V21.9245C51.3405 13.7018 44.6742 7.03369 36.4538 7.03369H36.4468Z" fill="#E9E9E9"/>
<path d="M51.3334 28.1354H21.0959C19.9286 28.1354 18.9863 27.1928 18.9863 26.0252C18.9863 24.8576 19.9286 23.915 21.0959 23.915H51.3334C52.5007 23.915 53.4429 24.8576 53.4429 26.0252C53.4429 27.1928 52.5007 28.1354 51.3334 28.1354Z" fill="#E9E9E9"/>
<path d="M45.0046 52.7539L44.3014 53.809C44.3014 58.2755 40.68 61.898 36.2147 61.898C31.7494 61.898 28.1279 58.2755 28.1279 53.809V52.7539L23.9087 53.4573L21.7991 54.8641C10.548 55.5675 4.21924 62.6014 4.21924 70.3387V82.9997H49.2238V53.4573L45.0046 52.7539Z" fill="#E9E9E9"/>
<path fill-rule="evenodd" clip-rule="evenodd" d="M30.9405 59.7881C31.3289 59.7881 31.6437 60.103 31.6437 60.4915V64.0084H35.1597V60.4915C35.1597 60.103 35.4745 59.7881 35.8629 59.7881C36.2512 59.7881 36.5661 60.103 36.5661 60.4915V64.7118C36.5661 65.1003 36.2512 65.4152 35.8629 65.4152H30.9405C30.5521 65.4152 30.2373 65.1003 30.2373 64.7118V60.4915C30.2373 60.103 30.5521 59.7881 30.9405 59.7881Z" fill="white"/>
<path fill-rule="evenodd" clip-rule="evenodd" d="M30.25 64.5801C30.3132 64.2483 30.6032 64.0083 30.9408 64.0083H35.8632C36.2008 64.0083 36.4908 64.2483 36.5539 64.5801L39.3667 79.3513C39.4059 79.5572 39.3513 79.7698 39.2177 79.9313C39.0841 80.0928 38.8855 80.1863 38.676 80.1863H28.128C27.9185 80.1863 27.7198 80.0928 27.5862 79.9313C27.4527 79.7698 27.398 79.5572 27.4372 79.3513L30.25 64.5801ZM31.5227 65.4151L28.9778 78.7795H37.8262L35.2813 65.4151H31.5227Z" fill="white"/>
<path fill-rule="evenodd" clip-rule="evenodd" d="M24.9635 44.3135C25.546 44.3135 26.0183 44.7859 26.0183 45.3686V50.7284C26.0183 54.8092 29.3222 58.114 33.4018 58.114C37.4815 58.114 40.7854 54.8092 40.7854 50.7284V45.3686C40.7854 44.7859 41.2577 44.3135 41.8402 44.3135C42.4227 44.3135 42.895 44.7859 42.895 45.3686V50.7284C42.895 55.9746 38.6466 60.2242 33.4018 60.2242C28.1571 60.2242 23.9087 55.9746 23.9087 50.7284V45.3686C23.9087 44.7859 24.3809 44.3135 24.9635 44.3135Z" fill="#999999"/>
<path fill-rule="evenodd" clip-rule="evenodd" d="M20.0411 26.0254C20.6237 26.0254 21.0959 26.4978 21.0959 27.0805V34.5856C21.0959 41.3815 26.6079 46.895 33.4019 46.895C40.1958 46.895 45.7078 41.3815 45.7078 34.5856V27.0805C45.7078 26.4978 46.18 26.0254 46.7626 26.0254C47.3451 26.0254 47.8174 26.4978 47.8174 27.0805V34.5856C47.8174 42.5469 41.3609 49.0051 33.4019 49.0051C25.4428 49.0051 18.9863 42.5469 18.9863 34.5856V27.0805C18.9863 26.4978 19.4586 26.0254 20.0411 26.0254Z" fill="#999999"/>
<path fill-rule="evenodd" clip-rule="evenodd" d="M25.2946 50.0857C25.4088 50.6571 25.0384 51.2129 24.4671 51.3272L21.2643 51.9679L20.7869 52.4454C20.643 52.5894 20.4606 52.6886 20.2616 52.7311L15.5572 53.737C15.5335 53.7421 15.5095 53.7463 15.4855 53.7498C7.81307 54.8433 2.10959 61.4179 2.10959 69.1716V78.7799H65.7489C66.3314 78.7799 66.8036 79.2523 66.8036 79.835C66.8036 80.4177 66.3314 80.8901 65.7489 80.8901H1.05479C0.472248 80.8901 0 80.4177 0 79.835V69.1716C0 60.3798 6.45775 52.9233 15.1513 51.6659L19.5157 50.7328L19.9984 50.2499C20.1457 50.1026 20.3332 50.0022 20.5374 49.9614L24.0534 49.258C24.6246 49.1437 25.1803 49.5143 25.2946 50.0857Z" fill="#999999"/>
<path fill-rule="evenodd" clip-rule="evenodd" d="M16.525 73.1523C17.1076 73.1523 17.5798 73.6247 17.5798 74.2074V78.4278C17.5798 79.0105 17.1076 79.4829 16.525 79.4829C15.9425 79.4829 15.4702 79.0105 15.4702 78.4278V74.2074C15.4702 73.6247 15.9425 73.1523 16.525 73.1523Z" fill="#999999"/>
<path fill-rule="evenodd" clip-rule="evenodd" d="M31.1867 2.55959C31.3035 3.13046 30.9355 3.68795 30.3648 3.80478C23.8702 5.13418 18.9865 10.8858 18.9865 17.7674V20.7427C18.9865 21.3254 18.5143 21.7978 17.9317 21.7978C17.3492 21.7978 16.877 21.3254 16.877 20.7427V17.7674C16.877 9.86368 22.485 3.26381 29.9418 1.73745C30.5126 1.62063 31.0699 1.98871 31.1867 2.55959Z" fill="#999999"/>
<path fill-rule="evenodd" clip-rule="evenodd" d="M35.653 2.57113C35.7713 2.00055 36.3295 1.63388 36.9 1.75215C44.3338 3.29346 49.9271 9.87818 49.9271 17.7745V20.7499C49.9271 21.3326 49.4548 21.8049 48.8723 21.8049C48.2897 21.8049 47.8175 21.3326 47.8175 20.7499V17.7745C47.8175 10.8997 42.9472 5.16099 36.4718 3.8184C35.9014 3.70013 35.5348 3.14171 35.653 2.57113Z" fill="#999999"/>
<path fill-rule="evenodd" clip-rule="evenodd" d="M47.3042 26.1873C47.3042 25.7988 47.619 25.4839 48.0074 25.4839C50.2838 25.4839 51.9312 27.6338 51.9312 30.0137C51.9312 32.3936 50.2838 34.5435 48.0074 34.5435C47.619 34.5435 47.3042 34.2286 47.3042 33.8402C47.3042 33.4517 47.619 33.1368 48.0074 33.1368C49.2892 33.1368 50.5248 31.8541 50.5248 30.0137C50.5248 28.1733 49.2892 26.8907 48.0074 26.8907C47.619 26.8907 47.3042 26.5757 47.3042 26.1873Z" fill="#999999"/>
<path fill-rule="evenodd" clip-rule="evenodd" d="M18.7964 26.8907C17.5146 26.8907 16.279 28.1733 16.279 30.0137C16.279 31.8541 17.5146 33.1368 18.7964 33.1368C19.1848 33.1368 19.4996 33.4517 19.4996 33.8402C19.4996 34.2286 19.1848 34.5435 18.7964 34.5435C16.52 34.5435 14.8726 32.3936 14.8726 30.0137C14.8726 27.6338 16.52 25.4839 18.7964 25.4839C19.1848 25.4839 19.4996 25.7988 19.4996 26.1873C19.4996 26.5757 19.1848 26.8907 18.7964 26.8907Z" fill="#999999"/>
<path d="M38.3243 30.949C38.9069 30.949 39.3791 30.4767 39.3791 29.894C39.3791 29.3112 38.9069 28.8389 38.3243 28.8389C37.7418 28.8389 37.2695 29.3112 37.2695 29.894C37.2695 30.4767 37.7418 30.949 38.3243 30.949Z" fill="#999999"/>
<path d="M28.4796 30.949C29.0621 30.949 29.5344 30.4767 29.5344 29.894C29.5344 29.3112 29.0621 28.8389 28.4796 28.8389C27.8971 28.8389 27.4248 29.3112 27.4248 29.894C27.4248 30.4767 27.8971 30.949 28.4796 30.949Z" fill="#999999"/>
<path fill-rule="evenodd" clip-rule="evenodd" d="M37.0985 38.0127C37.4706 38.1241 37.6818 38.5161 37.5704 38.8883C37.057 40.6032 35.366 41.7955 33.4019 41.7955C31.4386 41.7955 29.7387 40.5966 29.2327 38.8861C29.1225 38.5136 29.3351 38.1222 29.7075 38.012C30.0799 37.9018 30.4711 38.1144 30.5813 38.4869C30.891 39.5337 31.9899 40.3887 33.4019 40.3887C34.8131 40.3887 35.9068 39.5412 36.2231 38.4847C36.3346 38.1125 36.7265 37.9012 37.0985 38.0127Z" fill="#999999"/>
<path fill-rule="evenodd" clip-rule="evenodd" d="M18.2831 21.805C17.5084 21.805 16.8767 22.4369 16.8767 23.2118C16.8767 23.9866 17.5084 24.6186 18.2831 24.6186H48.5205C49.2951 24.6186 49.9269 23.9866 49.9269 23.2118C49.9269 22.4369 49.2951 21.805 48.5205 21.805H18.2831ZM14.7671 23.2118C14.7671 21.2715 16.3434 19.6948 18.2831 19.6948H48.5205C50.4602 19.6948 52.0365 21.2715 52.0365 23.2118C52.0365 25.152 50.4602 26.7287 48.5205 26.7287H18.2831C16.3434 26.7287 14.7671 25.152 14.7671 23.2118Z" fill="#999999"/>
<path fill-rule="evenodd" clip-rule="evenodd" d="M33.4018 2.11017C32.4302 2.11017 31.6438 2.89686 31.6438 3.86864V20.75C31.6438 21.3327 31.1715 21.8051 30.589 21.8051C30.0064 21.8051 29.5342 21.3327 29.5342 20.75V3.86864C29.5342 1.73145 31.2651 0 33.4018 0C35.5384 0 37.2693 1.73145 37.2693 3.86864V20.75C37.2693 21.3327 36.7971 21.8051 36.2145 21.8051C35.632 21.8051 35.1598 21.3327 35.1598 20.75V3.86864C35.1598 2.89686 34.3733 2.11017 33.4018 2.11017Z" fill="#999999"/>
<path fill-rule="evenodd" clip-rule="evenodd" d="M21.1695 50.648C21.5558 50.6886 21.8359 51.0348 21.7953 51.4211L20.5109 63.6257L33.4923 58.4317C33.8529 58.2874 34.2621 58.4629 34.4064 58.8235C34.5506 59.1842 34.3752 59.5936 34.0146 59.7379L19.9507 65.365C19.7219 65.4565 19.4619 65.4216 19.2653 65.2729C19.0688 65.1242 18.9644 64.8834 18.9902 64.6383L20.3966 51.2739C20.4372 50.8875 20.7833 50.6073 21.1695 50.648Z" fill="#999999"/>
<path fill-rule="evenodd" clip-rule="evenodd" d="M41.509 50.0857C41.6232 49.5143 42.1789 49.1437 42.7501 49.258L46.2661 49.9614C46.8374 50.0757 47.2078 50.6315 47.0936 51.2029C46.9793 51.7743 46.4236 52.1449 45.8524 52.0306L42.3364 51.3272C41.7652 51.2129 41.3947 50.6571 41.509 50.0857Z" fill="#999999"/>
<path fill-rule="evenodd" clip-rule="evenodd" d="M32.3971 58.8238C32.5413 58.4631 32.9505 58.2876 33.3111 58.4318L46.5734 63.7354C46.934 63.8796 47.1095 64.2889 46.9653 64.6496C46.8211 65.0103 46.4119 65.1858 46.0513 65.0416L32.789 59.7381C32.4284 59.5938 32.2529 59.1845 32.3971 58.8238Z" fill="#999999"/>
<path fill-rule="evenodd" clip-rule="evenodd" d="M61.6996 41.3186C62.0755 41.4163 62.3011 41.8002 62.2035 42.1762L60.4455 48.9498C60.3479 49.3259 59.9641 49.5515 59.5882 49.4539C59.2123 49.3563 58.9867 48.9724 59.0843 48.5964L60.8422 41.8227C60.9398 41.4467 61.3237 41.221 61.6996 41.3186Z" fill="#999999"/>
<path fill-rule="evenodd" clip-rule="evenodd" d="M75.8646 45.5529C76.2368 45.6637 76.4487 46.0554 76.3379 46.4277L66.5424 79.3393C66.4316 79.7117 66.04 79.9236 65.6678 79.8128C65.2956 79.7019 65.0836 79.3102 65.1945 78.9379L74.99 46.0263C75.1008 45.654 75.4924 45.442 75.8646 45.5529Z" fill="#999999"/>
<path fill-rule="evenodd" clip-rule="evenodd" d="M64.5953 39.9418C63.1819 40.2657 62.4468 40.8974 62.273 41.5591C62.0999 42.2184 62.4283 43.1198 63.5007 44.0795C64.5439 45.013 66.1533 45.8592 68.0888 46.3542C70.0246 46.8492 71.8499 46.883 73.2241 46.5681C74.6375 46.2442 75.3726 45.6124 75.5463 44.9508C75.7194 44.2915 75.391 43.3901 74.3186 42.4304C73.2755 41.4968 71.666 40.6506 69.7305 40.1557C67.7948 39.6607 65.9694 39.6269 64.5953 39.9418ZM64.2812 38.5705C65.9149 38.1961 67.9713 38.2538 70.0789 38.7927C72.1867 39.3318 74.0124 40.2687 75.2564 41.382C76.4712 42.4691 77.282 43.8784 76.9066 45.3081C76.5318 46.7356 75.1327 47.5739 73.5382 47.9393C71.9044 48.3137 69.8481 48.2561 67.7405 47.7171C65.6326 47.1781 63.8069 46.2412 62.563 45.1279C61.3482 44.0407 60.5374 42.6315 60.9128 41.2017C61.2876 39.7743 62.6867 38.9359 64.2812 38.5705Z" fill="#999999"/>
<path fill-rule="evenodd" clip-rule="evenodd" d="M67.1431 42.7289C67.2412 42.3531 67.6254 42.128 68.0012 42.2261L70.0475 42.7607C70.4232 42.8589 70.6483 43.2431 70.5502 43.619C70.452 43.9949 70.0679 44.22 69.6921 44.1218L67.6458 43.5872C67.27 43.4891 67.045 43.1048 67.1431 42.7289Z" fill="#999999"/>
<path fill-rule="evenodd" clip-rule="evenodd" d="M47.1143 52.0508C47.5027 52.0508 47.8175 52.3657 47.8175 52.7542V79.483C47.8175 79.8715 47.5027 80.1864 47.1143 80.1864C46.726 80.1864 46.4111 79.8715 46.4111 79.483V52.7542C46.4111 52.3657 46.726 52.0508 47.1143 52.0508Z" fill="#999999"/>
<path fill-rule="evenodd" clip-rule="evenodd" d="M61.8814 52.0508C62.2698 52.0508 62.5846 52.3657 62.5846 52.7542V79.483C62.5846 79.8715 62.2698 80.1864 61.8814 80.1864C61.4931 80.1864 61.1782 79.8715 61.1782 79.483V52.7542C61.1782 52.3657 61.4931 52.0508 61.8814 52.0508Z" fill="#999999"/>
<path fill-rule="evenodd" clip-rule="evenodd" d="M49.6032 50.2901C48.3533 50.945 47.8175 51.7271 47.8175 52.4026C47.8175 53.0781 48.3533 53.8602 49.6032 54.5151C50.8198 55.1525 52.5491 55.5679 54.4979 55.5679C56.4466 55.5679 58.176 55.1525 59.3926 54.5151C60.6424 53.8602 61.1783 53.0781 61.1783 52.4026C61.1783 51.7271 60.6424 50.945 59.3926 50.2901C58.176 49.6527 56.4466 49.2373 54.4979 49.2373C52.5491 49.2373 50.8198 49.6527 49.6032 50.2901ZM48.9506 49.044C50.4064 48.2812 52.3688 47.8306 54.4979 47.8306C56.627 47.8306 58.5894 48.2812 60.0451 49.044C61.4676 49.7893 62.5846 50.9415 62.5846 52.4026C62.5846 53.8637 61.4676 55.0159 60.0451 55.7612C58.5894 56.524 56.627 56.9746 54.4979 56.9746C52.3688 56.9746 50.4064 56.524 48.9506 55.7612C47.5282 55.0159 46.4111 53.8637 46.4111 52.4026C46.4111 50.9415 47.5282 49.7893 48.9506 49.044Z" fill="#999999"/>
<path fill-rule="evenodd" clip-rule="evenodd" d="M52.7397 52.051C52.7397 51.6626 53.0546 51.3477 53.4429 51.3477H55.5525C55.9409 51.3477 56.2557 51.6626 56.2557 52.051C56.2557 52.4395 55.9409 52.7544 55.5525 52.7544H53.4429C53.0546 52.7544 52.7397 52.4395 52.7397 52.051Z" fill="#999999"/>
</g>
<defs>
<clipPath id="clip0_1354_22515">
<rect width="77" height="83" fill="white"/>
</clipPath>
</defs>
</svg>
