<svg width="72" height="72" viewBox="0 0 72 72" fill="none" xmlns="http://www.w3.org/2000/svg">
<path fill-rule="evenodd" clip-rule="evenodd" d="M23.0981 27.1362C22.6208 24.7496 25.0342 22.8179 27.2582 23.8064L49.44 33.6649C51.4544 34.5602 51.8476 37.2495 50.1739 38.6841L32.9215 53.472C31.1805 54.9642 28.477 54.0309 28.0274 51.7825L23.0981 27.1362ZM48.2216 36.4064L26.0398 26.5478L30.9691 51.1942L48.2216 36.4064Z" fill="#1C1C1C"/>
<path d="M36 24C36 30.6274 30.6274 36 24 36C17.3726 36 12 30.6274 12 24C12 17.3726 17.3726 12 24 12C30.6274 12 36 17.3726 36 24Z" fill="#AED3FC"/>
<path fill-rule="evenodd" clip-rule="evenodd" d="M24 33C28.9706 33 33 28.9706 33 24C33 19.0294 28.9706 15 24 15C19.0294 15 15 19.0294 15 24C15 28.9706 19.0294 33 24 33ZM24 36C30.6274 36 36 30.6274 36 24C36 17.3726 30.6274 12 24 12C17.3726 12 12 17.3726 12 24C12 30.6274 17.3726 36 24 36Z" fill="#1C1C1C"/>
<path d="M36 54C36 57.3137 33.3137 60 30 60C26.6863 60 24 57.3137 24 54C24 50.6863 26.6863 48 30 48C33.3137 48 36 50.6863 36 54Z" fill="white"/>
<path fill-rule="evenodd" clip-rule="evenodd" d="M30 57C31.6569 57 33 55.6569 33 54C33 52.3431 31.6569 51 30 51C28.3431 51 27 52.3431 27 54C27 55.6569 28.3431 57 30 57ZM30 60C33.3137 60 36 57.3137 36 54C36 50.6863 33.3137 48 30 48C26.6863 48 24 50.6863 24 54C24 57.3137 26.6863 60 30 60Z" fill="#1C1C1C"/>
<path d="M60 36C60 40.9706 55.9706 45 51 45C46.0294 45 42 40.9706 42 36C42 31.0294 46.0294 27 51 27C55.9706 27 60 31.0294 60 36Z" fill="white"/>
<path fill-rule="evenodd" clip-rule="evenodd" d="M51 42C54.3137 42 57 39.3137 57 36C57 32.6863 54.3137 30 51 30C47.6863 30 45 32.6863 45 36C45 39.3137 47.6863 42 51 42ZM51 45C55.9706 45 60 40.9706 60 36C60 31.0294 55.9706 27 51 27C46.0294 27 42 31.0294 42 36C42 40.9706 46.0294 45 51 45Z" fill="#1C1C1C"/>
</svg>
