<svg width="72" height="72" viewBox="0 0 72 72" fill="none" xmlns="http://www.w3.org/2000/svg">
<path d="M27.3578 35.3166L14.8521 55.415C13.6087 57.4133 15.0457 59.9999 17.3993 59.9999L54.5865 59.9996C56.9429 59.9996 58.3794 57.4077 57.1305 55.4096L45.2164 36.3473C45.0743 36.1199 44.8748 35.9321 44.6315 35.8191C42.8528 34.9929 41.1464 34.9022 39.6819 35.2991C36.8636 36.0628 34.1355 37.9034 31.7993 36.1517C31.3489 35.814 30.9193 35.4534 30.5303 35.0919C29.6638 34.2867 27.9827 34.3124 27.3578 35.3166Z" fill="#AED3FC"/>
<path fill-rule="evenodd" clip-rule="evenodd" d="M23.9997 13.5C23.1713 13.5 22.4997 14.1716 22.4997 15C22.4997 15.8284 23.1713 16.5 23.9997 16.5H28.4997V33.3887L15.787 56.2715C15.2316 57.2713 15.9545 58.5 17.0983 58.5H54.9012C56.0449 58.5 56.7679 57.2713 56.2124 56.2715L43.4997 33.3887V16.5H47.9997C48.8281 16.5 49.4997 15.8284 49.4997 15C49.4997 14.1716 48.8281 13.5 47.9997 13.5H23.9997ZM19.4997 15C19.4997 12.5147 21.5144 10.5 23.9997 10.5H47.9997C50.485 10.5 52.4997 12.5147 52.4997 15C52.4997 17.4853 50.485 19.5 47.9997 19.5H46.4997V32.6113L58.8349 54.8146C60.5012 57.814 58.3324 61.5 54.9012 61.5H17.0983C13.6671 61.5 11.4982 57.814 13.1646 54.8146L25.4997 32.6113V19.5H23.9997C21.5144 19.5 19.4997 17.4853 19.4997 15Z" fill="#1C1C1C"/>
<path fill-rule="evenodd" clip-rule="evenodd" d="M31.3953 36.9912C29.6296 36.0075 28.0559 35.9997 27.0009 36L27 33L27.018 33C28.1672 32.9996 30.3933 32.9988 32.8553 34.3705C33.8503 34.9248 35.1638 34.93 36.1726 34.3826C38.8321 32.9396 42.5536 32.3495 47.1712 34.6581L45.8297 37.3415C42.1066 35.48 39.4198 36.0338 37.6034 37.0194C35.6994 38.0525 33.2952 38.0497 31.3953 36.9912Z" fill="#1C1C1C"/>
</svg>
