<svg width="72" height="72" viewBox="0 0 72 72" fill="none" xmlns="http://www.w3.org/2000/svg">
<path d="M30.3905 38.8323L19.2108 36.277C18.7213 36.1651 18.5776 35.5372 18.9697 35.2235L45.9369 13.6498C46.4356 13.2509 47.1295 13.8037 46.8521 14.3789L38.2009 32.3222C38.0336 32.6693 38.2321 33.0818 38.6077 33.1677L49.7874 35.723C50.2769 35.8349 50.4206 36.4628 50.0285 36.7765L23.0614 58.3502C22.5627 58.7492 21.8687 58.1964 22.1461 57.6211L30.7973 39.6778C30.9646 39.3308 30.7661 38.9182 30.3905 38.8323Z" fill="#AED3FC"/>
<path fill-rule="evenodd" clip-rule="evenodd" d="M45.0008 12.4784C46.7462 11.0821 49.175 13.0169 48.2043 15.0303L40.0432 31.9568L50.1226 34.2607C51.836 34.6523 52.3389 36.8498 50.9665 37.9477L23.9994 59.5214C22.2539 60.9178 19.8251 58.983 20.7959 56.9696L28.9569 40.043L18.8776 37.7392L19.2118 36.2769L19.2191 36.2451M19.2118 36.2769L18.8775 37.7392C17.1642 37.3476 16.6612 35.1501 18.0336 34.0522L45.0008 12.4784M43.7815 17.2957L21.3636 35.2301L30.7257 37.37C32.0404 37.6705 32.7351 39.1145 32.1494 40.3292L25.2187 54.7041L47.6366 36.7698L38.2744 34.6299C36.9598 34.3294 36.2651 32.8854 36.8507 31.6707L43.7815 17.2957Z" fill="#1C1C1C"/>
</svg>
