<svg width="72" height="72" viewBox="0 0 72 72" fill="none" xmlns="http://www.w3.org/2000/svg">
<path d="M27.1016 24.8384L46.1934 43.9303L37.6374 52.4863C32.3654 57.7583 23.8176 57.7583 18.5456 52.4863C13.2735 47.2142 13.2735 38.6665 18.5456 33.3944L27.1016 24.8384Z" fill="white"/>
<path fill-rule="evenodd" clip-rule="evenodd" d="M41.9508 43.9303L27.1016 29.081L20.6669 35.5157C16.5664 39.6162 16.5664 46.2644 20.6669 50.3649C24.7674 54.4654 31.4156 54.4654 35.5161 50.3649L41.9508 43.9303ZM27.1016 24.8384L18.5456 33.3944C13.2735 38.6664 13.2735 47.2142 18.5456 52.4863C23.8176 57.7583 32.3654 57.7583 37.6374 52.4863L46.1934 43.9303L27.1016 24.8384Z" fill="#1C1C1C"/>
<path d="M33.3935 18.5459C38.6656 13.2739 47.2133 13.2739 52.4854 18.5459C57.7575 23.818 57.7575 32.3657 52.4854 37.6378L43.9294 46.1938L24.8375 27.1019L33.3935 18.5459Z" fill="#AED3FC"/>
<path fill-rule="evenodd" clip-rule="evenodd" d="M43.9294 41.9512L50.3641 35.5165C54.4646 31.416 54.4646 24.7678 50.3641 20.6673C46.2636 16.5668 39.6153 16.5668 35.5148 20.6673L29.0802 27.1019L43.9294 41.9512ZM52.4854 18.5459C47.2133 13.2739 38.6656 13.2739 33.3935 18.5459L24.8375 27.1019L43.9294 46.1938L52.4854 37.6378C57.7575 32.3657 57.7575 23.818 52.4854 18.5459Z" fill="#1C1C1C"/>
</svg>
