<svg width="16" height="16" viewBox="0 0 16 16" fill="none" xmlns="http://www.w3.org/2000/svg">
<g id="Group 316">
<path id="Vector" d="M7.82676 0.666992C3.49409 0.666992 0 3.46223 0 6.85569C0 9.05837 1.45354 10.9871 3.63385 12.0884L2.8959 14.8446C2.88199 14.8859 2.87985 14.9302 2.88972 14.9727C2.8996 15.0152 2.92109 15.054 2.95181 15.085C2.99659 15.1245 3.05422 15.1463 3.11393 15.1464C3.16344 15.1425 3.21042 15.1229 3.2481 15.0906L6.42353 12.9494C6.89227 13.0141 7.36477 13.0477 7.83794 13.05C12.165 13.05 15.6647 10.2547 15.6647 6.85569C15.6647 3.45664 12.1538 0.666992 7.82676 0.666992Z" fill="#392020"/>
<path id="Vector_2" d="M2.73964 5.87721H1.88429C1.77827 5.88029 1.67357 5.85313 1.5824 5.79893C1.54192 5.77358 1.50712 5.74011 1.48019 5.70066C1.45325 5.66122 1.43476 5.61663 1.42587 5.5697C1.42315 5.53995 1.42315 5.51006 1.42587 5.4803C1.42321 5.42463 1.43402 5.3691 1.45737 5.3185C1.48073 5.26789 1.51595 5.22368 1.56004 5.18958C1.6575 5.119 1.77514 5.08171 1.89547 5.08333H4.47271C4.57957 5.07957 4.68499 5.10887 4.7746 5.1672C4.81603 5.19144 4.85156 5.2246 4.87863 5.26424C4.9057 5.30388 4.92363 5.34902 4.93113 5.39643C4.93386 5.42432 4.93386 5.45242 4.93113 5.4803C4.93377 5.53678 4.92299 5.59306 4.89967 5.64457C4.87634 5.69607 4.84115 5.74128 4.79696 5.77655C4.70187 5.84705 4.58537 5.88262 4.46712 5.87721H3.63972V8.81784C3.64308 8.88049 3.63338 8.94312 3.61125 9.00183C3.58911 9.06053 3.55502 9.11402 3.51114 9.15886C3.46905 9.20173 3.41846 9.23532 3.36262 9.25747C3.30678 9.27961 3.24691 9.28981 3.18688 9.28743C3.08189 9.29042 2.97912 9.25687 2.89618 9.19243C2.81721 9.12949 2.76361 9.04012 2.74523 8.94082C2.73971 8.90001 2.73971 8.85865 2.74523 8.81784L2.73964 5.87721Z" fill="#FEE500"/>
<path id="Vector_3" d="M5.17772 5.30198C5.20231 5.20998 5.26006 5.13032 5.33985 5.07834C5.42487 5.03015 5.52175 5.00691 5.61937 5.01126H5.83181C5.93541 5.00755 6.03799 5.03271 6.12811 5.08394C6.22361 5.14816 6.29146 5.24594 6.31819 5.35787L7.4363 8.51654C7.46529 8.59895 7.48955 8.68298 7.50898 8.76816C7.51089 8.80354 7.51089 8.83896 7.50898 8.87434C7.51087 8.92883 7.50084 8.98307 7.4796 9.03328C7.45835 9.08349 7.42641 9.12848 7.38598 9.16506C7.34682 9.20521 7.2998 9.23685 7.24785 9.25801C7.19591 9.27917 7.14016 9.28938 7.08409 9.28804C6.99787 9.29661 6.91127 9.27593 6.83825 9.22928C6.76522 9.18263 6.71003 9.11274 6.68157 9.03089L6.44677 8.34327H4.97646L4.74166 9.03089C4.71389 9.11436 4.65803 9.18559 4.58361 9.23249C4.5092 9.27938 4.42082 9.299 4.33355 9.28804C4.23901 9.29052 4.14641 9.26095 4.07079 9.20417C3.99711 9.14557 3.94741 9.06211 3.93103 8.96941C3.92806 8.9378 3.92806 8.90595 3.93103 8.87434C3.92143 8.81885 3.92143 8.76216 3.93103 8.70667C3.93103 8.64517 3.97016 8.57804 3.99252 8.51654L5.17772 5.30198ZM5.73678 6.03437L5.20567 7.71153H6.26228L5.73678 6.03437Z" fill="#FEE500"/>
<path id="Vector_4" d="M7.63721 5.48086C7.63153 5.3554 7.67574 5.2328 7.76019 5.13985C7.80313 5.09654 7.85467 5.0627 7.91148 5.04055C7.9683 5.0184 8.02912 5.00839 8.09004 5.01121C8.19477 5.00999 8.29696 5.04342 8.38074 5.10627C8.45839 5.17185 8.50997 5.26307 8.5261 5.36342C8.53161 5.40236 8.53161 5.44192 8.5261 5.48086V8.42149H10.0635C10.1701 8.4201 10.2748 8.44914 10.3654 8.5053C10.4061 8.53039 10.4411 8.56381 10.468 8.6033C10.495 8.64278 10.5134 8.68748 10.5219 8.73453C10.5219 8.73453 10.5219 8.79045 10.5219 8.8184C10.5246 8.87408 10.5138 8.92953 10.4904 8.98014C10.4671 9.03075 10.4318 9.07502 10.3878 9.10912C10.2903 9.17971 10.1726 9.21693 10.0523 9.21531H8.16271C8.04237 9.22305 7.92274 9.19173 7.82169 9.12591C7.7313 9.05832 7.67108 8.95794 7.65398 8.84638C7.64988 8.78495 7.64988 8.72328 7.65398 8.66185L7.63721 5.48086Z" fill="#FEE500"/>
<path id="Vector_5" d="M10.6217 5.48047C10.6183 5.35537 10.6622 5.23361 10.7447 5.13945C10.8284 5.06331 10.9359 5.01835 11.049 5.01224C11.162 5.00613 11.2737 5.03921 11.3652 5.10587C11.4446 5.17088 11.4981 5.26205 11.5162 5.36302C11.5189 5.4021 11.5189 5.44138 11.5162 5.48047V6.85012L12.9306 5.21766C12.9851 5.16197 13.0429 5.10974 13.1039 5.06117C13.1613 5.02698 13.2271 5.0095 13.2939 5.01081C13.3917 5.01028 13.4872 5.03954 13.5679 5.09468C13.6059 5.12028 13.6384 5.1533 13.6633 5.19173C13.6883 5.23015 13.7053 5.27319 13.7132 5.31832C13.7155 5.32938 13.7155 5.34083 13.7132 5.35189C13.7105 5.3648 13.7105 5.37809 13.7132 5.391C13.713 5.44982 13.6976 5.50763 13.6685 5.55874C13.6388 5.61286 13.6032 5.66343 13.5623 5.70963L12.6343 6.72715L13.7524 8.4602V8.51609C13.8104 8.59621 13.8557 8.6849 13.8865 8.7789V8.80681C13.893 8.87158 13.8837 8.93698 13.8593 8.99735C13.835 9.05772 13.7964 9.11125 13.7468 9.15342C13.6535 9.22391 13.5394 9.26132 13.4225 9.25968C13.3449 9.26288 13.2677 9.24547 13.1989 9.20931C13.1245 9.15938 13.0631 9.09228 13.02 9.01366L11.9802 7.3365L11.4826 7.85645V8.79002C11.486 8.91512 11.442 9.03688 11.3596 9.13104C11.3154 9.17422 11.2629 9.20795 11.2052 9.23006C11.1475 9.25217 11.0859 9.26226 11.0242 9.25968C10.921 9.26183 10.8203 9.22823 10.7391 9.16461C10.6601 9.10167 10.6065 9.01237 10.5881 8.91307C10.5826 8.87226 10.5826 8.83083 10.5881 8.79002L10.6217 5.48047Z" fill="#FEE500"/>
</g>
</svg>
