<svg width="202" height="32" viewBox="0 0 202 32" fill="none" xmlns="http://www.w3.org/2000/svg">
<path d="M30 24.5202V25.2985C28.9929 25.2985 28.0389 25.6963 27.3322 26.3882C26.6254 27.0801 26.2191 28.0141 26.2014 29H0V24.5029H8.18021V14.1941H13.4452V24.5029H30V24.5202ZM26.6431 2V2.83024L24.5406 19.6771H18.9223L20.2297 6.54901H2.15548V2H26.6254H26.6431Z" fill="#2961CD"/>
<path d="M60.9823 24.4313V25.2251C59.9747 25.2251 59.02 25.6308 58.3129 26.3364C57.6058 27.042 57.1992 27.9945 57.1815 29H31V24.4136H42.5262V19.5979H47.7943V24.4136H61L60.9823 24.4313ZM45.6906 8.20255H34.2882V3.56326H42.9151L43.8344 0H49.6506L48.749 3.56326H56.7926V5.02737L49.1909 11.5894L57.9947 19.6685V20.2153H51.4184L45.4255 14.9586L39.3972 20.2153H32.5203V19.7038L45.673 8.20255H45.6906Z" fill="#2961CD"/>
<path d="M62 2.29972H74.6574V6.89916H66.9596V19.5209L75.3634 18.3978V22.9972L62.5511 24.9939H62.0172V2.29972H62ZM91 0V0.766574C89.4673 1.1766 88.8646 2.40669 88.7268 4.59944V32H83.7672V16.6864H81.804V30.9125H76.8789V0.766574H81.8557V11.5877H83.8017V0H91Z" fill="#2961CD"/>
<path d="M122.982 12.6228V13.4177C120.826 13.6473 119.181 14.0889 119.181 16.3322H93V12.6228H104.703V10.4325H109.971V12.6228H123H122.982ZM104.562 4.85071H96.2882V1H118.669V2.11282L111.792 5.78689L119.181 10.2205V10.9271H112.358L107.443 8.0302L101.945 10.9624H94.7501V10.2205L104.579 4.85071H104.562ZM99.8238 26.8245V28.2553H119.411V32H94.8739V23.0798H113.648V21.6843H94.8739V17.9396H118.563V26.8598H99.7884L99.8238 26.8245Z" fill="#2961CD"/>
<path d="M130 1.4408H145.473V5.97665H135.239V12.5937L146.595 11.7399V16.1868L130.859 17.5386H130.105V1.4408H130.018H130ZM148.137 20.2779L157.792 31.6976V32H151.536L145.28 24.0489L139.025 32H132.769V31.6976L142.442 20.2779H148.119H148.137ZM157.967 0V0.764869C156.408 1.17399 155.794 2.40133 155.654 4.58922V7.82657H160V12.4158H155.637V20.7226H150.415V0H157.967Z" fill="#2961CD"/>
<path d="M190 0V0.765721C188.442 1.17529 187.83 2.40401 187.708 4.59432V18.7334H182.493V12.2871H177.103L176.07 18.0033H171.205L171.905 13.3734H162.35V8.86811H172.57L173.113 5.68058H162V1.08625H179.133V1.38898L177.978 7.69282H182.528V0H190ZM164.835 20.6567H187.708V32H164.835V20.6567ZM169.963 25.1619V27.4591H182.58V25.1797H169.963V25.1619Z" fill="#2961CD"/>
<path d="M202 24H194V32H202V24Z" fill="#2961CD"/>
</svg>
