<svg width="36" height="30" viewBox="0 0 36 30" fill="none" xmlns="http://www.w3.org/2000/svg">
<path d="M0.900851 1.57628V28.4503C0.902454 28.6943 1.00391 28.9286 1.18445 29.1052C1.36499 29.2817 1.61098 29.3872 1.8721 29.4H14.3287C14.5899 29.3872 14.8359 29.2817 15.0164 29.1052C15.1969 28.9286 15.2984 28.6943 15.3 28.4503V12.0021C15.298 11.8521 15.2611 11.7042 15.1919 11.5688C15.1227 11.4334 15.0228 11.3137 14.8992 11.2178L2.44252 0.792004C2.34111 0.715941 2.22378 0.66052 2.09807 0.629301C1.97235 0.598083 1.84103 0.591757 1.71254 0.61073C1.58404 0.629703 1.46123 0.673556 1.35197 0.73947C1.24272 0.805385 1.14944 0.891904 1.07814 0.993469C0.953991 1.16513 0.891871 1.36933 0.900851 1.57628Z" fill="#2961CD"/>
<path d="M10.8001 3.88728V28.5193C10.8001 28.7516 10.8979 28.9744 11.0723 29.1394C11.2467 29.3043 11.4834 29.3979 11.7311 29.3998H24.2687C24.3922 29.4018 24.5149 29.3804 24.6293 29.3367C24.7437 29.2931 24.8476 29.2282 24.9345 29.1459C25.0215 29.0637 25.0899 28.9657 25.1354 28.858C25.181 28.7504 25.2029 28.6351 25.1997 28.5193V13.5145C25.1997 13.5145 25.1747 13.227 25.1038 13.0991C25.0328 12.9711 24.9267 12.8633 24.7963 12.7868C24.6659 12.7104 12.313 3.17415 12.313 3.17415C12.11 3.03635 11.8584 2.97689 11.6101 3.00803C11.3618 3.03918 11.1357 3.15855 10.9785 3.34152C10.8601 3.50165 10.7977 3.69239 10.8001 3.88728Z" fill="#387AFC"/>
<path d="M20.7 6.20913V28.5751C20.7178 28.8011 20.8242 29.012 20.9973 29.1644C21.1704 29.3169 21.3972 29.3993 21.631 29.3948H34.169C34.2815 29.4072 34.3955 29.3974 34.504 29.366C34.6126 29.3345 34.7134 29.2821 34.8004 29.2118C34.8874 29.1415 34.9589 29.0548 35.0104 28.957C35.0618 28.8592 35.0923 28.7523 35.1 28.6427V16.3059C35.0939 16.174 35.0538 16.0456 34.9833 15.9327C34.9128 15.8197 34.8142 15.7256 34.6966 15.6591L22.2052 5.56237C22.0689 5.47266 21.9113 5.41809 21.7472 5.4038C21.5831 5.38951 21.418 5.41597 21.2673 5.48068C21.1167 5.5454 20.9856 5.64624 20.8863 5.77369C20.7871 5.90114 20.723 6.051 20.7 6.20913Z" fill="#97C8FC"/>
</svg>
