<svg width="152" height="25" viewBox="0 0 152 25" fill="none" xmlns="http://www.w3.org/2000/svg">
<path d="M22.6402 18.9711V19.5766C21.8827 19.5818 21.1576 19.8843 20.6211 20.419C20.0845 20.9537 19.7795 21.6777 19.7717 22.4352H0V18.9711H6.1737V11.0307H10.1439V18.9711H22.6402ZM20.1092 1.61133V2.24656L18.5211 15.2292H14.2829L15.2754 5.11505H1.63772V1.61133H20.1092Z" fill="#B2B2B2"/>
<path d="M46.2728 18.9715V19.5769C45.5154 19.5821 44.7902 19.8846 44.2537 20.4193C43.7171 20.954 43.4121 21.6781 43.4043 22.4355H23.6525V18.9715H32.3473V15.3288H36.3175V18.9715H46.2728ZM34.7393 6.70347H26.1438V3.19975H32.6549L33.3299 0.5H37.717L37.042 3.19975H43.1066V4.31141L37.3795 9.27419L44.0197 15.3784V15.7854H39.0569L34.5408 11.8151L29.9949 15.7854H24.8138V15.3983L34.7393 6.70347Z" fill="#B2B2B2"/>
<path d="M46.7793 2.24739H56.5758V5.69156H50.6205V15.1308L57.1317 14.2871V17.7213L47.2061 19.2102H46.7992L46.7793 2.24739ZM69.2309 0.530273V1.10596C68.0498 1.41365 67.5734 2.3268 67.4741 3.97444V24.4707H63.6329V13.0166H62.1143V23.6568H58.3029V1.10596H62.154V9.19529H63.6627V0.530273H69.2309Z" fill="#B2B2B2"/>
<path d="M93.3002 9.86974V10.4752C91.6724 10.6439 90.4317 10.9814 90.4317 12.6687H70.6799V9.86974H79.5037V8.2221H83.4739V9.86974H93.3002ZM79.4044 4.00373H73.1712V1.10547H90.0446V1.93922L84.8536 4.70845L90.4317 8.05336V8.58934H85.2803L81.5682 6.40572L77.4193 8.61912H71.99V8.05336L79.4044 4.00373ZM75.8312 20.5893V21.6712H90.6004V24.5H72.0992V17.7606H86.253V16.7084H72.0992V13.8797H89.9652V20.6191H75.8014L75.8312 20.5893Z" fill="#B2B2B2"/>
<path d="M97.3002 1.58189H109.072V4.98635H101.28V9.94913L109.916 9.30397V12.639L97.9453 13.6514H97.3696V1.58189H97.3002ZM111.097 15.706L118.442 24.2717V24.5H113.687L108.933 18.5447L104.179 24.5H99.4242V24.2717L106.779 15.706H111.097ZM118.581 0.5V1.07568C117.399 1.38337 116.923 2.29653 116.824 3.94417V6.37593H120.129V9.81017H116.804V16.0434H112.834V0.5H118.581Z" fill="#B2B2B2"/>
<path d="M142.779 0.5V1.07568C141.598 1.38337 141.131 2.29653 141.032 3.94417V14.5248H137.062V9.70099H132.953L132.159 13.9789H128.457L128.992 10.5149H121.707V7.1402H129.499L129.906 4.74814H121.439V1.3139H134.491V1.54218L133.608 6.26675H137.082V0.5H142.779ZM123.603 15.964H141.032V24.4603H123.603V15.964ZM127.514 19.3387V21.0558H137.122V19.3486L127.514 19.3387Z" fill="#B2B2B2"/>
<path d="M152 18.5H146V24.5H152V18.5Z" fill="#B2B2B2"/>
</svg>
