<svg width="24" height="20" viewBox="0 0 24 20" fill="none" xmlns="http://www.w3.org/2000/svg">
<path d="M0.600544 1.05085V18.9669C0.601613 19.1296 0.669247 19.2857 0.78961 19.4034C0.909972 19.5211 1.07397 19.5915 1.24804 19.6H9.55248C9.72655 19.5915 9.89055 19.5211 10.0109 19.4034C10.1313 19.2857 10.1989 19.1296 10.2 18.9669V8.0014C10.1986 7.90138 10.1741 7.80283 10.1279 7.71256C10.0818 7.62228 10.0152 7.54244 9.93275 7.47855L1.62832 0.528003C1.56072 0.477294 1.4825 0.440347 1.39869 0.419534C1.31488 0.398722 1.22733 0.394504 1.14167 0.407153C1.05601 0.419802 0.974128 0.449037 0.901292 0.49298C0.828456 0.536923 0.766273 0.594603 0.718738 0.662313C0.635971 0.776752 0.594558 0.912889 0.600544 1.05085Z" fill="#B2B2B2"/>
<path d="M7.19999 2.59156V19.0129C7.19999 19.1678 7.26522 19.3163 7.38147 19.4263C7.49772 19.5362 7.65558 19.5986 7.82067 19.5999H16.1791C16.2614 19.6012 16.3432 19.5869 16.4195 19.5579C16.4958 19.5288 16.565 19.4855 16.623 19.4307C16.681 19.3758 16.7265 19.3105 16.7569 19.2387C16.7873 19.1669 16.8019 19.0901 16.7998 19.0129V9.00972C16.7998 9.00972 16.7831 8.81806 16.7358 8.73275C16.6885 8.64744 16.6177 8.57557 16.5308 8.52459C16.4439 8.47362 8.20859 2.11614 8.20859 2.11614C8.0733 2.02427 7.90558 1.98463 7.74003 2.00539C7.57448 2.02616 7.42376 2.10574 7.31896 2.22772C7.23999 2.33447 7.19842 2.46164 7.19999 2.59156Z" fill="#DDDDDD"/>
<path d="M13.8 4.13944V19.0501C13.8118 19.2008 13.8828 19.3413 13.9982 19.443C14.1136 19.5446 14.2648 19.5995 14.4207 19.5965H22.7793C22.8543 19.6048 22.9303 19.5983 23.0027 19.5773C23.075 19.5564 23.1423 19.5214 23.2003 19.4745C23.2583 19.4277 23.3059 19.3699 23.3402 19.3047C23.3745 19.2395 23.3949 19.1682 23.4 19.0952V10.8706C23.3959 10.7827 23.3692 10.6971 23.3222 10.6218C23.2752 10.5465 23.2095 10.4838 23.131 10.4394L14.8034 3.70827C14.7126 3.64846 14.6075 3.61208 14.4981 3.60255C14.3887 3.59302 14.2786 3.61066 14.1782 3.65381C14.0778 3.69695 13.9904 3.76418 13.9242 3.84915C13.858 3.93411 13.8153 4.03402 13.8 4.13944Z" fill="#F6F6F6"/>
</svg>
