<svg xmlns="http://www.w3.org/2000/svg" width="25" height="23.958" viewBox="0 0 25 23.958"><path d="M21.875,1.563a1.562,1.562,0,0,1,1.563,1.563v12.5a1.563,1.563,0,0,1-1.562,1.563H17.969a3.125,3.125,0,0,0-2.5,1.25L12.5,22.4,9.531,18.438a3.125,3.125,0,0,0-2.5-1.25H3.125a1.562,1.562,0,0,1-1.562-1.562V3.125A1.563,1.563,0,0,1,3.125,1.563ZM3.125,0A3.125,3.125,0,0,0,0,3.125v12.5A3.125,3.125,0,0,0,3.125,18.75H7.031a1.563,1.563,0,0,1,1.25.625l2.969,3.958a1.563,1.563,0,0,0,2.5,0l2.969-3.958a1.563,1.563,0,0,1,1.25-.625h3.906A3.125,3.125,0,0,0,25,15.625V3.125A3.125,3.125,0,0,0,21.875,0Z" fill="#ff5050"/><path d="M8,3.993c1.664-1.711,5.825,1.283,0,5.132C2.175,5.275,6.336,2.282,8,3.993Z" transform="translate(4.5 3.11)" fill="#ff5050"/></svg>