<svg width="63" height="58" viewBox="0 0 63 58" fill="none" xmlns="http://www.w3.org/2000/svg">
<rect width="63" height="58" fill="white"/>
<path d="M33.5 13.6743V32.3125C33.5148 32.5009 33.6035 32.6766 33.7478 32.8037C33.892 32.9307 34.081 32.9994 34.2759 32.9956H44.7241C44.8179 33.006 44.9129 32.9978 45.0034 32.9716C45.0938 32.9454 45.1778 32.9017 45.2503 32.8431C45.3229 32.7845 45.3824 32.7123 45.4253 32.6308C45.4682 32.5493 45.4936 32.4602 45.5 32.3689V21.0882C45.4949 20.9783 45.4615 20.8713 45.4027 20.7772C45.344 20.683 45.2619 20.6047 45.1638 20.5492L34.7543 13.1353C34.6407 13.0605 34.5094 13.0151 34.3726 13.0031C34.2359 12.9912 34.0983 13.0133 33.9728 13.0672C33.8473 13.1211 33.738 13.2052 33.6553 13.3114C33.5726 13.4176 33.5191 13.5425 33.5 13.6743Z" fill="#F6F6F6"/>
<path d="M25.5001 11.7394V32.2661C25.5 32.4597 25.5816 32.6454 25.7269 32.7829C25.8722 32.9203 26.0695 32.9983 26.2759 32.9999H36.7239C36.8268 33.0016 36.9291 32.9837 37.0244 32.9473C37.1198 32.911 37.2063 32.8569 37.2788 32.7883C37.3513 32.7198 37.4082 32.6382 37.4462 32.5484C37.4842 32.4587 37.5024 32.3627 37.4998 32.2661V19.7621C37.4998 19.7621 37.4789 19.5226 37.4198 19.4159C37.3607 19.3093 37.2722 19.2195 37.1636 19.1557C37.0549 19.092 26.7608 11.1452 26.7608 11.1452C26.5917 11.0303 26.382 10.9808 26.1751 11.0067C25.9682 11.0327 25.7798 11.1322 25.6488 11.2846C25.5501 11.4181 25.4981 11.577 25.5001 11.7394Z" fill="#DDDDDD"/>
<path d="M17.5007 9.81353V32.2085C17.502 32.4119 17.5866 32.6071 17.737 32.7543C17.8875 32.9014 18.0925 32.9893 18.3101 33H28.6906C28.9082 32.9893 29.1132 32.9014 29.2637 32.7543C29.4141 32.6071 29.4987 32.4119 29.5 32.2085V18.5017C29.4983 18.3767 29.4676 18.2535 29.4099 18.1407C29.3523 18.0278 29.269 17.928 29.166 17.8482L18.7854 9.15997C18.7009 9.09659 18.6032 9.0504 18.4984 9.02439C18.3936 8.99837 18.2842 8.9931 18.1771 9.00891C18.07 9.02472 17.9677 9.06127 17.8766 9.11619C17.7856 9.17112 17.7079 9.24322 17.6485 9.32786C17.545 9.47091 17.4932 9.64108 17.5007 9.81353Z" fill="#B2B2B2"/>
<path d="M12.7137 37.794V38.729H19.1377V37.794H12.7137ZM11.7677 44.647V45.593H20.8537V44.647H11.7677ZM15.1557 41.116V45.12H16.3107V41.116H15.1557ZM18.7087 37.794V38.773C18.7087 39.983 18.7087 41.413 18.3237 43.371L19.4787 43.503C19.8637 41.424 19.8637 40.027 19.8637 38.773V37.794H18.7087ZM21.8869 44.757V45.703H30.9949V44.757H21.8869ZM25.8579 42.634V45.252H27.0019V42.634H25.8579ZM25.8469 38.96V39.18C25.8469 40.555 24.4609 41.765 22.2829 42.062L22.7119 42.975C25.1539 42.601 26.8699 41.171 26.8699 39.18V38.96H25.8469ZM26.0009 38.96V39.18C26.0009 41.171 27.7169 42.601 30.1479 42.975L30.5769 42.062C28.3989 41.765 27.0129 40.555 27.0129 39.18V38.96H26.0009ZM22.6899 38.344V39.279H30.1589V38.344H22.6899ZM25.8579 37.035V38.707H27.0019V37.035H25.8579ZM39.475 36.859V46.913H40.575V36.859H39.475ZM37.935 40.819V41.754H39.75V40.819H37.935ZM37.209 37.057V46.418H38.276V37.057H37.209ZM32.325 43.569V44.526H33.007C34.415 44.526 35.449 44.482 36.659 44.24L36.56 43.294C35.383 43.525 34.371 43.569 33.007 43.569H32.325ZM32.325 38.058V44.02H33.469V38.993H36.054V38.058H32.325ZM46.0851 40.06V41.534H47.2291V40.06H46.0851ZM42.1141 41.138V42.051H51.2001V41.138H42.1141ZM43.1921 42.733V43.591H48.9341V44.339H43.2031V46.198H44.3471V45.153H50.0671V42.733H43.1921ZM43.2031 45.945V46.825H50.3531V45.945H43.2031ZM45.8871 37.552V37.827C45.8871 38.762 44.5231 39.565 42.5541 39.719L42.9281 40.588C45.2381 40.39 46.8881 39.323 46.8881 37.827V37.552H45.8871ZM46.4371 37.552V37.827C46.4371 39.334 48.0871 40.379 50.3971 40.588L50.7711 39.719C48.7911 39.565 47.4271 38.762 47.4271 37.827V37.552H46.4371ZM42.9501 37.156V38.069H50.3861V37.156H42.9501Z" fill="#DDDDDD"/>
</svg>
