<svg width="230" height="36" viewBox="0 0 230 36" fill="none" xmlns="http://www.w3.org/2000/svg">
<path d="M33.96 27.7002V28.6002C32.82 28.6002 31.74 29.0602 30.94 29.8602C30.14 30.6602 29.68 31.7402 29.66 32.8802H0V27.6802H9.26V15.7602H15.22V27.6802H33.96V27.7002ZM30.16 1.66016V2.62016L27.78 22.1002H21.42L22.9 6.92016H2.44V1.66016H30.14H30.16Z" fill="#1C1C1C"/>
<path d="M69.4005 27.7V28.6C68.2605 28.6 67.1805 29.06 66.3805 29.86C65.5805 30.66 65.1205 31.74 65.1005 32.88H35.4805V27.68H48.5205V22.22H54.4805V27.68H69.4205L69.4005 27.7ZM52.1005 9.3H39.2005V4.04H48.9605L50.0005 0H56.5805L55.5605 4.04H64.6605V5.7L56.0605 13.14L66.0205 22.3V22.92H58.5805L51.8005 16.96L44.9805 22.92H37.2005V22.34L52.0805 9.3H52.1005Z" fill="#1C1C1C"/>
<path d="M70.1602 2.62004H84.8602V7.78004H75.9202V21.94L85.6801 20.68V25.84L70.8002 28.08H70.1802V2.62004H70.1602ZM103.84 0.0400391V0.900039C102.06 1.36004 101.36 2.74004 101.2 5.20004V35.94H95.4402V18.76H93.1602V34.72H87.4402V0.900039H93.2202V13.04H95.4801V0.0400391H103.84Z" fill="#1C1C1C"/>
<path d="M139.94 14.0604V14.9604C137.5 15.2204 135.64 15.7204 135.64 18.2604H106.02V14.0604H119.26V11.5804H125.22V14.0604H139.96H139.94ZM119.1 5.26039H109.74V0.900391H135.06V2.16039L127.28 6.32039L135.64 11.3404V12.1404H127.92L122.36 8.86039L116.14 12.1804H108V11.3404L119.12 5.26039H119.1ZM113.74 30.1404V31.7604H135.9V36.0004H108.14V25.9004H129.38V24.3204H108.14V20.0804H134.94V30.1804H113.7L113.74 30.1404Z" fill="#1C1C1C"/>
<path d="M147.961 1.62H165.621V6.72H153.941V14.16L166.901 13.2V18.2L148.941 19.72H148.081V1.62H147.981H147.961ZM168.661 22.8L179.681 35.64V35.98H172.541L165.401 27.04L158.261 35.98H151.121V35.64L162.161 22.8H168.641H168.661ZM179.881 0V0.86C178.101 1.32 177.401 2.7 177.241 5.16V8.8H182.201V13.96H177.221V23.3H171.261V0H179.881Z" fill="#2961CD"/>
<path d="M216.18 0V0.86C214.4 1.32 213.7 2.7 213.56 5.16V21.04H207.6V13.8H201.44L200.26 20.22H194.7L195.5 15.02H184.58V9.96H196.26L196.88 6.38H184.18V1.22H203.76V1.56L202.44 8.64H207.64V0H216.18ZM187.42 23.2H213.56V35.94H187.42V23.2ZM193.28 28.26V30.84H207.7V28.28H193.28V28.26Z" fill="#2961CD"/>
<path d="M230 27H221V36H230V27Z" fill="#2961CD"/>
</svg>
