<svg width="184" height="24" viewBox="0 0 184 24" fill="none" xmlns="http://www.w3.org/2000/svg">
<path d="M16 4.67425V23.3125C16.0148 23.5009 16.1035 23.6766 16.2478 23.8037C16.392 23.9307 16.581 23.9994 16.7759 23.9956H27.2241C27.3179 24.006 27.4129 23.9978 27.5034 23.9716C27.5938 23.9454 27.6778 23.9017 27.7503 23.8431C27.8229 23.7845 27.8824 23.7123 27.9253 23.6308C27.9682 23.5493 27.9936 23.4602 28 23.3689V23.3689V12.0882C27.9949 11.9783 27.9615 11.8713 27.9027 11.7772C27.844 11.683 27.7619 11.6047 27.6638 11.5492L17.2543 4.13529C17.1407 4.06053 17.0094 4.01505 16.8726 4.00314C16.7359 3.99123 16.5983 4.01328 16.4728 4.06721C16.3473 4.12114 16.238 4.20518 16.1553 4.31139C16.0726 4.41759 16.0191 4.54248 16 4.67425V4.67425Z" fill="#F6F6F6"/>
<path d="M8.00005 2.73945V23.2661C8.00005 23.4597 8.08158 23.6454 8.2269 23.7829C8.37221 23.9203 8.56954 23.9983 8.7759 23.9999H19.2239C19.3268 24.0016 19.4291 23.9837 19.5244 23.9473C19.6198 23.911 19.7063 23.8569 19.7788 23.7883C19.8513 23.7198 19.9082 23.6382 19.9462 23.5484C19.9842 23.4587 20.0024 23.3627 19.9998 23.2661V10.7621C19.9998 10.7621 19.9789 10.5226 19.9198 10.4159C19.8607 10.3093 19.7722 10.2195 19.6636 10.1557C19.5549 10.092 9.2608 2.14518 9.2608 2.14518C9.09169 2.03034 8.88203 1.98079 8.6751 2.00674C8.46817 2.0327 8.27976 2.13218 8.14876 2.28465C8.05005 2.41809 7.99808 2.57705 8.00005 2.73945Z" fill="#DDDDDD"/>
<path d="M0.000710749 0.813535V23.2085C0.00204729 23.4119 0.0865897 23.6071 0.237043 23.7543C0.387496 23.9014 0.592489 23.9893 0.810085 24H11.1906C11.4082 23.9893 11.6132 23.9014 11.7637 23.7543C11.9141 23.6071 11.9987 23.4119 12 23.2085V9.50171C11.9983 9.3767 11.9676 9.25351 11.9099 9.14067C11.8523 9.02783 11.769 8.92802 11.666 8.84815L1.28543 0.159973C1.20093 0.0965872 1.10315 0.050403 0.998389 0.0243874C0.893626 -0.00162825 0.784191 -0.00689993 0.677115 0.00891102C0.570039 0.024722 0.467691 0.0612659 0.376646 0.116195C0.2856 0.171124 0.207872 0.243223 0.148454 0.32786C0.0449941 0.470909 -0.00677241 0.641081 0.000710749 0.813535V0.813535Z" fill="#B2B2B2"/>
<path d="M54.6402 18.4715V19.0769C53.8827 19.0821 53.1576 19.3846 52.6211 19.9193C52.0845 20.454 51.7795 21.1781 51.7717 21.9355H32V18.4715H38.1737V10.531H42.1439V18.4715H54.6402ZM52.1092 1.11168V1.74691L50.5211 14.7295H46.2829L47.2754 4.6154H33.6377V1.11168H52.1092Z" fill="#B2B2B2"/>
<path d="M78.2728 18.4715V19.0769C77.5154 19.0821 76.7902 19.3846 76.2537 19.9193C75.7171 20.454 75.4121 21.1781 75.4043 21.9355H55.6525V18.4715H64.3473V14.8288H68.3175V18.4715H78.2728ZM66.7393 6.20347H58.1438V2.69975H64.6549L65.3299 0H69.717L69.042 2.69975H75.1066V3.81141L69.3795 8.77419L76.0197 14.8784V15.2854H71.0569L66.5408 11.3151L61.9949 15.2854H56.8138V14.8983L66.7393 6.20347Z" fill="#B2B2B2"/>
<path d="M78.7791 1.74693H88.5756V5.1911H82.6203V14.6303L89.1315 13.7866V17.2209L79.2059 18.7097H78.799L78.7791 1.74693ZM101.231 0.029808V0.60549C100.05 0.913183 99.5732 1.82633 99.4739 3.47398V23.9703H95.6327V12.5162H94.1141V23.1564H90.3027V0.60549H94.1538V8.69482H95.6625V0.029808H101.231Z" fill="#B2B2B2"/>
<path d="M125.3 9.36969V9.97515C123.672 10.1439 122.432 10.4814 122.432 12.1687H102.68V9.36969H111.504V7.72205H115.474V9.36969H125.3ZM111.404 3.50369H105.171V0.605423H122.045V1.43917L116.854 4.2084L122.432 7.55331V8.0893H117.28L113.568 5.90567L109.419 8.11907H103.99V7.55331L111.404 3.50369ZM107.831 20.0893V21.1712H122.6V24H104.099V17.2605H118.253V16.2084H104.099V13.3796H121.965V20.1191H107.801L107.831 20.0893Z" fill="#B2B2B2"/>
<path d="M129.3 1.08189H141.072V4.48635H133.28V9.44913L141.916 8.80397V12.139L129.945 13.1514H129.37V1.08189H129.3ZM143.097 15.206L150.442 23.7717V24H145.687L140.933 18.0447L136.179 24H131.424V23.7717L138.779 15.206H143.097ZM150.581 0V0.575682C149.399 0.883375 148.923 1.79653 148.824 3.44417V5.87593H152.129V9.31017H148.804V15.5434H144.834V0H150.581Z" fill="#B2B2B2"/>
<path d="M174.779 0V0.575682C173.598 0.883375 173.131 1.79653 173.032 3.44417V14.0248H169.062V9.20099H164.953L164.159 13.4789H160.456L160.992 10.0149H153.707V6.6402H161.499L161.906 4.24814H153.439V0.813896H166.491V1.04218L165.608 5.76675H169.082V0H174.779ZM155.603 15.464H173.032V23.9603H155.603V15.464ZM159.514 18.8387V20.5558H169.122V18.8486L159.514 18.8387Z" fill="#B2B2B2"/>
<path d="M184 18H178V24H184V18Z" fill="#B2B2B2"/>
</svg>
