<svg width="168" height="200" viewBox="0 0 168 200" fill="none" xmlns="http://www.w3.org/2000/svg">
<g opacity="0.84">
<rect x="0.5" y="0.5" width="167" height="199" rx="7.5" fill="#F1F3F5"/>
<path fill-rule="evenodd" clip-rule="evenodd" d="M73.9526 104.619C75.2029 103.368 76.8986 102.666 78.6667 102.666H89.3333C91.1014 102.666 92.7971 103.368 94.0474 104.619C95.2976 105.869 96 107.565 96 109.333V111.999C96 112.736 95.403 113.333 94.6667 113.333C93.9303 113.333 93.3333 112.736 93.3333 111.999V109.333C93.3333 108.272 92.9119 107.254 92.1618 106.504C91.4116 105.754 90.3942 105.333 89.3333 105.333H78.6667C77.6058 105.333 76.5884 105.754 75.8382 106.504C75.0881 107.254 74.6667 108.272 74.6667 109.333V111.999C74.6667 112.736 74.0697 113.333 73.3333 113.333C72.597 113.333 72 112.736 72 111.999V109.333C72 107.565 72.7024 105.869 73.9526 104.619Z" fill="#9BA0A9"/>
<path fill-rule="evenodd" clip-rule="evenodd" d="M84.0002 89.3327C81.791 89.3327 80.0002 91.1235 80.0002 93.3327C80.0002 95.5418 81.791 97.3327 84.0002 97.3327C86.2093 97.3327 88.0002 95.5418 88.0002 93.3327C88.0002 91.1235 86.2093 89.3327 84.0002 89.3327ZM77.3335 93.3327C77.3335 89.6508 80.3183 86.666 84.0002 86.666C87.6821 86.666 90.6668 89.6508 90.6668 93.3327C90.6668 97.0146 87.6821 99.9993 84.0002 99.9993C80.3183 99.9993 77.3335 97.0146 77.3335 93.3327Z" fill="#9BA0A9"/>
<rect x="0.5" y="0.5" width="167" height="199" rx="7.5" stroke="#E0E4E8"/>
</g>
</svg>
