<svg width="24" height="24" viewBox="0 0 24 24" fill="none" xmlns="http://www.w3.org/2000/svg">
<g id="icon-myResume">
<g id="Group">
<path id="Vector" d="M15.5 3H17.6C17.9713 3 18.3274 3.15804 18.5899 3.43934C18.8525 3.72064 19 4.10218 19 4.5V19.5C19 19.8978 18.8525 20.2794 18.5899 20.5607C18.3274 20.842 17.9713 21 17.6 21H6.4C6.0287 21 5.6726 20.842 5.41005 20.5607C5.1475 20.2794 5 19.8978 5 19.5V4.5C5 4.10218 5.1475 3.72064 5.41005 3.43934C5.6726 3.15804 6.0287 3 6.4 3H8.5" stroke="white" stroke-width="2" stroke-linecap="round" stroke-linejoin="round"/>
<path id="Vector_2" d="M14.4 1H9.6C8.71634 1 8 1.71634 8 2.6V3.4C8 4.28366 8.71634 5 9.6 5H14.4C15.2837 5 16 4.28366 16 3.4V2.6C16 1.71634 15.2837 1 14.4 1Z" fill="white"/>
<path id="Vector_3" d="M9 10H15" stroke="white" stroke-width="1.8" stroke-linecap="round" stroke-linejoin="round"/>
<path id="Vector_4" d="M9 14H12" stroke="white" stroke-width="1.8" stroke-linecap="round" stroke-linejoin="round"/>
</g>
</g>
</svg>
