<svg width="79" height="38" viewBox="0 0 79 38" fill="none" xmlns="http://www.w3.org/2000/svg">
<rect width="79" height="38" rx="8" fill="#AED3FC"/>
<path d="M10.6592 12.2734H20.5293V13.9346H16.5742V25H14.6318V13.9346H10.6592V12.2734ZM33.001 18.6367C33.001 19.9668 32.7549 21.127 32.2627 22.1172C31.7705 23.1016 31.0908 23.8574 30.2236 24.3848C29.3564 24.9121 28.3721 25.1758 27.2705 25.1758C26.1631 25.1758 25.1758 24.9121 24.3086 24.3848C23.4473 23.8574 22.7705 23.1016 22.2783 22.1172C21.7861 21.127 21.54 19.9668 21.54 18.6367C21.54 17.3066 21.7861 16.1494 22.2783 15.165C22.7705 14.1748 23.4473 13.416 24.3086 12.8887C25.1758 12.3613 26.1631 12.0977 27.2705 12.0977C28.3721 12.0977 29.3564 12.3613 30.2236 12.8887C31.0908 13.416 31.7705 14.1748 32.2627 15.165C32.7549 16.1494 33.001 17.3066 33.001 18.6367ZM31.0938 18.6367C31.0938 17.6289 30.9297 16.7676 30.6016 16.0527C30.2734 15.332 29.8193 14.7871 29.2393 14.418C28.665 14.0488 28.0088 13.8643 27.2705 13.8643C26.5322 13.8643 25.876 14.0488 25.3018 14.418C24.7275 14.7871 24.2734 15.332 23.9395 16.0527C23.6113 16.7676 23.4473 17.6289 23.4473 18.6367C23.4473 19.6387 23.6113 20.4971 23.9395 21.2119C24.2734 21.9268 24.7275 22.4717 25.3018 22.8467C25.876 23.2158 26.5322 23.4033 27.2705 23.4092C28.0088 23.4033 28.665 23.2158 29.2393 22.8467C29.8193 22.4717 30.2734 21.9268 30.6016 21.2119C30.9297 20.4971 31.0938 19.6387 31.0938 18.6367ZM36.165 25V23.3037H39.2061C40.1611 23.3037 40.958 23.1221 41.5967 22.7588C42.2412 22.3955 42.7217 21.8682 43.0381 21.1768C43.3604 20.4795 43.5215 19.627 43.5215 18.6191C43.5215 17.623 43.3633 16.7793 43.0469 16.0879C42.7305 15.3906 42.2588 14.8633 41.6318 14.5059C41.0107 14.1484 40.2402 13.9697 39.3203 13.9697H36.0947V12.2734H39.4346C40.6768 12.2734 41.749 12.5254 42.6514 13.0293C43.5537 13.5332 44.2422 14.2627 44.7168 15.2178C45.1973 16.1729 45.4375 17.3066 45.4375 18.6191C45.4375 19.9434 45.1943 21.083 44.708 22.0381C44.2275 22.9932 43.5273 23.7256 42.6074 24.2354C41.6934 24.7451 40.5977 25 39.3203 25H36.165ZM37.123 25H35.1895V12.2734H37.123V25ZM46 25L50.5703 12.2734H52.8115L57.3906 25H55.3252L51.7393 14.6025H51.6338L48.0391 25H46ZM54.9912 20.0166V21.6338H48.3818V20.0166H54.9912ZM58.9287 12.2734L62.2422 18.0391H62.3828L65.6963 12.2734H67.9023L63.2881 20.0078V25H61.3457V20.0078L56.7402 12.2734H58.9287Z" fill="white"/>
</svg>
