<svg width="24" height="24" viewBox="0 0 24 24" fill="none" xmlns="http://www.w3.org/2000/svg">
<g clip-path="url(#clip0_481_2064)">
<path d="M19.1772 14.7317L14.7315 19.1774C14.5708 19.338 14.3529 19.4281 14.1258 19.4281C13.8986 19.4281 13.6808 19.338 13.52 19.1774L4.69719 10.3546C4.65286 10.3122 4.61856 10.2604 4.59681 10.2031C4.57506 10.1458 4.56641 10.0843 4.57148 10.0232L5.24576 5.64601C5.25126 5.54171 5.29517 5.44313 5.36903 5.36927C5.44288 5.29542 5.54146 5.25151 5.64576 5.24601L10.0229 4.57172C10.084 4.56665 10.1455 4.57531 10.2029 4.59706C10.2602 4.61881 10.312 4.6531 10.3543 4.69744L19.1772 13.5203C19.3377 13.681 19.4279 13.8989 19.4279 14.126C19.4279 14.3532 19.3377 14.571 19.1772 14.7317V14.7317Z" stroke="#1C1C1C" stroke-linecap="round" stroke-linejoin="round"/>
<path d="M8.69716 9.26981C9.01275 9.26981 9.26859 9.01397 9.26859 8.69838C9.26859 8.38279 9.01275 8.12695 8.69716 8.12695C8.38157 8.12695 8.12573 8.38279 8.12573 8.69838C8.12573 9.01397 8.38157 9.26981 8.69716 9.26981Z" stroke="#1C1C1C" stroke-linecap="round" stroke-linejoin="round"/>
</g>
<defs>
<clipPath id="clip0_481_2064">
<rect width="16" height="16" fill="white" transform="translate(4 4)"/>
</clipPath>
</defs>
</svg>
