<svg width="24" height="24" viewBox="0 0 24 24" fill="none" xmlns="http://www.w3.org/2000/svg">
<path d="M14.4286 14.1339L9.85718 9.90536C7.36576 7.4025 11 2.55679 14.4286 6.47679C17.8572 2.56822 21.5258 7.41393 19 9.90536L14.4286 14.1339Z" stroke="#1C1C1C" stroke-linecap="round" stroke-linejoin="round"/>
<path d="M5 15.918L7.79283 18.2453C8.20361 18.5877 8.72141 18.7751 9.25611 18.7751H16.6191C17.145 18.7751 17.5714 18.3487 17.5714 17.8228C17.5714 16.7708 16.7186 15.918 15.6667 15.918H11.6906" stroke="#1C1C1C" stroke-linecap="round" stroke-linejoin="round"/>
<path d="M8.42857 15.8474L9.28571 16.7045C9.7591 17.1779 10.5266 17.1779 11 16.7045C11.4734 16.2311 11.4734 15.4636 11 14.9902L9.66947 13.6597C9.24081 13.231 8.65944 12.9902 8.05322 12.9902H5" stroke="#1C1C1C" stroke-linecap="round" stroke-linejoin="round"/>
</svg>
