<svg width="72" height="72" viewBox="0 0 72 72" fill="none" xmlns="http://www.w3.org/2000/svg">
<path fill-rule="evenodd" clip-rule="evenodd" d="M57 18H15V48H57V18ZM15 15C13.3431 15 12 16.3431 12 18V48C12 49.6569 13.3431 51 15 51H57C58.6569 51 60 49.6569 60 48V18C60 16.3431 58.6569 15 57 15H15Z" fill="#1C1C1C"/>
<path d="M27 48H45V60H27V48Z" fill="#AED3FC"/>
<path fill-rule="evenodd" clip-rule="evenodd" d="M42 51H30V57H42V51ZM27 48V60H45V48H27Z" fill="#1C1C1C"/>
<path d="M12 39H60V48C60 49.6569 58.6569 51 57 51H15C13.3431 51 12 49.6569 12 48V39Z" fill="#AED3FC"/>
<path fill-rule="evenodd" clip-rule="evenodd" d="M57 42H15V48H57V42ZM12 39V48C12 49.6569 13.3431 51 15 51H57C58.6569 51 60 49.6569 60 48V39H12Z" fill="#1C1C1C"/>
<path d="M22.5 60C21.6716 60 21 59.3284 21 58.5C21 57.6716 21.6716 57 22.5 57L49.5 57C50.3284 57 51 57.6716 51 58.5C51 59.3284 50.3284 60 49.5 60L22.5 60Z" fill="#1C1C1C"/>
</svg>
