<svg width="72" height="72" viewBox="0 0 72 72" fill="none" xmlns="http://www.w3.org/2000/svg">
<path d="M36 37.5C24 37.5 19 33.5 18 31.5V43.5C20.4 48.3 31 49.5 36 49.5C45.6 49.5 52 45.5 54 43.5V31.5C51.6 36.3 41 37.5 36 37.5Z" fill="#AED3FC"/>
<path fill-rule="evenodd" clip-rule="evenodd" d="M20.4672 17.6492C19.7432 18.3625 19.5 18.987 19.5 19.5C19.5 20.013 19.7432 20.6375 20.4672 21.3508C21.1965 22.0692 22.3288 22.7853 23.849 23.4187C26.8828 24.6828 31.178 25.5 36 25.5C40.822 25.5 45.1172 24.6828 48.151 23.4187C49.6712 22.7853 50.8035 22.0692 51.5328 21.3508C52.2568 20.6375 52.5 20.013 52.5 19.5C52.5 18.987 52.2568 18.3625 51.5328 17.6492C50.8035 16.9308 49.6712 16.2147 48.151 15.5813C45.1172 14.3172 40.822 13.5 36 13.5C31.178 13.5 26.8828 14.3172 23.849 15.5813C22.3288 16.2147 21.1965 16.9308 20.4672 17.6492ZM22.6952 12.8121C26.176 11.3617 30.8809 10.5 36 10.5C41.1191 10.5 45.824 11.3617 49.3048 12.8121C51.042 13.5359 52.5458 14.436 53.6381 15.5121C54.7358 16.5934 55.5 17.9419 55.5 19.5C55.5 21.0581 54.7358 22.4066 53.6381 23.4879C52.5458 24.564 51.042 25.4641 49.3048 26.1879C45.824 27.6383 41.1191 28.5 36 28.5C30.8809 28.5 26.176 27.6383 22.6952 26.1879C20.958 25.4641 19.4542 24.564 18.3619 23.4879C17.2642 22.4066 16.5 21.0581 16.5 19.5C16.5 17.9419 17.2642 16.5934 18.3619 15.5121C19.4542 14.436 20.958 13.5359 22.6952 12.8121Z" fill="#1C1C1C"/>
<path fill-rule="evenodd" clip-rule="evenodd" d="M23.849 33.9187C26.8828 35.1828 31.178 36 36 36C40.822 36 45.1172 35.1828 48.151 33.9187C49.6712 33.2853 50.8035 32.5692 51.5328 31.8508C52.2568 31.1375 52.5 30.513 52.5 30H55.5C55.5 31.5581 54.7358 32.9066 53.6381 33.9879C52.5458 35.064 51.042 35.9641 49.3048 36.6879C45.824 38.1383 41.1191 39 36 39C30.8809 39 26.176 38.1383 22.6952 36.6879C20.958 35.9641 19.4542 35.064 18.3619 33.9879C17.2642 32.9066 16.5 31.5581 16.5 30H19.5C19.5 30.513 19.7432 31.1375 20.4672 31.8508C21.1965 32.5692 22.3288 33.2853 23.849 33.9187Z" fill="#1C1C1C"/>
<path fill-rule="evenodd" clip-rule="evenodd" d="M23.849 45.9187C26.8828 47.1828 31.178 48 36 48C40.822 48 45.1172 47.1828 48.151 45.9187C49.6712 45.2853 50.8035 44.5692 51.5328 43.8508C52.2568 43.1375 52.5 42.513 52.5 42H55.5C55.5 43.5581 54.7358 44.9066 53.6381 45.9879C52.5458 47.064 51.042 47.9641 49.3048 48.6879C45.824 50.1383 41.1191 51 36 51C30.8809 51 26.176 50.1383 22.6952 48.6879C20.958 47.9641 19.4542 47.064 18.3619 45.9879C17.2642 44.9066 16.5 43.5581 16.5 42H19.5C19.5 42.513 19.7432 43.1375 20.4672 43.8508C21.1965 44.5692 22.3288 45.2853 23.849 45.9187Z" fill="#1C1C1C"/>
<path fill-rule="evenodd" clip-rule="evenodd" d="M19.5 19.5V52.5C19.5 53.013 19.7432 53.6375 20.4672 54.3508C21.1965 55.0692 22.3288 55.7853 23.849 56.4187C26.8828 57.6828 31.178 58.5 36 58.5C40.822 58.5 45.1172 57.6828 48.151 56.4187C49.6712 55.7853 50.8035 55.0692 51.5328 54.3508C52.2568 53.6375 52.5 53.013 52.5 52.5V19.5H55.5V52.5C55.5 54.0581 54.7358 55.4066 53.6381 56.4879C52.5458 57.564 51.042 58.4641 49.3048 59.1879C45.824 60.6383 41.1191 61.5 36 61.5C30.8809 61.5 26.176 60.6383 22.6952 59.1879C20.958 58.4641 19.4542 57.564 18.3619 56.4879C17.2642 55.4066 16.5 54.0581 16.5 52.5V19.5H19.5Z" fill="#1C1C1C"/>
<path d="M30 19.5C30 20.3284 28.6569 21 27 21C25.3431 21 24 20.3284 24 19.5C24 18.6716 25.3431 18 27 18C28.6569 18 30 18.6716 30 19.5Z" fill="#1C1C1C"/>
</svg>
