<svg width="72" height="72" viewBox="0 0 72 72" fill="none" xmlns="http://www.w3.org/2000/svg">
<path fill-rule="evenodd" clip-rule="evenodd" d="M51 21H21L21 51H51V21ZM21 18C19.3431 18 18 19.3431 18 21V51C18 52.6569 19.3431 54 21 54H51C52.6569 54 54 52.6569 54 51V21C54 19.3431 52.6569 18 51 18H21Z" fill="#1C1C1C"/>
<path d="M27 30C27 28.3431 28.3431 27 30 27H42C43.6569 27 45 28.3431 45 30V42C45 43.6569 43.6569 45 42 45H30C28.3431 45 27 43.6569 27 42V30Z" fill="#AED3FC"/>
<path fill-rule="evenodd" clip-rule="evenodd" d="M42 30H30L30 42H42V30ZM30 27C28.3431 27 27 28.3431 27 30V42C27 43.6569 28.3431 45 30 45H42C43.6569 45 45 43.6569 45 42V30C45 28.3431 43.6569 27 42 27H30Z" fill="#1C1C1C"/>
<path d="M21 13.5C21 12.6716 21.6716 12 22.5 12C23.3284 12 24 12.6716 24 13.5V18H21V13.5Z" fill="#1C1C1C"/>
<path d="M21 54H24V58.5C24 59.3284 23.3284 60 22.5 60C21.6716 60 21 59.3284 21 58.5V54Z" fill="#1C1C1C"/>
<path d="M18 21L18 24L13.5 24C12.6716 24 12 23.3284 12 22.5C12 21.6716 12.6716 21 13.5 21L18 21Z" fill="#1C1C1C"/>
<path d="M54 51L54 48L58.5 48C59.3284 48 60 48.6716 60 49.5C60 50.3284 59.3284 51 58.5 51L54 51Z" fill="#1C1C1C"/>
<path d="M48 13.5C48 12.6716 48.6716 12 49.5 12C50.3284 12 51 12.6716 51 13.5V18H48V13.5Z" fill="#1C1C1C"/>
<path d="M48 54H51V58.5C51 59.3284 50.3284 60 49.5 60C48.6716 60 48 59.3284 48 58.5V54Z" fill="#1C1C1C"/>
<path d="M18 48L18 51L13.5 51C12.6716 51 12 50.3284 12 49.5C12 48.6716 12.6716 48 13.5 48L18 48Z" fill="#1C1C1C"/>
<path d="M54 24L54 21L58.5 21C59.3284 21 60 21.6716 60 22.5C60 23.3284 59.3284 24 58.5 24L54 24Z" fill="#1C1C1C"/>
<path d="M30 13.5C30 12.6716 30.6716 12 31.5 12C32.3284 12 33 12.6716 33 13.5V18H30V13.5Z" fill="#1C1C1C"/>
<path d="M30 54H33V58.5C33 59.3284 32.3284 60 31.5 60C30.6716 60 30 59.3284 30 58.5V54Z" fill="#1C1C1C"/>
<path d="M18 30L18 33L13.5 33C12.6716 33 12 32.3284 12 31.5C12 30.6716 12.6716 30 13.5 30L18 30Z" fill="#1C1C1C"/>
<path d="M54 42L54 39L58.5 39C59.3284 39 60 39.6716 60 40.5C60 41.3284 59.3284 42 58.5 42L54 42Z" fill="#1C1C1C"/>
<path d="M39 13.5C39 12.6716 39.6716 12 40.5 12C41.3284 12 42 12.6716 42 13.5V18H39V13.5Z" fill="#1C1C1C"/>
<path d="M39 54H42V58.5C42 59.3284 41.3284 60 40.5 60C39.6716 60 39 59.3284 39 58.5V54Z" fill="#1C1C1C"/>
<path d="M18 39L18 42L13.5 42C12.6716 42 12 41.3284 12 40.5C12 39.6716 12.6716 39 13.5 39L18 39Z" fill="#1C1C1C"/>
<path d="M54 33L54 30L58.5 30C59.3284 30 60 30.6716 60 31.5C60 32.3284 59.3284 33 58.5 33L54 33Z" fill="#1C1C1C"/>
</svg>
