<svg width="150" height="20" viewBox="0 0 150 20" fill="none" xmlns="http://www.w3.org/2000/svg">
<path d="M10.6459 3.83692V14.7919C10.6459 15.0095 10.8462 15.1849 11.0945 15.1849H16.9725C17.2208 15.1849 17.4211 15.0095 17.4211 14.7919V8.19145C17.4211 8.06257 17.3501 7.94425 17.2291 7.8703L11.3511 3.51577C11.0548 3.33407 10.6459 3.52 10.6459 3.83692Z" fill="#FBFBFB"/>
<path d="M5.54407 2.25016V14.7412C5.54407 14.9842 5.74438 15.1828 5.99269 15.1828H11.8707C12.119 15.1828 12.3193 14.9863 12.3193 14.7412V7.14135C12.3193 6.99768 12.2483 6.86246 12.1273 6.78006L6.24934 1.89098C5.95304 1.68604 5.54407 1.89521 5.54407 2.25227V2.25016Z" fill="#CDD4EE"/>
<path d="M0 0.931807V14.7032C0 14.9694 0.200314 15.1849 0.448621 15.1849H6.3266C6.5749 15.1849 6.77522 14.9694 6.77522 14.7032V6.27303C6.77522 6.11668 6.70427 5.96878 6.58325 5.87793L0.705274 0.536708C0.408975 0.312749 0 0.540934 0 0.931807Z" fill="#EDF0F9"/>
<path d="M36.1296 12.7827V13.1651C35.1322 13.2708 34.3581 13.8962 34.3581 14.961H22.1389V12.7827H25.9595V7.81756H28.4029V12.7827H36.1296ZM34.5626 1.927L34.5459 2.32844L33.5652 10.467H30.9674L31.6038 4.12434H23.1363V1.92911H34.5626V1.927Z" fill="white"/>
<path d="M50.7588 12.7827V13.1651C49.7614 13.2707 48.9872 13.8961 48.9872 14.961H36.7681V12.7827H42.1369V10.5177H44.5803V12.7827H50.7588ZM43.5996 5.11522H38.2996V2.92H42.3268L42.7399 1.22974H45.4254L45.0123 2.92H48.764V3.61723L45.2188 6.75477L49.3315 10.5874V10.8304H46.2329L43.4452 8.33939L40.622 10.8304H37.4379V10.5874L43.5996 5.11522Z" fill="white"/>
<path d="M51.0676 2.30933H57.125V4.47075H53.4422V10.3782L57.4693 9.85634V12.0178L51.3076 12.9411H51.0676V2.30933ZM64.9728 1.24658V1.629C64.232 1.82127 63.9399 2.39596 63.8877 3.4249V16.2498H61.5132V9.03657H60.5846V15.7279H58.2101V1.5952H60.5846V6.66598H61.5132V1.24658H64.9728Z" fill="white"/>
<path d="M79.842 7.08439V7.46681C78.8446 7.57034 78.0705 7.77951 78.0705 8.84437H65.8513V7.08439H71.3245V6.03854H73.7679V7.08439H79.842ZM71.2369 3.42498H67.3829V1.57837H77.8118V2.10024L74.5942 3.84332L78.0705 5.98572V6.31744H74.8696L72.5973 4.93987L70.0496 6.31744H66.6943V5.98572L71.2369 3.42498ZM69.0334 13.8095V14.4898H78.1707V16.2667H66.7444V12.0326H75.504V11.3713H66.7444V9.59443H77.793V13.8116H69.0334V13.8095Z" fill="white"/>
<path d="M149.998 13.1482H146.419V16.7717H149.998V13.1482Z" fill="white"/>
<path d="M91.1743 2.57352V13.2898H83.1868V2.57352H85.747V5.7343H88.6161V2.57352H91.1764H91.1743ZM85.747 8.01404V11.01H88.6161V8.01404H85.747ZM97.094 1.30371V1.70726C96.3136 1.91009 96.0048 2.51647 95.9505 3.60035V17.1119H93.3715V1.30371H97.094Z" fill="white"/>
<path d="M113.357 13.4736V13.9511C112.303 14.061 111.487 14.7793 111.487 15.7702H98.5984V13.4715H113.359L113.357 13.4736ZM105.806 4.33775H100.213V2.02209H111.214V2.75736L107.692 6.39776L111.667 11.1579V11.4157H108.307L105.785 8.3817L102.845 11.4157H99.4852V11.1579L105.803 4.33775H105.806Z" fill="white"/>
<path d="M116.714 2.3897V11.103L122.307 10.4966V12.6834L114.682 13.6215H114.119V2.3897H116.714ZM128.024 1.30582V1.70937C127.243 1.9122 126.935 2.51858 126.88 3.60246V17.114H124.303V1.30371H128.026L128.024 1.30582Z" fill="white"/>
<path d="M144.291 13.4736V13.9511C143.237 14.061 142.421 14.7793 142.421 15.7702H129.532V13.4715H144.293L144.291 13.4736ZM139.227 2.02209V2.24183L138.3 3.73137L142.622 11.1579V11.4157H139.517L136.667 6.39776L133.562 11.4157H130.457V11.177L136.193 2.02209H139.225H139.227Z" fill="white"/>
</svg>
