<svg width="112" height="112" viewBox="0 0 112 112" fill="none" xmlns="http://www.w3.org/2000/svg">
<rect width="112" height="112" rx="24" fill="white"/>
<g clip-path="url(#clip0_1625_43361)">
<path d="M98.8724 81.3521H19.3719C17.6175 81.3521 16.1953 82.7209 16.1953 84.4094V87.3089C16.1953 88.9974 17.6175 90.3662 19.3719 90.3662H98.8724C100.627 90.3662 102.049 88.9974 102.049 87.3089V84.4094C102.049 82.7209 100.627 81.3521 98.8724 81.3521Z" fill="#6C9EFF"/>
<path d="M90.3419 82.1033H27.9028V64.8563C27.9028 63.1812 29.3155 61.8216 31.056 61.8216H87.1887C88.9292 61.8216 90.3419 63.1812 90.3419 64.8563V82.1033Z" fill="#6C9EFF"/>
<path d="M91.5438 69.7089H92.2697C94.0101 69.7089 95.4228 71.0685 95.4228 72.7437V77.9718H88.3984V72.7437C88.3984 71.0685 89.8111 69.7089 91.5516 69.7089H91.5438Z" stroke="#2B2B2B" stroke-width="2" stroke-linecap="round" stroke-linejoin="round"/>
<path d="M28.6831 82.1033H21.6587V76.8751C21.6587 75.2 23.0714 73.8404 24.8119 73.8404H25.5377C27.2782 73.8404 28.6909 75.2 28.6909 76.8751V82.1033H28.6831Z" fill="#6C9EFF"/>
<path d="M48.976 20.507H33.3662V26.5164H48.976V20.507Z" fill="#6C9EFF"/>
<path d="M93.1196 73.8404H93.7986C95.7654 73.8404 97.3576 75.3728 97.3576 77.2657V82.8545H89.5527V77.2657C89.5527 75.3728 91.1449 73.8404 93.1118 73.8404H93.1196Z" fill="#6C9EFF"/>
<path d="M8.78027 95.2488H103.219" stroke="#2B2B2B" stroke-width="2" stroke-linecap="round" stroke-linejoin="round"/>
<path d="M95.7577 77.9718H16.2416C14.276 77.9718 12.6826 79.5054 12.6826 81.3972V84.3117C12.6826 86.2035 14.276 87.7371 16.2416 87.7371H95.7577C97.7233 87.7371 99.3168 86.2035 99.3168 84.3117V81.3972C99.3168 79.5054 97.7233 77.9718 95.7577 77.9718Z" stroke="#2B2B2B" stroke-width="2" stroke-linecap="round" stroke-linejoin="round"/>
<path d="M87.6097 77.9718V60.3643C87.6097 58.4714 86.0175 56.939 84.0506 56.939H27.9492C25.9823 56.939 24.3901 58.4714 24.3901 60.3643V77.9718" stroke="#2B2B2B" stroke-width="2" stroke-linecap="round" stroke-linejoin="round"/>
<path d="M90.7315 87.7371H21.2681V95.2488H90.7315V87.7371Z" stroke="#2B2B2B" stroke-width="2" stroke-linecap="round" stroke-linejoin="round"/>
<path d="M20.144 68.9577H20.823C22.7898 68.9577 24.382 70.4901 24.382 72.3831V77.9718H16.585V72.3831C16.585 70.4901 18.1772 68.9577 20.144 68.9577V68.9577Z" stroke="#2B2B2B" stroke-width="2" stroke-linecap="round" stroke-linejoin="round"/>
<path d="M72.7803 41.1643C72.7803 38.6779 74.8798 36.6573 77.4632 36.6573H90.7315C93.3149 36.6573 95.4144 38.6779 95.4144 41.1643V71.9624" stroke="#2B2B2B" stroke-width="2" stroke-linecap="round" stroke-linejoin="round"/>
<path d="M29.4631 51.3052H53.6582V37.0329H29.4631L29.4631 51.3052Z" stroke="#2B2B2B" stroke-width="2" stroke-linecap="round" stroke-linejoin="round"/>
<path d="M29.4631 31.0235L53.6582 31.0235V16.7512L29.4631 16.7512L29.4631 31.0235Z" stroke="#2B2B2B" stroke-width="2" stroke-linecap="round" stroke-linejoin="round"/>
<path d="M84.0975 16.7512H59.9023V31.0235H84.0975V16.7512Z" stroke="#2B2B2B" stroke-width="2" stroke-linecap="round" stroke-linejoin="round"/>
<path d="M50.5366 74.216C50.5366 74.216 45.8224 77.5962 40 77.5962C34.1775 77.5962 29.4634 74.216 29.4634 74.216C29.4634 74.216 34.1775 70.8357 40 70.8357C45.8224 70.8357 50.5366 74.216 50.5366 74.216Z" stroke="white" stroke-width="2" stroke-linecap="round" stroke-linejoin="round"/>
<path d="M72.7802 41.9155C68.0348 41.9155 64.1948 45.6113 64.1948 50.1784V50.9296H81.3656V50.1784C81.3656 45.6113 77.5256 41.9155 72.7802 41.9155Z" stroke="#2B2B2B" stroke-width="2" stroke-linecap="round" stroke-linejoin="round"/>
</g>
<defs>
<clipPath id="clip0_1625_43361">
<rect width="96" height="80" fill="white" transform="translate(8 16)"/>
</clipPath>
</defs>
</svg>
