<svg width="112" height="112" viewBox="0 0 112 112" fill="none" xmlns="http://www.w3.org/2000/svg">
<rect width="112" height="112" rx="24" fill="white"/>
<g clip-path="url(#clip0_1625_43345)">
<path d="M96.287 28.4277H16.8186C14.3464 28.4277 12.3423 30.4713 12.3423 32.9922V83.4355C12.3423 85.9564 14.3464 88 16.8186 88H96.287C98.7592 88 100.763 85.9564 100.763 83.4355V32.9922C100.763 30.4713 98.7592 28.4277 96.287 28.4277Z" fill="#6C9EFF"/>
<path d="M94.4475 34.8679H36.8159V81.5597H94.4475V34.8679Z" fill="white"/>
<path d="M101.174 47.3942L61.2897 69.4843H52.6055L56.9792 63.3499L97.8581 41.115C99.5634 40.1892 101.679 40.8493 102.587 42.5801C103.487 44.311 102.855 46.4523 101.174 47.3862V47.3942Z" fill="#6C9EFF"/>
<path d="M98.0001 50.566V80.3764C98.0001 83.033 95.8922 85.1824 93.2869 85.1824H13.5027C10.8974 85.1824 8.78955 83.033 8.78955 80.3764V29.6111C8.78955 26.9545 10.8974 24.805 13.5027 24.805H93.2869C95.8922 24.805 98.0001 26.9545 98.0001 29.6111V39.2956" stroke="#2B2B2B" stroke-width="2" stroke-linecap="round" stroke-linejoin="round"/>
<path d="M91.2898 54.1887V78.3396H33.6582V31.6478H91.2898V42.9183" stroke="#2B2B2B" stroke-width="2" stroke-linecap="round" stroke-linejoin="round"/>
<path d="M21.8158 61.434C25.3039 61.434 28.1316 58.5506 28.1316 54.9937C28.1316 51.4369 25.3039 48.5535 21.8158 48.5535C18.3277 48.5535 15.5 51.4369 15.5 54.9937C15.5 58.5506 18.3277 61.434 21.8158 61.434Z" stroke="white" stroke-width="2" stroke-linecap="round" stroke-linejoin="round"/>
<path d="M60.9341 69.8868H52.2104L57.1052 62.6415L97.2578 40.5515C99.2157 39.4727 101.663 40.2214 102.721 42.2179C103.779 44.2143 103.045 46.7099 101.087 47.7887L60.9341 69.8788V69.8868Z" stroke="#2B2B2B" stroke-width="2" stroke-linecap="round" stroke-linejoin="round"/>
<path d="M85.3843 47.3459L88.9211 54.0357" stroke="#2B2B2B" stroke-width="2" stroke-linecap="round" stroke-linejoin="round"/>
<path d="M81.6893 53.6976L76.7788 56.4025" stroke="#2B2B2B" stroke-width="2" stroke-linecap="round" stroke-linejoin="round"/>
<path d="M52.6051 70.2893H39.0894L52.9525 46.3557L60.863 60.0171" stroke="#2B2B2B" stroke-width="2" stroke-linecap="round" stroke-linejoin="round"/>
<path d="M58.8896 55.8149L67.1633 41.5255L73.7318 52.8604" stroke="#2B2B2B" stroke-width="2" stroke-linecap="round" stroke-linejoin="round"/>
</g>
<defs>
<clipPath id="clip0_1625_43345">
<rect width="96" height="64" fill="white" transform="translate(8 24)"/>
</clipPath>
</defs>
</svg>
