<svg width="112" height="112" viewBox="0 0 112 112" fill="none" xmlns="http://www.w3.org/2000/svg">
<rect width="112" height="112" rx="24" fill="white"/>
<g clip-path="url(#clip0_1625_43382)">
<path d="M89.7156 65.1209L77.8291 70.5539C76.4031 71.0972 74.8017 70.7433 73.7262 69.6484L64.9866 58.2308C62.6364 55.1603 59.0514 53.3658 55.2671 53.3658H50.5269C50.0967 56.4281 47.5075 58.7906 44.3685 58.7906C41.2296 58.7906 38.6484 56.4363 38.2102 53.3658H32.8007C25.6466 53.3658 20.3486 60.6263 20.3486 65.1127V96.9947H58.5893V68.0267L68.3725 77.7733C70.906 80.1358 74.0608 80.852 77.2635 79.5843L92.3845 72.3567L89.7156 65.1291V65.1209Z" fill="#6C9EFF"/>
<path d="M51.419 79.716H31.502V94.5334H51.419V79.716Z" fill="white"/>
<path d="M53.4031 15.0794C52.2161 14.8736 51.1007 15.1206 50.1686 15.6803C49.4994 13.1861 47.3006 11.3586 44.6875 11.3586C41.8831 11.3586 39.5568 13.466 39.0868 16.2401C38.067 15.3181 36.6729 14.8242 35.1592 15.0712C33.0878 15.4004 31.4307 17.1703 31.1519 19.3106C30.7615 22.2411 32.809 24.7601 35.4858 25.007V31.148H53.0128V25.007C55.6817 24.7601 57.7212 22.2494 57.3467 19.327C57.0758 17.195 55.4426 15.4334 53.3952 15.0712L53.4031 15.0794Z" fill="#6C9EFF"/>
<path d="M45.8426 33.6176C46.2826 33.6176 46.6393 33.249 46.6393 32.7944C46.6393 32.3397 46.2826 31.9712 45.8426 31.9712C45.4026 31.9712 45.0459 32.3397 45.0459 32.7944C45.0459 33.249 45.4026 33.6176 45.8426 33.6176Z" fill="#2B2B2B"/>
<path d="M37.8758 33.6176C38.3158 33.6176 38.6725 33.249 38.6725 32.7944C38.6725 32.3397 38.3158 31.9712 37.8758 31.9712C37.4358 31.9712 37.0791 32.3397 37.0791 32.7944C37.0791 33.249 37.4358 33.6176 37.8758 33.6176Z" fill="#2B2B2B"/>
<path d="M39.5171 38.6061C39.8198 39.6515 40.8396 40.4253 42.0744 40.4253C43.3093 40.4253 44.329 39.6515 44.6318 38.6061" stroke="#2B2B2B" stroke-width="2" stroke-linecap="round" stroke-linejoin="round"/>
<path d="M8.79688 103.177V98.7563C8.79688 96.6489 10.446 94.9449 12.4855 94.9449H92.7431C94.7826 94.9449 96.4317 96.6489 96.4317 98.7563V103.177" stroke="#2B2B2B" stroke-width="2" stroke-linecap="round" stroke-linejoin="round"/>
<path d="M33.4941 29.09V36.8938C33.4941 41.4131 36.7446 45.3891 41.1024 45.7842C46.0658 46.237 50.2244 42.2034 50.2244 37.1737V29.09" stroke="#2B2B2B" stroke-width="2" stroke-linecap="round" stroke-linejoin="round"/>
<path d="M47.0376 44.7306V50.4929" stroke="#2B2B2B" stroke-width="2" stroke-linecap="round" stroke-linejoin="round"/>
<path d="M36.6807 44.7306V50.4929" stroke="#2B2B2B" stroke-width="2" stroke-linecap="round" stroke-linejoin="round"/>
<path d="M27.1206 93.2986V66.1334" stroke="#2B2B2B" stroke-width="2" stroke-linecap="round" stroke-linejoin="round"/>
<path d="M35.0875 50.4929H31.4865C23.7986 50.4929 17.5605 56.9302 17.5605 64.8822V94.1218" stroke="#2B2B2B" stroke-width="2" stroke-linecap="round" stroke-linejoin="round"/>
<path d="M56.5975 94.1218V65.8535L66.8906 76.5879C68.6593 78.4318 71.3441 78.9504 73.6385 77.8803L92.9022 68.9158C95.1648 67.8456 96.0013 64.9645 94.6868 62.7831C93.5874 60.9638 91.3567 60.2723 89.4686 61.1696L74.3396 67.895C73.2481 68.3807 71.9734 68.035 71.2644 67.0472L63.0028 55.7201C60.6446 52.4356 56.9162 50.4929 52.9567 50.4929H48.6387" stroke="#2B2B2B" stroke-width="2" stroke-linecap="round" stroke-linejoin="round"/>
<path d="M87.1582 62.6925L89.8032 69.0722" stroke="#2B2B2B" stroke-width="2" stroke-linecap="round" stroke-linejoin="round"/>
<path d="M51.0209 28.2668V21.3521C53.0764 20.924 54.606 18.9978 54.5104 16.7258C54.4068 14.3632 52.439 12.4287 50.1525 12.4287C49.1328 12.4287 48.2086 12.8074 47.4677 13.4083C47.0853 10.8153 44.9184 8.82318 42.2973 8.82318C39.4053 8.82318 37.0631 11.2433 37.0631 14.2315C36.2345 13.1038 34.8961 12.3629 33.3824 12.4287C31.1915 12.5275 29.3432 14.3962 29.2158 16.6599C29.0803 18.9648 30.6259 20.9158 32.6973 21.3521V28.2668" stroke="#2B2B2B" stroke-width="2" stroke-linecap="round" stroke-linejoin="round"/>
<path d="M33.0957 27.8553H50.6227" stroke="#2B2B2B" stroke-width="2" stroke-linecap="round" stroke-linejoin="round"/>
<path d="M48.6308 50.8468L36.2822 61.7788V78.8928" stroke="#2B2B2B" stroke-width="2" stroke-linecap="round" stroke-linejoin="round"/>
<path d="M35.1191 50.8468L42.1698 56.3128" stroke="#2B2B2B" stroke-width="2" stroke-linecap="round" stroke-linejoin="round"/>
<path d="M40.2656 63.2523H41.859" stroke="#2B2B2B" stroke-width="2" stroke-linecap="round" stroke-linejoin="round"/>
<path d="M28.3154 79.716H55.4026" stroke="#2B2B2B" stroke-width="2" stroke-linecap="round" stroke-linejoin="round"/>
<path d="M31.5024 80.5392V93.7102" stroke="#2B2B2B" stroke-width="2" stroke-linecap="round" stroke-linejoin="round"/>
<path d="M52.2158 80.5392V93.7102" stroke="#2B2B2B" stroke-width="2" stroke-linecap="round" stroke-linejoin="round"/>
<path d="M76.9131 59.9595H103.204" stroke="#2B2B2B" stroke-width="2" stroke-linecap="round" stroke-linejoin="round"/>
<path d="M102.255 59.194C101.475 53.0283 96.384 48.2538 90.2017 48.2538C84.0195 48.2538 78.9207 53.0201 78.1479 59.194" stroke="#2B2B2B" stroke-width="2" stroke-linecap="round" stroke-linejoin="round"/>
<path d="M90.4565 46.7885V47.6117" stroke="#2B2B2B" stroke-width="2" stroke-linecap="round" stroke-linejoin="round"/>
<path d="M50.6226 32.7944H52.2159C53.5384 32.7944 54.606 33.8974 54.606 35.2639C54.606 36.6304 53.5384 37.7335 52.2159 37.7335H50.6226" stroke="#2B2B2B" stroke-width="2" stroke-linecap="round" stroke-linejoin="round"/>
<path d="M33.0957 32.7944H31.5023C30.1799 32.7944 29.1123 33.8974 29.1123 35.2639C29.1123 36.6304 30.1799 37.7335 31.5023 37.7335H33.0957" stroke="#2B2B2B" stroke-width="2" stroke-linecap="round" stroke-linejoin="round"/>
</g>
<defs>
<clipPath id="clip0_1625_43382">
<rect width="96" height="96" fill="white" transform="translate(8 8)"/>
</clipPath>
</defs>
</svg>
