<svg width="94" height="69" viewBox="0 0 94 69" fill="none" xmlns="http://www.w3.org/2000/svg">
<g filter="url(#filter0_d_5097_106229)">
<path d="M71.1087 42.667C71.6094 40.5492 70.7282 39.0707 69.3062 38.0118C68.0445 37.0728 66.6025 36.2736 65.1404 35.7141C62.1563 34.5753 59.0521 33.8161 55.6273 33.5164C55.4471 34.2556 55.2669 34.9949 55.0866 35.7341C54.626 37.812 54.3456 39.9498 53.6647 41.9278C52.443 45.4242 49.8594 47.622 46.2944 48.6609C42.6494 49.7199 39.2648 48.2614 37.6225 44.8049C34.9188 39.0907 36.7212 34.0958 41.2074 31.1588C42.5293 30.2996 44.0514 29.7202 45.5535 29.1808C46.7952 28.7212 48.117 28.5215 49.6792 28.1219C49.4989 27.3826 49.4788 26.5834 49.0983 26.004C48.2371 24.6654 47.416 23.1869 46.2143 22.2279C39.465 16.8334 31.8745 14.7755 23.3628 17.213C21.4602 17.7524 19.5977 18.4917 18.2158 20.09C17.9754 20.3698 17.1743 20.3698 16.7537 20.2099C16.0527 19.9302 15.8124 19.111 16.1529 18.5516C16.7737 17.5726 17.4948 16.5537 18.396 15.8544C22.1412 12.9773 26.5272 11.8384 31.1736 12.0183C35.9001 12.1981 40.3663 13.4968 44.5521 15.7345C48.9582 18.0921 52.2226 21.4287 53.9049 26.2038C54.1252 26.8232 54.4057 27.4426 54.7662 28.3416C60.414 29.5804 66.4022 30.3396 71.9098 33.8161C72.05 32.4575 72.1101 31.4585 72.2503 30.4795C72.3704 29.6004 72.9312 29.0609 73.7724 28.8212C74.5735 28.6014 75.655 29.2008 75.9754 30.1198C76.2758 30.9989 76.5562 31.898 76.6563 32.8171C77.117 36.7731 77.5375 40.749 77.9581 44.725C77.9982 45.1245 78.0182 45.5241 77.9782 45.9237C77.838 47.4222 76.7765 48.4611 75.2945 48.2414C70.9485 47.582 66.6226 46.8028 62.2966 46.0636C61.9161 46.0036 61.4154 45.9037 61.1951 45.644C60.7945 45.1645 60.3739 44.5851 60.3338 44.0057C60.2938 43.6461 60.8546 43.0067 61.2752 42.8868C62.2765 42.5671 63.338 42.3474 64.3794 42.3474C65.8415 42.3474 67.3034 42.5871 68.7655 42.687C69.5065 42.707 70.2876 42.667 71.1087 42.667ZM50.6405 33.4165C47.396 33.1767 45.0928 33.7561 43.2102 35.1547C40.6667 37.0528 39.9858 40.1096 41.4278 42.9667C42.1688 44.4452 43.4305 45.0446 45.0528 44.665C47.2959 44.1455 48.8379 42.7669 49.6991 40.6691C50.6404 38.4314 50.9209 36.0938 50.6405 33.4165Z" fill="white"/>
</g>
<defs>
<filter id="filter0_d_5097_106229" x="0" y="0" width="94" height="69" filterUnits="userSpaceOnUse" color-interpolation-filters="sRGB">
<feFlood flood-opacity="0" result="BackgroundImageFix"/>
<feColorMatrix in="SourceAlpha" type="matrix" values="0 0 0 0 0 0 0 0 0 0 0 0 0 0 0 0 0 0 127 0" result="hardAlpha"/>
<feOffset dy="4"/>
<feGaussianBlur stdDeviation="8"/>
<feComposite in2="hardAlpha" operator="out"/>
<feColorMatrix type="matrix" values="0 0 0 0 0.4 0 0 0 0 0.4 0 0 0 0 0.4 0 0 0 0.6 0"/>
<feBlend mode="color-burn" in2="BackgroundImageFix" result="effect1_dropShadow_5097_106229"/>
<feBlend mode="normal" in="SourceGraphic" in2="effect1_dropShadow_5097_106229" result="shape"/>
</filter>
</defs>
</svg>
