<?xml version="1.0" encoding="utf-8"?>
<!-- Generator: Adobe Illustrator 27.7.0, SVG Export Plug-In . SVG Version: 6.00 Build 0)  -->
<svg version="1.1" id="레이어_1" xmlns="http://www.w3.org/2000/svg" xmlns:xlink="http://www.w3.org/1999/xlink" x="0px"
	 y="0px" viewBox="0 0 810 810" style="enable-background:new 0 0 810 810;" xml:space="preserve">
<style type="text/css">
	.st0{clip-path:url(#SVGID_00000065766151108962253430000001744995437509766036_);}
	.st1{clip-path:url(#SVGID_00000132049667864339373240000000540839662590434958_);}
	.st2{clip-path:url(#SVGID_00000132049667864339373240000000540839662590434958_);fill:#FFFFFF;}
	.st3{clip-path:url(#SVGID_00000132049667864339373240000000540839662590434958_);fill:#FFE114;}
</style>
<g>
	<g>
		<defs>
			<rect id="SVGID_1_" y="0" width="810" height="810"/>
		</defs>
		<clipPath id="SVGID_00000060747875468066114930000014766370365626519223_">
			<use xlink:href="#SVGID_1_"  style="overflow:visible;"/>
		</clipPath>
		<g style="clip-path:url(#SVGID_00000060747875468066114930000014766370365626519223_);">
			<defs>
				<rect id="SVGID_00000075859315120222610510000009071669326283112086_" x="89.6" y="0" width="631.1" height="810"/>
			</defs>
			<clipPath id="SVGID_00000155825123897681596530000017699427553117367981_">
				<use xlink:href="#SVGID_00000075859315120222610510000009071669326283112086_"  style="overflow:visible;"/>
			</clipPath>
			<path style="clip-path:url(#SVGID_00000155825123897681596530000017699427553117367981_);" d="M432.3,694.9l-1.2,16.2l-31.2,96.1
				h271.7c0,0,3.7-35,3.7-54.9c0-19.9-3.7-46.1-3.7-46.1l-133.4-57.3L432.3,694.9z"/>
			<path style="clip-path:url(#SVGID_00000155825123897681596530000017699427553117367981_);" d="M403.9,804.2h265.2
				c0.9-8.4,3.5-35.6,3.5-52.1c0-16.7-2.7-38.2-3.5-44.1l-130.7-56.2l-103.2,44.9l-1.1,14.5c0,0.2-0.1,0.4-0.1,0.7L403.9,804.2z
				 M671.7,810H399.9c-0.9,0-1.8-0.4-2.3-1.2c-0.5-0.7-0.7-1.7-0.4-2.6l31.1-95.7l1.2-15.9c0.1-1.1,0.7-2,1.7-2.4l105.9-46.1
				c0.7-0.3,1.6-0.3,2.3,0l133.4,57.3c0.9,0.4,1.6,1.2,1.7,2.2c0,0.3,3.8,26.6,3.8,46.5c0,19.9-3.7,54.9-3.8,55.2
				C674.4,808.9,673.1,810,671.7,810z"/>
			<path style="clip-path:url(#SVGID_00000155825123897681596530000017699427553117367981_);fill:#FFFFFF;" d="M478.5,300l-29.9,10
				c0,0-5,7.5-17.5,34.9c-12.5,27.4-66.1,124.6-72.3,134.5c0,0-16.2,27.4-16.2,36.1c0,8.7-3.7,41.1-3.7,41.1l17.5-2.5l11.2,12.5
				l47.4-5l2.5-46.1l6.2-5l-2.5-8.7l47.4-36.1L478.5,300z"/>
			<path style="clip-path:url(#SVGID_00000155825123897681596530000017699427553117367981_);" d="M356.3,551.2
				c0.8,0,1.6,0.3,2.1,0.9l10.2,11.4l43.5-4.6l2.4-43.7c0-0.8,0.4-1.6,1.1-2.1l4.7-3.8l-2-6.9c-0.3-1.1,0.1-2.3,1-3.1l46.3-35.3
				l9.6-160.1l-24.9,8.3c-1.5,2.6-6.7,11.7-16.7,33.7c-12.8,28.1-66.4,125.2-72.5,134.9c-6.1,10.3-15.8,28.8-15.8,34.6
				c0,7.1-2.4,28.9-3.3,37.7l13.8-2C356,551.2,356.2,551.2,356.3,551.2z M367.5,569.4c-0.8,0-1.6-0.3-2.1-0.9l-10.2-11.3l-15.9,2.3
				c-0.9,0.1-1.8-0.2-2.4-0.8c-0.6-0.6-0.9-1.5-0.8-2.4c0-0.3,3.7-32.3,3.7-40.8c0-9.2,14.9-34.7,16.6-37.6
				c6.1-9.7,59.4-106.3,72.2-134.3c12.4-27.3,17.5-35,17.7-35.3c0.4-0.5,0.9-0.9,1.5-1.1l29.9-10c0.9-0.3,1.9-0.1,2.7,0.4
				c0.8,0.6,1.2,1.5,1.1,2.4l-10,165.7c0,0.8-0.5,1.6-1.1,2.1l-45.8,34.9l2,6.8c0.3,1.1-0.1,2.3-1,3l-5.2,4.2l-2.4,44.8
				c-0.1,1.4-1.2,2.5-2.6,2.7l-47.4,5C367.7,569.4,367.6,569.4,367.5,569.4z"/>
			<path style="clip-path:url(#SVGID_00000155825123897681596530000017699427553117367981_);" d="M421.1,504.6
				c-0.9,0-1.8-0.4-2.4-1.3c-9-13.6-30-14.9-30.2-14.9c-1.6-0.1-2.8-1.4-2.7-3c0.1-1.6,1.4-2.8,3-2.7c1,0.1,24,1.5,34.6,17.5
				c0.9,1.3,0.5,3.1-0.8,4C422.2,504.5,421.7,504.6,421.1,504.6z"/>
			<path style="clip-path:url(#SVGID_00000155825123897681596530000017699427553117367981_);" d="M407.4,510.9c-0.8,0-1.6-0.3-2.1-1
				c-7.2-8.1-30.1-4.8-38.3-2.9c-1.5,0.4-3.1-0.6-3.5-2.1c-0.4-1.5,0.6-3.1,2.1-3.5c3.4-0.8,33.1-7.5,43.9,4.6c1.1,1.2,0.9,3-0.2,4
				C408.8,510.6,408.1,510.9,407.4,510.9z"/>
			<path style="clip-path:url(#SVGID_00000155825123897681596530000017699427553117367981_);fill:#FFFFFF;" d="M520.8,257.6
				c0,0-56.1,34.9-72.3,52.3c0,0-6.2,92.2-5,107.1s3.7,90.9,3.7,114.6c0,23.7-15,163.2-15,163.2s33.7,16.2,83.5,21.2
				c49.9,5,139.6-5,155.8-10c0,0,2.5-113.4,7.5-143.3c5-29.9,13.7-252.9,13.7-252.9s-44.9-58.5-71-71
				C595.6,226.5,520.8,257.6,520.8,257.6z"/>
			<path style="clip-path:url(#SVGID_00000155825123897681596530000017699427553117367981_);" d="M435.4,693.1
				c7.6,3.3,38.4,15.9,80.7,20.1c8.9,0.9,19.6,1.3,31.9,1.3c47.7,0,104.9-6.7,120.8-10.7c0.4-16.2,2.8-113.7,7.5-141.5
				c4.7-28.3,13-234.9,13.6-251.5c-5.5-7.1-45.8-58.1-69.4-69.3c-3.7-1.8-8.9-2.7-15.3-2.7c-30.5,0-79.4,19.8-83.1,21.3
				c-3.6,2.3-54.7,34.3-70.8,51c-0.7,10.2-6.1,91.9-4.9,105.7c1.3,15.1,3.7,91.3,3.7,114.8C450.2,553.9,437.3,675.1,435.4,693.1z
				 M548,720.3C548,720.3,548,720.3,548,720.3c-12.4,0-23.3-0.5-32.4-1.4c-49.8-5-83.1-20.8-84.5-21.4c-1.1-0.5-1.7-1.7-1.6-2.9
				c0.1-1.4,14.9-139.6,14.9-162.9c0-23.4-2.5-99.3-3.7-114.4c-1.2-15,4.7-103.8,5-107.6c0-0.7,0.3-1.3,0.8-1.8
				c16.3-17.5,70.6-51.4,72.9-52.8c0.1-0.1,0.3-0.2,0.4-0.2c2.1-0.9,52.8-21.8,85.5-21.8c7.3,0,13.3,1.1,17.8,3.2
				c26.5,12.6,70.2,69.4,72.1,71.9c0.4,0.5,0.6,1.2,0.6,1.9c-0.4,9.1-8.8,223.5-13.7,253.2c-4.9,29.4-7.4,141.7-7.4,142.8
				c0,1.2-0.8,2.3-2,2.7C659.8,712.7,598.4,720.3,548,720.3z"/>
			<path style="clip-path:url(#SVGID_00000155825123897681596530000017699427553117367981_);" d="M503.3,539.6c-0.9,0-1.8,0-2.6-0.1
				c-19.1-1.3-41.3-12.3-42.2-12.8c-1.4-0.7-2-2.4-1.3-3.8c0.7-1.4,2.4-2,3.8-1.3c0.2,0.1,22.2,11,40,12.2
				c18.1,1.2,83.3-13.5,83.9-13.6c1.5-0.4,3.1,0.6,3.4,2.2c0.3,1.5-0.6,3.1-2.2,3.4C583.7,526.3,524.9,539.6,503.3,539.6z"/>
			<path style="clip-path:url(#SVGID_00000155825123897681596530000017699427553117367981_);fill:#FFE114;" d="M518.4,331.1
				l-6.2,18.7c0,0-11.2,98.4-17.5,122.1c-6.2,23.7-43.6,204.3-43.6,204.3l18.7,36.1l34.9-29.9c0,0,8.7-161.9,10-209.3
				c1.2-47.3,11.2-120.8,11.2-120.8L518.4,331.1z"/>
			<path style="clip-path:url(#SVGID_00000155825123897681596530000017699427553117367981_);" d="M454.1,675.8l16.6,32l31.2-26.7
				c0.8-15.1,8.7-163.4,9.9-208c1.2-44.5,10.1-112.9,11.2-120.5l-4.5-12.7l-3.5,10.5c-0.8,7.1-11.4,99-17.5,122.2
				C491.5,495,457.1,661.3,454.1,675.8z M469.7,715.2c-0.2,0-0.4,0-0.5-0.1c-0.9-0.2-1.6-0.7-2-1.5l-18.7-36.1
				c-0.3-0.6-0.4-1.3-0.3-1.9c1.5-7.4,37.5-181,43.7-204.4c6.1-23.2,17.3-120.7,17.4-121.7c0-0.2,0.1-0.4,0.1-0.6l6.2-18.7
				c0.4-1.2,1.5-1.9,2.7-2c0,0,0,0,0,0c1.2,0,2.3,0.8,2.7,1.9l7.5,21.2c0.2,0.4,0.2,0.9,0.1,1.3c-0.1,0.7-10,73.9-11.2,120.5
				c-1.2,46.8-9.9,207.7-10,209.4c0,0.8-0.4,1.5-1,2l-34.9,29.9C471.1,714.9,470.4,715.2,469.7,715.2z"/>
			<polygon style="clip-path:url(#SVGID_00000155825123897681596530000017699427553117367981_);fill:#FFE114;" points="507.1,311.2 
				512.1,349.8 525.8,352.3 534.6,319.9 528.3,297.5 			"/>
			<path style="clip-path:url(#SVGID_00000155825123897681596530000017699427553117367981_);" d="M514.7,347.4l9.1,1.6l7.8-29.1
				l-5-17.9l-16.4,10.6L514.7,347.4z M525.8,355.2c-0.2,0-0.3,0-0.5,0l-13.7-2.5c-1.2-0.2-2.2-1.2-2.3-2.5l-5-38.6
				c-0.1-1.1,0.4-2.2,1.3-2.8l21.2-13.7c0.8-0.5,1.7-0.6,2.6-0.3c0.9,0.3,1.5,1,1.7,1.9l6.2,22.4c0.1,0.5,0.1,1,0,1.5l-8.7,32.4
				C528.3,354.3,527.1,355.2,525.8,355.2z"/>
			<polygon style="clip-path:url(#SVGID_00000155825123897681596530000017699427553117367981_);fill:#FFFFFF;" points="487.2,616 
				512.1,603.5 326,572.8 220.5,596 303.6,652.5 			"/>
			<path style="clip-path:url(#SVGID_00000155825123897681596530000017699427553117367981_);" d="M227.6,597.4l76.6,52.1l182.1-36.2
				l16.7-8.3l-176.9-29.2L227.6,597.4z M303.6,655.4c-0.6,0-1.1-0.2-1.6-0.5l-83.1-56.5c-0.9-0.6-1.4-1.8-1.2-2.9
				c0.2-1.1,1.1-2,2.2-2.3L325.4,570c0.4-0.1,0.7-0.1,1.1,0l186.1,30.7c1.2,0.2,2.2,1.2,2.4,2.4c0.2,1.2-0.4,2.4-1.6,3l-24.9,12.5
				c-0.2,0.1-0.5,0.2-0.7,0.2l-183.6,36.5C303.9,655.4,303.7,655.4,303.6,655.4z"/>
			<polygon style="clip-path:url(#SVGID_00000155825123897681596530000017699427553117367981_);" points="315.2,660 513.8,612.6 
				512.1,603.5 303.6,652.5 			"/>
			<path style="clip-path:url(#SVGID_00000155825123897681596530000017699427553117367981_);" d="M310.8,653.8l4.9,3.2l194.8-46.4
				l-0.6-3.5L310.8,653.8z M315.2,662.8c-0.5,0-1.1-0.2-1.6-0.5l-11.6-7.5c-1-0.6-1.5-1.8-1.3-2.9c0.2-1.1,1-2,2.2-2.3l208.6-49
				c0.8-0.2,1.6,0,2.2,0.4c0.7,0.4,1.1,1.1,1.2,1.9l1.7,9.1c0.3,1.5-0.7,2.9-2.2,3.3l-198.6,47.3
				C315.6,662.8,315.4,662.8,315.2,662.8z"/>
			<polygon style="clip-path:url(#SVGID_00000155825123897681596530000017699427553117367981_);fill:#FFE114;" points="251.2,464.8 
				99.1,449 92.5,454 169.8,630.1 318.5,660 316.8,643.4 			"/>
			<path style="clip-path:url(#SVGID_00000155825123897681596530000017699427553117367981_);" d="M171.8,627.6l143.5,28.8L314,644
				l-64.9-176.5L100,452L96,455L171.8,627.6z M318.5,662.8c-0.2,0-0.4,0-0.6-0.1l-148.7-29.9c-0.9-0.2-1.7-0.8-2.1-1.7L89.9,455.2
				c-0.5-1.2-0.2-2.6,0.9-3.4l6.6-5c0.6-0.4,1.3-0.6,2-0.6L251.5,462c1.1,0.1,2,0.8,2.4,1.9l65.6,178.6c0.1,0.2,0.1,0.5,0.2,0.7
				l1.7,16.6c0.1,0.9-0.3,1.8-0.9,2.4C319.9,662.6,319.2,662.8,318.5,662.8z"/>
			<polygon style="clip-path:url(#SVGID_00000155825123897681596530000017699427553117367981_);" points="326.8,657.5 252,468.1 
				242.9,469.8 318.5,660 			"/>
			<path style="clip-path:url(#SVGID_00000155825123897681596530000017699427553117367981_);" d="M246.8,472l73.4,184.5l2.8-0.8
				l-72.8-184.3L246.8,472z M318.5,662.8c-1.1,0-2.2-0.7-2.7-1.8l-75.6-190.2c-0.3-0.8-0.3-1.7,0.2-2.4c0.4-0.8,1.1-1.3,2-1.4
				l9.1-1.7c1.4-0.3,2.7,0.5,3.2,1.8l74.8,189.3c0.3,0.7,0.3,1.6-0.1,2.3c-0.3,0.7-1,1.3-1.8,1.5l-8.3,2.5
				C319.1,662.8,318.8,662.8,318.5,662.8z"/>
			<path style="clip-path:url(#SVGID_00000155825123897681596530000017699427553117367981_);fill:#FFFFFF;" d="M399.1,529.6
				c0,0-9.1-9.1-15.8-7.5c-6.6,1.7-18.3,14.9-22.4,17.4c-4.2,2.5-29.1,21.6-29.1,21.6s2.5,30.7,6.6,38.2l15.8-6.6
				c0,0,12.5-3.3,20.8-8.3l17.5-7.5l7.5-13.3c0,0,16.6,15.8,24.1,18.3c7.5,2.5,16.6,0,21.6-6.6c0,0-16.6-8.3-21.6-10.8
				S406.6,536.2,399.1,529.6z"/>
			<path style="clip-path:url(#SVGID_00000155825123897681596530000017699427553117367981_);" d="M334.8,562.5
				c0.7,8.3,2.7,25.6,5.2,33.1l13.1-5.5c0.1-0.1,0.2-0.1,0.4-0.1c0.1,0,12.2-3.3,20-8c0.1-0.1,0.2-0.1,0.3-0.2l16.6-7.1l7-12.4
				c0.4-0.8,1.2-1.3,2.1-1.4c0.9-0.1,1.8,0.1,2.4,0.8c4.5,4.3,17.4,15.8,23,17.6c1.6,0.5,3.3,0.8,5.1,0.8c4.1,0,8-1.4,10.9-3.9
				l-18.2-9.1c-3.1-1.5-6.7-7.2-12.8-17.1c-4.4-7.1-9.4-15.2-12.8-18.2c-2-2-7.9-7-12.2-7c-0.4,0-0.7,0-1,0.1
				c-3.6,0.9-9.9,6.7-14.5,11c-3,2.8-5.4,5.1-7.2,6.1C359.3,543.9,342.5,556.6,334.8,562.5z M338.5,602.2c-1,0-2-0.5-2.5-1.5
				c-4.3-7.8-6.7-36.2-7-39.4c-0.1-1,0.3-1.9,1.1-2.5c1-0.8,25.1-19.2,29.4-21.8c1.2-0.7,3.6-3,6.2-5.4c5.6-5.2,12-11.1,17-12.4
				c0.8-0.2,1.6-0.3,2.4-0.3c7.4,0,15.2,7.6,16.1,8.5c3.9,3.5,8.9,11.6,13.7,19.4c3.6,5.9,8.6,14,10.4,14.9l21.6,10.8
				c0.8,0.4,1.3,1.1,1.5,1.9c0.2,0.8,0,1.7-0.5,2.4c-4.1,5.5-10.8,8.7-17.9,8.7c-2.4,0-4.7-0.4-6.9-1.1
				c-6.2-2.1-17.3-11.7-22.5-16.4l-5.7,10.1c-0.3,0.5-0.8,1-1.4,1.2l-17.3,7.4c-8.1,4.8-19.5,8-21.1,8.5l-15.6,6.6
				C339.2,602.2,338.8,602.2,338.5,602.2z"/>
			<path style="clip-path:url(#SVGID_00000155825123897681596530000017699427553117367981_);" d="M350.1,596.4
				c-0.9,0-1.9-0.5-2.4-1.3c-1.8-2.7-3.6-15.4-4.6-22.8c-0.2-1.6,0.9-3,2.5-3.2c1.6-0.2,3,0.9,3.2,2.5c1.1,8.6,2.9,18.8,3.7,20.4
				c0.9,1.3,0.5,3.1-0.8,3.9C351.2,596.3,350.7,596.4,350.1,596.4z"/>
			<path style="clip-path:url(#SVGID_00000155825123897681596530000017699427553117367981_);" d="M365,588.1c-1.3,0-2.5-0.9-2.8-2.3
				c-0.8-4.1-4-21.7-4.2-22.5c-0.3-1.6,0.8-3,2.3-3.3c1.6-0.3,3,0.7,3.3,2.3c0,0.2,3.3,18.3,4.1,22.4c0.3,1.6-0.7,3.1-2.2,3.4
				C365.4,588.1,365.2,588.1,365,588.1z"/>
			<path style="clip-path:url(#SVGID_00000155825123897681596530000017699427553117367981_);fill:#FFFFFF;" d="M377.5,552.9
				c0,0,9.1,47.3,10.8,64.8c0,0,8.3-2.5,10.8-7.5c2.5-5-4.2-59.8-4.2-59.8"/>
			<path style="clip-path:url(#SVGID_00000155825123897681596530000017699427553117367981_);" d="M388.3,620.5
				c-0.6,0-1.1-0.2-1.6-0.5c-0.7-0.5-1.2-1.3-1.3-2.1c-1.6-17.1-10.7-64-10.8-64.5c-0.3-1.6,0.7-3.1,2.3-3.4
				c1.5-0.3,3.1,0.7,3.4,2.3c0.3,1.8,8.1,41.8,10.4,61.3c2.2-1.1,4.8-2.7,5.8-4.7c1.2-3.5-1.3-32.3-4.4-58.2c-0.2-1.6,0.9-3,2.5-3.2
				c1.6-0.2,3,0.9,3.2,2.5c2,16.7,6.5,56.2,3.9,61.4c-3,5.9-11.6,8.6-12.5,8.9C388.9,620.5,388.6,620.5,388.3,620.5z"/>
			<path style="clip-path:url(#SVGID_00000155825123897681596530000017699427553117367981_);fill:#FFFFFF;" d="M321.8,661.6
				l-37.4,0.8c0,0-10-8.3-18.3-14.1c-8.3-5.8-20.8-10-20.8-10l-6.6,7.5c0,0,57.3,51.5,61.5,52.3c4.2,0.8,62.3-14.1,62.3-14.1
				l41.5-4.2l-6.6-28.2l-41.5,5.8C355.9,657.5,337.6,653.3,321.8,661.6z"/>
			<path style="clip-path:url(#SVGID_00000155825123897681596530000017699427553117367981_);" d="M242.8,645.6
				c21,18.8,53.2,47.1,58.1,49.7c5.4-0.2,39.2-8.5,61-14.1c0.1,0,0.3-0.1,0.4-0.1l38.3-3.8l-5.3-22.5l-39,5.5c-0.3,0-0.7,0-1,0
				c0,0-4.4-1-10.5-1c-5.6,0-14,0.8-21.6,4.9c-0.4,0.2-0.8,0.3-1.3,0.3l-37.4,0.8c-0.7,0-1.4-0.2-1.9-0.7c-0.1-0.1-10-8.3-18.1-14
				c-6.1-4.2-14.6-7.6-18.3-9L242.8,645.6z M300.7,701.1c-0.4,0-0.8,0-1-0.1c-4.1-0.8-36.4-29.3-62.8-53c-1.2-1.1-1.3-2.9-0.2-4
				l6.6-7.5c0.8-0.9,2-1.2,3-0.8c0.5,0.2,13,4.4,21.5,10.3c7,4.9,15.1,11.5,17.6,13.6l35.7-0.8c8.5-4.3,17.5-5.2,23.7-5.2
				c5.6,0,9.8,0.7,11.2,1l41.1-5.7c1.5-0.2,2.8,0.7,3.2,2.2l6.6,28.2c0.2,0.8,0,1.6-0.5,2.3c-0.5,0.7-1.2,1.1-2,1.2l-41.3,4.1
				C356.5,688.6,307.6,701.1,300.7,701.1z"/>
			<path style="clip-path:url(#SVGID_00000155825123897681596530000017699427553117367981_);fill:#FFFFFF;" d="M365.9,665.8
				c0,0-12.5-11.6-19.9-13.3c-7.5-1.7-29.9,1.7-29.9,1.7s-15-10.8-22.4-12.5c-7.5-1.7-10.8-2.5-15,5l34.9,23.3l34.9,9.1"/>
			<path style="clip-path:url(#SVGID_00000155825123897681596530000017699427553117367981_);" d="M348.4,682c-0.2,0-0.5,0-0.7-0.1
				l-34.9-9.1c-0.3-0.1-0.6-0.2-0.9-0.4L277,649.1c-1.2-0.8-1.6-2.5-0.9-3.8c5.2-9.3,10.5-8.1,17.9-6.4c7.2,1.6,19.1,9.7,22.8,12.3
				c5.1-0.7,22.8-3,29.8-1.5c8,1.8,19.9,12.7,21.3,14c1.2,1.1,1.2,2.9,0.1,4c-1.1,1.2-2.9,1.2-4.1,0.1c-3.3-3.1-13.1-11.4-18.6-12.6
				c-5.7-1.3-22.8,0.8-28.9,1.7c-0.7,0.1-1.5-0.1-2.1-0.5c-4-2.9-15.7-10.7-21.4-12c-6.3-1.4-8.2-1.8-10.4,1.3l32.2,21.5l34.4,9
				c1.5,0.4,2.4,2,2,3.5C350.9,681.1,349.7,682,348.4,682z"/>
			<path style="clip-path:url(#SVGID_00000155825123897681596530000017699427553117367981_);" d="M639.3,336.5
				c-0.9,0-1.8-0.4-2.3-1.2c-0.9-1.3-0.7-3.1,0.6-4c13.7-9.9,42.6-26.8,43.9-27.6c1.4-0.8,3.1-0.3,3.9,1c0.8,1.4,0.3,3.1-1,3.9
				c-0.3,0.2-29.9,17.5-43.4,27.2C640.4,336.3,639.8,336.5,639.3,336.5z"/>
			<path style="clip-path:url(#SVGID_00000155825123897681596530000017699427553117367981_);fill:#FFFFFF;" d="M625.5,373.5
				c0,0-34.9,180.6-39.9,204.3l-8.7,2.5l-8.7,12.5c0,0-51.1,14.9-72.3,23.7s-117.2,32.4-117.2,32.4s3.7,33.6,6.2,46.1
				c0,0,206.9-38.6,255.5-57.3c0,0,16.2-11.2,22.4-24.9c6.2-13.7,53.6-203.1,54.8-230.5c1.2-27.4-10-59.8-24.9-72.3"/>
			<path style="clip-path:url(#SVGID_00000155825123897681596530000017699427553117367981_);" d="M385,697.7c-1.3,0-2.5-0.9-2.8-2.3
				c-2.5-12.4-6.1-45-6.3-46.3c-0.2-1.4,0.8-2.8,2.2-3.1c1-0.2,96-23.7,116.8-32.3c19.7-8.1,64.3-21.3,71.6-23.5l8.1-11.6
				c0.4-0.5,0.9-0.9,1.6-1.1l7.1-2c6-29.2,39.2-200.8,39.5-202.6c0.3-1.6,1.8-2.6,3.4-2.3c1.6,0.3,2.6,1.8,2.3,3.4
				c-0.3,1.8-35,180.9-39.9,204.3c-0.2,1-1,1.9-2,2.2l-7.7,2.2l-8.1,11.6c-0.4,0.5-0.9,0.9-1.5,1.1c-0.5,0.1-51.2,15-72,23.6
				c-19.5,8-99.7,28.1-115.1,31.9c0.8,7.4,3.4,29.1,5.4,40.6c24.9-4.7,206.6-39.3,251.9-56.5c2.1-1.5,15.8-11.7,21.2-23.6
				c5.5-12,53.3-201,54.6-229.4c1.2-26.6-9.5-57.9-23.9-69.9c-1.2-1-1.4-2.8-0.4-4c1-1.2,2.8-1.4,4-0.4c15.6,13,27.2,46.4,26,74.6
				c-1.3,28.6-49.6,219.4-55.1,231.5c-6.5,14.3-22.7,25.6-23.4,26.1c-0.2,0.1-0.4,0.2-0.6,0.3c-48.3,18.6-247.6,55.9-256,57.4
				C385.3,697.7,385.2,697.7,385,697.7z"/>
			<path style="clip-path:url(#SVGID_00000155825123897681596530000017699427553117367981_);" d="M594.4,616.8
				c-0.6,0-1.3-0.2-1.8-0.6l-26.2-21.2c-1.2-1-1.4-2.8-0.4-4c1-1.2,2.8-1.4,4-0.4l26.2,21.2c1.2,1,1.4,2.8,0.4,4
				C596.1,616.4,595.2,616.8,594.4,616.8z"/>
			<path style="clip-path:url(#SVGID_00000155825123897681596530000017699427553117367981_);" d="M611.8,595.6c-0.2,0-0.4,0-0.7-0.1
				l-26.2-6.2c-1.5-0.4-2.5-1.9-2.1-3.5c0.4-1.5,1.9-2.5,3.5-2.1l26.2,6.2c1.5,0.4,2.5,1.9,2.1,3.5
				C614.3,594.7,613.1,595.6,611.8,595.6z"/>
			<path style="clip-path:url(#SVGID_00000155825123897681596530000017699427553117367981_);" d="M518.4,590.6c-1,0-2-0.5-2.5-1.5
				c-0.8-1.4-0.3-3.1,1.1-3.9c0.3-0.2,31.3-17.6,55.7-37.1c1.2-1,3-0.8,4,0.4c1,1.2,0.8,3-0.4,4c-24.8,19.8-56.2,37.5-56.5,37.6
				C519.3,590.5,518.8,590.6,518.4,590.6z"/>
			<path style="clip-path:url(#SVGID_00000155825123897681596530000017699427553117367981_);" d="M619.3,232.7
				c0,0-46.1,134.5-56.1,179.4c-10,44.8-54.8,133.3-54.8,133.3l11.2,1.2c0,0,32.4-54.8,53.6-130.8c21.2-76,57.1-173.8,57.1-173.8
				L619.3,232.7z"/>
			<path style="clip-path:url(#SVGID_00000155825123897681596530000017699427553117367981_);" d="M509.8,277.6
				c-4.1,3.7-8,7.8-11.9,11.9c-3.6,21.4-9.4,55.9-14.9,86.5c-8.7,48.6-0.8,160.7-0.8,160.7l6.2-2.5c0,0-2.1-105.9,0.4-147
				C490.7,356.4,503.5,302.8,509.8,277.6z"/>
			<path style="clip-path:url(#SVGID_00000155825123897681596530000017699427553117367981_);fill:#FFFFFF;" d="M520.8,257.6
				l-24.9,29.9c0,0-1.2,41.1-1.2,52.3c0,0,13.7-21.2,23.7-28.7c10-7.5,21.2-34.9,21.2-34.9L520.8,257.6z"/>
			<path style="clip-path:url(#SVGID_00000155825123897681596530000017699427553117367981_);" d="M498.8,288.6
				c-0.1,5-0.8,27.5-1.1,41.8c5-7,12.6-16.8,19-21.5c7.1-5.3,15.9-23.4,19.5-31.9L521,261.9L498.8,288.6z M494.7,342.7
				c-0.3,0-0.5,0-0.8-0.1c-1.2-0.4-2.1-1.5-2.1-2.7c0-11.1,1.2-52,1.2-52.4c0-0.6,0.3-1.3,0.7-1.7l24.9-29.9c0.5-0.6,1.3-1,2.1-1
				c0.8,0,1.6,0.3,2.2,0.8l18.7,18.7c0.8,0.8,1.1,2,0.6,3.1c-0.5,1.1-11.6,28.2-22.1,36.1c-9.5,7.1-22.9,27.7-23,27.9
				C496.5,342.2,495.6,342.7,494.7,342.7z"/>
			<path style="clip-path:url(#SVGID_00000155825123897681596530000017699427553117367981_);fill:#FFFFFF;" d="M518.4,311.2
				c0,0,17.5,19.9,23.7,34.9c0,0,32.4-26.2,48.6-49.8c16.2-23.7,31.2-57.3,31.2-57.3l-24.9-28.7L547,261.4L518.4,311.2z"/>
			<path style="clip-path:url(#SVGID_00000155825123897681596530000017699427553117367981_);" d="M521.8,310.9
				c3.9,4.6,15.2,18.4,21.2,30.6c8.2-6.9,32.2-27.9,45.2-46.9c13.8-20.2,26.9-48.2,30.2-55.2l-21.7-24.9l-47.4,48.6L521.8,310.9z
				 M542,348.9c-0.2,0-0.5,0-0.7-0.1c-0.9-0.2-1.6-0.8-1.9-1.7c-6-14.3-23-33.9-23.2-34.1c-0.8-0.9-0.9-2.3-0.3-3.3l28.7-49.8
				c0.1-0.2,0.3-0.4,0.4-0.6l49.9-51.1c0.6-0.6,1.3-0.9,2.1-0.9c0.8,0,1.6,0.4,2.1,1l24.9,28.7c0.7,0.8,0.9,2,0.5,3
				c-0.2,0.3-15.2,34.1-31.4,57.8c-16.3,23.7-47.8,49.4-49.2,50.4C543.3,348.7,542.7,348.9,542,348.9z"/>
			<path style="clip-path:url(#SVGID_00000155825123897681596530000017699427553117367981_);" d="M598.5,101.1c0,0,7.5,54-1.7,69.8
				c-9.1,15.8-22.4,23.3-22.4,23.3l-38.2-39.9l-6.6-45.7l25.8-28.2L598.5,101.1z"/>
			<path style="clip-path:url(#SVGID_00000155825123897681596530000017699427553117367981_);" d="M538.9,152.9l36,37.5
				c3.8-2.6,12.9-9.6,19.5-21c6.9-11.8,3.6-50.6,1.5-66.4L556,83.8l-23.4,25.7L538.9,152.9z M574.4,196.9c-0.8,0-1.5-0.3-2.1-0.9
				l-38.2-39.9c-0.4-0.4-0.7-1-0.8-1.6l-6.6-45.7c-0.1-0.8,0.1-1.7,0.7-2.3l25.8-28.2c0.9-0.9,2.2-1.2,3.4-0.7l43.2,20.8
				c0.9,0.4,1.5,1.2,1.6,2.2c0.3,2.2,7.5,55.1-2,71.6c-9.4,16.3-22.9,24-23.5,24.3C575.4,196.8,574.9,196.9,574.4,196.9z"/>
			<path style="clip-path:url(#SVGID_00000155825123897681596530000017699427553117367981_);fill:#FFFFFF;" d="M512.1,247.2
				l6.6,33.2l-3.3,35.7c0,0,15.8-10,23.3-17.4c7.5-7.5,52.4-58.1,59.8-78.9c0,0-14.1-41.5-17.5-54.8c-3.3-13.3-54,14.1-54,14.1
				L512.1,247.2z"/>
			<path style="clip-path:url(#SVGID_00000155825123897681596530000017699427553117367981_);" d="M515.1,247.3l6.5,32.6
				c0.1,0.3,0.1,0.6,0,0.8l-2.8,29.8c5.2-3.5,13.2-9.2,17.8-13.8c6.6-6.6,50.5-55.9,58.8-76.9c-2.2-6.5-14.1-41.8-17.2-54.1
				c-0.1-0.4-0.4-1.5-3.8-1.5c-12.2,0-39,13.7-44.9,16.8L515.1,247.3z M515.4,319c-0.5,0-1-0.1-1.5-0.4c-0.9-0.6-1.5-1.6-1.4-2.7
				l3.3-35.3l-6.6-32.8c-0.1-0.4-0.1-0.8,0-1.2l15-68.1c0.2-0.8,0.7-1.5,1.4-1.9c1.4-0.7,33.6-18.1,48.7-18.1c6.9,0,8.9,3.6,9.4,5.8
				c3.3,13,17.2,54.2,17.4,54.6c0.2,0.6,0.2,1.3,0,1.9c-7.8,21.7-53.4,72.9-60.5,79.9c-7.6,7.6-23.1,17.4-23.8,17.8
				C516.5,318.9,516,319,515.4,319z"/>
			<path style="clip-path:url(#SVGID_00000155825123897681596530000017699427553117367981_);fill:#FFFFFF;" d="M578.6,182.5
				c-4.2-19.1-34.1-98-34.1-98l-67.3,6.6L434,131c0,0-1.7,28.2,12.5,59c14.1,30.7,37.4,71.4,57.3,70.6c19.9-0.8,35.7-1.7,54-17.4"/>
			<path style="clip-path:url(#SVGID_00000155825123897681596530000017699427553117367981_);" d="M503.2,263.4
				c-22.7,0-46.9-45.2-59.4-72.3c-14.3-31-12.8-59.1-12.7-60.3c0-0.7,0.4-1.4,0.9-1.9L475.3,89c0.5-0.4,1-0.7,1.7-0.7l67.3-6.6
				c1.3-0.1,2.5,0.6,3,1.8c1.2,3.2,30,79.3,34.2,98.4c0.3,1.5-0.6,3.1-2.2,3.4c-1.5,0.3-3.1-0.6-3.4-2.2c-3.7-17-28.4-83-33.2-95.5
				l-64.2,6.3l-41.6,38.4c-0.1,5.5,0.2,30.2,12.2,56.5c20.1,43.7,40.6,69.5,54.6,68.9c19.3-0.8,34.5-1.4,52.3-16.7
				c1.2-1,3-0.9,4,0.3c1,1.2,0.9,3-0.3,4c-19.2,16.6-36.2,17.3-55.8,18.1C503.7,263.4,503.5,263.4,503.2,263.4z"/>
			<path style="clip-path:url(#SVGID_00000155825123897681596530000017699427553117367981_);fill:#FFFFFF;" d="M565.3,156.7
				c0,0,0-19.1,12.5-21.6c12.5-2.5,17.4,5.8,18.3,21.6c0.8,15.8-5,29.1-20.8,29.1"/>
			<path style="clip-path:url(#SVGID_00000155825123897681596530000017699427553117367981_);" d="M575.3,188.6
				c-1.6,0-2.9-1.3-2.9-2.9s1.3-2.9,2.9-2.9c5.1,0,9.2-1.6,12.2-4.7c4.2-4.4,6.2-12,5.7-21.3c-0.5-9.1-2.4-15-5.7-17.6
				c-2.2-1.7-5.2-2.1-9.1-1.3c-10,2-10.2,18.6-10.2,18.8c0,1.6-1.3,2.9-2.9,2.9c0,0,0,0,0,0c-1.6,0-2.9-1.3-2.9-2.9
				c0-0.9,0.2-21.5,14.8-24.4c5.6-1.1,10.3-0.3,13.8,2.4c4.8,3.7,7.3,10.7,7.9,21.8c0.6,11.1-1.9,20-7.3,25.6
				C587.6,186.5,582,188.6,575.3,188.6z"/>
			<path style="clip-path:url(#SVGID_00000155825123897681596530000017699427553117367981_);" d="M523.8,125.2c0,0,6.6,20.8,15,22.4
				s12.5,2.5,12.5,2.5l7.5,34l9.1-6.6c0,0-1.7-19.1-1.7-24.9l2.5-46.5L523.8,125.2z"/>
			<path style="clip-path:url(#SVGID_00000155825123897681596530000017699427553117367981_);" d="M527.3,126.7
				c2.8,7.7,7.8,17.2,11.9,18l12.5,2.5c1.1,0.2,2,1.1,2.2,2.2l6.5,29.8l4.3-3.1c-0.4-4.8-1.5-18.6-1.5-23.5l2.3-42.1L527.3,126.7z
				 M558.7,187c-0.3,0-0.7-0.1-1-0.2c-0.9-0.3-1.6-1.1-1.8-2.1l-7.1-32.2l-10.6-2.1c-9.5-1.9-15.9-20.6-17.1-24.4
				c-0.5-1.4,0.2-2.9,1.6-3.5l44.9-19.1c0.9-0.4,2-0.3,2.8,0.3c0.8,0.6,1.3,1.5,1.2,2.5l-2.5,46.5c0,5.5,1.6,24.3,1.7,24.5
				c0.1,1-0.4,2-1.2,2.6l-9.1,6.6C559.8,186.8,559.3,187,558.7,187z"/>
			<path style="clip-path:url(#SVGID_00000155825123897681596530000017699427553117367981_);fill:#FFFFFF;" d="M550.3,93.6
				c0,0,12.5,83.9,12.5,98.8s-16.6,58.1-29.9,63.9c0,0,11.6-2.5,20.8-9.1c9.1-6.6,20.8-42.4,19.1-69.8c-1.7-27.4-10.8-82.2-11.6-88
				C560.3,83.6,550.3,93.6,550.3,93.6z"/>
			<path style="clip-path:url(#SVGID_00000155825123897681596530000017699427553117367981_);" d="M553.4,94.6
				c1.7,11.6,12.3,83.7,12.3,97.8c0,11.8-10.1,41.2-21.4,57c2.6-1.2,5.3-2.7,7.7-4.5c7.9-5.8,19.6-40.5,17.9-67.3
				c-1.4-23.1-8.2-65.9-10.7-82c-0.3-2.1-0.6-3.8-0.8-4.9C557.2,91.5,555.2,93,553.4,94.6z M532.9,259.2c-1.2,0-2.3-0.8-2.7-2
				c-0.5-1.4,0.2-2.9,1.6-3.5c11.5-5,28.2-46.7,28.2-61.3c0-14.6-12.3-97.6-12.4-98.4c-0.1-0.9,0.2-1.8,0.8-2.4
				c2-2.1,7.2-6.8,11.1-6.8c1.9,0,4.1,1.1,4.6,4.3c0.1,0.9,0.4,2.9,0.9,5.8c2.6,16.2,9.3,59.1,10.8,82.5
				c1.7,27.9-10.2,64.9-20.3,72.3c-9.5,6.9-21.4,9.5-21.9,9.6C533.3,259.2,533.1,259.2,532.9,259.2z"/>
			<path style="clip-path:url(#SVGID_00000155825123897681596530000017699427553117367981_);" d="M484.6,231c-4,0-9-1-13.4-4.9
				c-7.4-6.6-3.3-12.2-0.6-16c1-1.3,1.9-2.6,2.4-3.9c1.3-3.1-1.6-11.1-4.1-15.8c-0.7-1.4-0.2-3.1,1.2-3.9c1.4-0.7,3.1-0.2,3.9,1.2
				c1.2,2.3,7.1,14,4.3,20.7c-0.8,1.9-2,3.5-3,5c-2.9,4.1-3.6,5.4-0.2,8.4c6.2,5.5,14.6,2.8,14.6,2.7c1.5-0.5,3.1,0.3,3.6,1.8
				c0.5,1.5-0.3,3.1-1.8,3.6C491.2,230.1,488.4,231,484.6,231z"/>
			<path style="clip-path:url(#SVGID_00000155825123897681596530000017699427553117367981_);" d="M500.7,163.2c0,0-5.9,0.9-2.9,11.9
				c3,11.1,6.1,12.8,9.9,12.3c3.9-0.4,4.9-5,2.8-12.4C508.4,167.5,505,161.5,500.7,163.2z"/>
			<path style="clip-path:url(#SVGID_00000155825123897681596530000017699427553117367981_);" d="M455.8,179.8c0,0-5.9,0.9-3,11.9
				c3,11.1,6,12.8,9.9,12.4c3.9-0.4,4.9-5,2.9-12.4C463.5,184.1,460.1,178.2,455.8,179.8z"/>
			<path style="clip-path:url(#SVGID_00000155825123897681596530000017699427553117367981_);fill:#FFE114;" d="M497.2,4.7
				c0,0-33.2,5-56.5,27.4c-23.3,22.4-36.6,53.2-19.9,114.6c0,0,0.8,17.4-2.5,24.1c-3.3,6.6,21.6,5,52.4-2.5
				c30.7-7.5,59-37.4,74.8-42.4c15.8-5,46.5-15,61.5-24.1c0,0-10.8-34-19.1-54.8C579.4,26.3,551.2-5.2,497.2,4.7z"/>
			<path style="clip-path:url(#SVGID_00000155825123897681596530000017699427553117367981_);" d="M421.1,171.4
				c0.9,0.3,2.7,0.7,6.6,0.7c0,0,0,0,0,0c9.5,0,25.3-2.5,42.2-6.6c18-4.4,35.6-17,49.7-27.1c9.8-7,18.2-13.1,24.9-15.2
				c10.8-3.4,42.6-13.5,58.9-22.7c-2.5-7.8-11.4-35-18.3-52.4c-7.8-19.6-30.4-42.4-68-42.4c-6.2,0-12.7,0.6-19.4,1.8
				c-0.4,0.1-32.7,5.2-55,26.7c-19.4,18.7-36.8,46.6-19.2,111.8c0.1,0.2,0.1,0.4,0.1,0.6C423.7,148.4,424.3,164,421.1,171.4z
				 M427.7,177.9C427.7,177.9,427.7,177.9,427.7,177.9c-6.8,0-10.4-1.1-12-3.5c-0.5-0.8-1.2-2.5-0.1-4.8c2.4-4.8,2.4-17.5,2.2-22.4
				c-14.5-54-8.3-89,20.8-117.1c23.7-22.8,56.7-28,58.1-28.2C503.6,0.6,510.5,0,517,0c40.5,0,64.9,24.8,73.4,46.1
				c8.3,20.6,19.1,54.7,19.2,55c0.4,1.3-0.1,2.6-1.2,3.3c-14.5,8.8-42.4,18.1-62.1,24.4c-5.8,1.8-13.9,7.6-23.3,14.4
				c-14.5,10.4-32.6,23.4-51.7,28C453.7,175.4,437.8,177.9,427.7,177.9z"/>
			<path style="clip-path:url(#SVGID_00000155825123897681596530000017699427553117367981_);fill:#FFE114;" d="M419.9,97.7
				c0,0-5.8-56.5,0.8-68.9c0,0,30.7-28.2,95.6-25.7c0,0-62.3,26.6-67.3,35.7c0,0,1.7,39.9,3.3,49.8"/>
			<path style="clip-path:url(#SVGID_00000155825123897681596530000017699427553117367981_);" d="M419.9,100.6
				c-1.5,0-2.7-1.1-2.8-2.6c-0.6-5.9-5.7-57.7,1.2-70.6c0.2-0.3,0.4-0.5,0.6-0.8c1.3-1.2,32.4-29,97.6-26.5c1.3,0.1,2.5,1,2.7,2.3
				c0.2,1.3-0.5,2.6-1.7,3.2c-24.7,10.5-60.5,27.6-65.5,33.9c0.3,6,1.8,39.7,3.2,48.6c0.3,1.6-0.8,3-2.4,3.3c-1.6,0.3-3-0.8-3.3-2.4
				c-1.7-10-3.3-48.5-3.4-50.2c0-0.5,0.1-1,0.3-1.5c4-7.4,36.9-22.9,56.3-31.5c-50.2,1.4-76.3,21.9-79.7,24.7
				c-4.8,10.4-1.9,51.6-0.3,66.8c0.2,1.6-1,3-2.6,3.1C420.1,100.6,420,100.6,419.9,100.6z"/>
			<path style="clip-path:url(#SVGID_00000155825123897681596530000017699427553117367981_);" d="M420.7,149.6
				c-1.5,0-2.8-1.2-2.9-2.8c0-1.6,1.2-2.9,2.8-2.9c0.3,0,28.2-1,58.1-12.3c1.5-0.6,3.1,0.2,3.7,1.7c0.6,1.5-0.2,3.1-1.7,3.7
				C449.9,148.6,422,149.6,420.7,149.6C420.8,149.6,420.7,149.6,420.7,149.6z"/>
			<path style="clip-path:url(#SVGID_00000155825123897681596530000017699427553117367981_);" d="M502.2,126.4c-1,0-2-0.6-2.5-1.5
				c-0.7-1.4-0.2-3.1,1.2-3.9l14.1-7.5c1.4-0.7,3.1-0.2,3.9,1.2c0.7,1.4,0.2,3.1-1.2,3.9l-14.1,7.5
				C503.1,126.3,502.6,126.4,502.2,126.4z"/>
			<path style="clip-path:url(#SVGID_00000155825123897681596530000017699427553117367981_);" d="M497.2,236.8
				c-1.3,0-2.5-0.9-2.8-2.3c-0.3-1.5,0.7-3.1,2.2-3.4c0.2,0,11.6-2.6,21.5-16.3c0.9-1.3,2.7-1.6,4-0.6c1.3,0.9,1.6,2.7,0.6,4
				c-11.3,15.7-24.5,18.5-25,18.6C497.5,236.8,497.4,236.8,497.2,236.8z"/>
			<path style="clip-path:url(#SVGID_00000155825123897681596530000017699427553117367981_);" d="M577.8,164.6
				c-0.4,0-0.9-0.1-1.3-0.3c-1.4-0.7-2-2.4-1.3-3.8l5-10c0.7-1.4,2.4-2,3.8-1.3c1.4,0.7,2,2.4,1.3,3.8l-5,10
				C579.8,164,578.8,164.6,577.8,164.6z"/>
			
				<rect x="472.3" y="501.7" transform="matrix(0.151 -0.9885 0.9885 0.151 -117.4519 960.1904)" style="clip-path:url(#SVGID_00000155825123897681596530000017699427553117367981_);fill:#FFFFFF;" width="56.1" height="93.5"/>
			<path style="clip-path:url(#SVGID_00000155825123897681596530000017699427553117367981_);" d="M453.1,566.7l86.7,13.3l7.6-49.7
				L460.7,517L453.1,566.7z M542.2,586.1c-0.1,0-0.3,0-0.4,0L449.4,572c-1.6-0.2-2.6-1.7-2.4-3.3l8.5-55.4c0.1-0.7,0.5-1.4,1.1-1.9
				c0.6-0.5,1.4-0.6,2.1-0.5l92.4,14.1c1.6,0.2,2.6,1.7,2.4,3.3l-8.5,55.4c-0.1,0.7-0.5,1.4-1.1,1.9
				C543.5,585.9,542.9,586.1,542.2,586.1z"/>
			<path style="clip-path:url(#SVGID_00000155825123897681596530000017699427553117367981_);fill:#FFFFFF;" d="M566.1,40.6
				c-1.9,3.6-6.5,5-10.1,3.1l-18.7-10c-3.6-1.9-5-6.5-3.1-10.1c1.9-3.6,6.5-5,10.1-3.1l18.7,10C566.7,32.5,568,37,566.1,40.6z"/>
		</g>
	</g>
</g>
</svg>
