<?xml version="1.0" encoding="UTF-8"?>
<svg id="_레이어_1" data-name="레이어 1" xmlns="http://www.w3.org/2000/svg" viewBox="0 0 328 436">
  <defs>
    <style>
      .cls-1, .cls-2 {
        fill: none;
      }

      .cls-3 {
        font-family: PretendardVariable-Regular, 'Pretendard Variable';
        font-variation-settings: 'wght' 400;
      }

      .cls-3, .cls-4 {
        fill: #fff;
      }

      .cls-5 {
        fill: #ffe114;
      }

      .cls-6 {
        fill: #2960cc;
      }

      .cls-2 {
        stroke: #fff;
        stroke-miterlimit: 10;
      }

      .cls-7 {
        font-size: 18.27px;
        letter-spacing: -.03em;
      }

      .cls-8 {
        fill: #020202;
        font-family: PretendardVariable-SemiBold, 'Pretendard Variable';
        font-variation-settings: 'wght' 600;
        font-weight: 600;
      }
    </style>
  </defs>
  <rect class="cls-4" width="328" height="437"/>
  <path class="cls-6" d="m0-1h328v166.26c0,90.51-73.49,164-164,164h0C73.49,329.26,0,255.78,0,165.26V-1H0Z"/>
  <g>
    <path class="cls-2" d="m47.43,81.88c0,3.21.27,5.96.81,8.26.54,2.3,1.28,4.07,2.22,5.29.94,1.23,2.02,1.91,3.23,2.04l-1.62,6.26c-1.45-.11-2.91-.63-4.36-1.58-1.45-.94-2.73-2.33-3.84-4.16-1.13,1.83-2.42,3.22-3.88,4.16-1.45.94-2.91,1.47-4.36,1.58l-1.62-6.26c2.15-.19,3.74-1.58,4.75-4.16s1.51-6.4,1.51-11.43v-1.17h-5.45v-6.06h18.02v6.06h-5.41v1.17Zm8.08-7.72h7.6v30.78h-7.6v-30.78Z"/>
    <path class="cls-2" d="m95.83,84.79v5.62h-29.09v-5.62h29.09Zm-28.28-4.44v-5.66h27.47l-.4,8.36h-7.15v-2.71h-19.92Zm27.47,24.6h-27.47v-12.65h27.47v12.65Zm-19.88-7.19v1.74h12.28v-1.74h-12.28Z"/>
    <path class="cls-2" d="m99.66,88.79l-.2-14.14h7.6l-.2,14.14-.4,6.95h-6.38l-.4-6.95Zm3.6,8.97c1.08,0,1.97.35,2.69,1.05.71.7,1.07,1.62,1.07,2.75s-.36,2.05-1.07,2.75c-.71.7-1.61,1.05-2.69,1.05s-1.98-.36-2.71-1.09c-.73-.73-1.09-1.63-1.09-2.71,0-1.13.36-2.05,1.09-2.75.73-.7,1.63-1.05,2.71-1.05Z"/>
    <path class="cls-4" d="m137.42,77.01c1.52,1.58,2.28,3.91,2.28,7.01s-.76,5.43-2.28,7.01c-1.52,1.58-3.78,2.36-6.77,2.36s-5.25-.79-6.77-2.36c-1.52-1.58-2.28-3.91-2.28-7.01s.76-5.43,2.28-7.01c1.52-1.58,3.78-2.36,6.77-2.36s5.24.79,6.77,2.36Zm-7.41,18v3.84h20v6.1h-27.59v-9.94h7.6Zm-.85-12.77v3.56c0,1.02.5,1.54,1.5,1.54s1.49-.51,1.49-1.54v-3.56c0-1.02-.5-1.54-1.49-1.54s-1.5.51-1.5,1.54Zm20.81-8v21.57h-7.6v-21.57h7.6Z"/>
    <path class="cls-4" d="m164.02,81.88c0,3.69.13,6.59.38,8.69.26,2.1.73,3.74,1.41,4.93.69,1.19,1.7,2.05,3.05,2.59l-2.02,5.66c-1.13-.19-2.21-.69-3.23-1.51s-1.94-1.96-2.75-3.41c-.81,1.45-1.73,2.59-2.77,3.41-1.04.82-2.12,1.33-3.25,1.51l-2.02-5.66c1.35-.54,2.36-1.4,3.05-2.59.69-1.18,1.16-2.83,1.41-4.93.26-2.1.38-5,.38-8.69v-1.13h-3.8v-6.1h13.94v6.1h-3.8v1.13Zm12.97-7.64h6.79v30.7h-6.79v-12.56h-1.21v12.16h-6.75v-30.3h6.75v12.08h1.21v-12.08Z"/>
    <path class="cls-4" d="m208.7,82.81c.03,3.42.17,6.13.44,8.12.27,1.99.75,3.55,1.43,4.67.69,1.12,1.68,1.95,2.97,2.48l-2.02,5.66c-1.13-.19-2.21-.69-3.23-1.51s-1.94-1.96-2.75-3.41c-.81,1.45-1.73,2.59-2.77,3.41-1.04.82-2.12,1.33-3.25,1.51l-2.02-5.66c1.29-.54,2.28-1.37,2.97-2.48.69-1.12,1.16-2.67,1.43-4.67.27-1.99.42-4.7.44-8.12h-3.8v-5.74h3.6v-3.23h6.75v3.23h3.6v5.74h-3.8Zm12.97-8.56h6.79v30.7h-6.79v-12.56h-1.21v12.16h-6.75v-30.3h6.75v12.08h1.21v-12.08Z"/>
    <path class="cls-4" d="m261.18,87.37v4.89h-29.09v-4.89h4.69v-1.7c-1.19-.38-2.13-1.03-2.83-1.96s-1.05-2.05-1.05-3.37c0-1.75.59-3.14,1.76-4.16,1.17-1.02,2.7-1.54,4.59-1.54h14.79c1.88,0,3.41.51,4.59,1.54,1.17,1.02,1.76,2.41,1.76,4.16,0,1.32-.35,2.44-1.05,3.37s-1.64,1.58-2.83,1.96v1.7h4.69Zm-7.15,6.18c2.02,0,3.58.49,4.69,1.47,1.1.98,1.66,2.39,1.66,4.22s-.55,3.24-1.66,4.22c-1.1.98-2.67,1.47-4.69,1.47h-14.79c-2.02,0-3.58-.49-4.69-1.47-1.1-.98-1.66-2.39-1.66-4.22s.55-3.24,1.66-4.22c1.1-.98,2.67-1.47,4.69-1.47h14.79Zm-12.77-13.98c-.22,0-.4.07-.55.22s-.22.33-.22.55.07.4.22.55c.15.15.33.22.55.22h10.75c.22,0,.4-.07.55-.22.15-.15.22-.33.22-.55s-.07-.4-.22-.55c-.15-.15-.33-.22-.55-.22h-10.75Zm10.75,20.44c.51,0,.77-.26.77-.77s-.26-.77-.77-.77h-10.75c-.51,0-.77.26-.77.77s.26.77.77.77h10.75Zm-7.64-13.98v1.33h4.52v-1.33h-4.52Z"/>
    <path class="cls-2" d="m264.82,85.11h29.17v4.4h-29.17v-4.4Zm5.53-1.25c-1.43,0-2.57-.42-3.43-1.27-.86-.85-1.29-1.97-1.29-3.37s.43-2.53,1.29-3.37c.86-.85,2.01-1.27,3.43-1.27h18.1c1.43,0,2.57.42,3.43,1.27s1.29,1.97,1.29,3.37-.43,2.53-1.29,3.37-2.01,1.27-3.43,1.27h-18.1Zm2.87,15.96v1.13h20.36v4h-27.96v-9.13h19.96v-1.17h-19.96v-3.96h27.55v9.13h-19.96Zm11.68-19.92c.22,0,.38-.07.5-.2.12-.13.18-.3.18-.48,0-.22-.06-.38-.18-.5-.12-.12-.29-.18-.5-.18h-10.99c-.19,0-.35.06-.48.18-.13.12-.2.29-.2.5,0,.19.07.35.2.48.13.14.3.2.48.2h10.99Z"/>
    <path class="cls-4" d="m63.91,137.35v6.06h-29.09v-6.06h7.8v-10.91h7.6v10.91h13.7Zm-28.28-16.97v-6.06h27.47l-.4,18.18h-7.19v-12.12h-19.88Z"/>
    <path class="cls-4" d="m67.55,127.62c2.42-.19,4.52-.85,6.28-1.98s3.02-2.61,3.78-4.44h-9.25v-6.06h9.53v-2.02h8.4v2.02h9.53v6.06h-9.25c.75,1.83,2.01,3.31,3.78,4.44s3.86,1.79,6.28,1.98l-1.62,5.66c-2.69-.22-5.14-.83-7.35-1.84-2.21-1.01-4.07-2.34-5.57-3.98-1.51,1.64-3.37,2.97-5.58,3.98-2.21,1.01-4.66,1.62-7.35,1.84l-1.62-5.66Zm18.34,4.48v5.25h10.75v6.06h-29.09v-6.06h10.75v-5.25h7.6Z"/>
    <path class="cls-4" d="m107.82,120.38v16.56h5.25v6.06h-12.81v-28.68h12.04v6.06h-4.48Zm15.15-6.46h7.19v30.7h-7.19v-12.52h-1.25v12.12h-7.19v-30.3h7.19v12.12h1.25v-12.12Z"/>
    <path class="cls-4" d="m152.18,124.79h10.79v4.4h-29.17v-4.4h10.79v-1.62h7.6v1.62Zm-17.98-5.21c2.23,0,4.03-.09,5.37-.28,1.35-.19,2.44-.61,3.27-1.25h-8.24v-4.04h27.47v4.04h-8.24c.83.65,1.93,1.06,3.27,1.25,1.35.19,3.14.28,5.37.28l-.81,4.04c-3.07,0-5.7-.17-7.9-.5-2.2-.34-4.01-.94-5.43-1.8-1.43.86-3.24,1.46-5.43,1.8-2.2.34-4.83.5-7.9.5l-.81-4.04Zm8,19.92v1.13h20.36v4h-27.96v-9.13h19.96v-1.17h-19.96v-3.96h27.55v9.13h-19.96Z"/>
    <path class="cls-4" d="m183.82,124.26v6.06h-17.21v-16h17.21v6.1h-9.61v3.84h9.61Zm1.54,8.2c.16,2.05,1.19,3.58,3.07,4.59,1.88,1.01,4.31,1.51,7.27,1.51l-.81,6.06c-2.8,0-5.34-.36-7.62-1.07-2.28-.71-4.18-1.74-5.72-3.09-1.54,1.35-3.44,2.38-5.72,3.09-2.28.71-4.81,1.07-7.62,1.07l-.81-6.06c2.96,0,5.39-.5,7.27-1.51,1.88-1.01,2.91-2.54,3.07-4.59h7.6Zm9.53-12.52h3.03v6.06h-3.03v6.46h-7.6v-18.54h7.6v6.02Z"/>
    <path class="cls-4" d="m227.49,113.92v16.85h-7.6v-5.37h-4.65v-3.64c-1.13,3.15-3.06,5.44-5.8,6.87-2.73,1.43-6.17,2.14-10.32,2.14l-.81-4.73c1.94,0,3.53-.13,4.79-.38,1.25-.26,2.26-.68,3.01-1.27l-6.58-.08v-3.84l8.48-.08c.05-.65.08-1.18.08-1.62h-8.97v-4.44h17.25c0,1.75-.15,3.41-.44,4.97h3.96v-5.37h7.6Zm-27.55,30.7v-12.65h27.55v12.65h-27.55Zm7.6-7.19v1.74h12.36v-1.74h-12.36Z"/>
    <path class="cls-2" d="m246.23,113.92h6.75v30.3h-6.75v-12.12h-1.66v4.85c0,2.07-.61,3.74-1.84,4.99-1.23,1.25-2.85,1.88-4.87,1.88s-3.65-.63-4.89-1.9c-1.24-1.27-1.86-2.92-1.86-4.97v-16.16c0-2.05.62-3.7,1.86-4.97s2.87-1.9,4.89-1.9,3.64.63,4.87,1.88c1.23,1.25,1.84,2.92,1.84,4.99v5.25h1.66v-12.12Zm-7.63,6.79c0-.22-.07-.4-.2-.55-.14-.15-.31-.22-.53-.22s-.4.07-.55.22-.22.33-.22.55v16.28c0,.22.07.4.22.55.15.15.33.22.55.22s.39-.07.53-.22c.13-.15.2-.33.2-.55v-16.28Zm15.63-6.79h6.79v30.7h-6.79v-30.7Z"/>
    <path class="cls-2" d="m276.85,121.56c0,4.85.51,8.53,1.52,11.05,1.01,2.52,2.46,4.1,4.34,4.75l-2.42,6.06c-1.24-.22-2.47-.81-3.7-1.8-1.23-.98-2.32-2.32-3.29-4.02-1,1.7-2.11,3.04-3.35,4.02-1.24.98-2.46,1.58-3.68,1.8l-2.42-6.06c1.88-.65,3.33-2.23,4.34-4.75,1.01-2.52,1.52-6.2,1.52-11.05v-7.23h7.15v7.23Zm7.68-7.72h7.6v30.78h-7.6v-14.58h-4.57v-6.06h4.57v-10.14Z"/>
  </g>
  <g>
    <rect class="cls-5" x="179.56" y="173.91" width="101.62" height="20.55"/>
    <text class="cls-7" transform="translate(35.35 189.94)"><tspan class="cls-3" x="0" y="0">지금 고초대졸닷컴에 </tspan><tspan class="cls-8" x="145.24" y="0">인재 채용 광고 </tspan><tspan class="cls-3" x="248.06" y="0">를</tspan><tspan class="cls-3"><tspan x="83.91" y="27.4">기재해 보세요</tspan></tspan></text>
  </g>
  <g>
    <path class="cls-1" d="m126.08,362.81c.12.04.32.15.33.12.1-.15.18-.33.22-.5,0-.03-.19-.11-.31-.18-.08.19-.16.38-.24.56Z"/>
    <path class="cls-1" d="m270.06,416.78c.04-.1.12-.19.22-.27-.1.08-.18.17-.22.27Z"/>
    <path class="cls-1" d="m204.04,318.63c-.27-.43-.48-1.06-.77-1.41.29.35.5.98.77,1.41,0,0,0,0,0,0Z"/>
    <path d="m271.52,415.9s0,0,0,0c.02.03.04.06.06.1,0,0,0,0,0,0-.02-.04-.04-.07-.06-.11-.03.02-.06.03-.09.05,0,0,0,0,0,0,.03-.01.06-.02.08-.04Z"/>
    <path d="m132.58,419.81c1.27-7.84,2.75-15.65,3.68-23.53.31-2.65,1.13-4.31,3.37-5.49,2.8-1.47,3.88-4.02,4.39-6.97.49-2.82,1.16-5.6,1.66-8.42.37-2.12,2.22-1.41,3.41-1.79,1.28-.42,2.74-.25,4.09-.52,1.35-.27,2.59-.74,2.86-2.45.43-2.68.99-5.34,1.49-8.01.11-.56.22-1.11.43-2.18,3.86,7.87,7.27,15.3,8.46,23.55.76,5.28,1.66,10.55,2.52,15.82.24,1.46-.5,2.14-1.81,2.01-2.34-.23-2.06,1.29-1.95,2.71.07.88.33,1.75.38,2.64.17,3.27.27,6.55.45,9.82.09,1.57.9,1.91,3.27,1.29-.79,5.81-1.57,11.51-2.33,17.22h1.96c.05-.44.09-.88.15-1.32.35-2.93.77-5.85,1.17-8.78.28-2.04.5-4.09.89-6.1.09-.46.74-.81,1.13-1.21l.51.35c0,2.31.1,4.62-.03,6.93-.13,2.28.16,4.08,2.43,5.4,2.17,1.27,4.11,2.99,5.98,4.69.02.02.04.03.06.05h2.1c.13-.14.25-.29.38-.45,1.63-2.15,3.23-4.32,5.03-6.73.15,2.46.3,4.84.44,7.19h1.87c-.34-5.94-.68-11.88-1.02-17.86,1.34-.26,2.53-.49,4-.78-.28-5.47-.57-11-.87-16.68h-3.77c-.19-1.57-.28-3.01-.56-4.41-.72-3.56,1.1-6.75,1.39-10.16.24-2.8.82-5.57,1.15-8.36.6-5.07,1.18-10.14,1.67-15.21.26-2.7.32-5.42.45-8.13.15-3.34.34-6.67.37-10.01,0-.66-.49-1.42-.95-1.97-1.4-1.64-2.88-3.21-4.35-4.79-1.22-1.3-1.75-2.63-.67-4.34.6-.96.8-2.19,1.4-3.15,2.28-3.67.47-6.87-1.02-10.13-1.07-2.34-2.13-4.7-3.42-7.55,6.32,1.72,12.25,3.31,18.15,5.01.12.04.23.12.33.24.29.35.5.98.77,1.41,2.87,2.11,3.31,5.47,4.15,8.53,2.56,9.35,4.93,18.75,7.39,28.13,2.2,8.39,4.38,16.79,6.64,25.17.25.94,1.03,1.73,1.57,2.59l.39.56s.09.04.14.06c-.02.03-.03.06-.05.09.2.72.72,1.55.52,2.12-.54,1.53-1.45,2.92-2.1,4.41-.34.78-.43,1.66-.66,2.58,1.68-.15,2.1-.67,4.26-5.15,2.43,1.96,4.81,3.86,7.18,5.79,5.18,4.21,10.36,8.42,15.54,12.63.86.7,1.79,1.32,2.54,2.12.34.36.62,1.26.42,1.57-2.55,3.79-5.19,7.52-7.82,11.26-.07.1-.23.13-.42.23-7.78-5.21-15.59-10.41-23.37-15.68-3.11-2.11-6.25-4.21-9.15-6.58-3.43-2.8-4.62-6.93-5.97-10.98-1.31-3.93-.49-7.74.02-11.61.23-1.78.34-3.59.44-5.39.3-5.56.6-11.13.82-16.7.02-.64-.48-1.29-.74-1.94-.3.67-.83,1.33-.88,2.02-.48,6.51-.84,13.03-1.32,19.54-.35,4.69-.8,9.37-1.26,14.05-.21,2.12-.68,4.22-.78,6.34-.08,1.57.2,3.17.38,4.75.54,4.86,1.14,9.72,1.67,14.58.33,3.02.55,6.06.87,9.08.44,4.23.92,8.46,1.37,12.7h1.8c-.2-2.34-.42-4.68-.66-7.02-.53-5.07-1.13-10.14-1.66-15.21-.35-3.3-.64-6.61-.93-9.91-.36-4.08-.69-8.17-1.04-12.25.22-.04.43-.07.65-.11.15.34.33.67.46,1.02,1.37,3.52,2.9,6.93,6.23,9.11,1.37.89,2.7,1.85,4.05,2.77,9.45,6.47,18.88,12.97,28.38,19.37.6.4,1.7.05,2.57.05,0-.2,0-.41,0-.61.78.54,1.57,1.07,2.52,1.72.77-1.06,1.48-2.04,2.53-3.49.67.91,1.25,1.79,1.93,2.58.5.58,1.04,1.27,1.72,1.54,7.8,3.16,15.85,5.18,24.34,5.08.57,0,1.29-.17,1.67-.54,1.12-1.08,2.17-2.25,3.1-3.5.81-1.08,1.74-2.24,2-3.49.27-1.26-.18-2.69-.43-4.02-.05-.26-.63-.49-1-.62-3.01-1.02-6.05-1.95-9.03-3.05-2.31-.86-4.53-1.93-7.2-3.09,4.51-1.15,8.88-3.28,8.03-8.06-.11-.64-.24-1.56-.66-1.78-.41-.22-1.38.1-1.81.5-3.01,2.77-6.52,3.59-10.51,3.25-1.02-.09-2.21.54-3.14,1.13-1.48.94-2.8,2.12-4.1,3.13-.92-1.15-1.54-2.26-2.45-3.02-3.27-2.72-6.66-5.31-9.97-7.99-4.6-3.72-9.2-7.46-13.75-11.25-.96-.8-1.85-1.74-2.58-2.75-.64-.89-.99-1.99-1.51-2.97-.47-.89-1.19-1.69-1.44-2.63-2.08-7.81-4.04-15.64-6.09-23.45-2.75-10.5-5.54-21-8.34-31.49-1.05-3.92-2.52-7.76-6.66-9.26-4.25-1.54-8.7-2.54-13.08-3.75-1.62-.45-3.76-.32-4.8-1.34-1.84-1.81-4.11-2.19-6.26-2.76-1.48-.4-1.67-.89-1.76-2.18-.27-3.96,1.55-7.44,2.33-11.15.51-2.41.77-4.67,3.14-6.01.25-.14.33-.58.51-.86,1.81-2.91,1.9-6.17,1.6-9.4-.17-1.86-1.07-3.57-3.35-4.02.5-.53.91-1,1.37-1.43,2.02-1.91,2.31-3.06.18-5.62-.6-.72-1.27-1.53-1.47-2.4-.45-2-.53-4.08-.92-6.1-.66-3.38-1.34-6.81-4.5-8.91-4.7-3.11-9.27-6.49-14.23-9.12-4.08-2.16-10.76-1.34-13.83,3.84-.29.48-.93.81-1.47,1.08-9.79,4.87-10.74,12.94-10.21,21.26.19,2.97,1.23,5.86-1.37,8.29-.14.13-.18.35-.27.53-1.05,2.04-.59,3.34,1.55,4.17,1.18.46,2.42.78,3.63,1.16-.42,1.06-1.05,1.95-1.07,2.85-.1,4.14,1.31,7.84,4.96,9.91,1.97,1.12,2.81,2.67,3.77,4.39.66,1.18,1.68,2.22,2.11,3.46.35,1.03.55,2.72-.03,3.36-1.89,2.1-3.96,4.17-6.33,5.68-6.23,3.98-12.68,7.63-18.99,11.51-1.06.65-2.23,1.59-2.69,2.67-1.52,3.55-3.46,7.01-2.75,11.19.53,3.13.61,6.33.96,9.49.51,4.59,1.43,9.16,1.52,13.75.07,4.18-.96,8.37-1.09,12.57-.09,3.02.33,6.08.84,9.07.41,2.45.84,5.07,2.03,7.18,2.16,3.82,6.03,5.36,10.25,5.83,1.34.15,1.77.63,1.57,1.84-1.25,7.77-2.54,15.53-3.78,23.3-.91,5.67-1.72,11.35-2.65,17.01h1.77c.87-5.27,1.72-10.49,2.57-15.7Zm137.47,4.25c-.05-.2-.09-.4-.14-.6.51-.27,1.1-.87,1.52-.77,3.1.75,6.16,1.61,9.22,2.5.31.09.51.56,1.18,1.36-4.33-.92-8.05-1.71-11.78-2.5Zm13.12-.13c-3.92-1.06-7.83-2.11-11.87-3.2v-1.76c4.07,1.78,8.53,1.95,12.3,4.04-.14.31-.28.61-.43.92Zm-21.51-15.97c1.33-.74,3.25-.66,4.87-.55,2.45.16,4.47-.45,6.2-2.19.34-.34.86-.5,1.39-.8-.55,3.1-3.72,5.44-7.18,5.47-2.34.02-5.07,2.97-4.93,5.53,2.05-.3,2.73-2.09,3.6-3.07,1.98,1.22,3.9,2.41,5.81,3.59.03-.02.07-.03.09-.05.02.04.04.07.06.11,2.99,1,5.98,2.01,8.96,3.01.85.28,1.69.58,2.53.87-.05.17-.1.34-.15.51-1.85-.51-3.7-1.03-5.56-1.53-1.24-.33-2.47-.66-3.72-.96-1.08-.25-1.61-1.04-2.08-1.91-.04-.01-.08-.03-.12-.04,0,0-.02-.01-.02-.02-.37.2-.86.35-1.15.57-.1.08-.18.17-.22.27-.97,2.67-1.81,5.38-2.64,8.1-.13.43.02.94.02.85,3.96.7,7.67,1.36,11.38,2.02-.02.21-.03.43-.05.64-2.2-.11-4.47.09-6.58-.41-5.4-1.26-10.74-2.8-16.08-4.33-.7-.2-1.28-.97-1.81-1.57-.79-.89-1.5-1.86-2.4-3.01,2.07-4.45,5.13-8.54,9.76-11.12Zm-8,3.25c.04-.06.25,0,.65.03-2.2,3.55-4.34,7-6.68,10.79-.22-.79-.62-1.44-.45-1.7,2.11-3.08,4.3-6.09,6.48-9.12Zm-98.34-44.85h-10.07c0,.22,0,.44,0,.66,2.9,1.99,6.28.55,9.37,1.14-.39,2.83-.64,2.98-3.42,3.3-2.72.32-5.41,1.08-8.13,1.17-3.37.11-6.63-.8-9.52-2.6-1.28-.8-1.79-.63-1.93,1.1-2.08-2.09-.67-4.5-1.04-5.87.76-.94,1.47-1.4,1.54-1.95.49-3.94,1.85-7.3,4.88-10.11,3.3-3.06,6.49-6.41,6.77-11.33.15-2.5.09-5.02.06-7.53,0-.8-.22-1.6-.35-2.43,2.07-.62,2.78.26,3.64,1.73,2.54,4.32,2.35,8.36-.35,12.17-.83.1-1.56.18-2.92.34.96.92,1.45,1.64,2.13,1.99,1.56.81,3.18,1.52,4.83,2.14,3.11,1.17,3.39,1.42,4.59,5.28-2.52-.3-4.89-.68-7.28-.83-1.04-.07-2.11.3-3.17.48.95.48,1.86,1.22,2.86,1.39,2.62.43,5.29.62,7.96.9v3.68c-3.74-.26-7.44-.51-11.47-.79.85,2.43,2.61,1.94,3.85,2.11,2.46.35,4.98.37,7.77.55-.21,1.12-.4,2.15-.61,3.3Zm-13.17,7.99c-.55,1.93-2.76,3.76-4.54,3.85-3.39.18-5.58-1.32-6.74-4.62-.1-.25-.2-.5-.29-.75.19.13.38.26.57.39.72.52,1.4,1.1,2.15,1.56,2.55,1.56,5.12,2.55,7.72.05.26-.25.7-.31,1.13-.49Zm42.73,55.77c-.98,1.03-1.76,2.27-2.77,3.61-2.2-1.71-4.26-3.3-6.3-4.91-.97-.76-1.56-1.64-1.43-3.03.16-1.67.05-3.37.03-5.05-.02-1.8.87-2.78,2.66-2.8,2.83-.04,5.67-.01,8.67-.01.28,2.22.59,4.8.94,7.37.27,1.95-.48,3.44-1.8,4.82Zm6.41-28.09c.28,4.32.56,8.73.86,13.39-8.12.45-16.2.89-24.36,1.34-.22-4.49-.42-8.77-.64-13.16,8.17-.53,16.09-1.05,24.14-1.57Zm-10.83-76.89c4.89,16,4.97,32.25,2.66,48.32-2.33-15.72-4.7-31.75-7.08-47.77.25-.03.49-.06.74-.09.59.97,1.14,1.97,1.8,2.88.3.41.83.66,1.25.98.26-.63.68-1.25.73-1.9.06-.79-.18-1.6-.1-2.42Zm-3.5,19.76c.83,5.15,1.73,10.29,2.47,15.45.68,4.71,1.16,9.44,1.76,14.16.39,3.07,1.03,6.13,1.18,9.21.14,2.77-.15,5.57-.38,8.34-.24,2.89-.63,5.78-.97,8.83h-4.32c-.33-2.82-.9-5.74-.97-8.67-.25-10.59-.3-21.18-.47-31.77-.08-4.97-.11-9.95-.46-14.9-.34-4.8-1.07-9.58-1.62-14.37.19-.17.38-.34.57-.51.37.42.98.79,1.07,1.25.77,4.32,1.45,8.66,2.15,12.99Zm-2.15-16.36c-2.06.74-3.8.77-4.52-1.62-.21-.69-.31-1.58-.06-2.22.64-1.65,1.51-3.21,2.38-4.99,3.13,2.61,2.08,5.87,2.21,8.84Zm-8.55-.33c-.85-.5-1.7-1.02-2.57-1.51-3.04-1.71-5.28-3.99-6.7-7.34-1.44-3.39-3.61-6.48-5.32-9.9,6.09,3.97,11.82,8.69,19.92,8.05-1.94,3.89-3.64,7.29-5.34,10.7Zm-2.15,1.08c.18.11.35.23.54.32q2.66,1.27,3.95-1.1c2.73,1.85,2.98,4.68,3.36,7.68,1.08,8.46,1.27,16.94,1.24,25.46-.01,3.61.37,7.22.19,10.85-.5-3.42-.91-6.85-1.51-10.26-1.42-8.1-2.7-16.24-5.54-24.03-1.02-2.79-1.68-5.71-2.51-8.56-.1-.25-.2-.5-.29-.75.19.13.38.26.57.39Zm22.07,41.95c.35,9.74.71,19.47,1.08,29.53-2.61-1.14-3.04-17.52-1.08-29.53Zm4.4-28.58c.61.8,1.15,1.92,1.12,2.88-.17,6.47-.32,12.95-.84,19.4-.52,6.35-1.48,12.67-2.14,18.13-1.07-15.08-2.19-31.02-3.3-46.68,1.61,1.93,3.47,4.04,5.16,6.27Zm-10.81-32.96c1.73.14,2.53,1.14,3.14,2.62,1.67,4.06,3.38,8.11,5.22,12.1.46,1,.31,1.61-.09,2.51-1.05,2.42-1.93,4.92-2.77,7.12-2.7-8.3-5.41-16.65-8.18-25.16.92.29,1.78.74,2.67.82Zm-2.59,4.86c.42,2.97.84,5.93,1.25,8.89-.16.05-.32.11-.48.16-1.28-1.84-2.57-3.69-4.11-5.91,3.16.57,2.64-1.5,2.71-3.13.21,0,.42-.01.62-.02Zm5-37.21c.06-.03.11-.05.17-.07-.03.1-.04.18-.07.27.04.08.1.16.12.25,1,3.52.11,6.69-2.14,9.52-.4-2.57-.81-5.1,1.23-7.3.44-.47.48-1.32.79-2.47-.03-.07-.06-.13-.1-.2-1.03.45-1.63.71-2.79,1.21.64-1.15,1.04-1.88,1.44-2.61.42.47,1.01.9,1.35,1.39Zm-45.1-.65c-.13.26-.51.39-1.23.31.35-.73.51-1.71,1.08-2.13,2.2-1.62,1.67-3.82,1.45-5.92-.45-4.3-.76-8.55.5-12.8,1.15-3.87,3.69-6.49,6.99-8.54.58-.36,1.16-.71,1.83-1.11.33,2.34.6,4.52.99,6.68.08.43.58.79.89,1.18.26-.44.74-.88.73-1.31-.05-1.87-.17-3.75-.41-5.6-.42-3.29-.28-3.79,2.44-5.25,2.38-1.28,4.96-1.46,7.53-.78,2.16.57,1.71,2.75,2.25,4.25.5,1.4.56,2.95.93,4.41.13.49.63.89.96,1.33.23-.53.7-1.08.66-1.59-.12-1.36-.48-2.69-.69-4.04-.07-.46-.01-.95-.01-1.79,5.25,2.58,10.49,4.88,13.21,10.17,1.18,2.29,1.33,5.12,1.9,7.72.52,2.36.1,5.04,2.5,6.77.32.23-.01,1.37-.31,2.06-.63-2.12-1.94-2.96-4.96-3.21-11.8-1.01-23.17.88-34.17,5.17-2.05.8-4,1.89-5.06,4.04Zm6.68,14.37c-1.18-2.23-2.47-4.41-3.47-6.72-.22-.5.58-1.45,1.12-2.65,1,3.41,1.81,6.21,2.63,9,.1.25.2.5.29.75-.19-.13-.38-.26-.57-.39Zm1.15-4.31c-1.15-3.82-1.76-7.81-2.67-11.95,1.38-.53,3.08-1.65,3.53-1.27,1.68,1.4,3.23.01,4.79.23.71.1,1.52-.49,2.29-.77-.71-.41-1.41-.82-2.36-1.36,5.09-.93,10.15-1.86,15.2-2.78.06.17.12.34.19.52-.95.7-2.76.89-1.66,3.01,1.76-.89,3.52-1.77,5.28-2.66-.09-.18-.17-.36-.26-.53h3.11-.15c1.37,1.89,2.6,3.38,3.6,5.02.94,1.55,2.23,3.22,2.31,4.89.28,5.53.63,11.17-1.25,16.5-.66,1.86-2.39,3.33-3.61,5-.58.79-1.12,1.62-1.67,2.44.23.21.45.42.68.62.95-.57,1.9-1.14,3.1-1.85-.27,4.8-.53,9.46-.8,14.43-5.29-1.01-10.65-.23-14.96-4.11-1.75-1.57-3.9-2.73-5.97-3.9-1.76-1-2.51-2.28-1.8-4.52.76.38,1.52.7,2.22,1.13,4.33,2.63,8.91,2.21,13.52,1.05.39-.1.61-.88.92-1.34-.52-.2-1.07-.62-1.55-.55-1.88.28-3.75,1.09-5.6,1.02-3.08-.13-5.91-1.19-8.35-3.34-4.56-4.01-6.43-9.43-8.08-14.93Zm3.91,20.95c4.83,9.46,9.71,18.82,14.4,28.28,2.62,5.27,4.06,10.92,4.89,16.75.59,4.13,1.48,8.21,2.04,12.35.45,3.29.63,6.61.89,9.92.44,5.6,1.04,11.19,1.19,16.8.09,3.2-.58,6.42-.91,9.63-.16,0-.32,0-.48.01-.36-2.68-.7-5.36-1.07-8.04-1.21-8.85-2.44-17.69-6.35-25.88-3.24-6.8-6.45-13.61-9.7-20.4-.48-.99-.57-1.72.4-2.52,1.56-1.27,3.01-2.67,4.49-4.05,1.31-1.22.44-2.31-.38-3.23-2.15-2.39-4.38-4.69-6.59-7.03-2.35-2.49-5.05-4.74-6.9-7.56-.98-1.5-.5-3.96-.64-5.99-.02-.24.34-.54.29-.75-.99-4.01,2.06-5.87,4.42-8.29Zm-16.9,83.56c-3.13-.72-5.98-2.09-7.56-5.07-.74-1.4-1.18-3.02-1.45-4.59-.54-3.18-1.14-6.39-1.22-9.6-.07-2.65.69-5.32.84-7.99.17-3.04.19-6.11.03-9.15-.14-2.67-.65-5.32-.94-7.99-.45-4.12-1.19-8.24-1.17-12.36.02-2.8,1.13-5.6,2.05-8.37,2.59,3.12,3.53,7.1,6.86,9.42-.56-4.39-3.7-7.56-5.25-11.71,6.06-3.67,12.19-7.39,18.48-11.19-.14,2.8-.03,5.41-.48,7.93-.27,1.48-.11,2.53.85,3.55,2.99,3.14,6.01,6.26,8.98,9.41,1.72,1.82,3.39,3.69,5.21,5.68-1.26,1.06-2.53,2.11-3.77,3.19-2.77,2.43-2.79,2.55-1.36,6.06-.35-.1-.63-.19-.9-.27-1.58-.47-3.05-.62-1.71-3.11,2.62-4.89,1.38-9.63-1.56-14.05-.6-.9-5.2-2.02-5.83-1.23-.47.6-.54,1.67-.47,2.5.14,1.77.68,3.52.72,5.29.1,4.94-1.51,9.16-5.16,12.72-3.06,2.99-5.71,6.4-8.54,9.63-2.52-.94-5.31,1.12-5.08,4.03.83-.37,1.57-.71,2.36-1.06-.43,1.32-.81,2.49-1.18,3.66.29.15.58.3.87.45.86-1.03,1.73-2.07,2.59-3.1.19-.12.38-.25.57-.37-.1.25-.2.49-.3.74.13,3.2-.02,6.44.48,9.57.41,2.58,1.75,4.89,4.73,5.51,3.06.63,6.17,1.39,8.52-1.64.34-.44.61-.94.91-1.41.18.13.36.26.55.39-.72,3.34-1.37,6.69-2.21,9.99-.15.58-1.05.99-1.64,1.44-1.35,1.05-2.6,2.34-4.12,3.03-1.04.47-2.52.35-3.7.08Zm-5.28-28.81c-.04.18-.12.35-.22.5-.02.02-.22-.08-.33-.12.08-.18.16-.37.24-.56.13.07.32.15.31.18Z"/>
    <path class="cls-4" d="m203.56,413.73c-.53-4.86-1.12-9.72-1.67-14.58-.18-1.58-.46-3.18-.38-4.75.11-2.12.57-4.22.78-6.34.46-4.68.92-9.36,1.26-14.05.48-6.51.84-13.03,1.32-19.54.05-.69.57-1.35.88-2.02.26.65.76,1.3.74,1.94-.22,5.57-.51,11.13-.82,16.7-.1,1.8-.21,3.6-.44,5.39-.51,3.87-1.33,7.67-.02,11.61,1.35,4.05,2.55,8.18,5.97,10.98,2.9,2.38,6.04,4.47,9.15,6.58,7.78,5.27,15.59,10.47,23.37,15.68.19-.1.35-.13.42-.23,2.63-3.74,5.27-7.47,7.82-11.26.21-.31-.08-1.21-.42-1.57-.75-.8-1.68-1.42-2.54-2.12-5.18-4.21-10.36-8.43-15.54-12.63-2.37-1.92-4.75-3.83-7.18-5.79-2.17,4.47-2.58,5-4.26,5.15.22-.92.32-1.81.66-2.58.65-1.49,1.57-2.88,2.1-4.41.2-.58-.31-1.41-.52-2.12-.37.61-.65,1.35-1.18,1.73-.92.66-1.99,1.15-3.05,1.56-.44.17-1.02-.04-1.53-.07.26-.53.37-1.29.79-1.55,1.31-.81,2.74-1.42,4.12-2.12.12-.09.25-.17.37-.26-.54-.86-1.32-1.65-1.57-2.59-2.27-8.37-4.45-16.77-6.64-25.17-2.45-9.38-4.83-18.78-7.39-28.13-.84-3.06-1.27-6.42-4.15-8.53,0,0,0,.01,0,.02h0s0,0,0,0c-.02,0-.04-.01-.05-.02.42,3.53.87,7.06,1.26,10.6.11.97.11,1.98-.01,2.94-.06.43-.55.8-.84,1.2-.27-.36-.73-.69-.77-1.08-.47-4.1-.85-8.22-1.31-12.32-.17-1.49.44-1.8,1.69-1.35,0-.01,0-.03,0-.04.02.01.03.03.05.04-.27-.43-.48-1.06-.77-1.41-.1-.12-.21-.2-.33-.24-5.9-1.71-11.83-3.29-18.15-5.01,1.29,2.85,2.35,5.2,3.42,7.55,1.49,3.26,3.3,6.46,1.02,10.13-.6.97-.79,2.19-1.4,3.15-1.07,1.71-.54,3.04.67,4.34,1.47,1.58,2.96,3.14,4.35,4.79.46.54.96,1.31.95,1.97-.03,3.34-.22,6.67-.37,10.01-.13,2.71-.19,5.43-.45,8.13-.49,5.08-1.07,10.15-1.67,15.21-.33,2.79-.91,5.56-1.15,8.36-.29,3.41-2.11,6.6-1.39,10.16.28,1.4.37,2.84.56,4.41h3.77c.29,5.68.58,11.21.87,16.68-1.47.29-2.65.52-4,.78.34,5.98.68,11.92,1.02,17.86h14.8c-.45-4.23-.93-8.46-1.37-12.7-.32-3.03-.54-6.06-.87-9.08Z"/>
    <path class="cls-4" d="m204.05,318.64h0s-.03-.03-.03-.03c.01.02.03.03.03.03Z"/>
    <path class="cls-4" d="m204.05,318.64h0s0-.01,0-.02c0,0,0,0,0,0,0,0,0,.01,0,.02Z"/>
    <path class="cls-4" d="m203.99,318.58s.02.02.03.03l.03.03s0-.01,0-.02c-.02-.01-.03-.03-.05-.04Z"/>
    <path class="cls-4" d="m165.99,416.99c-.18-3.27-.27-6.55-.45-9.82-.05-.88-.31-1.75-.38-2.64-.11-1.41-.39-2.94,1.95-2.71,1.32.13,2.05-.55,1.81-2.01-.85-5.27-1.76-10.53-2.52-15.82-1.19-8.25-4.59-15.68-8.46-23.55-.21,1.06-.33,1.62-.43,2.18-.51,2.67-1.07,5.33-1.49,8.01-.27,1.7-1.51,2.18-2.86,2.45-1.35.26-2.8.1-4.09.52-1.19.38-3.03-.33-3.41,1.79-.5,2.82-1.18,5.6-1.66,8.42-.51,2.95-1.59,5.5-4.39,6.97-2.23,1.18-3.05,2.84-3.37,5.49-.93,7.88-2.41,15.69-3.68,23.53-.85,5.21-1.7,10.43-2.57,15.7h36.91c.75-5.71,1.54-11.41,2.33-17.22-2.37.61-3.18.27-3.27-1.29Z"/>
    <path class="cls-4" d="m139.74,388.14c.58-.45,1.49-.86,1.64-1.44.84-3.3,1.49-6.66,2.21-9.99-.18-.13-.36-.26-.55-.39-.3.47-.57.97-.91,1.41-2.36,3.03-5.46,2.27-8.52,1.64-2.98-.62-4.32-2.93-4.73-5.51-.5-3.14-.35-6.38-.48-9.57-.09-.12-.18-.24-.27-.37-.86,1.03-1.73,2.07-2.59,3.1-.29-.15-.58-.3-.87-.45.38-1.17.76-2.34,1.18-3.66-.79.35-1.53.69-2.36,1.06-.23-2.91,2.56-4.96,5.08-4.03,2.83-3.23,5.48-6.65,8.54-9.63,3.65-3.56,5.26-7.78,5.16-12.72-.03-1.77-.58-3.52-.72-5.29-.07-.83,0-1.9.47-2.5.62-.79,5.23.32,5.83,1.23,2.94,4.42,4.18,9.16,1.56,14.05-1.34,2.5.13,2.64,1.71,3.11.28.08.56.17.9.27-1.43-3.51-1.41-3.63,1.36-6.06,1.24-1.09,2.52-2.13,3.77-3.19-1.82-1.99-3.49-3.86-5.21-5.68-2.98-3.15-5.99-6.27-8.98-9.41-.96-1.01-1.11-2.07-.85-3.55.45-2.51.34-5.13.48-7.93-6.28,3.81-12.42,7.52-18.48,11.19,1.56,4.15,4.69,7.32,5.25,11.71-3.33-2.31-4.27-6.3-6.86-9.42-.92,2.77-2.04,5.57-2.05,8.37-.02,4.12.72,8.24,1.17,12.36.29,2.67.8,5.32.94,7.99.16,3.04.13,6.1-.03,9.15-.15,2.67-.91,5.34-.84,7.99.09,3.21.68,6.42,1.22,9.6.27,1.57.7,3.2,1.45,4.59,1.58,2.98,4.44,4.35,7.56,5.07,1.19.27,2.66.4,3.7-.08,1.52-.69,2.77-1.98,4.12-3.03Z"/>
    <path class="cls-4" d="m152.98,301.66c2.44,2.15,5.27,3.21,8.35,3.34,1.85.08,3.72-.73,5.6-1.02.48-.07,1.03.35,1.55.55-.3.46-.52,1.25-.92,1.34-4.61,1.16-9.19,1.58-13.52-1.05-.7-.43-1.46-.75-2.22-1.13-.71,2.24.04,3.52,1.8,4.52,2.07,1.17,4.23,2.32,5.97,3.9,4.3,3.88,9.67,3.1,14.96,4.11.28-4.98.54-9.64.8-14.43-1.2.72-2.15,1.28-3.1,1.85-.23-.21-.45-.42-.68-.62.56-.81,1.09-1.64,1.67-2.44,1.22-1.67,2.95-3.14,3.61-5,1.88-5.33,1.53-10.97,1.25-16.5-.08-1.67-1.37-3.34-2.31-4.89-.99-1.64-2.23-3.13-3.6-5.02h-2.96c.09.18.17.36.26.53-1.76.89-3.52,1.77-5.28,2.66-1.1-2.12.7-2.31,1.66-3.01-.06-.17-.12-.34-.19-.52-5.06.93-10.11,1.85-15.2,2.78.95.55,1.65.95,2.36,1.36-.77.28-1.57.87-2.29.77-1.56-.22-3.11,1.17-4.79-.23-.45-.38-2.15.74-3.53,1.27.9,4.14,1.52,8.12,2.67,11.95,1.65,5.49,3.52,10.92,8.08,14.93Zm15.33-26.9c.81,1.08,1.29,2.41,1.91,3.63-.15.08-.3.16-.45.24,0,.49.15,1.05-.03,1.46-.29.63-.72,1.52-1.24,1.64-.55.13-1.73-.37-1.87-.82-.53-1.74-.92-3.56-1.01-5.37-.05-1.09,2-1.69,2.69-.78Zm-1.48,16.19c.39-.27,1.02-.19,1.82-.31-.48,2.17-1.83,3-3.36,3.38-2.28.57-4.62.95-6.95,1.29-.32.05-.73-.59-1.1-.91.27-.24.53-.68.81-.69,3.19-.12,6.14-.93,8.79-2.76Zm-10.87-6.63c1.22-1.74,1.77-3.47,1.61-5.55-.04-.49.44-1.03.68-1.55.32.44.75.84.95,1.34.89,2.26.15,4.17-1.17,6.07-.34.5-.22,1.75.19,2.25.9,1.08,2.12,1.91,3.36,2.97-.45.42-.77.8-.84.76-1.6-.93-3.39-1.69-4.65-2.97-.6-.61-.67-2.55-.14-3.31Zm-5.89.29c-.66-1.68-1.11-3.49-1.31-5.28-.06-.5,1-1.41,1.7-1.62.5-.15,1.55.4,1.83.93.6,1.1.85,2.39,1.22,3.52-.25.92-.34,1.69-.68,2.33-.55,1.04-2.35,1.17-2.76.12Z"/>
    <path class="cls-5" d="m176.3,267.47c3.02.26,4.32,1.09,4.96,3.21.3-.7.63-1.83.31-2.06-2.4-1.73-1.98-4.4-2.5-6.77-.57-2.6-.72-5.43-1.9-7.72-2.72-5.29-7.96-7.59-13.21-10.17,0,.85-.06,1.33.01,1.79.22,1.35.58,2.68.69,4.04.04.51-.42,1.06-.66,1.59-.33-.44-.83-.84-.96-1.33-.37-1.45-.43-3.01-.93-4.41-.54-1.5-.09-3.68-2.25-4.25-2.58-.68-5.15-.5-7.53.78-2.72,1.46-2.86,1.96-2.44,5.25.24,1.86.36,3.73.41,5.6.01.43-.47.87-.73,1.31-.31-.39-.81-.75-.89-1.18-.38-2.16-.65-4.34-.99-6.68-.67.41-1.25.76-1.83,1.11-3.3,2.05-5.84,4.67-6.99,8.54-1.27,4.25-.96,8.5-.5,12.8.22,2.1.75,4.3-1.45,5.92-.57.42-.73,1.41-1.08,2.13.72.08,1.1-.05,1.23-.31,1.06-2.14,3.01-3.24,5.06-4.04,10.99-4.28,22.36-6.17,34.17-5.17Zm-3.6-3.41c-1.28,1.3-2.84,1.28-5-.14,1.66-1.61,3.26-1.54,5,.14Zm-32.75-4.97c.25-1.06.26-2.29.83-3.14.42-.63,1.68-1.17,2.37-.99.54.14,1.05,1.43,1.08,2.23.05.98-.32,2.02-.68,2.98-.23.62-.77,1.12-.95,1.38-2.37.06-3.05-.77-2.65-2.45Zm4.45,8.69c6.03-2.48,12.41-3.64,18.85-4.41.4-.05.88.67,1.33,1.03-.38.32-.73.88-1.13.91-6.39.48-12.53,1.98-18.5,4.27-1.36.52-2.72,1.02-4.31,1.62.2-2.86,2.36-2.86,3.76-3.43Z"/>
    <path class="cls-4" d="m144.74,322.72c1.85,2.82,4.56,5.07,6.9,7.56,2.2,2.34,4.44,4.64,6.59,7.03.82.92,1.69,2.01.38,3.23-1.47,1.37-2.93,2.78-4.49,4.05-.98.8-.88,1.53-.4,2.52,3.25,6.79,6.46,13.6,9.7,20.4,3.9,8.19,5.13,17.03,6.35,25.88.37,2.68.71,5.36,1.07,8.04.16,0,.32,0,.48-.01.33-3.21,1-6.43.91-9.63-.15-5.61-.75-11.2-1.19-16.8-.26-3.31-.44-6.63-.89-9.92-.56-4.13-1.46-8.22-2.04-12.35-.83-5.83-2.28-11.48-4.89-16.75-4.7-9.46-9.58-18.82-14.4-28.28-2.35,2.42-5.41,4.27-4.42,8.29.05.21-.31.51-.29.75.14,2.03-.34,4.5.64,5.99Z"/>
    <path class="cls-4" d="m144.31,360.39c4.03.28,7.73.53,11.47.79v-3.68c-2.67-.28-5.34-.47-7.96-.9-1-.17-1.91-.91-2.86-1.39,1.06-.17,2.13-.55,3.17-.48,2.39.16,4.77.53,7.28.83-1.2-3.85-1.48-4.11-4.59-5.28-1.65-.62-3.27-1.32-4.83-2.14-.68-.35-1.16-1.07-2.13-1.99,1.36-.16,2.09-.24,2.92-.34,2.7-3.81,2.9-7.86.35-12.17-.87-1.47-1.57-2.35-3.64-1.73.12.83.34,1.63.35,2.43.03,2.51.08,5.02-.06,7.53-.29,4.91-3.48,8.26-6.77,11.33-3.03,2.81-4.39,6.17-4.88,10.11-.07.55-.78,1.02-1.54,1.95.37,1.37-1.04,3.77,1.04,5.87.15-1.74.65-1.9,1.93-1.1,2.89,1.8,6.15,2.71,9.52,2.6,2.72-.09,5.41-.85,8.13-1.17,2.78-.32,3.03-.47,3.42-3.3-3.09-.59-6.47.85-9.37-1.14,0-.22,0-.44,0-.66h10.07c.21-1.15.4-2.18.61-3.3-2.79-.18-5.31-.2-7.77-.55-1.25-.18-3,.31-3.85-2.11Z"/>
    <path class="cls-4" d="m167.79,416.74c8.17-.45,16.24-.89,24.36-1.34-.3-4.66-.58-9.07-.86-13.39-8.05.52-15.96,1.04-24.14,1.57.21,4.39.42,8.66.64,13.16Z"/>
    <path class="cls-5" d="m173.74,330.63c-.19.17-.38.34-.57.51.56,4.79,1.28,9.56,1.62,14.37.35,4.95.38,9.93.46,14.9.17,10.59.23,21.18.47,31.77.07,2.93.64,5.85.97,8.67h4.32c.34-3.05.73-5.93.97-8.83.23-2.77.52-5.57.38-8.34-.16-3.08-.8-6.14-1.18-9.21-.6-4.72-1.08-9.45-1.76-14.16-.74-5.16-1.64-10.3-2.47-15.45-.7-4.33-1.38-8.67-2.15-12.99-.08-.47-.7-.84-1.07-1.25Z"/>
    <path class="cls-4" d="m183.65,435.05c-.13.17-.25.32-.38.45h5.86c-.14-2.35-.29-4.73-.44-7.19-1.8,2.42-3.4,4.59-5.03,6.73Z"/>
    <path class="cls-4" d="m181.12,435.46c-1.88-1.7-3.81-3.42-5.98-4.69-2.27-1.33-2.56-3.13-2.43-5.4.13-2.3.03-4.62.03-6.93l-.51-.35c-.39.4-1.05.75-1.13,1.21-.39,2.02-.61,4.07-.89,6.1-.4,2.92-.82,5.85-1.17,8.78-.05.44-.1.88-.15,1.32h12.3s-.04-.03-.06-.05Z"/>
    <path class="cls-4" d="m179.83,329.44c-.43-.32-.96-.56-1.25-.98-.66-.92-1.21-1.92-1.8-2.88-.25.03-.49.06-.74.09,2.37,16.03,4.75,32.05,7.08,47.77,2.31-16.07,2.23-32.32-2.66-48.32-.08.82.16,1.63.1,2.42-.05.65-.47,1.27-.73,1.9Z"/>
    <path class="cls-5" d="m185.74,417.92c-3,0-5.83-.03-8.67.01-1.79.03-2.67,1-2.66,2.8.01,1.68.12,3.38-.03,5.05-.13,1.38.46,2.26,1.43,3.03,2.04,1.61,4.1,3.2,6.3,4.91,1.01-1.34,1.78-2.57,2.77-3.61,1.32-1.38,2.07-2.87,1.8-4.82-.35-2.58-.66-5.16-.94-7.37Z"/>
    <path class="cls-4" d="m188.71,383.05c.66-5.45,1.62-11.77,2.14-18.13.53-6.45.67-12.93.84-19.4.03-.96-.52-2.08-1.12-2.88-1.69-2.23-3.55-4.34-5.16-6.27,1.11,15.66,2.24,31.6,3.3,46.68Z"/>
    <path class="cls-4" d="m166.33,338.19c2.84,7.79,4.12,15.92,5.54,24.03.6,3.4,1.01,6.84,1.51,10.26.18-3.63-.2-7.24-.19-10.85.03-8.51-.16-16.99-1.24-25.46-.38-2.99-.63-5.83-3.36-7.68q-1.29,2.37-3.95,1.1c-.19-.09-.36-.21-.54-.32-.09.12-.19.24-.28.36.83,2.86,1.49,5.78,2.51,8.56Z"/>
    <path class="cls-4" d="m151.67,309.44c1.71,3.43,3.88,6.51,5.32,9.9,1.42,3.35,3.66,5.63,6.7,7.34.87.49,1.72,1.01,2.57,1.51,1.7-3.41,3.4-6.81,5.34-10.7-8.1.63-13.83-4.08-19.92-8.05Z"/>
    <path class="cls-4" d="m188.04,326.91c.39-.91.55-1.51.09-2.51-1.85-3.98-3.55-8.03-5.22-12.1-.61-1.49-1.41-2.48-3.14-2.62-.89-.07-1.75-.52-2.67-.82,2.77,8.51,5.48,16.86,8.18,25.16.84-2.19,1.71-4.69,2.77-7.12Z"/>
    <path class="cls-4" d="m186.17,371.22c-1.97,12.02-1.53,28.39,1.08,29.53-.37-10.06-.72-19.8-1.08-29.53Z"/>
    <path class="cls-5" d="m172.6,319.69c-.87,1.79-1.74,3.35-2.38,4.99-.25.64-.15,1.52.06,2.22.72,2.39,2.46,2.37,4.52,1.62-.12-2.97.93-6.23-2.21-8.84Z"/>
    <path class="cls-4" d="m133.3,374.78c-.75-.46-1.44-1.04-2.15-1.56-.09.12-.19.24-.28.36,1.17,3.3,3.36,4.8,6.74,4.62,1.78-.09,3.99-1.92,4.54-3.85-.43.18-.87.24-1.13.49-2.6,2.5-5.17,1.5-7.72-.05Z"/>
    <path class="cls-4" d="m179.39,278.54c1.16-.5,1.76-.77,2.79-1.21-.34-.5-.93-.92-1.35-1.39-.4.73-.81,1.45-1.44,2.61Z"/>
    <path class="cls-4" d="m180.26,287.29c2.25-2.83,3.15-6,2.14-9.52-.02-.09-.08-.16-.12-.25-.31,1.15-.35,2-.79,2.47-2.04,2.2-1.63,4.73-1.23,7.3Z"/>
    <path class="cls-4" d="m182.34,277.25c-.06.03-.11.05-.17.07.04.06.07.13.1.2.02-.09.04-.17.07-.27Z"/>
    <path class="cls-4" d="m173.84,317.69c1.54,2.22,2.83,4.06,4.11,5.91.16-.05.32-.11.48-.16-.42-2.96-.84-5.93-1.25-8.89-.21,0-.42.01-.62.02-.07,1.63.45,3.7-2.71,3.13Z"/>
    <path class="cls-4" d="m280.66,425.19c-3.06-.89-6.13-1.75-9.22-2.5-.42-.1-1.01.49-1.52.77.05.2.09.4.14.6,3.73.79,7.46,1.58,11.78,2.5-.67-.8-.87-1.27-1.18-1.36Z"/>
    <path class="cls-4" d="m141.4,281.68c-.53,1.2-1.33,2.14-1.12,2.65,1,2.31,2.28,4.49,3.47,6.72.09-.12.19-.24.28-.36-.82-2.8-1.63-5.6-2.63-9Z"/>
    <path class="cls-4" d="m273.66,417.91c1.25.29,2.48.62,3.72.96,1.85.5,3.7,1.02,5.56,1.53.05-.17.1-.34.15-.51-.84-.29-1.69-.58-2.53-.87-2.99-1.01-5.98-2.01-8.96-3.01.47.87,1,1.66,2.07,1.91Z"/>
    <path class="cls-4" d="m271.52,415.9h0s-.05.05-.05.05c.04.01.08.03.12.04-.02-.03-.04-.06-.06-.1,0,0,0,0,0,0Z"/>
    <path class="cls-4" d="m273.66,417.91c-1.07-.25-1.61-1.04-2.07-1.91,0,0,0,0,0,0,.47.87,1.01,1.66,2.08,1.91Z"/>
    <path class="cls-4" d="m164.1,329.27c-.19-.13-.38-.26-.57-.39.1.25.2.5.29.75.09-.12.19-.24.28-.36Z"/>
    <path class="cls-4" d="m130.57,372.83c.1.25.2.5.29.75.09-.12.19-.24.28-.36-.19-.13-.38-.26-.57-.39Z"/>
    <path class="cls-4" d="m224.18,383.6l-.39-.56c-.12.09-.25.17-.37.26.25.1.51.2.77.3Z"/>
    <path class="cls-4" d="m143.75,291.04c.19.13.38.26.57.39-.1-.25-.2-.5-.29-.75-.09.12-.19.24-.28.36Z"/>
    <path class="cls-4" d="m128.7,363.54c-.19.12-.38.25-.57.37.09.12.18.24.27.37.1-.25.2-.49.3-.74Z"/>
    <path d="m202.3,319.97c.46,4.1.84,8.22,1.31,12.32.04.38.5.72.77,1.08.29-.4.79-.77.84-1.2.13-.97.12-1.97.01-2.94-.38-3.54-.83-7.07-1.26-10.6-1.25-.45-1.85-.15-1.69,1.35Z"/>
    <path d="m203.99,318.58s0,.03,0,.04c.02,0,.04.01.05.02,0,0-.01-.01-.03-.03l-.03-.03Z"/>
    <path d="m203.99,318.58l.03.03s-.03-.03-.03-.03Z"/>
    <path d="m219.3,385.41c-.42.26-.54,1.02-.79,1.55.52.04,1.1.24,1.53.07,1.06-.41,2.14-.9,3.05-1.56.53-.39.81-1.13,1.18-1.73,0,0,0-.02,0-.03-.03-.04-.05-.08-.08-.12-.26-.1-.51-.2-.77-.3-1.38.69-2.81,1.31-4.12,2.12Z"/>
    <path d="m224.27,383.74s.03-.06.05-.09l-.06.06s0,.02,0,.03Z"/>
    <path d="m224.32,383.66s-.09-.04-.14-.06c.03.04.05.08.08.12l.06-.06Z"/>
    <path d="m160.74,290.6c.07.04.38-.34.84-.76-1.24-1.06-2.46-1.88-3.36-2.97-.41-.49-.53-1.75-.19-2.25,1.32-1.9,2.07-3.81,1.17-6.07-.2-.49-.62-.89-.95-1.34-.24.52-.72,1.05-.68,1.55.16,2.08-.38,3.81-1.61,5.55-.53.75-.46,2.7.14,3.31,1.26,1.28,3.05,2.04,4.65,2.97Z"/>
    <path d="m152.82,284.49c.34-.64.42-1.41.68-2.33-.37-1.13-.63-2.42-1.22-3.52-.28-.52-1.33-1.07-1.83-.93-.7.21-1.75,1.12-1.7,1.62.2,1.79.65,3.6,1.31,5.28.41,1.04,2.21.92,2.76-.12Z"/>
    <path d="m168.5,281.73c.53-.13.96-1.01,1.24-1.64.18-.41.03-.97.03-1.46.15-.08.3-.16.45-.24-.62-1.22-1.1-2.56-1.91-3.63-.69-.91-2.74-.31-2.69.78.08,1.81.48,3.63,1.01,5.37.14.45,1.31.95,1.87.82Z"/>
    <path d="m157.23,294.4c.37.32.78.96,1.1.91,2.33-.34,4.67-.71,6.95-1.29,1.53-.38,2.88-1.21,3.36-3.38-.79.12-1.43.04-1.82.31-2.66,1.83-5.6,2.64-8.79,2.76-.28.01-.54.45-.81.69Z"/>
    <path d="m163.44,265.32c.4-.03.76-.6,1.13-.91-.44-.36-.93-1.08-1.33-1.03-6.44.77-12.82,1.93-18.85,4.41-1.4.57-3.56.58-3.76,3.43,1.59-.6,2.95-1.1,4.31-1.62,5.97-2.29,12.11-3.8,18.5-4.27Z"/>
    <path class="cls-4" d="m143.55,260.16c.36-.95.73-1.99.68-2.98-.04-.8-.54-2.09-1.08-2.23-.69-.18-1.95.36-2.37.99-.57.85-.58,2.08-.83,3.14-.4,1.68.27,2.51,2.65,2.45.18-.25.72-.76.95-1.38Z"/>
    <path d="m172.7,264.06c-1.74-1.68-3.35-1.75-5-.14,2.16,1.42,3.72,1.44,5,.14Z"/>
    <path class="cls-4" d="m254.3,422.09c.53.6,1.11,1.37,1.81,1.57,5.34,1.53,10.68,3.07,16.08,4.33,2.11.49,4.38.29,6.58.41.02-.21.03-.43.05-.64-3.71-.66-7.42-1.32-11.38-2.02,0,.09-.15-.42-.02-.85.83-2.72,1.68-5.43,2.64-8.1.04-.1.12-.19.22-.27.29-.22.77-.37,1.15-.57-1.91-1.18-3.83-2.36-5.81-3.59-.87.98-1.56,2.77-3.6,3.07-.15-2.57,2.59-5.51,4.93-5.53,3.45-.03,6.62-2.37,7.18-5.47-.54.3-1.06.46-1.39.8-1.72,1.74-3.75,2.34-6.2,2.19-1.62-.1-3.54-.19-4.87.55-4.63,2.58-7.69,6.68-9.76,11.12.91,1.14,1.61,2.12,2.4,3.01Z"/>
    <path class="cls-4" d="m271.44,415.94s.02.01.02.02c0,0,.04-.04.05-.05-.02.01-.05.02-.08.04Z"/>
    <path class="cls-4" d="m270.28,416.51c.29-.22.78-.37,1.15-.57,0,0,0,0,0,0-.38.2-.86.35-1.15.57Z"/>
    <path class="cls-4" d="m271.52,415.9s-.05.05-.05.05l.05-.05h0Z"/>
    <path class="cls-4" d="m271.31,420.72c4.04,1.09,7.95,2.15,11.87,3.2.14-.31.28-.61.43-.92-3.76-2.09-8.23-2.26-12.3-4.04v1.76Z"/>
    <path class="cls-4" d="m247.63,422.02c2.35-3.79,4.48-7.23,6.68-10.79-.39-.02-.61-.09-.65-.03-2.18,3.02-4.38,6.04-6.48,9.12-.18.26.22.91.45,1.7Z"/>
  </g>
</svg>