<svg width="20" height="20" viewBox="0 0 20 20" fill="none" xmlns="http://www.w3.org/2000/svg">
<path d="M4.16699 10.3575C4.16699 11.5818 4.53006 12.7787 5.21028 13.7967C5.89049 14.8147 6.85731 15.6082 7.98848 16.0767C9.11964 16.5453 10.3643 16.6679 11.5652 16.429C12.766 16.1901 13.869 15.6006 14.7348 14.7348C15.6006 13.869 16.1901 12.766 16.429 11.5652C16.6679 10.3643 16.5453 9.11964 16.0767 7.98848C15.6082 6.85732 14.8147 5.8905 13.7967 5.21028C12.7787 4.53006 11.5818 4.167 10.3575 4.167C8.58411 4.16503 6.87837 4.84733 5.59556 6.07176" stroke="#9BA0A9" stroke-width="1.5" stroke-linecap="round" stroke-linejoin="round"/>
<path d="M6.07189 4.16699L5.5957 6.07175L7.50046 6.54794" stroke="#9BA0A9" stroke-width="1.5" stroke-linecap="round" stroke-linejoin="round"/>
<path d="M10.3575 7.02441V10.8339L7.88135 12.072" stroke="#9BA0A9" stroke-width="1.5" stroke-linecap="round" stroke-linejoin="round"/>
</svg>
