<svg width="80" height="80" viewBox="0 0 80 80" fill="none" xmlns="http://www.w3.org/2000/svg">
<circle cx="40" cy="40" r="40" fill="#EFF5FC"/>
<path fill-rule="evenodd" clip-rule="evenodd" d="M37 40C37 38.3431 38.3431 37 40 37C41.6569 37 43 38.3431 43 40C43 41.6569 41.6569 43 40 43C38.3431 43 37 41.6569 37 40Z" fill="#317FDA"/>
<path fill-rule="evenodd" clip-rule="evenodd" d="M47.5 40C47.5 38.3431 48.8431 37 50.5 37C52.1569 37 53.5 38.3431 53.5 40C53.5 41.6569 52.1569 43 50.5 43C48.8431 43 47.5 41.6569 47.5 40Z" fill="#317FDA"/>
<path fill-rule="evenodd" clip-rule="evenodd" d="M26.5 40C26.5 38.3431 27.8431 37 29.5 37C31.1569 37 32.5 38.3431 32.5 40C32.5 41.6569 31.1569 43 29.5 43C27.8431 43 26.5 41.6569 26.5 40Z" fill="#317FDA"/>
</svg>
