<svg width="80" height="80" viewBox="0 0 80 80" fill="none" xmlns="http://www.w3.org/2000/svg">
<circle cx="40" cy="40" r="40" fill="#EFF5FC"/>
<path fill-rule="evenodd" clip-rule="evenodd" d="M38.7049 47.0574C39.9388 48.4471 41.6086 49.441 43.5 49.825V55.25C43.5 56.2165 44.2835 57 45.25 57C46.2165 57 47 56.2165 47 55.25V49.825C50.9939 49.0142 54 45.4832 54 41.25V30.75C54 25.9175 50.0825 22 45.25 22C40.6848 22 36.9361 25.4962 36.5354 29.9571C35.4979 29.3488 34.2897 29 33 29C29.134 29 26 32.134 26 36V43C26 46.2617 28.2309 49.0024 31.25 49.7795V55.25C31.25 56.2165 32.0335 57 33 57C33.9665 57 34.75 56.2165 34.75 55.25V49.7795C36.3692 49.3627 37.7617 48.3812 38.7049 47.0574ZM40 30.75V41.25C40 43.5359 41.4609 45.4806 43.5 46.2013V41.25C43.5 40.2835 44.2835 39.5 45.25 39.5C46.2165 39.5 47 40.2835 47 41.25V46.2013C49.0391 45.4806 50.5 43.5359 50.5 41.25V30.75C50.5 27.8505 48.1495 25.5 45.25 25.5C42.3505 25.5 40 27.8505 40 30.75ZM31.25 46.0318V41.25C31.25 40.2835 32.0335 39.5 33 39.5C33.9665 39.5 34.75 40.2835 34.75 41.25V46.0318C35.7962 45.4266 36.5 44.2955 36.5 43V36C36.5 34.067 34.933 32.5 33 32.5C31.067 32.5 29.5 34.067 29.5 36V43C29.5 44.2955 30.2038 45.4266 31.25 46.0318Z" fill="#317FDA"/>
</svg>
