<svg width="112" height="112" viewBox="0 0 112 112" fill="none" xmlns="http://www.w3.org/2000/svg">
<rect width="112" height="112" rx="24" fill="white"/>
<g clip-path="url(#clip0_1625_43313)">
<path d="M103.598 25.5959H63.4305L52.1836 34.5492V92H103.598V25.5959Z" fill="#6C9EFF"/>
<path d="M92.3515 27.8342H70.6611V48.7254H92.3515V27.8342Z" fill="white"/>
<path d="M54.5938 56.1865H93.9578" stroke="white" stroke-width="2" stroke-linecap="round" stroke-linejoin="round"/>
<path d="M61.8239 63.6477H54.5938" stroke="white" stroke-width="2" stroke-linecap="round" stroke-linejoin="round"/>
<path d="M93.9578 63.6477H69.8574" stroke="white" stroke-width="2" stroke-linecap="round" stroke-linejoin="round"/>
<path d="M93.9578 71.1088H54.5938" stroke="white" stroke-width="2" stroke-linecap="round" stroke-linejoin="round"/>
<path d="M77.0875 78.5699H54.5938" stroke="white" stroke-width="2" stroke-linecap="round" stroke-linejoin="round"/>
<path d="M93.9576 78.5699H84.3174" stroke="white" stroke-width="2" stroke-linecap="round" stroke-linejoin="round"/>
<path d="M48.167 86.0311H22.8616C20.4194 86.0311 18.4432 84.1956 18.4432 81.9275C18.4432 79.6593 20.4194 77.8238 22.8616 77.8238H48.167V74.0933H22.8616C17.7443 74.0933 13.6793 78.3461 14.5469 83.2481C15.2217 87.0533 18.9332 89.7617 23.0945 89.7617H48.175V86.0311H48.167Z" fill="#6C9EFF"/>
<path d="M48.9705 54.6943H25.2717C22.8296 54.6943 20.8533 52.8589 20.8533 50.5907C20.8533 48.3225 22.8296 46.487 25.2717 46.487H48.9705V42.7565H25.2717C20.1544 42.7565 16.0895 47.0093 16.9571 51.9113C17.6319 55.7165 21.3434 58.4249 25.5047 58.4249H48.9785V54.6943H48.9705Z" fill="#6C9EFF"/>
<path d="M103.196 87.8964H12.418" stroke="#2B2B2B" stroke-width="2" stroke-linecap="round" stroke-linejoin="round"/>
<path d="M47.3645 83.7927H22.059C19.6169 83.7927 17.6406 81.9573 17.6406 79.6891C17.6406 77.4209 19.6169 75.5855 22.059 75.5855H47.3645" stroke="#2B2B2B" stroke-width="2" stroke-linecap="round" stroke-linejoin="round"/>
<path d="M47.3643 71.8549H22.0588C16.9415 71.8549 12.8766 76.1078 13.7442 81.0097C14.419 84.8149 18.1305 87.5233 22.2918 87.5233H47.3723" stroke="#2B2B2B" stroke-width="2" stroke-linecap="round" stroke-linejoin="round"/>
<path d="M24.0674 76.3316V83.0466" stroke="#2B2B2B" stroke-width="2" stroke-linecap="round" stroke-linejoin="round"/>
<path d="M47.3642 68.1244H17.2387C14.7965 68.1244 12.8203 66.2889 12.8203 64.0207C12.8203 61.7525 14.7965 59.9171 17.2387 59.9171H47.3642" stroke="#2B2B2B" stroke-width="2" stroke-linecap="round" stroke-linejoin="round"/>
<path d="M47.3641 56.1865H17.2385C12.1212 56.1865 8.05627 60.4394 8.92388 65.3413C9.5987 69.1465 13.3102 71.8549 17.4715 71.8549H47.3641" stroke="#2B2B2B" stroke-width="2" stroke-linecap="round" stroke-linejoin="round"/>
<path d="M19.2471 60.6632V67.3782" stroke="#2B2B2B" stroke-width="2" stroke-linecap="round" stroke-linejoin="round"/>
<path d="M47.3636 52.456H24.4682C22.026 52.456 20.0498 50.6205 20.0498 48.3523C20.0498 46.0841 22.026 44.2487 24.4682 44.2487H47.3636" stroke="#2B2B2B" stroke-width="2" stroke-linecap="round" stroke-linejoin="round"/>
<path d="M47.3644 40.5181H24.469C19.3517 40.5181 15.2867 44.771 16.1544 49.6729C16.8292 53.4781 20.5406 56.1865 24.702 56.1865H47.3724" stroke="#2B2B2B" stroke-width="2" stroke-linecap="round" stroke-linejoin="round"/>
<path d="M26.4766 44.9948V51.7098" stroke="#2B2B2B" stroke-width="2" stroke-linecap="round" stroke-linejoin="round"/>
<path d="M47.7656 87.8964V30.4456L59.8158 20.7461H99.9832V87.8964" stroke="#2B2B2B" stroke-width="2" stroke-linecap="round" stroke-linejoin="round"/>
<path d="M47.7656 30.4456L59.8158 31.1917V20.7461" stroke="#2B2B2B" stroke-width="2" stroke-linecap="round" stroke-linejoin="round"/>
</g>
<defs>
<clipPath id="clip0_1625_43313">
<rect width="96" height="72" fill="white" transform="translate(8 20)"/>
</clipPath>
</defs>
</svg>
