<svg width="112" height="112" viewBox="0 0 112 112" fill="none" xmlns="http://www.w3.org/2000/svg">
<rect width="112" height="112" rx="24" fill="white"/>
<path d="M81.1343 38.1714C76.0617 38.1714 71.7545 41.5647 70.1636 46.2903C70.0661 46.5881 69.8034 46.7918 69.5033 46.7918C69.2031 46.7918 68.948 46.5881 68.8429 46.2903C67.2521 41.5647 62.9449 38.1714 57.8722 38.1714C52.7996 38.1714 48.4923 41.5647 46.9015 46.2903C46.804 46.5881 46.5413 46.7918 46.2412 46.7918C45.941 46.7918 45.6859 46.5881 45.5808 46.2903C43.99 41.5647 39.6828 38.1714 34.6101 38.1714C29.5375 38.1714 25.4178 41.4315 23.752 46.0003C24.1572 26.6749 39.27 11.1347 57.8722 11.1347C76.4744 11.1347 91.5948 26.6749 91.9925 46.0003C90.3266 41.4237 86.0944 38.1714 81.1343 38.1714Z" fill="#6C9EFF"/>
<path d="M64.626 82.449H60.1236V77.7469H54.8709V82.449H49.6182V87.9347H54.8709V93.4204H60.1236V87.9347H64.626V82.449Z" fill="#6C9EFF"/>
<path d="M66.8172 43.2653C66.8547 42.2309 66.8773 41.1886 66.8773 40.1306C66.8773 22.8193 61.5045 8.78368 54.871 8.78368C48.2375 8.78368 42.8647 22.8193 42.8647 40.1306C42.8647 41.1886 42.8873 42.2309 42.9248 43.2653" stroke="white" stroke-width="2" stroke-linecap="round" stroke-linejoin="round"/>
<path d="M31.6086 35.8204C36.6813 35.8204 40.9885 39.2137 42.5794 43.9393C42.6769 44.2371 42.9395 44.4408 43.2397 44.4408C43.5399 44.4408 43.795 44.2371 43.9 43.9393C45.4909 39.2137 49.7981 35.8204 54.8708 35.8204C59.9434 35.8204 64.2506 39.2137 65.8415 43.9393C65.939 44.2371 66.2017 44.4408 66.5018 44.4408C66.802 44.4408 67.0571 44.2371 67.1622 43.9393C68.753 39.2137 73.0602 35.8204 78.1329 35.8204C83.2055 35.8204 87.3252 39.0805 88.991 43.6493C88.5933 24.3239 73.4805 8.78368 54.8708 8.78368C36.2611 8.78368 21.1557 24.3239 20.7505 43.6493C22.4164 39.0727 26.6486 35.8204 31.6086 35.8204Z" stroke="#2B2B2B" stroke-width="2" stroke-linecap="round" stroke-linejoin="round"/>
<path d="M77.7577 64.8163H31.9839V103.216H77.7577V64.8163Z" stroke="#2B2B2B" stroke-width="2" stroke-linecap="round" stroke-linejoin="round"/>
<path d="M66.8772 44.049L57.1221 63.6408" stroke="#2B2B2B" stroke-width="2" stroke-linecap="round" stroke-linejoin="round"/>
<path d="M88.6382 44.049L62.3745 64.4245" stroke="#2B2B2B" stroke-width="2" stroke-linecap="round" stroke-linejoin="round"/>
<path d="M42.8647 44.049L52.6198 63.6408" stroke="#2B2B2B" stroke-width="2" stroke-linecap="round" stroke-linejoin="round"/>
<path d="M21.103 44.049L47.3667 64.4245" stroke="#2B2B2B" stroke-width="2" stroke-linecap="round" stroke-linejoin="round"/>
<path d="M62.3745 80.8816H57.8722V76.1796H52.6194V80.8816H47.3667V86.3674H52.6194V91.8531H57.8722V86.3674H62.3745V80.8816Z" stroke="#2B2B2B" stroke-width="2" stroke-linecap="round" stroke-linejoin="round"/>
</svg>
