<svg width="112" height="112" viewBox="0 0 112 112" fill="none" xmlns="http://www.w3.org/2000/svg">
<rect width="112" height="112" rx="24" fill="white"/>
<path d="M43.0793 14.7686H82.9593C84.6881 14.7686 86.0962 16.1925 86.0962 17.9407V21.8879H39.9424V17.9407C39.9424 16.1925 41.3505 14.7686 43.0793 14.7686Z" fill="#6C9EFF"/>
<path d="M39.9424 81.2155H86.0962V85.1628C86.0962 86.911 84.6881 88.3349 82.9593 88.3349H43.0793C41.3505 88.3349 39.9424 86.911 39.9424 85.1628V81.2155Z" fill="#6C9EFF"/>
<path d="M21.3018 94.1838L48.6162 107.997L51.5659 102.033L24.2515 88.2196L21.3018 94.1838Z" fill="#6C9EFF"/>
<path d="M65.7574 38.4997H60.5084C59.3663 38.4997 58.2633 38.0409 57.4575 37.2182L57.1603 36.9176L54.8135 37.7086V36.9176C54.8135 33.8563 57.262 31.3804 60.2894 31.3804C63.3167 31.3804 65.7652 33.8563 65.7652 36.9176V38.4997H65.7574Z" fill="#6C9EFF"/>
<path d="M52.459 55.1114V54.3204" stroke="#6C9EFF" stroke-width="2" stroke-linecap="round" stroke-linejoin="round"/>
<path d="M57.9346 55.1114V54.3204" stroke="#6C9EFF" stroke-width="2" stroke-linecap="round" stroke-linejoin="round"/>
<path d="M63.4106 55.1114V54.3204" stroke="#6C9EFF" stroke-width="2" stroke-linecap="round" stroke-linejoin="round"/>
<path d="M70.0598 66.1859H69.3949C69.567 65.822 69.6687 65.4265 69.6687 64.9993C69.6687 63.4726 68.4405 62.2307 66.9307 62.2307H53.6322C52.1224 62.2307 50.8942 63.4726 50.8942 64.9993C50.8942 65.4265 50.9959 65.822 51.168 66.1859H50.5031C48.9933 66.1859 47.7651 67.4278 47.7651 68.9545C47.7651 70.4812 48.9933 71.7231 50.5031 71.7231H70.0598C71.5696 71.7231 72.7977 70.4812 72.7977 68.9545C72.7977 67.4278 71.5696 66.1859 70.0598 66.1859Z" fill="#6C9EFF"/>
<path d="M52.8502 66.1859C53.4982 66.1859 54.0236 65.6546 54.0236 64.9993C54.0236 64.344 53.4982 63.8128 52.8502 63.8128C52.2021 63.8128 51.6768 64.344 51.6768 64.9993C51.6768 65.6546 52.2021 66.1859 52.8502 66.1859Z" fill="white"/>
<path d="M58.3257 66.1859C58.9738 66.1859 59.4991 65.6546 59.4991 64.9993C59.4991 64.344 58.9738 63.8128 58.3257 63.8128C57.6777 63.8128 57.1523 64.344 57.1523 64.9993C57.1523 65.6546 57.6777 66.1859 58.3257 66.1859Z" fill="white"/>
<path d="M63.8018 66.1859C64.4499 66.1859 64.9752 65.6546 64.9752 64.9993C64.9752 64.344 64.4499 63.8128 63.8018 63.8128C63.1538 63.8128 62.6284 64.344 62.6284 64.9993C62.6284 65.6546 63.1538 66.1859 63.8018 66.1859Z" fill="white"/>
<path d="M83.3585 69.7455V82.1173C83.3585 84.0237 81.8331 85.5662 79.9478 85.5662H39.8252C37.94 85.5662 36.4146 84.0237 36.4146 82.1173V16.2399C36.4146 14.3335 37.94 12.791 39.8252 12.791H79.94C81.8252 12.791 83.3507 14.3335 83.3507 16.2399V27.8207" stroke="#2B2B2B" stroke-width="2" stroke-linecap="round" stroke-linejoin="round"/>
<path d="M36.8135 19.5148H82.9673" stroke="#2B2B2B" stroke-width="2" stroke-linecap="round" stroke-linejoin="round"/>
<path d="M36.8135 78.8424H82.9673" stroke="#2B2B2B" stroke-width="2" stroke-linecap="round" stroke-linejoin="round"/>
<path d="M87.4967 66.3916L84.2112 68.7172C82.3885 70.0066 79.8774 69.5636 78.5945 67.7126C77.3116 65.8616 77.7575 63.3302 79.588 62.033L82.8735 59.7073C84.6962 58.4179 87.2073 58.8609 88.4902 60.7119C89.7653 62.555 89.3272 65.0943 87.4967 66.3916V66.3916Z" stroke="#2B2B2B" stroke-width="2" stroke-linecap="round" stroke-linejoin="round"/>
<path d="M87.4967 56.0211L84.2112 58.3467C82.3885 59.6361 79.8774 59.1931 78.5945 57.3421C77.3116 55.4911 77.7575 52.9598 79.588 51.6625L82.8735 49.3368C84.6962 48.0475 87.2073 48.4904 88.4902 50.3415C89.7653 52.1846 89.3272 54.7238 87.4967 56.0211V56.0211Z" stroke="#2B2B2B" stroke-width="2" stroke-linecap="round" stroke-linejoin="round"/>
<path d="M87.4967 45.6506L84.2112 47.9763C82.3885 49.2656 79.8774 48.8227 78.5945 46.9716C77.3116 45.1206 77.7575 42.5893 79.588 41.292L82.8735 38.9664C84.6962 37.677 87.2073 38.12 88.4902 39.971C89.7653 41.8141 89.3272 44.3533 87.4967 45.6506V45.6506Z" stroke="#2B2B2B" stroke-width="2" stroke-linecap="round" stroke-linejoin="round"/>
<path d="M87.4967 35.2802L84.2112 37.6058C82.3885 38.8952 79.8774 38.4522 78.5945 36.6012C77.3116 34.7502 77.7575 32.2188 79.588 30.9215L82.8735 28.5959C84.6962 27.3065 87.2073 27.7495 88.4902 29.6005C89.7653 31.4436 89.3272 33.9829 87.4967 35.2802V35.2802Z" stroke="#2B2B2B" stroke-width="2" stroke-linecap="round" stroke-linejoin="round"/>
<path d="M49.8696 96.8385L50.3859 95.913C51.3716 94.1331 52.7014 92.5669 54.2894 91.3092L61.3299 85.7403" stroke="#2B2B2B" stroke-width="2" stroke-linecap="round" stroke-linejoin="round"/>
<path d="M51.1916 98.4997L47.0925 105.666L18.7822 91.4199L22.8735 84.2531L51.1916 98.4997Z" stroke="#2B2B2B" stroke-width="2" stroke-linecap="round" stroke-linejoin="round"/>
<path d="M36.4224 40.4772V37.8035C36.4224 34.4733 33.7549 31.7759 30.4615 31.7759H28.9595C27.8957 31.7759 27.0352 32.646 27.0352 33.7218V51.1167C27.0352 52.7383 26.5658 54.3441 25.5958 55.6335C23.7027 58.149 22.5293 61.6216 22.5293 65.474C22.5293 68.82 23.4133 71.8813 24.8839 74.2782C26.4876 76.8807 26.6362 80.1397 25.2829 82.8846L24.3833 84.704" stroke="#2B2B2B" stroke-width="2" stroke-linecap="round" stroke-linejoin="round"/>
<path d="M63.4107 36.9176H58.4433C57.0665 36.9176 55.7836 36.2215 55.0169 35.0666L52.8813 35.9921" stroke="#2B2B2B" stroke-width="2" stroke-linecap="round" stroke-linejoin="round"/>
<path d="M44.6362 60.6486V54.3204C44.6362 50.824 47.4368 47.9921 50.8944 47.9921H54.0235" stroke="#2B2B2B" stroke-width="2" stroke-linecap="round" stroke-linejoin="round"/>
<path d="M61.8462 47.9921H64.9753C68.4329 47.9921 71.2334 50.824 71.2334 54.3204V60.6486" stroke="#2B2B2B" stroke-width="2" stroke-linecap="round" stroke-linejoin="round"/>
<path d="M52.459 57.4845V59.8576" stroke="#2B2B2B" stroke-width="2" stroke-linecap="round" stroke-linejoin="round"/>
<path d="M63.4106 57.4845V59.8576" stroke="#2B2B2B" stroke-width="2" stroke-linecap="round" stroke-linejoin="round"/>
<path d="M57.9346 57.4845V59.8576" stroke="#2B2B2B" stroke-width="2" stroke-linecap="round" stroke-linejoin="round"/>
<path d="M54.8057 44.8279V47.9921C54.8057 49.7403 56.2059 51.1562 57.9347 51.1562C59.6636 51.1562 61.0638 49.7403 61.0638 47.9921V44.8279" stroke="#2B2B2B" stroke-width="2" stroke-linecap="round" stroke-linejoin="round"/>
<path d="M57.9349 29.7983C54.9075 29.7983 52.459 32.2742 52.459 35.3355V40.0817C52.459 43.143 54.9075 45.619 57.9349 45.619C60.9622 45.619 63.4107 43.143 63.4107 40.0817V35.3355C63.4107 32.2742 60.9622 29.7983 57.9349 29.7983Z" stroke="#2B2B2B" stroke-width="2" stroke-linecap="round" stroke-linejoin="round"/>
<path d="M68.1042 70.1411C69.4028 70.1411 70.4511 69.0811 70.4511 67.768V66.9769C70.4511 65.6638 69.4028 64.6038 68.1042 64.6038H66.7118C67.0873 64.1846 67.322 63.6309 67.322 63.0218C67.322 61.7086 66.2737 60.6487 64.9752 60.6487H50.8943C49.5958 60.6487 48.5475 61.7086 48.5475 63.0218C48.5475 63.6309 48.7822 64.1846 49.1577 64.6038H47.7653C46.4667 64.6038 45.4185 65.6638 45.4185 66.9769V67.768C45.4185 69.0811 46.4667 70.1411 47.7653 70.1411" stroke="#2B2B2B" stroke-width="2" stroke-linecap="round" stroke-linejoin="round"/>
<path d="M43.854 70.1411H72.0157" stroke="#2B2B2B" stroke-width="2" stroke-linecap="round" stroke-linejoin="round"/>
</svg>
