<svg width="112" height="112" viewBox="0 0 112 112" fill="none" xmlns="http://www.w3.org/2000/svg">
<rect width="112" height="112" rx="24" fill="white"/>
<path d="M39.9917 91.6168V86.0841" stroke="#6C9EFF" stroke-width="2" stroke-linecap="round" stroke-linejoin="round"/>
<path d="M48.605 86.7757V91.6168" stroke="#6C9EFF" stroke-width="2" stroke-linecap="round" stroke-linejoin="round"/>
<path d="M58.6533 86.7757V91.6168" stroke="#6C9EFF" stroke-width="2" stroke-linecap="round" stroke-linejoin="round"/>
<path d="M67.2661 91.6168V86.0841" stroke="#6C9EFF" stroke-width="2" stroke-linecap="round" stroke-linejoin="round"/>
<path d="M88.7983 57.0374H94.5403C96.1265 57.0374 97.4112 55.7994 97.4112 54.271V49.4299C97.4112 47.9015 96.1265 46.6636 94.5403 46.6636C92.9541 46.6636 91.6693 47.9015 91.6693 49.4299C91.6693 50.9583 92.9541 52.1963 94.5403 52.1963H100.282" stroke="#6C9EFF" stroke-width="2" stroke-linecap="round" stroke-linejoin="round"/>
<path d="M17.7417 92.3084H94.5401" stroke="#2B2B2B" stroke-width="2" stroke-linecap="round" stroke-linejoin="round"/>
<path d="M29.5849 50.4673C30.3777 50.4673 31.0204 49.848 31.0204 49.0841C31.0204 48.3202 30.3777 47.7009 29.5849 47.7009C28.7921 47.7009 28.1494 48.3202 28.1494 49.0841C28.1494 49.848 28.7921 50.4673 29.5849 50.4673Z" fill="black"/>
<path d="M42.5543 29.8441C39.6833 30.3559 36.9631 31.2757 34.4438 32.5344C33.1088 28.6892 29.355 25.9159 24.9194 25.9159V40.0658C22.4791 43.0051 20.6345 46.4146 19.5507 50.1215H16.2778C14.3112 50.1215 12.7178 51.6568 12.7178 53.5518V61.9131C12.7178 63.808 14.3112 65.3434 16.2778 65.3434H19.5507C23.0245 77.2733 34.4366 86.091 47.8871 86.091H58.6533C74.8383 86.091 88.0807 73.3312 88.0807 57.7359C88.0807 44.4159 78.427 33.1707 65.5292 30.1692" stroke="#2B2B2B" stroke-width="2" stroke-linecap="round" stroke-linejoin="round"/>
<path d="M41.4272 39.7477H65.8305" stroke="#6C9EFF" stroke-width="2" stroke-linecap="round" stroke-linejoin="round"/>
<path d="M48.0305 39.4641C44.9227 37.5622 42.8628 34.215 42.8628 30.4112C42.8628 24.4912 47.8439 19.6916 53.9878 19.6916C60.1317 19.6916 65.1128 24.4912 65.1128 30.4112C65.1128 34.2841 62.9811 37.6729 59.7943 39.554" stroke="#6C9EFF" stroke-width="2" stroke-linecap="round" stroke-linejoin="round"/>
</svg>
