<svg width="40" height="40" viewBox="0 0 40 40" fill="none" xmlns="http://www.w3.org/2000/svg">
<rect width="40" height="40" rx="20" fill="white"/>
<g clip-path="url(#clip0_2311_36569)">
<path d="M32.1416 26.1142H32.0332V25.4127C32.3532 25.2068 32.5621 24.8585 32.5621 24.462V23.946C32.5621 23.3182 32.0332 22.8098 31.3799 22.8098H31.3641C30.7109 22.8098 30.1819 23.3182 30.1819 23.946V24.462C30.1819 24.8585 30.3909 25.2068 30.7109 25.4127V26.1142H30.6024C29.6398 26.1142 28.8596 26.8641 28.8596 27.7893V28.6561H33.8844V27.7893C33.8844 26.8641 33.1042 26.1142 32.1416 26.1142Z" fill="#E9E9E9"/>
<path d="M21.563 10.1005H21.4546V9.39899C21.7746 9.1931 21.9835 8.84487 21.9835 8.44834V7.93235C21.9835 7.30451 21.4546 6.79614 20.8013 6.79614H20.7855C20.1322 6.79614 19.6033 7.30451 19.6033 7.93235V8.44834C19.6033 8.84487 19.8122 9.1931 20.1322 9.39899V10.1005H20.0238C19.0612 10.1005 18.281 10.8504 18.281 11.7756V12.6424H23.3058V11.7756C23.3058 10.8504 22.5256 10.1005 21.563 10.1005Z" fill="#E9E9E9"/>
<path d="M10.7202 26.1142H10.6118V25.4127C10.9318 25.2068 11.1407 24.8585 11.1407 24.462V23.946C11.1407 23.3182 10.6118 22.8098 9.95856 22.8098H9.9427C9.28947 22.8098 8.76055 23.3182 8.76055 23.946V24.462C8.76055 24.8585 8.96947 25.2068 9.28947 25.4127V26.1142H9.18104C8.2184 26.1142 7.43823 26.8641 7.43823 27.7893V28.6561H12.463V27.7893C12.463 26.8641 11.6829 26.1142 10.7202 26.1142Z" fill="#E9E9E9"/>
<path d="M6.59448 19.2105C7.07845 14.991 9.67019 11.3816 13.3383 9.37354" stroke="#BBBBBB" stroke-linecap="round" stroke-linejoin="round"/>
<path d="M27.9341 31.1343C25.7073 32.6924 22.9648 33.6126 20.0002 33.6126C17.0355 33.6126 14.3116 32.7001 12.0901 31.1495" stroke="#BBBBBB" stroke-linecap="round" stroke-linejoin="round"/>
<path d="M26.8154 9.45996C30.4968 11.5366 33.062 15.2401 33.4402 19.5435" stroke="#BBBBBB" stroke-linecap="round" stroke-linejoin="round"/>
<path d="M10.3128 25.6057C11.2093 25.6057 11.934 26.3047 11.934 27.1639V28.1476H6.90918V27.1639C6.90918 26.3022 7.63645 25.6057 8.53034 25.6057" stroke="#BBBBBB" stroke-linecap="round" stroke-linejoin="round"/>
<path d="M9.46913 22.3013H9.37392C8.74186 22.3013 8.23145 22.7918 8.23145 23.3993V23.9738C8.23145 24.3678 8.44302 24.7109 8.76037 24.9117V25.443C8.76037 25.776 9.00897 26.0784 9.35277 26.1115C9.74946 26.1496 10.0827 25.8522 10.0827 25.4786V24.9117C10.4 24.7109 10.6116 24.3652 10.6116 23.9738V23.3993C10.6116 22.7918 10.1012 22.3013 9.46913 22.3013Z" stroke="#BBBBBB" stroke-linecap="round" stroke-linejoin="round"/>
<path d="M31.4698 25.6057C32.3663 25.6057 33.091 26.3047 33.091 27.1639V28.1476H28.0662V27.1639C28.0662 26.3022 28.7934 25.6057 29.6873 25.6057" stroke="#BBBBBB" stroke-linecap="round" stroke-linejoin="round"/>
<path d="M30.6261 22.3013H30.5309C29.8988 22.3013 29.3884 22.7918 29.3884 23.3993V23.9738C29.3884 24.3678 29.6 24.7109 29.9174 24.9117V25.443C29.9174 25.776 30.1659 26.0784 30.5097 26.1115C30.9064 26.1496 31.2397 25.8522 31.2397 25.4786V24.9117C31.557 24.7109 31.7686 24.3652 31.7686 23.9738V23.3993C31.7686 22.7918 31.2582 22.3013 30.6261 22.3013Z" stroke="#BBBBBB" stroke-linecap="round" stroke-linejoin="round"/>
<path d="M20.8914 9.59204C21.788 9.59204 22.5126 10.291 22.5126 11.1502V12.1339H17.4878V11.1502C17.4878 10.2885 18.2151 9.59204 19.109 9.59204" stroke="#BBBBBB" stroke-linecap="round" stroke-linejoin="round"/>
<path d="M20.0477 6.2876H19.9525C19.3205 6.2876 18.8101 6.77817 18.8101 7.38567V7.96013C18.8101 8.35412 19.0216 8.69727 19.339 8.89807V9.42932C19.339 9.7623 19.5876 10.0648 19.9314 10.0978C20.3281 10.1359 20.6613 9.83855 20.6613 9.4649V8.89807C20.9787 8.69727 21.1902 8.35157 21.1902 7.96013V7.38567C21.1902 6.77817 20.6798 6.2876 20.0477 6.2876Z" stroke="#BBBBBB" stroke-linecap="round" stroke-linejoin="round"/>
<path d="M16 17L24 25" stroke="#6C9EFF" stroke-width="3" stroke-linecap="round" stroke-linejoin="round"/>
<path d="M24 17L16 25" stroke="#6C9EFF" stroke-width="3" stroke-linecap="round" stroke-linejoin="round"/>
</g>
<defs>
<clipPath id="clip0_2311_36569">
<rect x="4" y="4" width="32" height="29.8667" fill="white"/>
</clipPath>
</defs>
</svg>
