<svg width="80" height="80" viewBox="0 0 80 80" fill="none" xmlns="http://www.w3.org/2000/svg">
<rect width="80" height="80" rx="24" fill="white"/>
<g clip-path="url(#clip0_1616_31021)">
<rect width="64" height="72" transform="translate(8 4)" fill="white"/>
<path d="M33.9369 14.0366H46.7369" stroke="#6C9EFF" stroke-width="2" stroke-linecap="round" stroke-linejoin="round"/>
<path d="M35.2842 17.4974H44.7158" stroke="#6C9EFF" stroke-width="2" stroke-linecap="round" stroke-linejoin="round"/>
<path d="M8.67371 75.294H70.6527" stroke="#2B2B2B" stroke-width="2" stroke-linecap="round" stroke-linejoin="round"/>
<path d="M45.0527 17.8435H46.6291C47.6194 17.8435 48.4211 17.0198 48.4211 16.0023V15.5386C48.4211 14.6318 47.7878 13.8843 46.9525 13.732L51.1158 4.6991H29.5579L33.7213 13.732C32.8859 13.8912 32.2527 14.6387 32.2527 15.5386V16.0023C32.2527 17.0198 33.0544 17.8435 34.0447 17.8435H35.6211C20.8472 20.9375 9.34741 36.2207 9.34741 55.214C9.34741 76.4291 23.4948 75.294 27.5369 75.294H53.1369C57.179 75.294 71.3264 76.4291 71.3264 55.214C71.3264 36.2207 59.8266 20.9375 45.0527 17.8435V17.8435Z" stroke="#2B2B2B" stroke-width="2" stroke-linecap="round" stroke-linejoin="round"/>
<path d="M36.4497 51.8638C35.7019 51.8638 34.9878 51.7462 34.3141 51.5039C33.6337 51.2617 33.0476 50.9294 32.5423 50.4933C32.0371 50.0642 31.6733 49.5658 31.4375 48.9982C31.323 48.7491 31.323 48.5137 31.4442 48.2991C31.5655 48.0846 31.7743 47.9461 32.064 47.8838C32.2729 47.8354 32.4817 47.87 32.6838 47.9807C32.8859 48.0984 33.0409 48.2645 33.1486 48.493C33.2901 48.7906 33.5192 49.0675 33.8425 49.3236C34.1659 49.5728 34.5499 49.7804 35.008 49.9327C35.4661 50.0919 35.9444 50.168 36.443 50.168C37.0021 50.168 37.5209 50.078 37.9924 49.8981C38.464 49.7181 38.848 49.4551 39.1377 49.1159C39.4274 48.7767 39.5756 48.3545 39.5756 47.8492C39.5756 47.2124 39.3331 46.6449 38.848 46.1396C38.363 45.6343 37.568 45.3228 36.4564 45.2051C35.008 45.0598 33.8695 44.6237 33.0409 43.89C32.2122 43.1563 31.7945 42.2495 31.7945 41.1697C31.7945 40.3807 32.0101 39.7023 32.4413 39.1555C32.8724 38.6018 33.4585 38.1865 34.1996 37.8958C34.9406 37.6051 35.7693 37.4666 36.6788 37.4666C37.3929 37.4666 38.0126 37.5704 38.5449 37.7712C39.0771 37.9719 39.5419 38.2557 39.9394 38.6156C40.3369 38.9756 40.6804 39.4047 40.9701 39.8961C41.1318 40.1592 41.1992 40.4084 41.1722 40.6437C41.1453 40.879 41.0308 41.059 40.8286 41.1905C40.6063 41.3359 40.3638 41.3636 40.1078 41.2805C39.8518 41.1974 39.6564 41.0382 39.5284 40.8098C39.3398 40.4637 39.1108 40.1661 38.848 39.9308C38.5785 39.6885 38.2619 39.5016 37.9049 39.3632C37.5411 39.2247 37.1166 39.1555 36.6249 39.1555C35.7625 39.1417 35.035 39.3078 34.4556 39.647C33.8695 39.9861 33.5798 40.5122 33.5798 41.2182C33.5798 41.5781 33.6674 41.9242 33.8493 42.2565C34.0312 42.5887 34.3613 42.8725 34.8463 43.1148C35.3314 43.357 36.0253 43.5231 36.9415 43.62C38.3293 43.7654 39.4139 44.2015 40.1886 44.9283C40.9634 45.655 41.3541 46.6102 41.3541 47.8008C41.3541 48.486 41.2194 49.0813 40.9432 49.5797C40.667 50.085 40.3032 50.5072 39.8383 50.8464C39.3735 51.1855 38.848 51.4416 38.2619 51.6147C37.6758 51.7808 37.0628 51.8638 36.4295 51.8638H36.4497Z" fill="#6C9EFF"/>
<path d="M36.6316 34.8018V37.5705" stroke="#6C9EFF" stroke-width="2" stroke-linecap="round" stroke-linejoin="round"/>
<path d="M36.6316 51.4139V54.1826" stroke="#6C9EFF" stroke-width="2" stroke-linecap="round" stroke-linejoin="round"/>
<path d="M36.2948 61.4505C45.2243 61.4505 52.4632 54.013 52.4632 44.8383C52.4632 35.6637 45.2243 28.2261 36.2948 28.2261C27.3652 28.2261 20.1263 35.6637 20.1263 44.8383C20.1263 54.013 27.3652 61.4505 36.2948 61.4505Z" stroke="#6C9EFF" stroke-width="2" stroke-linecap="round" stroke-linejoin="round"/>
<path d="M51.1158 75.294H27.5369C25.6842 75.294 24.1685 73.7366 24.1685 71.8331C24.1685 69.9296 25.6842 68.3723 27.5369 68.3723H51.1158C52.9685 68.3723 54.4842 69.9296 54.4842 71.8331C54.4842 73.7366 52.9685 75.294 51.1158 75.294Z" stroke="#2B2B2B" stroke-width="2" stroke-linecap="round" stroke-linejoin="round"/>
<path d="M45.7263 68.3722H22.1474C20.2947 68.3722 18.7789 66.8149 18.7789 64.9114C18.7789 63.0079 20.2947 61.4505 22.1474 61.4505H45.7263C47.5789 61.4505 49.0947 63.0079 49.0947 64.9114C49.0947 66.8149 47.5789 68.3722 45.7263 68.3722Z" stroke="#2B2B2B" stroke-width="2" stroke-linecap="round" stroke-linejoin="round"/>
</g>
<defs>
<clipPath id="clip0_1616_31021">
<rect width="64" height="72" fill="white" transform="translate(8 4)"/>
</clipPath>
</defs>
</svg>
