<svg width="80" height="80" viewBox="0 0 80 80" fill="none" xmlns="http://www.w3.org/2000/svg">
<rect width="80" height="80" rx="24" fill="white"/>
<g clip-path="url(#clip0_1616_30996)">
<path d="M27.9158 24.8264C33.4503 24.8264 37.9369 20.2975 37.9369 14.7107C37.9369 9.12399 33.4503 4.59503 27.9158 4.59503C22.3814 4.59503 17.8948 9.12399 17.8948 14.7107C17.8948 20.2975 22.3814 24.8264 27.9158 24.8264Z" stroke="#2B2B2B" stroke-width="2" stroke-linecap="round" stroke-linejoin="round"/>
<path d="M28.0102 19.1676C27.5386 19.1676 27.0906 19.0962 26.6603 18.9415C26.2299 18.7927 25.8586 18.5845 25.5403 18.3167C25.2219 18.0489 24.992 17.7395 24.8447 17.3884C24.7739 17.2337 24.7739 17.085 24.8447 16.9541C24.9213 16.8172 25.051 16.7339 25.2396 16.6982C25.3693 16.6684 25.5049 16.6863 25.6346 16.7577C25.7643 16.8291 25.8645 16.9362 25.9293 17.079C26.0177 17.2635 26.1651 17.4361 26.3655 17.5908C26.5659 17.7455 26.8135 17.8764 27.1024 17.9716C27.3912 18.0668 27.6918 18.1144 28.0102 18.1144C28.3638 18.1144 28.6939 18.0608 28.9887 17.9478C29.2893 17.8347 29.531 17.6741 29.7137 17.4599C29.8965 17.2456 29.9908 16.9838 29.9908 16.6744C29.9908 16.2817 29.8375 15.9246 29.531 15.6152C29.2245 15.2999 28.7234 15.1094 28.0219 15.0321C27.1083 14.9428 26.3891 14.6691 25.8645 14.2169C25.3398 13.7646 25.0805 13.1994 25.0805 12.527C25.0805 12.0331 25.216 11.6165 25.4931 11.2774C25.7643 10.9323 26.1356 10.6764 26.6072 10.4979C27.0788 10.3194 27.5975 10.2301 28.1752 10.2301C28.6232 10.2301 29.0182 10.2956 29.3542 10.4205C29.6902 10.5455 29.9849 10.724 30.2325 10.9442C30.48 11.1703 30.6982 11.4321 30.8868 11.7356C30.9929 11.9022 31.0342 12.0569 31.0165 12.1997C30.9988 12.3425 30.928 12.4556 30.7984 12.5389C30.6569 12.6281 30.5036 12.646 30.3445 12.5924C30.1794 12.5389 30.0615 12.4437 29.979 12.3008C29.8611 12.0866 29.7196 11.9022 29.5487 11.7534C29.3777 11.6046 29.1773 11.4856 28.9533 11.4023C28.7234 11.319 28.4523 11.2714 28.1457 11.2714C27.5975 11.2655 27.1436 11.3666 26.7723 11.5808C26.4009 11.7951 26.2182 12.1164 26.2182 12.5567C26.2182 12.7828 26.2771 12.997 26.3891 13.1994C26.5011 13.4017 26.7133 13.5802 27.0198 13.7289C27.3264 13.8777 27.7685 13.9848 28.3403 14.0443C29.2186 14.1336 29.9024 14.4013 30.3916 14.8536C30.8809 15.3058 31.1285 15.9008 31.1285 16.6387C31.1285 17.0612 31.04 17.4301 30.8691 17.7455C30.6982 18.0608 30.4624 18.3227 30.1735 18.5309C29.8788 18.7451 29.5487 18.8999 29.1773 19.007C28.8059 19.1081 28.4169 19.1617 28.0219 19.1617L28.0102 19.1676Z" fill="#6C9EFF"/>
<path d="M28.2106 9.05786V10.2479" stroke="#6C9EFF" stroke-width="2" stroke-linecap="round" stroke-linejoin="round"/>
<path d="M28.2106 19.1736V20.3637" stroke="#6C9EFF" stroke-width="2" stroke-linecap="round" stroke-linejoin="round"/>
<path d="M12.5895 75.405H67.4105" stroke="#2B2B2B" stroke-width="2" stroke-linecap="round" stroke-linejoin="round"/>
<path d="M26.4421 70.9421H53.5579" stroke="#6C9EFF" stroke-width="2" stroke-linecap="round" stroke-linejoin="round"/>
<path d="M22.3158 44.7603H57.6842" stroke="#6C9EFF" stroke-width="2" stroke-linecap="round" stroke-linejoin="round"/>
<path d="M52.6737 75.405C55.2791 75.405 57.3895 73.2747 57.3895 70.6446H53.9646L57.7549 45.0579H59.7473C60.3368 42.9693 58.7865 40.8926 56.6349 40.8926H23.365C21.2135 40.8926 19.6631 42.9693 20.2526 45.0579H22.245L26.0353 70.6446H22.6105C22.6105 73.2747 24.7208 75.405 27.3263 75.405" stroke="#2B2B2B" stroke-width="2" stroke-linecap="round" stroke-linejoin="round"/>
<path d="M21.7912 37.2271C26.5364 37.9828 31.1107 33.8889 31.1107 33.8889C31.1107 33.8889 27.9983 28.5752 23.2531 27.8195C18.5078 27.0638 13.9335 31.1577 13.9335 31.1577C13.9335 31.1577 17.0459 36.4714 21.7912 37.2271V37.2271Z" stroke="#6C9EFF" stroke-width="2" stroke-linecap="round" stroke-linejoin="round"/>
<path d="M34.8657 34.8529L31.5057 34.1329" stroke="#6C9EFF" stroke-width="2" stroke-linecap="round" stroke-linejoin="round"/>
<path d="M31.4526 24.2314L37.3474 40.2975" stroke="#2B2B2B" stroke-width="2" stroke-linecap="round" stroke-linejoin="round"/>
<path d="M52.0842 34.9421C56.9675 34.9421 60.9263 30.946 60.9263 26.0165C60.9263 21.087 56.9675 17.0909 52.0842 17.0909C47.2008 17.0909 43.2421 21.087 43.2421 26.0165C43.2421 30.946 47.2008 34.9421 52.0842 34.9421Z" stroke="#2B2B2B" stroke-width="2" stroke-linecap="round" stroke-linejoin="round"/>
<path d="M52.2669 31.0744C51.6303 31.0744 51.0349 30.9554 50.4808 30.7114C49.9267 30.4674 49.4433 30.1342 49.0307 29.6998C48.6181 29.2654 48.2939 28.7597 48.064 28.1825C47.8341 27.6053 47.7162 26.9745 47.7162 26.3021C47.7162 25.6297 47.8341 25.0168 48.064 24.4397C48.2939 23.8625 48.6181 23.3626 49.0307 22.9283C49.4433 22.4939 49.9267 22.1547 50.4749 21.9107C51.0231 21.6668 51.6244 21.5418 52.2669 21.5418C52.8741 21.5418 53.3928 21.6192 53.829 21.7798C54.2652 21.9405 54.7015 22.2023 55.1436 22.5653C55.2084 22.6129 55.2556 22.6605 55.2909 22.714C55.3263 22.7676 55.3499 22.8152 55.3617 22.8688C55.3734 22.9223 55.3793 22.9818 55.3793 23.0532C55.3793 23.202 55.3263 23.3269 55.2202 23.4281C55.1141 23.5292 54.9844 23.5828 54.837 23.5947C54.6897 23.6066 54.5423 23.559 54.4008 23.4459C54.112 23.1901 53.8113 22.9997 53.4989 22.8628C53.1865 22.7259 52.7798 22.6605 52.2669 22.6605C51.8012 22.6605 51.365 22.7557 50.9583 22.9461C50.5516 23.1365 50.192 23.3983 49.8796 23.7316C49.5671 24.0648 49.3254 24.4516 49.1545 24.8919C48.9836 25.3322 48.8951 25.8023 48.8951 26.3021C48.8951 26.802 48.9836 27.284 49.1545 27.7243C49.3254 28.1646 49.5671 28.5514 49.8796 28.8846C50.192 29.2178 50.5516 29.4797 50.9583 29.6641C51.365 29.8486 51.8012 29.9438 52.2669 29.9438C52.6678 29.9438 53.045 29.8724 53.4046 29.7355C53.7642 29.5987 54.1061 29.4023 54.4362 29.1583C54.5777 29.0572 54.7191 29.0096 54.8547 29.0215C54.9903 29.0334 55.1082 29.0869 55.2025 29.1881C55.2968 29.2892 55.344 29.4261 55.344 29.5987C55.344 29.676 55.3263 29.7534 55.2968 29.8307C55.2673 29.9081 55.2202 29.9735 55.1553 30.039C54.7309 30.3782 54.277 30.64 53.7937 30.8126C53.3103 30.9851 52.8033 31.0744 52.2669 31.0744Z" fill="#6C9EFF"/>
<path d="M47.9579 34.3471L43.8315 40.8926" stroke="#2B2B2B" stroke-width="2" stroke-linecap="round" stroke-linejoin="round"/>
<path d="M47.6632 24.5289H52.9685" stroke="#6C9EFF" stroke-width="2" stroke-linecap="round" stroke-linejoin="round"/>
<path d="M47.6632 27.5042H52.9685" stroke="#6C9EFF" stroke-width="2" stroke-linecap="round" stroke-linejoin="round"/>
</g>
<defs>
<clipPath id="clip0_1616_30996">
<rect width="56" height="72" fill="white" transform="translate(12 4)"/>
</clipPath>
</defs>
</svg>
