<svg width="112" height="112" viewBox="0 0 112 112" fill="none" xmlns="http://www.w3.org/2000/svg">
<rect width="112" height="112" rx="24" fill="white"/>
<path d="M78.6902 89.6L75.1268 86.3702L69.3261 96.2142L66.5844 93.1796L68.2278 79.7478L53.958 65.9986L40.6888 89.9498L37.9471 86.9152L42.5275 53.3559L31.4712 41.1281C30.6251 40.1925 30.023 39.0617 29.722 37.8332L28.6807 33.6027C28.2902 32.0244 29.8115 30.6495 31.341 31.1946L35.4414 32.6508C36.6292 33.0739 37.6949 33.7898 38.5491 34.7254L49.6054 46.9532L83.4495 45.7573L86.1912 48.7919L61.0359 59.5959L73.2881 75.1756L86.8176 74.8908L89.5593 77.9254L79.1864 82.7091L82.042 86.5735C82.7336 87.5091 82.6034 88.8108 81.741 89.5919C80.8786 90.3729 79.5688 90.3729 78.7064 89.5919L78.6902 89.6Z" fill="#6C9EFF"/>
<path d="M80.3171 85.5322L76.7537 82.3024L70.9531 92.1464L68.2114 89.1119L69.8547 75.68L55.5849 61.9308L42.3158 85.882L39.5741 82.8474L44.1544 49.2881L33.0981 37.0603C32.252 36.1247 31.65 34.9939 31.349 33.7654L30.3076 29.5349C29.9171 27.9566 31.4385 26.5817 32.968 27.1268L37.0683 28.583C38.2561 29.0061 39.3219 29.722 40.1761 30.6576L51.2324 42.8854L85.0764 41.6895L87.8181 44.7241L62.6629 55.5281L74.9151 71.1078L88.4446 70.823L91.1863 73.8576L80.8134 78.6413L83.669 82.5058C84.3605 83.4413 84.2303 84.743 83.368 85.5241C82.5056 86.3051 81.1958 86.3051 80.3334 85.5241L80.3171 85.5322Z" stroke="#2B2B2B" stroke-width="2" stroke-linecap="round" stroke-linejoin="round"/>
</svg>
